%TF.GenerationSoftware,Altium Limited,Altium Designer,26.10.1 (5)*%
G04 Layer_Color=32896*
G04 Board_Origin=74386096|43952041*
%FSLAX45Y45*%
%MOMM*%
%TF.SameCoordinates,9E1A2420-9DF8-4FB8-AA41-10CD80989974*%
%TF.FilePolarity,Positive*%
%TF.FileFunction,Legend,Bot*%
%TF.Part,Single*%
G01*
G75*
%TA.AperFunction,NonConductor*%
%ADD159C,0.15240*%
%ADD167C,0.07600*%
D159*
X672242Y5498006D02*
Y5431361D01*
X638920Y5398038D01*
X605597Y5431361D01*
Y5498006D01*
X522291Y5398038D02*
X555613D01*
X572275Y5414700D01*
Y5448022D01*
X555613Y5464684D01*
X522291D01*
X505630Y5448022D01*
Y5431361D01*
X572275D01*
X472307Y5464684D02*
Y5398038D01*
Y5431361D01*
X455646Y5448022D01*
X438984Y5464684D01*
X422323D01*
X272371Y5398038D02*
Y5414700D01*
X255710D01*
Y5398038D01*
X272371D01*
X189065Y5498006D02*
Y5431361D01*
X155742Y5398038D01*
X122420Y5431361D01*
Y5498006D01*
X39113Y5398038D02*
X72436D01*
X89097Y5414700D01*
Y5448022D01*
X72436Y5464684D01*
X39113D01*
X22452Y5448022D01*
Y5431361D01*
X89097D01*
X-10871Y5464684D02*
Y5398038D01*
Y5431361D01*
X-27532Y5448022D01*
X-44193Y5464684D01*
X-60855D01*
X-110838Y5398038D02*
Y5498006D01*
X-144161Y5464684D01*
X-177484Y5498006D01*
Y5398038D01*
X-227468Y5464684D02*
X-260790D01*
X-277451Y5448022D01*
Y5398038D01*
X-227468D01*
X-210806Y5414700D01*
X-227468Y5431361D01*
X-277451D01*
X-310774Y5464684D02*
Y5414700D01*
X-327435Y5398038D01*
X-377419D01*
Y5381377D01*
X-360758Y5364716D01*
X-344097D01*
X-377419Y5398038D02*
Y5464684D01*
X-410742Y5398038D02*
Y5414700D01*
X-427403D01*
Y5398038D01*
X-410742D01*
X-494048D02*
Y5414700D01*
X-510710D01*
Y5398038D01*
X-494048D01*
X-577355Y5498006D02*
Y5431361D01*
X-610677Y5398038D01*
X-644000Y5431361D01*
Y5498006D01*
X-727306Y5398038D02*
X-693984D01*
X-677322Y5414700D01*
Y5448022D01*
X-693984Y5464684D01*
X-727306D01*
X-743968Y5448022D01*
Y5431361D01*
X-677322D01*
X-777290Y5464684D02*
Y5398038D01*
Y5431361D01*
X-793952Y5448022D01*
X-810613Y5464684D01*
X-827274D01*
X-877258Y5398038D02*
Y5498006D01*
X-910581Y5464684D01*
X-943903Y5498006D01*
Y5398038D01*
X-977226D02*
X-1010548D01*
X-993887D01*
Y5464684D01*
X-977226D01*
X-1060532Y5398038D02*
Y5464684D01*
X-1110516D01*
X-1127177Y5448022D01*
Y5398038D01*
X-1260468D02*
Y5498006D01*
X-1310452D01*
X-1327113Y5481345D01*
Y5448022D01*
X-1310452Y5431361D01*
X-1260468D01*
X-1293790D02*
X-1327113Y5398038D01*
X-1410420D02*
X-1377097D01*
X-1360436Y5414700D01*
Y5448022D01*
X-1377097Y5464684D01*
X-1410420D01*
X-1427081Y5448022D01*
Y5431361D01*
X-1360436D01*
X-1460403Y5464684D02*
X-1493726Y5398038D01*
X-1527049Y5464684D01*
X-1660339Y5398038D02*
Y5414700D01*
X-1677000D01*
Y5398038D01*
X-1660339D01*
X-1743645D02*
Y5498006D01*
X-1793629D01*
X-1810291Y5481345D01*
Y5448022D01*
X-1793629Y5431361D01*
X-1743645D01*
X-1776968D02*
X-1810291Y5398038D01*
X-1893597D02*
X-1860275D01*
X-1843613Y5414700D01*
Y5448022D01*
X-1860275Y5464684D01*
X-1893597D01*
X-1910258Y5448022D01*
Y5431361D01*
X-1843613D01*
X-1943581Y5464684D02*
X-1976904Y5398038D01*
X-2010226Y5464684D01*
X472307Y5614684D02*
Y5514716D01*
Y5564700D01*
X405662D01*
Y5614684D01*
Y5514716D01*
X322355Y5614684D02*
X355678D01*
X372339Y5598023D01*
Y5531378D01*
X355678Y5514716D01*
X322355D01*
X305694Y5531378D01*
Y5598023D01*
X322355Y5614684D01*
X272371Y5514716D02*
Y5614684D01*
X222387D01*
X205726Y5598023D01*
Y5564700D01*
X222387Y5548039D01*
X272371D01*
X239049D02*
X205726Y5514716D01*
X172404D02*
Y5614684D01*
X105758Y5514716D01*
Y5614684D01*
X5791D02*
X72436D01*
Y5514716D01*
X5791D01*
X72436Y5564700D02*
X39113D01*
X-27532Y5614684D02*
X-94177D01*
X-60855D01*
Y5514716D01*
X-127500Y5564700D02*
X-194145D01*
X-227468Y5614684D02*
X-260790D01*
X-244129D01*
Y5514716D01*
X-227468D01*
X-260790D01*
X-310774D02*
Y5614684D01*
X-360758D01*
X-377419Y5598023D01*
Y5564700D01*
X-360758Y5548039D01*
X-310774D01*
X-477387Y5598023D02*
X-460726Y5614684D01*
X-427403D01*
X-410742Y5598023D01*
Y5531378D01*
X-427403Y5514716D01*
X-460726D01*
X-477387Y5531378D01*
Y5564700D01*
X-444064D01*
X3954640Y99011D02*
Y-53340D01*
X3878465D01*
X3853073Y-27948D01*
Y-2557D01*
X3878465Y22835D01*
X3954640D01*
X3878465D01*
X3853073Y48227D01*
Y73619D01*
X3878465Y99011D01*
X3954640D01*
X3726114D02*
X3776898D01*
X3802290Y73619D01*
Y-27948D01*
X3776898Y-53340D01*
X3726114D01*
X3700722Y-27948D01*
Y73619D01*
X3726114Y99011D01*
X3649939D02*
X3548372D01*
X3599155D01*
Y-53340D01*
X3497588Y99011D02*
X3396021D01*
X3446805D01*
Y-53340D01*
X3269062Y99011D02*
X3319846D01*
X3345237Y73619D01*
Y-27948D01*
X3319846Y-53340D01*
X3269062D01*
X3243670Y-27948D01*
Y73619D01*
X3269062Y99011D01*
X3192887Y-53340D02*
Y99011D01*
X3142103Y48227D01*
X3091319Y99011D01*
Y-53340D01*
D167*
X1612223Y1945314D02*
X1585565D01*
X1598894D01*
Y1905327D01*
X1572236D02*
Y1945314D01*
X1552242D01*
X1545578Y1938649D01*
Y1925320D01*
X1552242Y1918656D01*
X1572236D01*
X1532249Y1938649D02*
X1525584Y1945314D01*
X1512255D01*
X1505591Y1938649D01*
Y1931985D01*
X1512255Y1925320D01*
X1518920D01*
X1512255D01*
X1505591Y1918656D01*
Y1911991D01*
X1512255Y1905327D01*
X1525584D01*
X1532249Y1911991D01*
X1492262Y1938649D02*
X1485597Y1945314D01*
X1472268D01*
X1465604Y1938649D01*
Y1911991D01*
X1472268Y1905327D01*
X1485597D01*
X1492262Y1911991D01*
Y1938649D01*
X1425617Y1945314D02*
X1452275D01*
Y1925320D01*
X1438946Y1931985D01*
X1432281D01*
X1425617Y1925320D01*
Y1911991D01*
X1432281Y1905327D01*
X1445611D01*
X1452275Y1911991D01*
X1102638Y1945314D02*
X1075980D01*
X1089309D01*
Y1905327D01*
X1062651D02*
Y1945314D01*
X1042658D01*
X1035993Y1938649D01*
Y1925320D01*
X1042658Y1918656D01*
X1062651D01*
X1022664Y1938649D02*
X1016000Y1945314D01*
X1002671D01*
X996006Y1938649D01*
Y1931985D01*
X1002671Y1925320D01*
X1009335D01*
X1002671D01*
X996006Y1918656D01*
Y1911991D01*
X1002671Y1905327D01*
X1016000D01*
X1022664Y1911991D01*
X982677Y1938649D02*
X976013Y1945314D01*
X962684D01*
X956019Y1938649D01*
Y1911991D01*
X962684Y1905327D01*
X976013D01*
X982677Y1911991D01*
Y1938649D01*
X942690Y1905327D02*
X929361D01*
X936026D01*
Y1945314D01*
X942690Y1938649D01*
X601303Y2199314D02*
X574645D01*
X587974D01*
Y2159327D01*
X561316D02*
Y2199314D01*
X541322D01*
X534658Y2192649D01*
Y2179320D01*
X541322Y2172656D01*
X561316D01*
X521329Y2192649D02*
X514664Y2199314D01*
X501335D01*
X494671Y2192649D01*
Y2185985D01*
X501335Y2179320D01*
X508000D01*
X501335D01*
X494671Y2172656D01*
Y2165991D01*
X501335Y2159327D01*
X514664D01*
X521329Y2165991D01*
X481342Y2192649D02*
X474677Y2199314D01*
X461348D01*
X454684Y2192649D01*
Y2165991D01*
X461348Y2159327D01*
X474677D01*
X481342Y2165991D01*
Y2192649D01*
X441355D02*
X434691Y2199314D01*
X421361D01*
X414697Y2192649D01*
Y2165991D01*
X421361Y2159327D01*
X434691D01*
X441355Y2165991D01*
Y2192649D01*
X1363303Y4231314D02*
X1336645D01*
X1349974D01*
Y4191327D01*
X1323316D02*
Y4231314D01*
X1303323D01*
X1296658Y4224649D01*
Y4211320D01*
X1303323Y4204656D01*
X1323316D01*
X1263336Y4191327D02*
Y4231314D01*
X1283329Y4211320D01*
X1256671D01*
X1243342Y4224649D02*
X1236678Y4231314D01*
X1223349D01*
X1216684Y4224649D01*
Y4197991D01*
X1223349Y4191327D01*
X1236678D01*
X1243342Y4197991D01*
Y4224649D01*
X1176697Y4191327D02*
X1203355D01*
X1176697Y4217985D01*
Y4224649D01*
X1183362Y4231314D01*
X1196691D01*
X1203355Y4224649D01*
X1363303Y4485314D02*
X1336645D01*
X1349974D01*
Y4445327D01*
X1323316D02*
Y4485314D01*
X1303323D01*
X1296658Y4478649D01*
Y4465320D01*
X1303323Y4458656D01*
X1323316D01*
X1263336Y4445327D02*
Y4485314D01*
X1283329Y4465320D01*
X1256671D01*
X1243342Y4478649D02*
X1236678Y4485314D01*
X1223349D01*
X1216684Y4478649D01*
Y4451991D01*
X1223349Y4445327D01*
X1236678D01*
X1243342Y4451991D01*
Y4478649D01*
X1203355D02*
X1196691Y4485314D01*
X1183362D01*
X1176697Y4478649D01*
Y4451991D01*
X1183362Y4445327D01*
X1196691D01*
X1203355Y4451991D01*
Y4478649D01*
X-906036Y3215314D02*
X-932694D01*
X-919365D01*
Y3175327D01*
X-946023D02*
Y3215314D01*
X-966016D01*
X-972681Y3208649D01*
Y3195320D01*
X-966016Y3188656D01*
X-946023D01*
X-986010Y3175327D02*
X-999339D01*
X-992674D01*
Y3215314D01*
X-986010Y3208649D01*
X-1045990Y3215314D02*
X-1019332D01*
Y3195320D01*
X-1032661Y3201985D01*
X-1039326D01*
X-1045990Y3195320D01*
Y3181991D01*
X-1039326Y3175327D01*
X-1025997D01*
X-1019332Y3181991D01*
X-1059319Y3208649D02*
X-1065984Y3215314D01*
X-1079313D01*
X-1085977Y3208649D01*
Y3181991D01*
X-1079313Y3175327D01*
X-1065984D01*
X-1059319Y3181991D01*
Y3208649D01*
X-1125964Y3175327D02*
X-1099306D01*
X-1125964Y3201985D01*
Y3208649D01*
X-1119300Y3215314D01*
X-1105971D01*
X-1099306Y3208649D01*
X-658700Y3215314D02*
X-685359D01*
X-672029D01*
Y3175327D01*
X-698687D02*
Y3215314D01*
X-718681D01*
X-725346Y3208649D01*
Y3195320D01*
X-718681Y3188656D01*
X-698687D01*
X-738674Y3175327D02*
X-752003D01*
X-745339D01*
Y3215314D01*
X-738674Y3208649D01*
X-798655Y3215314D02*
X-771997D01*
Y3195320D01*
X-785326Y3201985D01*
X-791991D01*
X-798655Y3195320D01*
Y3181991D01*
X-791991Y3175327D01*
X-778661D01*
X-771997Y3181991D01*
X-811984Y3208649D02*
X-818648Y3215314D01*
X-831978D01*
X-838642Y3208649D01*
Y3181991D01*
X-831978Y3175327D01*
X-818648D01*
X-811984Y3181991D01*
Y3208649D01*
X-851971Y3175327D02*
X-865300D01*
X-858635D01*
Y3215314D01*
X-851971Y3208649D01*
X-398036Y3215314D02*
X-424694D01*
X-411365D01*
Y3175327D01*
X-438023D02*
Y3215314D01*
X-458017D01*
X-464681Y3208649D01*
Y3195320D01*
X-458017Y3188656D01*
X-438023D01*
X-478010Y3175327D02*
X-491339D01*
X-484674D01*
Y3215314D01*
X-478010Y3208649D01*
X-537991Y3215314D02*
X-511332D01*
Y3195320D01*
X-524661Y3201985D01*
X-531326D01*
X-537991Y3195320D01*
Y3181991D01*
X-531326Y3175327D01*
X-517997D01*
X-511332Y3181991D01*
X-551319Y3208649D02*
X-557984Y3215314D01*
X-571313D01*
X-577978Y3208649D01*
Y3181991D01*
X-571313Y3175327D01*
X-557984D01*
X-551319Y3181991D01*
Y3208649D01*
X-591306D02*
X-597971Y3215314D01*
X-611300D01*
X-617964Y3208649D01*
Y3181991D01*
X-611300Y3175327D01*
X-597971D01*
X-591306Y3181991D01*
Y3208649D01*
X1125964Y4485314D02*
X1099306D01*
X1112635D01*
Y4445327D01*
X1085977D02*
Y4485314D01*
X1065983D01*
X1059319Y4478649D01*
Y4465320D01*
X1065983Y4458656D01*
X1085977D01*
X1045990Y4445327D02*
X1032661D01*
X1039326D01*
Y4485314D01*
X1045990Y4478649D01*
X1012668D02*
X1006003Y4485314D01*
X992674D01*
X986009Y4478649D01*
Y4471985D01*
X992674Y4465320D01*
X999339D01*
X992674D01*
X986009Y4458656D01*
Y4451991D01*
X992674Y4445327D01*
X1006003D01*
X1012668Y4451991D01*
X972681Y4478649D02*
X966016Y4485314D01*
X952687D01*
X946022Y4478649D01*
Y4451991D01*
X952687Y4445327D01*
X966016D01*
X972681Y4451991D01*
Y4478649D01*
X906036Y4445327D02*
X932694D01*
X906036Y4471985D01*
Y4478649D01*
X912700Y4485314D01*
X926029D01*
X932694Y4478649D01*
X-1420700Y1437314D02*
X-1447359D01*
X-1434029D01*
Y1397327D01*
X-1460687D02*
Y1437314D01*
X-1480681D01*
X-1487346Y1430649D01*
Y1417320D01*
X-1480681Y1410656D01*
X-1460687D01*
X-1500674Y1397327D02*
X-1514003D01*
X-1507339D01*
Y1437314D01*
X-1500674Y1430649D01*
X-1533997Y1397327D02*
X-1547326D01*
X-1540661D01*
Y1437314D01*
X-1533997Y1430649D01*
X-1567319Y1397327D02*
X-1580648D01*
X-1573984D01*
Y1437314D01*
X-1567319Y1430649D01*
X-1627300Y1437314D02*
X-1600642D01*
Y1417320D01*
X-1613971Y1423985D01*
X-1620636D01*
X-1627300Y1417320D01*
Y1403991D01*
X-1620636Y1397327D01*
X-1607306D01*
X-1600642Y1403991D01*
X-1166700Y2199314D02*
X-1193359D01*
X-1180029D01*
Y2159327D01*
X-1206687D02*
Y2199314D01*
X-1226681D01*
X-1233346Y2192649D01*
Y2179320D01*
X-1226681Y2172656D01*
X-1206687D01*
X-1246674Y2159327D02*
X-1260003D01*
X-1253339D01*
Y2199314D01*
X-1246674Y2192649D01*
X-1279997Y2159327D02*
X-1293326D01*
X-1286661D01*
Y2199314D01*
X-1279997Y2192649D01*
X-1313319Y2159327D02*
X-1326648D01*
X-1319984D01*
Y2199314D01*
X-1313319Y2192649D01*
X-1366636Y2159327D02*
Y2199314D01*
X-1346642Y2179320D01*
X-1373300D01*
X-1166700Y1945314D02*
X-1193359D01*
X-1180029D01*
Y1905327D01*
X-1206687D02*
Y1945314D01*
X-1226681D01*
X-1233346Y1938649D01*
Y1925320D01*
X-1226681Y1918656D01*
X-1206687D01*
X-1246674Y1905327D02*
X-1260003D01*
X-1253339D01*
Y1945314D01*
X-1246674Y1938649D01*
X-1279997Y1905327D02*
X-1293326D01*
X-1286661D01*
Y1945314D01*
X-1279997Y1938649D01*
X-1313319Y1905327D02*
X-1326648D01*
X-1319984D01*
Y1945314D01*
X-1313319Y1938649D01*
X-1346642D02*
X-1353306Y1945314D01*
X-1366636D01*
X-1373300Y1938649D01*
Y1931985D01*
X-1366636Y1925320D01*
X-1359971D01*
X-1366636D01*
X-1373300Y1918656D01*
Y1911991D01*
X-1366636Y1905327D01*
X-1353306D01*
X-1346642Y1911991D01*
X-912700Y1437314D02*
X-939358D01*
X-926029D01*
Y1397327D01*
X-952687D02*
Y1437314D01*
X-972681D01*
X-979345Y1430649D01*
Y1417320D01*
X-972681Y1410656D01*
X-952687D01*
X-992674Y1397327D02*
X-1006003D01*
X-999339D01*
Y1437314D01*
X-992674Y1430649D01*
X-1025997Y1397327D02*
X-1039326D01*
X-1032661D01*
Y1437314D01*
X-1025997Y1430649D01*
X-1059319Y1397327D02*
X-1072648D01*
X-1065984D01*
Y1437314D01*
X-1059319Y1430649D01*
X-1119300Y1397327D02*
X-1092642D01*
X-1119300Y1423985D01*
Y1430649D01*
X-1112635Y1437314D01*
X-1099306D01*
X-1092642Y1430649D01*
X-1681365Y1945314D02*
X-1708023D01*
X-1694694D01*
Y1905327D01*
X-1721352D02*
Y1945314D01*
X-1741346D01*
X-1748010Y1938649D01*
Y1925320D01*
X-1741346Y1918656D01*
X-1721352D01*
X-1761339Y1905327D02*
X-1774668D01*
X-1768003D01*
Y1945314D01*
X-1761339Y1938649D01*
X-1794661Y1905327D02*
X-1807990D01*
X-1801326D01*
Y1945314D01*
X-1794661Y1938649D01*
X-1827984Y1905327D02*
X-1841313D01*
X-1834648D01*
Y1945314D01*
X-1827984Y1938649D01*
X-1861306Y1905327D02*
X-1874635D01*
X-1867971D01*
Y1945314D01*
X-1861306Y1938649D01*
X-1166700Y1437314D02*
X-1193359D01*
X-1180029D01*
Y1397327D01*
X-1206687D02*
Y1437314D01*
X-1226681D01*
X-1233346Y1430649D01*
Y1417320D01*
X-1226681Y1410656D01*
X-1206687D01*
X-1246674Y1397327D02*
X-1260003D01*
X-1253339D01*
Y1437314D01*
X-1246674Y1430649D01*
X-1279997Y1397327D02*
X-1293326D01*
X-1286661D01*
Y1437314D01*
X-1279997Y1430649D01*
X-1313319Y1397327D02*
X-1326648D01*
X-1319984D01*
Y1437314D01*
X-1313319Y1430649D01*
X-1346642D02*
X-1353306Y1437314D01*
X-1366636D01*
X-1373300Y1430649D01*
Y1403991D01*
X-1366636Y1397327D01*
X-1353306D01*
X-1346642Y1403991D01*
Y1430649D01*
X-909368Y1945314D02*
X-936026D01*
X-922697D01*
Y1905327D01*
X-949355D02*
Y1945314D01*
X-969349D01*
X-976013Y1938649D01*
Y1925320D01*
X-969349Y1918656D01*
X-949355D01*
X-989342Y1905327D02*
X-1002671D01*
X-996006D01*
Y1945314D01*
X-989342Y1938649D01*
X-1022664Y1905327D02*
X-1035993D01*
X-1029329D01*
Y1945314D01*
X-1022664Y1938649D01*
X-1055987D02*
X-1062651Y1945314D01*
X-1075981D01*
X-1082645Y1938649D01*
Y1911991D01*
X-1075981Y1905327D01*
X-1062651D01*
X-1055987Y1911991D01*
Y1938649D01*
X-1095974Y1911991D02*
X-1102638Y1905327D01*
X-1115968D01*
X-1122632Y1911991D01*
Y1938649D01*
X-1115968Y1945314D01*
X-1102638D01*
X-1095974Y1938649D01*
Y1931985D01*
X-1102638Y1925320D01*
X-1122632D01*
X-909368Y1691314D02*
X-936026D01*
X-922697D01*
Y1651327D01*
X-949355D02*
Y1691314D01*
X-969349D01*
X-976013Y1684649D01*
Y1671320D01*
X-969349Y1664656D01*
X-949355D01*
X-989342Y1651327D02*
X-1002671D01*
X-996006D01*
Y1691314D01*
X-989342Y1684649D01*
X-1022664Y1651327D02*
X-1035993D01*
X-1029329D01*
Y1691314D01*
X-1022664Y1684649D01*
X-1055987D02*
X-1062651Y1691314D01*
X-1075981D01*
X-1082645Y1684649D01*
Y1657991D01*
X-1075981Y1651327D01*
X-1062651D01*
X-1055987Y1657991D01*
Y1684649D01*
X-1095974D02*
X-1102638Y1691314D01*
X-1115968D01*
X-1122632Y1684649D01*
Y1677985D01*
X-1115968Y1671320D01*
X-1122632Y1664656D01*
Y1657991D01*
X-1115968Y1651327D01*
X-1102638D01*
X-1095974Y1657991D01*
Y1664656D01*
X-1102638Y1671320D01*
X-1095974Y1677985D01*
Y1684649D01*
X-1102638Y1671320D02*
X-1115968D01*
X-1163368Y1691314D02*
X-1190026D01*
X-1176697D01*
Y1651327D01*
X-1203355D02*
Y1691314D01*
X-1223349D01*
X-1230013Y1684649D01*
Y1671320D01*
X-1223349Y1664656D01*
X-1203355D01*
X-1243342Y1651327D02*
X-1256671D01*
X-1250007D01*
Y1691314D01*
X-1243342Y1684649D01*
X-1276665Y1651327D02*
X-1289994D01*
X-1283329D01*
Y1691314D01*
X-1276665Y1684649D01*
X-1309987D02*
X-1316652Y1691314D01*
X-1329981D01*
X-1336645Y1684649D01*
Y1657991D01*
X-1329981Y1651327D01*
X-1316652D01*
X-1309987Y1657991D01*
Y1684649D01*
X-1349974Y1691314D02*
X-1376632D01*
Y1684649D01*
X-1349974Y1657991D01*
Y1651327D01*
X-655368Y1945314D02*
X-682026D01*
X-668697D01*
Y1905327D01*
X-695355D02*
Y1945314D01*
X-715349D01*
X-722013Y1938649D01*
Y1925320D01*
X-715349Y1918656D01*
X-695355D01*
X-735342Y1905327D02*
X-748671D01*
X-742007D01*
Y1945314D01*
X-735342Y1938649D01*
X-768665Y1905327D02*
X-781994D01*
X-775329D01*
Y1945314D01*
X-768665Y1938649D01*
X-801987D02*
X-808652Y1945314D01*
X-821981D01*
X-828645Y1938649D01*
Y1911991D01*
X-821981Y1905327D01*
X-808652D01*
X-801987Y1911991D01*
Y1938649D01*
X-868632Y1945314D02*
X-841974D01*
Y1925320D01*
X-855303Y1931985D01*
X-861968D01*
X-868632Y1925320D01*
Y1911991D01*
X-861968Y1905327D01*
X-848639D01*
X-841974Y1911991D01*
X-1417368Y1691314D02*
X-1444026D01*
X-1430697D01*
Y1651327D01*
X-1457355D02*
Y1691314D01*
X-1477349D01*
X-1484013Y1684649D01*
Y1671320D01*
X-1477349Y1664656D01*
X-1457355D01*
X-1497342Y1651327D02*
X-1510671D01*
X-1504007D01*
Y1691314D01*
X-1497342Y1684649D01*
X-1530665Y1651327D02*
X-1543994D01*
X-1537329D01*
Y1691314D01*
X-1530665Y1684649D01*
X-1563987D02*
X-1570652Y1691314D01*
X-1583981D01*
X-1590645Y1684649D01*
Y1657991D01*
X-1583981Y1651327D01*
X-1570652D01*
X-1563987Y1657991D01*
Y1684649D01*
X-1623968Y1651327D02*
Y1691314D01*
X-1603974Y1671320D01*
X-1630632D01*
X1119300Y3977314D02*
X1092641D01*
X1105971D01*
Y3937327D01*
X1079313D02*
Y3977314D01*
X1059319D01*
X1052654Y3970649D01*
Y3957320D01*
X1059319Y3950656D01*
X1079313D01*
X1039326Y3937327D02*
X1025997D01*
X1032661D01*
Y3977314D01*
X1039326Y3970649D01*
X1006003D02*
X999339Y3977314D01*
X986009D01*
X979345Y3970649D01*
Y3943991D01*
X986009Y3937327D01*
X999339D01*
X1006003Y3943991D01*
Y3970649D01*
X939358Y3937327D02*
X966016D01*
X939358Y3963985D01*
Y3970649D01*
X946022Y3977314D01*
X959352D01*
X966016Y3970649D01*
X926029Y3937327D02*
X912700D01*
X919365D01*
Y3977314D01*
X926029Y3970649D01*
X109964Y3977314D02*
X83306D01*
X96635D01*
Y3937327D01*
X69977D02*
Y3977314D01*
X49983D01*
X43319Y3970649D01*
Y3957320D01*
X49983Y3950656D01*
X69977D01*
X29990Y3937327D02*
X16661D01*
X23326D01*
Y3977314D01*
X29990Y3970649D01*
X-3332D02*
X-9997Y3977314D01*
X-23326D01*
X-29991Y3970649D01*
Y3943991D01*
X-23326Y3937327D01*
X-9997D01*
X-3332Y3943991D01*
Y3970649D01*
X-69978Y3937327D02*
X-43319D01*
X-69978Y3963985D01*
Y3970649D01*
X-63313Y3977314D01*
X-49984D01*
X-43319Y3970649D01*
X-83306D02*
X-89971Y3977314D01*
X-103300D01*
X-109964Y3970649D01*
Y3943991D01*
X-103300Y3937327D01*
X-89971D01*
X-83306Y3943991D01*
Y3970649D01*
X868632Y3977314D02*
X841974D01*
X855303D01*
Y3937327D01*
X828645D02*
Y3977314D01*
X808651D01*
X801987Y3970649D01*
Y3957320D01*
X808651Y3950656D01*
X828645D01*
X788658Y3937327D02*
X775329D01*
X781993D01*
Y3977314D01*
X788658Y3970649D01*
X755335D02*
X748671Y3977314D01*
X735342D01*
X728677Y3970649D01*
Y3943991D01*
X735342Y3937327D01*
X748671D01*
X755335Y3943991D01*
Y3970649D01*
X715348Y3937327D02*
X702019D01*
X708684D01*
Y3977314D01*
X715348Y3970649D01*
X682026Y3943991D02*
X675361Y3937327D01*
X662032D01*
X655368Y3943991D01*
Y3970649D01*
X662032Y3977314D01*
X675361D01*
X682026Y3970649D01*
Y3963985D01*
X675361Y3957320D01*
X655368D01*
X106632Y4231314D02*
X79974D01*
X93303D01*
Y4191327D01*
X66645D02*
Y4231314D01*
X46651D01*
X39987Y4224649D01*
Y4211320D01*
X46651Y4204656D01*
X66645D01*
X26658Y4191327D02*
X13329D01*
X19993D01*
Y4231314D01*
X26658Y4224649D01*
X-6665D02*
X-13329Y4231314D01*
X-26658D01*
X-33323Y4224649D01*
Y4197991D01*
X-26658Y4191327D01*
X-13329D01*
X-6665Y4197991D01*
Y4224649D01*
X-46652Y4191327D02*
X-59981D01*
X-53316D01*
Y4231314D01*
X-46652Y4224649D01*
X-79974D02*
X-86639Y4231314D01*
X-99968D01*
X-106632Y4224649D01*
Y4217985D01*
X-99968Y4211320D01*
X-106632Y4204656D01*
Y4197991D01*
X-99968Y4191327D01*
X-86639D01*
X-79974Y4197991D01*
Y4204656D01*
X-86639Y4211320D01*
X-79974Y4217985D01*
Y4224649D01*
X-86639Y4211320D02*
X-99968D01*
X1376632Y3215314D02*
X1349974D01*
X1363303D01*
Y3175327D01*
X1336645D02*
Y3215314D01*
X1316651D01*
X1309987Y3208649D01*
Y3195320D01*
X1316651Y3188656D01*
X1336645D01*
X1296658Y3175327D02*
X1283329D01*
X1289994D01*
Y3215314D01*
X1296658Y3208649D01*
X1263336D02*
X1256671Y3215314D01*
X1243342D01*
X1236677Y3208649D01*
Y3181991D01*
X1243342Y3175327D01*
X1256671D01*
X1263336Y3181991D01*
Y3208649D01*
X1223349Y3175327D02*
X1210020D01*
X1216684D01*
Y3215314D01*
X1223349Y3208649D01*
X1190026Y3215314D02*
X1163368D01*
Y3208649D01*
X1190026Y3181991D01*
Y3175327D01*
X1122632Y3215314D02*
X1095974D01*
X1109303D01*
Y3175327D01*
X1082645D02*
Y3215314D01*
X1062651D01*
X1055987Y3208649D01*
Y3195320D01*
X1062651Y3188656D01*
X1082645D01*
X1042658Y3175327D02*
X1029329D01*
X1035993D01*
Y3215314D01*
X1042658Y3208649D01*
X1009335D02*
X1002671Y3215314D01*
X989342D01*
X982677Y3208649D01*
Y3181991D01*
X989342Y3175327D01*
X1002671D01*
X1009335Y3181991D01*
Y3208649D01*
X969348Y3175327D02*
X956019D01*
X962684D01*
Y3215314D01*
X969348Y3208649D01*
X909368Y3215314D02*
X922697Y3208649D01*
X936026Y3195320D01*
Y3181991D01*
X929361Y3175327D01*
X916032D01*
X909368Y3181991D01*
Y3188656D01*
X916032Y3195320D01*
X936026D01*
X360632Y3466774D02*
X333974D01*
X347303D01*
Y3426787D01*
X320645D02*
Y3466774D01*
X300651D01*
X293987Y3460109D01*
Y3446780D01*
X300651Y3440116D01*
X320645D01*
X280658Y3426787D02*
X267329D01*
X273993D01*
Y3466774D01*
X280658Y3460109D01*
X247335D02*
X240671Y3466774D01*
X227342D01*
X220677Y3460109D01*
Y3433451D01*
X227342Y3426787D01*
X240671D01*
X247335Y3433451D01*
Y3460109D01*
X207348Y3426787D02*
X194019D01*
X200684D01*
Y3466774D01*
X207348Y3460109D01*
X147368Y3466774D02*
X174026D01*
Y3446780D01*
X160697Y3453445D01*
X154032D01*
X147368Y3446780D01*
Y3433451D01*
X154032Y3426787D01*
X167361D01*
X174026Y3433451D01*
X599392Y3466774D02*
X572734D01*
X586063D01*
Y3426787D01*
X559405D02*
Y3466774D01*
X539411D01*
X532747Y3460109D01*
Y3446780D01*
X539411Y3440116D01*
X559405D01*
X519418Y3426787D02*
X506089D01*
X512754D01*
Y3466774D01*
X519418Y3460109D01*
X486096D02*
X479431Y3466774D01*
X466102D01*
X459437Y3460109D01*
Y3433451D01*
X466102Y3426787D01*
X479431D01*
X486096Y3433451D01*
Y3460109D01*
X446109Y3426787D02*
X432780D01*
X439444D01*
Y3466774D01*
X446109Y3460109D01*
X392792Y3426787D02*
Y3466774D01*
X412786Y3446780D01*
X386128D01*
X614632Y3723314D02*
X587974D01*
X601303D01*
Y3683327D01*
X574645D02*
Y3723314D01*
X554651D01*
X547987Y3716649D01*
Y3703320D01*
X554651Y3696656D01*
X574645D01*
X534658Y3683327D02*
X521329D01*
X527994D01*
Y3723314D01*
X534658Y3716649D01*
X501336D02*
X494671Y3723314D01*
X481342D01*
X474677Y3716649D01*
Y3689991D01*
X481342Y3683327D01*
X494671D01*
X501336Y3689991D01*
Y3716649D01*
X461349Y3683327D02*
X448020D01*
X454684D01*
Y3723314D01*
X461349Y3716649D01*
X428026D02*
X421362Y3723314D01*
X408032D01*
X401368Y3716649D01*
Y3709985D01*
X408032Y3703320D01*
X414697D01*
X408032D01*
X401368Y3696656D01*
Y3689991D01*
X408032Y3683327D01*
X421362D01*
X428026Y3689991D01*
X1122632Y3466774D02*
X1095974D01*
X1109303D01*
Y3426787D01*
X1082645D02*
Y3466774D01*
X1062651D01*
X1055987Y3460109D01*
Y3446780D01*
X1062651Y3440116D01*
X1082645D01*
X1042658Y3426787D02*
X1029329D01*
X1035993D01*
Y3466774D01*
X1042658Y3460109D01*
X1009335D02*
X1002671Y3466774D01*
X989342D01*
X982677Y3460109D01*
Y3433451D01*
X989342Y3426787D01*
X1002671D01*
X1009335Y3433451D01*
Y3460109D01*
X969348Y3426787D02*
X956019D01*
X962684D01*
Y3466774D01*
X969348Y3460109D01*
X909368Y3426787D02*
X936026D01*
X909368Y3453445D01*
Y3460109D01*
X916032Y3466774D01*
X929361D01*
X936026Y3460109D01*
X353967Y2961314D02*
X327309D01*
X340638D01*
Y2921327D01*
X313980D02*
Y2961314D01*
X293987D01*
X287322Y2954649D01*
Y2941320D01*
X293987Y2934656D01*
X313980D01*
X273993Y2921327D02*
X260664D01*
X267329D01*
Y2961314D01*
X273993Y2954649D01*
X240671D02*
X234006Y2961314D01*
X220677D01*
X214013Y2954649D01*
Y2927991D01*
X220677Y2921327D01*
X234006D01*
X240671Y2927991D01*
Y2954649D01*
X200684Y2921327D02*
X187355D01*
X194019D01*
Y2961314D01*
X200684Y2954649D01*
X167361Y2921327D02*
X154032D01*
X160697D01*
Y2961314D01*
X167361Y2954649D01*
X1122632Y2961314D02*
X1095974D01*
X1109303D01*
Y2921327D01*
X1082645D02*
Y2961314D01*
X1062651D01*
X1055987Y2954649D01*
Y2941320D01*
X1062651Y2934656D01*
X1082645D01*
X1042658Y2921327D02*
X1029329D01*
X1035993D01*
Y2961314D01*
X1042658Y2954649D01*
X1009335D02*
X1002671Y2961314D01*
X989342D01*
X982677Y2954649D01*
Y2927991D01*
X989342Y2921327D01*
X1002671D01*
X1009335Y2927991D01*
Y2954649D01*
X969348Y2921327D02*
X956019D01*
X962684D01*
Y2961314D01*
X969348Y2954649D01*
X936026D02*
X929361Y2961314D01*
X916032D01*
X909368Y2954649D01*
Y2927991D01*
X916032Y2921327D01*
X929361D01*
X936026Y2927991D01*
Y2954649D01*
X1633964Y2961314D02*
X1607306D01*
X1620635D01*
Y2921327D01*
X1593977D02*
Y2961314D01*
X1573984D01*
X1567319Y2954649D01*
Y2941320D01*
X1573984Y2934656D01*
X1593977D01*
X1553990Y2921327D02*
X1540661D01*
X1547326D01*
Y2961314D01*
X1553990Y2954649D01*
X1520668D02*
X1514003Y2961314D01*
X1500674D01*
X1494010Y2954649D01*
Y2927991D01*
X1500674Y2921327D01*
X1514003D01*
X1520668Y2927991D01*
Y2954649D01*
X1480681D02*
X1474016Y2961314D01*
X1460687D01*
X1454023Y2954649D01*
Y2927991D01*
X1460687Y2921327D01*
X1474016D01*
X1480681Y2927991D01*
Y2954649D01*
X1440694Y2927991D02*
X1434029Y2921327D01*
X1420700D01*
X1414036Y2927991D01*
Y2954649D01*
X1420700Y2961314D01*
X1434029D01*
X1440694Y2954649D01*
Y2947985D01*
X1434029Y2941320D01*
X1414036D01*
X871964Y3466774D02*
X845306D01*
X858635D01*
Y3426787D01*
X831977D02*
Y3466774D01*
X811983D01*
X805319Y3460109D01*
Y3446780D01*
X811983Y3440116D01*
X831977D01*
X791990Y3426787D02*
X778661D01*
X785326D01*
Y3466774D01*
X791990Y3460109D01*
X758668D02*
X752003Y3466774D01*
X738674D01*
X732009Y3460109D01*
Y3433451D01*
X738674Y3426787D01*
X752003D01*
X758668Y3433451D01*
Y3460109D01*
X718681D02*
X712016Y3466774D01*
X698687D01*
X692022Y3460109D01*
Y3433451D01*
X698687Y3426787D01*
X712016D01*
X718681Y3433451D01*
Y3460109D01*
X678694D02*
X672029Y3466774D01*
X658700D01*
X652036Y3460109D01*
Y3453445D01*
X658700Y3446780D01*
X652036Y3440116D01*
Y3433451D01*
X658700Y3426787D01*
X672029D01*
X678694Y3433451D01*
Y3440116D01*
X672029Y3446780D01*
X678694Y3453445D01*
Y3460109D01*
X672029Y3446780D02*
X658700D01*
X871964Y3723314D02*
X845306D01*
X858635D01*
Y3683327D01*
X831977D02*
Y3723314D01*
X811983D01*
X805319Y3716649D01*
Y3703320D01*
X811983Y3696656D01*
X831977D01*
X791990Y3683327D02*
X778661D01*
X785326D01*
Y3723314D01*
X791990Y3716649D01*
X758668D02*
X752003Y3723314D01*
X738674D01*
X732009Y3716649D01*
Y3689991D01*
X738674Y3683327D01*
X752003D01*
X758668Y3689991D01*
Y3716649D01*
X718681D02*
X712016Y3723314D01*
X698687D01*
X692022Y3716649D01*
Y3689991D01*
X698687Y3683327D01*
X712016D01*
X718681Y3689991D01*
Y3716649D01*
X678694Y3723314D02*
X652036D01*
Y3716649D01*
X678694Y3689991D01*
Y3683327D01*
X109964Y3466774D02*
X83306D01*
X96635D01*
Y3426787D01*
X69977D02*
Y3466774D01*
X49983D01*
X43319Y3460109D01*
Y3446780D01*
X49983Y3440116D01*
X69977D01*
X29990Y3426787D02*
X16661D01*
X23326D01*
Y3466774D01*
X29990Y3460109D01*
X-3332D02*
X-9997Y3466774D01*
X-23326D01*
X-29991Y3460109D01*
Y3433451D01*
X-23326Y3426787D01*
X-9997D01*
X-3332Y3433451D01*
Y3460109D01*
X-43319D02*
X-49984Y3466774D01*
X-63313D01*
X-69978Y3460109D01*
Y3433451D01*
X-63313Y3426787D01*
X-49984D01*
X-43319Y3433451D01*
Y3460109D01*
X-109964Y3466774D02*
X-96635Y3460109D01*
X-83306Y3446780D01*
Y3433451D01*
X-89971Y3426787D01*
X-103300D01*
X-109964Y3433451D01*
Y3440116D01*
X-103300Y3446780D01*
X-83306D01*
X-418029Y2453314D02*
X-444687D01*
X-431358D01*
Y2413327D01*
X-458016D02*
Y2453314D01*
X-478010D01*
X-484674Y2446649D01*
Y2433320D01*
X-478010Y2426656D01*
X-458016D01*
X-498003Y2419991D02*
X-504668Y2413327D01*
X-517997D01*
X-524661Y2419991D01*
Y2446649D01*
X-517997Y2453314D01*
X-504668D01*
X-498003Y2446649D01*
Y2439985D01*
X-504668Y2433320D01*
X-524661D01*
X-537990Y2413327D02*
X-551319D01*
X-544655D01*
Y2453314D01*
X-537990Y2446649D01*
X-571313D02*
X-577977Y2453314D01*
X-591306D01*
X-597971Y2446649D01*
Y2419991D01*
X-591306Y2413327D01*
X-577977D01*
X-571313Y2419991D01*
Y2446649D01*
X-668697Y2961314D02*
X-695355D01*
X-682026D01*
Y2921327D01*
X-708684D02*
Y2961314D01*
X-728678D01*
X-735342Y2954649D01*
Y2941320D01*
X-728678Y2934656D01*
X-708684D01*
X-748671Y2927991D02*
X-755336Y2921327D01*
X-768665D01*
X-775329Y2927991D01*
Y2954649D01*
X-768665Y2961314D01*
X-755336D01*
X-748671Y2954649D01*
Y2947985D01*
X-755336Y2941320D01*
X-775329D01*
X-788658Y2954649D02*
X-795323Y2961314D01*
X-808652D01*
X-815316Y2954649D01*
Y2927991D01*
X-808652Y2921327D01*
X-795323D01*
X-788658Y2927991D01*
Y2954649D01*
X-828645Y2927991D02*
X-835309Y2921327D01*
X-848639D01*
X-855303Y2927991D01*
Y2954649D01*
X-848639Y2961314D01*
X-835309D01*
X-828645Y2954649D01*
Y2947985D01*
X-835309Y2941320D01*
X-855303D01*
X-922697Y2961314D02*
X-949355D01*
X-936026D01*
Y2921327D01*
X-962684D02*
Y2961314D01*
X-982677D01*
X-989342Y2954649D01*
Y2941320D01*
X-982677Y2934656D01*
X-962684D01*
X-1002671Y2927991D02*
X-1009335Y2921327D01*
X-1022664D01*
X-1029329Y2927991D01*
Y2954649D01*
X-1022664Y2961314D01*
X-1009335D01*
X-1002671Y2954649D01*
Y2947985D01*
X-1009335Y2941320D01*
X-1029329D01*
X-1042658Y2954649D02*
X-1049322Y2961314D01*
X-1062651D01*
X-1069316Y2954649D01*
Y2927991D01*
X-1062651Y2921327D01*
X-1049322D01*
X-1042658Y2927991D01*
Y2954649D01*
X-1082645D02*
X-1089309Y2961314D01*
X-1102638D01*
X-1109303Y2954649D01*
Y2947985D01*
X-1102638Y2941320D01*
X-1109303Y2934656D01*
Y2927991D01*
X-1102638Y2921327D01*
X-1089309D01*
X-1082645Y2927991D01*
Y2934656D01*
X-1089309Y2941320D01*
X-1082645Y2947985D01*
Y2954649D01*
X-1089309Y2941320D02*
X-1102638D01*
X-668697Y2707314D02*
X-695355D01*
X-682026D01*
Y2667327D01*
X-708684D02*
Y2707314D01*
X-728678D01*
X-735342Y2700649D01*
Y2687320D01*
X-728678Y2680656D01*
X-708684D01*
X-748671Y2673991D02*
X-755336Y2667327D01*
X-768665D01*
X-775329Y2673991D01*
Y2700649D01*
X-768665Y2707314D01*
X-755336D01*
X-748671Y2700649D01*
Y2693985D01*
X-755336Y2687320D01*
X-775329D01*
X-788658Y2700649D02*
X-795323Y2707314D01*
X-808652D01*
X-815316Y2700649D01*
Y2673991D01*
X-808652Y2667327D01*
X-795323D01*
X-788658Y2673991D01*
Y2700649D01*
X-828645Y2707314D02*
X-855303D01*
Y2700649D01*
X-828645Y2673991D01*
Y2667327D01*
X-158157Y3215314D02*
X-184815D01*
X-171486D01*
Y3175327D01*
X-198144D02*
Y3215314D01*
X-218138D01*
X-224802Y3208649D01*
Y3195320D01*
X-218138Y3188656D01*
X-198144D01*
X-238131Y3181991D02*
X-244796Y3175327D01*
X-258125D01*
X-264789Y3181991D01*
Y3208649D01*
X-258125Y3215314D01*
X-244796D01*
X-238131Y3208649D01*
Y3201985D01*
X-244796Y3195320D01*
X-264789D01*
X-278118Y3208649D02*
X-284783Y3215314D01*
X-298112D01*
X-304776Y3208649D01*
Y3181991D01*
X-298112Y3175327D01*
X-284783D01*
X-278118Y3181991D01*
Y3208649D01*
X-344763Y3215314D02*
X-331434Y3208649D01*
X-318105Y3195320D01*
Y3181991D01*
X-324769Y3175327D01*
X-338099D01*
X-344763Y3181991D01*
Y3188656D01*
X-338099Y3195320D01*
X-318105D01*
X93303Y3215314D02*
X66645D01*
X79974D01*
Y3175327D01*
X53316D02*
Y3215314D01*
X33322D01*
X26658Y3208649D01*
Y3195320D01*
X33322Y3188656D01*
X53316D01*
X13329Y3181991D02*
X6664Y3175327D01*
X-6665D01*
X-13329Y3181991D01*
Y3208649D01*
X-6665Y3215314D01*
X6664D01*
X13329Y3208649D01*
Y3201985D01*
X6664Y3195320D01*
X-13329D01*
X-26658Y3208649D02*
X-33323Y3215314D01*
X-46652D01*
X-53316Y3208649D01*
Y3181991D01*
X-46652Y3175327D01*
X-33323D01*
X-26658Y3181991D01*
Y3208649D01*
X-93303Y3215314D02*
X-66645D01*
Y3195320D01*
X-79974Y3201985D01*
X-86639D01*
X-93303Y3195320D01*
Y3181991D01*
X-86639Y3175327D01*
X-73309D01*
X-66645Y3181991D01*
X-922697Y2453314D02*
X-949355D01*
X-936026D01*
Y2413327D01*
X-962684D02*
Y2453314D01*
X-982677D01*
X-989342Y2446649D01*
Y2433320D01*
X-982677Y2426656D01*
X-962684D01*
X-1002671Y2419991D02*
X-1009335Y2413327D01*
X-1022664D01*
X-1029329Y2419991D01*
Y2446649D01*
X-1022664Y2453314D01*
X-1009335D01*
X-1002671Y2446649D01*
Y2439985D01*
X-1009335Y2433320D01*
X-1029329D01*
X-1042658Y2446649D02*
X-1049322Y2453314D01*
X-1062651D01*
X-1069316Y2446649D01*
Y2419991D01*
X-1062651Y2413327D01*
X-1049322D01*
X-1042658Y2419991D01*
Y2446649D01*
X-1102638Y2413327D02*
Y2453314D01*
X-1082645Y2433320D01*
X-1109303D01*
X851971Y2961314D02*
X825313D01*
X838642D01*
Y2921327D01*
X811984D02*
Y2961314D01*
X791990D01*
X785326Y2954649D01*
Y2941320D01*
X791990Y2934656D01*
X811984D01*
X771997Y2961314D02*
X745339D01*
Y2954649D01*
X771997Y2927991D01*
Y2921327D01*
X732010D02*
X718681D01*
X725345D01*
Y2961314D01*
X732010Y2954649D01*
X678694Y2921327D02*
Y2961314D01*
X698687Y2941320D01*
X672029D01*
X-418029Y1945314D02*
X-444687D01*
X-431358D01*
Y1905327D01*
X-458016D02*
Y1945314D01*
X-478010D01*
X-484674Y1938649D01*
Y1925320D01*
X-478010Y1918656D01*
X-458016D01*
X-498003Y1945314D02*
X-524661D01*
Y1938649D01*
X-498003Y1911991D01*
Y1905327D01*
X-537990D02*
X-551319D01*
X-544655D01*
Y1945314D01*
X-537990Y1938649D01*
X-571313D02*
X-577977Y1945314D01*
X-591306D01*
X-597971Y1938649D01*
Y1931985D01*
X-591306Y1925320D01*
X-584642D01*
X-591306D01*
X-597971Y1918656D01*
Y1911991D01*
X-591306Y1905327D01*
X-577977D01*
X-571313Y1911991D01*
X-672029Y936934D02*
X-698687D01*
X-685358D01*
Y896947D01*
X-712016D02*
Y936934D01*
X-732010D01*
X-738674Y930269D01*
Y916940D01*
X-732010Y910276D01*
X-712016D01*
X-778661Y936934D02*
X-752003D01*
Y916940D01*
X-765332Y923605D01*
X-771997D01*
X-778661Y916940D01*
Y903611D01*
X-771997Y896947D01*
X-758668D01*
X-752003Y903611D01*
X-791990Y896947D02*
X-805319D01*
X-798655D01*
Y936934D01*
X-791990Y930269D01*
X-851971Y936934D02*
X-825313D01*
Y916940D01*
X-838642Y923605D01*
X-845306D01*
X-851971Y916940D01*
Y903611D01*
X-845306Y896947D01*
X-831977D01*
X-825313Y903611D01*
X-161489Y1691314D02*
X-188147D01*
X-174818D01*
Y1651327D01*
X-201476D02*
Y1691314D01*
X-221470D01*
X-228134Y1684649D01*
Y1671320D01*
X-221470Y1664656D01*
X-201476D01*
X-268121Y1691314D02*
X-241463D01*
Y1671320D01*
X-254792Y1677985D01*
X-261457D01*
X-268121Y1671320D01*
Y1657991D01*
X-261457Y1651327D01*
X-248128D01*
X-241463Y1657991D01*
X-281450Y1651327D02*
X-294779D01*
X-288115D01*
Y1691314D01*
X-281450Y1684649D01*
X-334766Y1651327D02*
Y1691314D01*
X-314773Y1671320D01*
X-341431D01*
X-1180029Y1183314D02*
X-1206687D01*
X-1193358D01*
Y1143327D01*
X-1220016D02*
Y1183314D01*
X-1240010D01*
X-1246674Y1176649D01*
Y1163320D01*
X-1240010Y1156656D01*
X-1220016D01*
X-1286661Y1183314D02*
X-1260003D01*
Y1163320D01*
X-1273332Y1169985D01*
X-1279997D01*
X-1286661Y1163320D01*
Y1149991D01*
X-1279997Y1143327D01*
X-1266668D01*
X-1260003Y1149991D01*
X-1299990Y1143327D02*
X-1313319D01*
X-1306655D01*
Y1183314D01*
X-1299990Y1176649D01*
X-1333313D02*
X-1339977Y1183314D01*
X-1353306D01*
X-1359971Y1176649D01*
Y1169985D01*
X-1353306Y1163320D01*
X-1346642D01*
X-1353306D01*
X-1359971Y1156656D01*
Y1149991D01*
X-1353306Y1143327D01*
X-1339977D01*
X-1333313Y1149991D01*
X1605011Y3466774D02*
X1578353D01*
X1591682D01*
Y3426787D01*
X1565024D02*
Y3466774D01*
X1545030D01*
X1538366Y3460109D01*
Y3446780D01*
X1545030Y3440116D01*
X1565024D01*
X1505043Y3426787D02*
Y3466774D01*
X1525037Y3446780D01*
X1498379D01*
X1485050Y3460109D02*
X1478386Y3466774D01*
X1465057D01*
X1458392Y3460109D01*
Y3433451D01*
X1465057Y3426787D01*
X1478386D01*
X1485050Y3433451D01*
Y3460109D01*
X1418405Y3466774D02*
X1431734Y3460109D01*
X1445063Y3446780D01*
Y3433451D01*
X1438399Y3426787D01*
X1425070D01*
X1418405Y3433451D01*
Y3440116D01*
X1425070Y3446780D01*
X1445063D01*
X1632464Y4231314D02*
X1605806D01*
X1619135D01*
Y4191327D01*
X1592477D02*
Y4231314D01*
X1572484D01*
X1565819Y4224649D01*
Y4211320D01*
X1572484Y4204656D01*
X1592477D01*
X1552490Y4191327D02*
X1539161D01*
X1545826D01*
Y4231314D01*
X1552490Y4224649D01*
X1499174Y4191327D02*
Y4231314D01*
X1519168Y4211320D01*
X1492510D01*
X1479181Y4224649D02*
X1472516Y4231314D01*
X1459187D01*
X1452523Y4224649D01*
Y4197991D01*
X1459187Y4191327D01*
X1472516D01*
X1479181Y4197991D01*
Y4224649D01*
X1412536Y4231314D02*
X1425865Y4224649D01*
X1439194Y4211320D01*
Y4197991D01*
X1432529Y4191327D01*
X1419200D01*
X1412536Y4197991D01*
Y4204656D01*
X1419200Y4211320D01*
X1439194D01*
X1633964Y3723314D02*
X1607306D01*
X1620635D01*
Y3683327D01*
X1593977D02*
Y3723314D01*
X1573984D01*
X1567319Y3716649D01*
Y3703320D01*
X1573984Y3696656D01*
X1593977D01*
X1553990Y3683327D02*
X1540661D01*
X1547326D01*
Y3723314D01*
X1553990Y3716649D01*
X1500674Y3683327D02*
Y3723314D01*
X1520668Y3703320D01*
X1494010D01*
X1480681Y3716649D02*
X1474016Y3723314D01*
X1460687D01*
X1454023Y3716649D01*
Y3689991D01*
X1460687Y3683327D01*
X1474016D01*
X1480681Y3689991D01*
Y3716649D01*
X1414036Y3723314D02*
X1440694D01*
Y3703320D01*
X1427365Y3709985D01*
X1420700D01*
X1414036Y3703320D01*
Y3689991D01*
X1420700Y3683327D01*
X1434029D01*
X1440694Y3689991D01*
X1864638Y3466774D02*
X1837980D01*
X1851309D01*
Y3426787D01*
X1824651D02*
Y3466774D01*
X1804658D01*
X1797993Y3460109D01*
Y3446780D01*
X1804658Y3440116D01*
X1824651D01*
X1764671Y3426787D02*
Y3466774D01*
X1784664Y3446780D01*
X1758006D01*
X1744677Y3460109D02*
X1738013Y3466774D01*
X1724684D01*
X1718019Y3460109D01*
Y3433451D01*
X1724684Y3426787D01*
X1738013D01*
X1744677Y3433451D01*
Y3460109D01*
X1704691Y3426787D02*
X1691362D01*
X1698026D01*
Y3466774D01*
X1704691Y3460109D01*
X1119300Y4231314D02*
X1092641D01*
X1105971D01*
Y4191327D01*
X1079313D02*
Y4231314D01*
X1059319D01*
X1052654Y4224649D01*
Y4211320D01*
X1059319Y4204656D01*
X1079313D01*
X1039326Y4191327D02*
X1025997D01*
X1032661D01*
Y4231314D01*
X1039326Y4224649D01*
X1006003D02*
X999339Y4231314D01*
X986009D01*
X979345Y4224649D01*
Y4217985D01*
X986009Y4211320D01*
X992674D01*
X986009D01*
X979345Y4204656D01*
Y4197991D01*
X986009Y4191327D01*
X999339D01*
X1006003Y4197991D01*
X966016Y4224649D02*
X959352Y4231314D01*
X946022D01*
X939358Y4224649D01*
Y4197991D01*
X946022Y4191327D01*
X959352D01*
X966016Y4197991D01*
Y4224649D01*
X926029Y4191327D02*
X912700D01*
X919365D01*
Y4231314D01*
X926029Y4224649D01*
X871964Y4485314D02*
X845306D01*
X858635D01*
Y4445327D01*
X831977D02*
Y4485314D01*
X811983D01*
X805319Y4478649D01*
Y4465320D01*
X811983Y4458656D01*
X831977D01*
X791990Y4445327D02*
X778661D01*
X785326D01*
Y4485314D01*
X791990Y4478649D01*
X758668D02*
X752003Y4485314D01*
X738674D01*
X732009Y4478649D01*
Y4471985D01*
X738674Y4465320D01*
X745339D01*
X738674D01*
X732009Y4458656D01*
Y4451991D01*
X738674Y4445327D01*
X752003D01*
X758668Y4451991D01*
X718681Y4478649D02*
X712016Y4485314D01*
X698687D01*
X692022Y4478649D01*
Y4451991D01*
X698687Y4445327D01*
X712016D01*
X718681Y4451991D01*
Y4478649D01*
X678694D02*
X672029Y4485314D01*
X658700D01*
X652036Y4478649D01*
Y4451991D01*
X658700Y4445327D01*
X672029D01*
X678694Y4451991D01*
Y4478649D01*
X363964Y3215314D02*
X337306D01*
X350635D01*
Y3175327D01*
X323977D02*
Y3215314D01*
X303983D01*
X297319Y3208649D01*
Y3195320D01*
X303983Y3188656D01*
X323977D01*
X283990Y3175327D02*
X270661D01*
X277326D01*
Y3215314D01*
X283990Y3208649D01*
X250668D02*
X244003Y3215314D01*
X230674D01*
X224009Y3208649D01*
Y3181991D01*
X230674Y3175327D01*
X244003D01*
X250668Y3181991D01*
Y3208649D01*
X210681D02*
X204016Y3215314D01*
X190687D01*
X184022Y3208649D01*
Y3181991D01*
X190687Y3175327D01*
X204016D01*
X210681Y3181991D01*
Y3208649D01*
X170694D02*
X164029Y3215314D01*
X150700D01*
X144036Y3208649D01*
Y3181991D01*
X150700Y3175327D01*
X164029D01*
X170694Y3181991D01*
Y3208649D01*
X607497Y3977314D02*
X580839D01*
X594168D01*
Y3937327D01*
X567510D02*
Y3977314D01*
X547517D01*
X540852Y3970649D01*
Y3957320D01*
X547517Y3950656D01*
X567510D01*
X527523Y3937327D02*
X514195D01*
X520859D01*
Y3977314D01*
X527523Y3970649D01*
X494201D02*
X487536Y3977314D01*
X474207D01*
X467543Y3970649D01*
Y3943991D01*
X474207Y3937327D01*
X487536D01*
X494201Y3943991D01*
Y3970649D01*
X454214D02*
X447550Y3977314D01*
X434220D01*
X427556Y3970649D01*
Y3943991D01*
X434220Y3937327D01*
X447550D01*
X454214Y3943991D01*
Y3970649D01*
X414227D02*
X407563Y3977314D01*
X394233D01*
X387569Y3970649D01*
Y3963985D01*
X394233Y3957320D01*
X400898D01*
X394233D01*
X387569Y3950656D01*
Y3943991D01*
X394233Y3937327D01*
X407563D01*
X414227Y3943991D01*
X1379964Y2961314D02*
X1353306D01*
X1366635D01*
Y2921327D01*
X1339977D02*
Y2961314D01*
X1319984D01*
X1313319Y2954649D01*
Y2941320D01*
X1319984Y2934656D01*
X1339977D01*
X1299990Y2921327D02*
X1286661D01*
X1293326D01*
Y2961314D01*
X1299990Y2954649D01*
X1266668D02*
X1260003Y2961314D01*
X1246674D01*
X1240010Y2954649D01*
Y2927991D01*
X1246674Y2921327D01*
X1260003D01*
X1266668Y2927991D01*
Y2954649D01*
X1226681D02*
X1220016Y2961314D01*
X1206687D01*
X1200023Y2954649D01*
Y2927991D01*
X1206687Y2921327D01*
X1220016D01*
X1226681Y2927991D01*
Y2954649D01*
X1160036Y2961314D02*
X1186694D01*
Y2941320D01*
X1173365Y2947985D01*
X1166700D01*
X1160036Y2941320D01*
Y2927991D01*
X1166700Y2921327D01*
X1180029D01*
X1186694Y2927991D01*
X1125964Y3723314D02*
X1099306D01*
X1112635D01*
Y3683327D01*
X1085977D02*
Y3723314D01*
X1065983D01*
X1059319Y3716649D01*
Y3703320D01*
X1065983Y3696656D01*
X1085977D01*
X1045990Y3683327D02*
X1032661D01*
X1039326D01*
Y3723314D01*
X1045990Y3716649D01*
X1012668D02*
X1006003Y3723314D01*
X992674D01*
X986009Y3716649D01*
Y3689991D01*
X992674Y3683327D01*
X1006003D01*
X1012668Y3689991D01*
Y3716649D01*
X972681D02*
X966016Y3723314D01*
X952687D01*
X946022Y3716649D01*
Y3689991D01*
X952687Y3683327D01*
X966016D01*
X972681Y3689991D01*
Y3716649D01*
X912700Y3683327D02*
Y3723314D01*
X932694Y3703320D01*
X906036D01*
X1373300Y2707314D02*
X1346642D01*
X1359971D01*
Y2667327D01*
X1333313D02*
Y2707314D01*
X1313319D01*
X1306655Y2700649D01*
Y2687320D01*
X1313319Y2680656D01*
X1333313D01*
X1293326Y2667327D02*
X1279997D01*
X1286661D01*
Y2707314D01*
X1293326Y2700649D01*
X1260003D02*
X1253339Y2707314D01*
X1240010D01*
X1233345Y2700649D01*
Y2673991D01*
X1240010Y2667327D01*
X1253339D01*
X1260003Y2673991D01*
Y2700649D01*
X1220016D02*
X1213352Y2707314D01*
X1200023D01*
X1193358Y2700649D01*
Y2673991D01*
X1200023Y2667327D01*
X1213352D01*
X1220016Y2673991D01*
Y2700649D01*
X1180029Y2667327D02*
X1166700D01*
X1173365D01*
Y2707314D01*
X1180029Y2700649D01*
X-414697Y2707314D02*
X-441355D01*
X-428026D01*
Y2667327D01*
X-454684D02*
Y2707314D01*
X-474678D01*
X-481342Y2700649D01*
Y2687320D01*
X-474678Y2680656D01*
X-454684D01*
X-494671Y2673991D02*
X-501336Y2667327D01*
X-514665D01*
X-521329Y2673991D01*
Y2700649D01*
X-514665Y2707314D01*
X-501336D01*
X-494671Y2700649D01*
Y2693985D01*
X-501336Y2687320D01*
X-521329D01*
X-534658Y2700649D02*
X-541323Y2707314D01*
X-554652D01*
X-561316Y2700649D01*
Y2673991D01*
X-554652Y2667327D01*
X-541323D01*
X-534658Y2673991D01*
Y2700649D01*
X-601303Y2667327D02*
X-574645D01*
X-601303Y2693985D01*
Y2700649D01*
X-594639Y2707314D01*
X-581309D01*
X-574645Y2700649D01*
X855303Y1437314D02*
X828645D01*
X841974D01*
Y1397327D01*
X815316D02*
Y1437314D01*
X795322D01*
X788658Y1430649D01*
Y1417320D01*
X795322Y1410656D01*
X815316D01*
X748671Y1437314D02*
X762000Y1430649D01*
X775329Y1417320D01*
Y1403991D01*
X768664Y1397327D01*
X755335D01*
X748671Y1403991D01*
Y1410656D01*
X755335Y1417320D01*
X775329D01*
X708684Y1397327D02*
X735342D01*
X708684Y1423985D01*
Y1430649D01*
X715348Y1437314D01*
X728677D01*
X735342Y1430649D01*
X695355D02*
X688691Y1437314D01*
X675361D01*
X668697Y1430649D01*
Y1423985D01*
X675361Y1417320D01*
X668697Y1410656D01*
Y1403991D01*
X675361Y1397327D01*
X688691D01*
X695355Y1403991D01*
Y1410656D01*
X688691Y1417320D01*
X695355Y1423985D01*
Y1430649D01*
X688691Y1417320D02*
X675361D01*
X-414697Y2961314D02*
X-441355D01*
X-428026D01*
Y2921327D01*
X-454684D02*
Y2961314D01*
X-474678D01*
X-481342Y2954649D01*
Y2941320D01*
X-474678Y2934656D01*
X-454684D01*
X-521329Y2961314D02*
X-508000Y2954649D01*
X-494671Y2941320D01*
Y2927991D01*
X-501336Y2921327D01*
X-514665D01*
X-521329Y2927991D01*
Y2934656D01*
X-514665Y2941320D01*
X-494671D01*
X-534658Y2954649D02*
X-541323Y2961314D01*
X-554652D01*
X-561316Y2954649D01*
Y2927991D01*
X-554652Y2921327D01*
X-541323D01*
X-534658Y2927991D01*
Y2954649D01*
X-601303Y2921327D02*
X-574645D01*
X-601303Y2947985D01*
Y2954649D01*
X-594639Y2961314D01*
X-581309D01*
X-574645Y2954649D01*
X347303Y1691314D02*
X320645D01*
X333974D01*
Y1651327D01*
X307316D02*
Y1691314D01*
X287322D01*
X280658Y1684649D01*
Y1671320D01*
X287322Y1664656D01*
X307316D01*
X240671Y1691314D02*
X254000Y1684649D01*
X267329Y1671320D01*
Y1657991D01*
X260664Y1651327D01*
X247335D01*
X240671Y1657991D01*
Y1664656D01*
X247335Y1671320D01*
X267329D01*
X227342Y1684649D02*
X220677Y1691314D01*
X207348D01*
X200684Y1684649D01*
Y1677985D01*
X207348Y1671320D01*
X214013D01*
X207348D01*
X200684Y1664656D01*
Y1657991D01*
X207348Y1651327D01*
X220677D01*
X227342Y1657991D01*
X187355Y1684649D02*
X180691Y1691314D01*
X167361D01*
X160697Y1684649D01*
Y1657991D01*
X167361Y1651327D01*
X180691D01*
X187355Y1657991D01*
Y1684649D01*
X347303Y1437314D02*
X320645D01*
X333974D01*
Y1397327D01*
X307316D02*
Y1437314D01*
X287322D01*
X280658Y1430649D01*
Y1417320D01*
X287322Y1410656D01*
X307316D01*
X240671Y1437314D02*
X254000Y1430649D01*
X267329Y1417320D01*
Y1403991D01*
X260664Y1397327D01*
X247335D01*
X240671Y1403991D01*
Y1410656D01*
X247335Y1417320D01*
X267329D01*
X200684Y1397327D02*
X227342D01*
X200684Y1423985D01*
Y1430649D01*
X207348Y1437314D01*
X220677D01*
X227342Y1430649D01*
X187355Y1403991D02*
X180691Y1397327D01*
X167361D01*
X160697Y1403991D01*
Y1430649D01*
X167361Y1437314D01*
X180691D01*
X187355Y1430649D01*
Y1423985D01*
X180691Y1417320D01*
X160697D01*
X601303Y2707314D02*
X574645D01*
X587974D01*
Y2667327D01*
X561316D02*
Y2707314D01*
X541322D01*
X534658Y2700649D01*
Y2687320D01*
X541322Y2680656D01*
X561316D01*
X494671Y2707314D02*
X508000Y2700649D01*
X521329Y2687320D01*
Y2673991D01*
X514664Y2667327D01*
X501335D01*
X494671Y2673991D01*
Y2680656D01*
X501335Y2687320D01*
X521329D01*
X454684Y2667327D02*
X481342D01*
X454684Y2693985D01*
Y2700649D01*
X461348Y2707314D01*
X474677D01*
X481342Y2700649D01*
X441355D02*
X434691Y2707314D01*
X421361D01*
X414697Y2700649D01*
Y2693985D01*
X421361Y2687320D01*
X428026D01*
X421361D01*
X414697Y2680656D01*
Y2673991D01*
X421361Y2667327D01*
X434691D01*
X441355Y2673991D01*
X855303Y927702D02*
X828645D01*
X841974D01*
Y887715D01*
X815316D02*
Y927702D01*
X795322D01*
X788658Y921038D01*
Y907709D01*
X795322Y901044D01*
X815316D01*
X748671Y927702D02*
X762000Y921038D01*
X775329Y907709D01*
Y894379D01*
X768664Y887715D01*
X755335D01*
X748671Y894379D01*
Y901044D01*
X755335Y907709D01*
X775329D01*
X735342Y921038D02*
X728677Y927702D01*
X715348D01*
X708684Y921038D01*
Y914373D01*
X715348Y907709D01*
X722013D01*
X715348D01*
X708684Y901044D01*
Y894379D01*
X715348Y887715D01*
X728677D01*
X735342Y894379D01*
X668697Y927702D02*
X695355D01*
Y907709D01*
X682026Y914373D01*
X675361D01*
X668697Y907709D01*
Y894379D01*
X675361Y887715D01*
X688691D01*
X695355Y894379D01*
X-1684697Y2707314D02*
X-1711355D01*
X-1698026D01*
Y2667327D01*
X-1724684D02*
Y2707314D01*
X-1744678D01*
X-1751342Y2700649D01*
Y2687320D01*
X-1744678Y2680656D01*
X-1724684D01*
X-1764671Y2707314D02*
X-1791329D01*
Y2700649D01*
X-1764671Y2673991D01*
Y2667327D01*
X-1804658Y2700649D02*
X-1811323Y2707314D01*
X-1824652D01*
X-1831316Y2700649D01*
Y2673991D01*
X-1824652Y2667327D01*
X-1811323D01*
X-1804658Y2673991D01*
Y2700649D01*
X-1844645D02*
X-1851309Y2707314D01*
X-1864639D01*
X-1871303Y2700649D01*
Y2693985D01*
X-1864639Y2687320D01*
X-1871303Y2680656D01*
Y2673991D01*
X-1864639Y2667327D01*
X-1851309D01*
X-1844645Y2673991D01*
Y2680656D01*
X-1851309Y2687320D01*
X-1844645Y2693985D01*
Y2700649D01*
X-1851309Y2687320D02*
X-1864639D01*
X-922697Y2707314D02*
X-949355D01*
X-936026D01*
Y2667327D01*
X-962684D02*
Y2707314D01*
X-982677D01*
X-989342Y2700649D01*
Y2687320D01*
X-982677Y2680656D01*
X-962684D01*
X-1002671Y2707314D02*
X-1029329D01*
Y2700649D01*
X-1002671Y2673991D01*
Y2667327D01*
X-1042658Y2700649D02*
X-1049322Y2707314D01*
X-1062651D01*
X-1069316Y2700649D01*
Y2673991D01*
X-1062651Y2667327D01*
X-1049322D01*
X-1042658Y2673991D01*
Y2700649D01*
X-1082645Y2707314D02*
X-1109303D01*
Y2700649D01*
X-1082645Y2673991D01*
Y2667327D01*
X1617303Y1437314D02*
X1590645D01*
X1603974D01*
Y1397327D01*
X1577316D02*
Y1437314D01*
X1557322D01*
X1550658Y1430649D01*
Y1417320D01*
X1557322Y1410656D01*
X1577316D01*
X1537329Y1430649D02*
X1530664Y1437314D01*
X1517335D01*
X1510671Y1430649D01*
Y1423985D01*
X1517335Y1417320D01*
X1510671Y1410656D01*
Y1403991D01*
X1517335Y1397327D01*
X1530664D01*
X1537329Y1403991D01*
Y1410656D01*
X1530664Y1417320D01*
X1537329Y1423985D01*
Y1430649D01*
X1530664Y1417320D02*
X1517335D01*
X1497342Y1430649D02*
X1490677Y1437314D01*
X1477348D01*
X1470684Y1430649D01*
Y1403991D01*
X1477348Y1397327D01*
X1490677D01*
X1497342Y1403991D01*
Y1430649D01*
X1457355D02*
X1450691Y1437314D01*
X1437361D01*
X1430697Y1430649D01*
Y1423985D01*
X1437361Y1417320D01*
X1444026D01*
X1437361D01*
X1430697Y1410656D01*
Y1403991D01*
X1437361Y1397327D01*
X1450691D01*
X1457355Y1403991D01*
X1617303Y2453314D02*
X1590645D01*
X1603974D01*
Y2413327D01*
X1577316D02*
Y2453314D01*
X1557322D01*
X1550658Y2446649D01*
Y2433320D01*
X1557322Y2426656D01*
X1577316D01*
X1537329Y2446649D02*
X1530664Y2453314D01*
X1517335D01*
X1510671Y2446649D01*
Y2439985D01*
X1517335Y2433320D01*
X1510671Y2426656D01*
Y2419991D01*
X1517335Y2413327D01*
X1530664D01*
X1537329Y2419991D01*
Y2426656D01*
X1530664Y2433320D01*
X1537329Y2439985D01*
Y2446649D01*
X1530664Y2433320D02*
X1517335D01*
X1497342Y2446649D02*
X1490677Y2453314D01*
X1477348D01*
X1470684Y2446649D01*
Y2419991D01*
X1477348Y2413327D01*
X1490677D01*
X1497342Y2419991D01*
Y2446649D01*
X1430697Y2413327D02*
X1457355D01*
X1430697Y2439985D01*
Y2446649D01*
X1437361Y2453314D01*
X1450691D01*
X1457355Y2446649D01*
X1363303Y3723314D02*
X1336645D01*
X1349974D01*
Y3683327D01*
X1323316D02*
Y3723314D01*
X1303323D01*
X1296658Y3716649D01*
Y3703320D01*
X1303323Y3696656D01*
X1323316D01*
X1263336Y3683327D02*
Y3723314D01*
X1283329Y3703320D01*
X1256671D01*
X1243342Y3716649D02*
X1236678Y3723314D01*
X1223349D01*
X1216684Y3716649D01*
Y3689991D01*
X1223349Y3683327D01*
X1236678D01*
X1243342Y3689991D01*
Y3716649D01*
X1176697Y3723314D02*
X1203355D01*
Y3703320D01*
X1190026Y3709985D01*
X1183362D01*
X1176697Y3703320D01*
Y3689991D01*
X1183362Y3683327D01*
X1196691D01*
X1203355Y3689991D01*
X1363303Y3977314D02*
X1336645D01*
X1349974D01*
Y3937327D01*
X1323316D02*
Y3977314D01*
X1303323D01*
X1296658Y3970649D01*
Y3957320D01*
X1303323Y3950656D01*
X1323316D01*
X1263336Y3937327D02*
Y3977314D01*
X1283329Y3957320D01*
X1256671D01*
X1243342Y3970649D02*
X1236678Y3977314D01*
X1223349D01*
X1216684Y3970649D01*
Y3943991D01*
X1223349Y3937327D01*
X1236678D01*
X1243342Y3943991D01*
Y3970649D01*
X1183362Y3937327D02*
Y3977314D01*
X1203355Y3957320D01*
X1176697D01*
X1109303Y2199314D02*
X1082645D01*
X1095974D01*
Y2159327D01*
X1069316D02*
Y2199314D01*
X1049322D01*
X1042658Y2192649D01*
Y2179320D01*
X1049322Y2172656D01*
X1069316D01*
X1029329Y2192649D02*
X1022664Y2199314D01*
X1009335D01*
X1002671Y2192649D01*
Y2185985D01*
X1009335Y2179320D01*
X1016000D01*
X1009335D01*
X1002671Y2172656D01*
Y2165991D01*
X1009335Y2159327D01*
X1022664D01*
X1029329Y2165991D01*
X989342Y2192649D02*
X982677Y2199314D01*
X969348D01*
X962684Y2192649D01*
Y2165991D01*
X969348Y2159327D01*
X982677D01*
X989342Y2165991D01*
Y2192649D01*
X949355D02*
X942691Y2199314D01*
X929361D01*
X922697Y2192649D01*
Y2185985D01*
X929361Y2179320D01*
X936026D01*
X929361D01*
X922697Y2172656D01*
Y2165991D01*
X929361Y2159327D01*
X942691D01*
X949355Y2165991D01*
X855303Y2199314D02*
X828645D01*
X841974D01*
Y2159327D01*
X815316D02*
Y2199314D01*
X795322D01*
X788658Y2192649D01*
Y2179320D01*
X795322Y2172656D01*
X815316D01*
X775329Y2192649D02*
X768664Y2199314D01*
X755335D01*
X748671Y2192649D01*
Y2185985D01*
X755335Y2179320D01*
X762000D01*
X755335D01*
X748671Y2172656D01*
Y2165991D01*
X755335Y2159327D01*
X768664D01*
X775329Y2165991D01*
X735342Y2192649D02*
X728677Y2199314D01*
X715348D01*
X708684Y2192649D01*
Y2165991D01*
X715348Y2159327D01*
X728677D01*
X735342Y2165991D01*
Y2192649D01*
X668697Y2159327D02*
X695355D01*
X668697Y2185985D01*
Y2192649D01*
X675361Y2199314D01*
X688691D01*
X695355Y2192649D01*
X2121971Y1945314D02*
X2095313D01*
X2108642D01*
Y1905327D01*
X2081984D02*
Y1945314D01*
X2061990D01*
X2055326Y1938649D01*
Y1925320D01*
X2061990Y1918656D01*
X2081984D01*
X2041997Y1945314D02*
X2015339D01*
Y1938649D01*
X2041997Y1911991D01*
Y1905327D01*
X2002010D02*
X1988681D01*
X1995345D01*
Y1945314D01*
X2002010Y1938649D01*
X1942029Y1905327D02*
X1968687D01*
X1942029Y1931985D01*
Y1938649D01*
X1948694Y1945314D01*
X1962023D01*
X1968687Y1938649D01*
X86638Y2453314D02*
X59980D01*
X73309D01*
Y2413327D01*
X46651D02*
Y2453314D01*
X26658D01*
X19993Y2446649D01*
Y2433320D01*
X26658Y2426656D01*
X46651D01*
X6664Y2419991D02*
X-0Y2413327D01*
X-13329D01*
X-19994Y2419991D01*
Y2446649D01*
X-13329Y2453314D01*
X-0D01*
X6664Y2446649D01*
Y2439985D01*
X-0Y2433320D01*
X-19994D01*
X-33323Y2446649D02*
X-39987Y2453314D01*
X-53316D01*
X-59981Y2446649D01*
Y2419991D01*
X-53316Y2413327D01*
X-39987D01*
X-33323Y2419991D01*
Y2446649D01*
X-73310Y2413327D02*
X-86639D01*
X-79974D01*
Y2453314D01*
X-73310Y2446649D01*
X-158157Y2453314D02*
X-184815D01*
X-171486D01*
Y2413327D01*
X-198144D02*
Y2453314D01*
X-218138D01*
X-224802Y2446649D01*
Y2433320D01*
X-218138Y2426656D01*
X-198144D01*
X-238131Y2419991D02*
X-244796Y2413327D01*
X-258125D01*
X-264789Y2419991D01*
Y2446649D01*
X-258125Y2453314D01*
X-244796D01*
X-238131Y2446649D01*
Y2439985D01*
X-244796Y2433320D01*
X-264789D01*
X-278118Y2446649D02*
X-284783Y2453314D01*
X-298112D01*
X-304776Y2446649D01*
Y2419991D01*
X-298112Y2413327D01*
X-284783D01*
X-278118Y2419991D01*
Y2446649D01*
X-318105D02*
X-324769Y2453314D01*
X-338099D01*
X-344763Y2446649D01*
Y2439985D01*
X-338099Y2433320D01*
X-331434D01*
X-338099D01*
X-344763Y2426656D01*
Y2419991D01*
X-338099Y2413327D01*
X-324769D01*
X-318105Y2419991D01*
X-668697Y2453314D02*
X-695355D01*
X-682026D01*
Y2413327D01*
X-708684D02*
Y2453314D01*
X-728678D01*
X-735342Y2446649D01*
Y2433320D01*
X-728678Y2426656D01*
X-708684D01*
X-748671Y2419991D02*
X-755336Y2413327D01*
X-768665D01*
X-775329Y2419991D01*
Y2446649D01*
X-768665Y2453314D01*
X-755336D01*
X-748671Y2446649D01*
Y2439985D01*
X-755336Y2433320D01*
X-775329D01*
X-788658Y2446649D02*
X-795323Y2453314D01*
X-808652D01*
X-815316Y2446649D01*
Y2419991D01*
X-808652Y2413327D01*
X-795323D01*
X-788658Y2419991D01*
Y2446649D01*
X-828645D02*
X-835309Y2453314D01*
X-848639D01*
X-855303Y2446649D01*
Y2419991D01*
X-848639Y2413327D01*
X-835309D01*
X-828645Y2419991D01*
Y2446649D01*
X-1678033Y1691314D02*
X-1704691D01*
X-1691362D01*
Y1651327D01*
X-1718020D02*
Y1691314D01*
X-1738013D01*
X-1744678Y1684649D01*
Y1671320D01*
X-1738013Y1664656D01*
X-1718020D01*
X-1758007Y1651327D02*
X-1771336D01*
X-1764671D01*
Y1691314D01*
X-1758007Y1684649D01*
X-1791329Y1651327D02*
X-1804658D01*
X-1797994D01*
Y1691314D01*
X-1791329Y1684649D01*
X-1824652D02*
X-1831316Y1691314D01*
X-1844645D01*
X-1851310Y1684649D01*
Y1657991D01*
X-1844645Y1651327D01*
X-1831316D01*
X-1824652Y1657991D01*
Y1684649D01*
X-1864639Y1651327D02*
X-1877968D01*
X-1871303D01*
Y1691314D01*
X-1864639Y1684649D01*
X-1417368Y1945314D02*
X-1444026D01*
X-1430697D01*
Y1905327D01*
X-1457355D02*
Y1945314D01*
X-1477349D01*
X-1484013Y1938649D01*
Y1925320D01*
X-1477349Y1918656D01*
X-1457355D01*
X-1497342Y1905327D02*
X-1510671D01*
X-1504007D01*
Y1945314D01*
X-1497342Y1938649D01*
X-1530665Y1905327D02*
X-1543994D01*
X-1537329D01*
Y1945314D01*
X-1530665Y1938649D01*
X-1563987D02*
X-1570652Y1945314D01*
X-1583981D01*
X-1590645Y1938649D01*
Y1911991D01*
X-1583981Y1905327D01*
X-1570652D01*
X-1563987Y1911991D01*
Y1938649D01*
X-1603974D02*
X-1610639Y1945314D01*
X-1623968D01*
X-1630632Y1938649D01*
Y1911991D01*
X-1623968Y1905327D01*
X-1610639D01*
X-1603974Y1911991D01*
Y1938649D01*
X1504751Y1183314D02*
X1478093D01*
X1491422D01*
Y1143327D01*
X1464764D02*
Y1183314D01*
X1444770D01*
X1438106Y1176649D01*
Y1163320D01*
X1444770Y1156656D01*
X1464764D01*
X1398119Y1183314D02*
X1424777D01*
Y1163320D01*
X1411448Y1169985D01*
X1404783D01*
X1398119Y1163320D01*
Y1149991D01*
X1404783Y1143327D01*
X1418112D01*
X1424777Y1149991D01*
X1384790Y1143327D02*
X1371461D01*
X1378125D01*
Y1183314D01*
X1384790Y1176649D01*
X1324809Y1143327D02*
X1351467D01*
X1324809Y1169985D01*
Y1176649D01*
X1331474Y1183314D01*
X1344803D01*
X1351467Y1176649D01*
X1861306Y1437314D02*
X1834648D01*
X1847977D01*
Y1397327D01*
X1821319D02*
Y1437314D01*
X1801326D01*
X1794661Y1430649D01*
Y1417320D01*
X1801326Y1410656D01*
X1821319D01*
X1754674Y1437314D02*
X1781332D01*
Y1417320D01*
X1768003Y1423985D01*
X1761339D01*
X1754674Y1417320D01*
Y1403991D01*
X1761339Y1397327D01*
X1774668D01*
X1781332Y1403991D01*
X1741345Y1397327D02*
X1728016D01*
X1734681D01*
Y1437314D01*
X1741345Y1430649D01*
X1708023Y1397327D02*
X1694694D01*
X1701358D01*
Y1437314D01*
X1708023Y1430649D01*
X1871303Y1691314D02*
X1844645D01*
X1857974D01*
Y1651327D01*
X1831316D02*
Y1691314D01*
X1811323D01*
X1804658Y1684649D01*
Y1671320D01*
X1811323Y1664656D01*
X1831316D01*
X1764671Y1691314D02*
X1791329D01*
Y1671320D01*
X1778000Y1677985D01*
X1771336D01*
X1764671Y1671320D01*
Y1657991D01*
X1771336Y1651327D01*
X1784665D01*
X1791329Y1657991D01*
X1751342Y1684649D02*
X1744678Y1691314D01*
X1731349D01*
X1724684Y1684649D01*
Y1657991D01*
X1731349Y1651327D01*
X1744678D01*
X1751342Y1657991D01*
Y1684649D01*
X1711355Y1657991D02*
X1704691Y1651327D01*
X1691362D01*
X1684697Y1657991D01*
Y1684649D01*
X1691362Y1691314D01*
X1704691D01*
X1711355Y1684649D01*
Y1677985D01*
X1704691Y1671320D01*
X1684697D01*
X1871303Y1945314D02*
X1844645D01*
X1857974D01*
Y1905327D01*
X1831316D02*
Y1945314D01*
X1811323D01*
X1804658Y1938649D01*
Y1925320D01*
X1811323Y1918656D01*
X1831316D01*
X1764671Y1945314D02*
X1791329D01*
Y1925320D01*
X1778000Y1931985D01*
X1771336D01*
X1764671Y1925320D01*
Y1911991D01*
X1771336Y1905327D01*
X1784665D01*
X1791329Y1911991D01*
X1751342Y1938649D02*
X1744678Y1945314D01*
X1731349D01*
X1724684Y1938649D01*
Y1911991D01*
X1731349Y1905327D01*
X1744678D01*
X1751342Y1911991D01*
Y1938649D01*
X1711355D02*
X1704691Y1945314D01*
X1691362D01*
X1684697Y1938649D01*
Y1931985D01*
X1691362Y1925320D01*
X1684697Y1918656D01*
Y1911991D01*
X1691362Y1905327D01*
X1704691D01*
X1711355Y1911991D01*
Y1918656D01*
X1704691Y1925320D01*
X1711355Y1931985D01*
Y1938649D01*
X1704691Y1925320D02*
X1691362D01*
X-414697Y2199314D02*
X-441355D01*
X-428026D01*
Y2159327D01*
X-454684D02*
Y2199314D01*
X-474678D01*
X-481342Y2192649D01*
Y2179320D01*
X-474678Y2172656D01*
X-454684D01*
X-494671Y2199314D02*
X-521329D01*
Y2192649D01*
X-494671Y2165991D01*
Y2159327D01*
X-534658Y2192649D02*
X-541323Y2199314D01*
X-554652D01*
X-561316Y2192649D01*
Y2165991D01*
X-554652Y2159327D01*
X-541323D01*
X-534658Y2165991D01*
Y2192649D01*
X-574645Y2165991D02*
X-581309Y2159327D01*
X-594639D01*
X-601303Y2165991D01*
Y2192649D01*
X-594639Y2199314D01*
X-581309D01*
X-574645Y2192649D01*
Y2185985D01*
X-581309Y2179320D01*
X-601303D01*
X591306Y3215314D02*
X564648D01*
X577977D01*
Y3175327D01*
X551319D02*
Y3215314D01*
X531326D01*
X524661Y3208649D01*
Y3195320D01*
X531326Y3188656D01*
X551319D01*
X511332Y3215314D02*
X484674D01*
Y3208649D01*
X511332Y3181991D01*
Y3175327D01*
X471345D02*
X458016D01*
X464681D01*
Y3215314D01*
X471345Y3208649D01*
X438023Y3175327D02*
X424694D01*
X431358D01*
Y3215314D01*
X438023Y3208649D01*
X1871303Y2961314D02*
X1844645D01*
X1857974D01*
Y2921327D01*
X1831316D02*
Y2961314D01*
X1811323D01*
X1804658Y2954649D01*
Y2941320D01*
X1811323Y2934656D01*
X1831316D01*
X1791329Y2954649D02*
X1784665Y2961314D01*
X1771336D01*
X1764671Y2954649D01*
Y2947985D01*
X1771336Y2941320D01*
X1778000D01*
X1771336D01*
X1764671Y2934656D01*
Y2927991D01*
X1771336Y2921327D01*
X1784665D01*
X1791329Y2927991D01*
X1751342Y2954649D02*
X1744678Y2961314D01*
X1731349D01*
X1724684Y2954649D01*
Y2927991D01*
X1731349Y2921327D01*
X1744678D01*
X1751342Y2927991D01*
Y2954649D01*
X1691362Y2921327D02*
Y2961314D01*
X1711355Y2941320D01*
X1684697D01*
X-158157Y1183314D02*
X-184815D01*
X-171486D01*
Y1143327D01*
X-198144D02*
Y1183314D01*
X-218138D01*
X-224802Y1176649D01*
Y1163320D01*
X-218138Y1156656D01*
X-198144D01*
X-264789Y1183314D02*
X-251460Y1176649D01*
X-238131Y1163320D01*
Y1149991D01*
X-244796Y1143327D01*
X-258125D01*
X-264789Y1149991D01*
Y1156656D01*
X-258125Y1163320D01*
X-238131D01*
X-278118Y1176649D02*
X-284783Y1183314D01*
X-298112D01*
X-304776Y1176649D01*
Y1149991D01*
X-298112Y1143327D01*
X-284783D01*
X-278118Y1149991D01*
Y1176649D01*
X-318105D02*
X-324769Y1183314D01*
X-338099D01*
X-344763Y1176649D01*
Y1169985D01*
X-338099Y1163320D01*
X-331434D01*
X-338099D01*
X-344763Y1156656D01*
Y1149991D01*
X-338099Y1143327D01*
X-324769D01*
X-318105Y1149991D01*
X-158157Y2707314D02*
X-184815D01*
X-171486D01*
Y2667327D01*
X-198144D02*
Y2707314D01*
X-218138D01*
X-224802Y2700649D01*
Y2687320D01*
X-218138Y2680656D01*
X-198144D01*
X-264789Y2707314D02*
X-251460Y2700649D01*
X-238131Y2687320D01*
Y2673991D01*
X-244796Y2667327D01*
X-258125D01*
X-264789Y2673991D01*
Y2680656D01*
X-258125Y2687320D01*
X-238131D01*
X-278118Y2700649D02*
X-284783Y2707314D01*
X-298112D01*
X-304776Y2700649D01*
Y2673991D01*
X-298112Y2667327D01*
X-284783D01*
X-278118Y2673991D01*
Y2700649D01*
X-338099Y2667327D02*
Y2707314D01*
X-318105Y2687320D01*
X-344763D01*
X-158157Y1437314D02*
X-184815D01*
X-171486D01*
Y1397327D01*
X-198144D02*
Y1437314D01*
X-218138D01*
X-224802Y1430649D01*
Y1417320D01*
X-218138Y1410656D01*
X-198144D01*
X-264789Y1437314D02*
X-251460Y1430649D01*
X-238131Y1417320D01*
Y1403991D01*
X-244796Y1397327D01*
X-258125D01*
X-264789Y1403991D01*
Y1410656D01*
X-258125Y1417320D01*
X-238131D01*
X-278118Y1430649D02*
X-284783Y1437314D01*
X-298112D01*
X-304776Y1430649D01*
Y1403991D01*
X-298112Y1397327D01*
X-284783D01*
X-278118Y1403991D01*
Y1430649D01*
X-318105D02*
X-324769Y1437314D01*
X-338099D01*
X-344763Y1430649D01*
Y1423985D01*
X-338099Y1417320D01*
X-344763Y1410656D01*
Y1403991D01*
X-338099Y1397327D01*
X-324769D01*
X-318105Y1403991D01*
Y1410656D01*
X-324769Y1417320D01*
X-318105Y1423985D01*
Y1430649D01*
X-324769Y1417320D02*
X-338099D01*
X93303Y1183314D02*
X66645D01*
X79974D01*
Y1143327D01*
X53316D02*
Y1183314D01*
X33322D01*
X26658Y1176649D01*
Y1163320D01*
X33322Y1156656D01*
X53316D01*
X-13329Y1183314D02*
X0Y1176649D01*
X13329Y1163320D01*
Y1149991D01*
X6664Y1143327D01*
X-6665D01*
X-13329Y1149991D01*
Y1156656D01*
X-6665Y1163320D01*
X13329D01*
X-53316Y1143327D02*
X-26658D01*
X-53316Y1169985D01*
Y1176649D01*
X-46652Y1183314D01*
X-33323D01*
X-26658Y1176649D01*
X-66645D02*
X-73309Y1183314D01*
X-86639D01*
X-93303Y1176649D01*
Y1149991D01*
X-86639Y1143327D01*
X-73309D01*
X-66645Y1149991D01*
Y1176649D01*
X340638Y2707314D02*
X313980D01*
X327309D01*
Y2667327D01*
X300651D02*
Y2707314D01*
X280658D01*
X273993Y2700649D01*
Y2687320D01*
X280658Y2680656D01*
X300651D01*
X234006Y2707314D02*
X247335Y2700649D01*
X260664Y2687320D01*
Y2673991D01*
X254000Y2667327D01*
X240671D01*
X234006Y2673991D01*
Y2680656D01*
X240671Y2687320D01*
X260664D01*
X194019Y2667327D02*
X220677D01*
X194019Y2693985D01*
Y2700649D01*
X200684Y2707314D01*
X214013D01*
X220677Y2700649D01*
X180690Y2667327D02*
X167361D01*
X174026D01*
Y2707314D01*
X180690Y2700649D01*
X855303Y675314D02*
X828645D01*
X841974D01*
Y635327D01*
X815316D02*
Y675314D01*
X795322D01*
X788658Y668649D01*
Y655320D01*
X795322Y648656D01*
X815316D01*
X748671Y675314D02*
X762000Y668649D01*
X775329Y655320D01*
Y641991D01*
X768664Y635327D01*
X755335D01*
X748671Y641991D01*
Y648656D01*
X755335Y655320D01*
X775329D01*
X708684Y635327D02*
X735342D01*
X708684Y661985D01*
Y668649D01*
X715348Y675314D01*
X728677D01*
X735342Y668649D01*
X675361Y635327D02*
Y675314D01*
X695355Y655320D01*
X668697D01*
X606383Y1437314D02*
X579725D01*
X593054D01*
Y1397327D01*
X566396D02*
Y1437314D01*
X546402D01*
X539738Y1430649D01*
Y1417320D01*
X546402Y1410656D01*
X566396D01*
X499751Y1437314D02*
X513080Y1430649D01*
X526409Y1417320D01*
Y1403991D01*
X519744Y1397327D01*
X506415D01*
X499751Y1403991D01*
Y1410656D01*
X506415Y1417320D01*
X526409D01*
X486422Y1430649D02*
X479757Y1437314D01*
X466428D01*
X459764Y1430649D01*
Y1403991D01*
X466428Y1397327D01*
X479757D01*
X486422Y1403991D01*
Y1430649D01*
X419777Y1437314D02*
X446435D01*
Y1417320D01*
X433106Y1423985D01*
X426441D01*
X419777Y1417320D01*
Y1403991D01*
X426441Y1397327D01*
X439771D01*
X446435Y1403991D01*
X855303Y1183314D02*
X828645D01*
X841974D01*
Y1143327D01*
X815316D02*
Y1183314D01*
X795322D01*
X788658Y1176649D01*
Y1163320D01*
X795322Y1156656D01*
X815316D01*
X748671Y1183314D02*
X762000Y1176649D01*
X775329Y1163320D01*
Y1149991D01*
X768664Y1143327D01*
X755335D01*
X748671Y1149991D01*
Y1156656D01*
X755335Y1163320D01*
X775329D01*
X708684Y1143327D02*
X735342D01*
X708684Y1169985D01*
Y1176649D01*
X715348Y1183314D01*
X728677D01*
X735342Y1176649D01*
X668697Y1143327D02*
X695355D01*
X668697Y1169985D01*
Y1176649D01*
X675361Y1183314D01*
X688691D01*
X695355Y1176649D01*
X1109303Y927702D02*
X1082645D01*
X1095974D01*
Y887715D01*
X1069316D02*
Y927702D01*
X1049322D01*
X1042658Y921038D01*
Y907709D01*
X1049322Y901044D01*
X1069316D01*
X1002671Y927702D02*
X1016000Y921038D01*
X1029329Y907709D01*
Y894379D01*
X1022664Y887715D01*
X1009335D01*
X1002671Y894379D01*
Y901044D01*
X1009335Y907709D01*
X1029329D01*
X989342Y921038D02*
X982677Y927702D01*
X969348D01*
X962684Y921038D01*
Y914373D01*
X969348Y907709D01*
X976013D01*
X969348D01*
X962684Y901044D01*
Y894379D01*
X969348Y887715D01*
X982677D01*
X989342Y894379D01*
X922697Y887715D02*
X949355D01*
X922697Y914373D01*
Y921038D01*
X929361Y927702D01*
X942691D01*
X949355Y921038D01*
X855303Y1945314D02*
X828645D01*
X841974D01*
Y1905327D01*
X815316D02*
Y1945314D01*
X795322D01*
X788658Y1938649D01*
Y1925320D01*
X795322Y1918656D01*
X815316D01*
X775329Y1945314D02*
X748671D01*
Y1938649D01*
X775329Y1911991D01*
Y1905327D01*
X735342Y1938649D02*
X728677Y1945314D01*
X715348D01*
X708684Y1938649D01*
Y1911991D01*
X715348Y1905327D01*
X728677D01*
X735342Y1911991D01*
Y1938649D01*
X668697Y1945314D02*
X682026Y1938649D01*
X695355Y1925320D01*
Y1911991D01*
X688691Y1905327D01*
X675361D01*
X668697Y1911991D01*
Y1918656D01*
X675361Y1925320D01*
X695355D01*
X1102638Y1691314D02*
X1075980D01*
X1089309D01*
Y1651327D01*
X1062651D02*
Y1691314D01*
X1042658D01*
X1035993Y1684649D01*
Y1671320D01*
X1042658Y1664656D01*
X1062651D01*
X1022664Y1691314D02*
X996006D01*
Y1684649D01*
X1022664Y1657991D01*
Y1651327D01*
X982677Y1684649D02*
X976013Y1691314D01*
X962684D01*
X956019Y1684649D01*
Y1657991D01*
X962684Y1651327D01*
X976013D01*
X982677Y1657991D01*
Y1684649D01*
X942690Y1651327D02*
X929361D01*
X936026D01*
Y1691314D01*
X942690Y1684649D01*
X1363303Y1691314D02*
X1336645D01*
X1349974D01*
Y1651327D01*
X1323316D02*
Y1691314D01*
X1303323D01*
X1296658Y1684649D01*
Y1671320D01*
X1303323Y1664656D01*
X1323316D01*
X1283329Y1691314D02*
X1256671D01*
Y1684649D01*
X1283329Y1657991D01*
Y1651327D01*
X1243342Y1684649D02*
X1236678Y1691314D01*
X1223349D01*
X1216684Y1684649D01*
Y1657991D01*
X1223349Y1651327D01*
X1236678D01*
X1243342Y1657991D01*
Y1684649D01*
X1203355D02*
X1196691Y1691314D01*
X1183362D01*
X1176697Y1684649D01*
Y1657991D01*
X1183362Y1651327D01*
X1196691D01*
X1203355Y1657991D01*
Y1684649D01*
X-158157Y1945314D02*
X-184815D01*
X-171486D01*
Y1905327D01*
X-198144D02*
Y1945314D01*
X-218138D01*
X-224802Y1938649D01*
Y1925320D01*
X-218138Y1918656D01*
X-198144D01*
X-264789Y1945314D02*
X-251460Y1938649D01*
X-238131Y1925320D01*
Y1911991D01*
X-244796Y1905327D01*
X-258125D01*
X-264789Y1911991D01*
Y1918656D01*
X-258125Y1925320D01*
X-238131D01*
X-278118Y1938649D02*
X-284783Y1945314D01*
X-298112D01*
X-304776Y1938649D01*
Y1911991D01*
X-298112Y1905327D01*
X-284783D01*
X-278118Y1911991D01*
Y1938649D01*
X-318105D02*
X-324769Y1945314D01*
X-338099D01*
X-344763Y1938649D01*
Y1911991D01*
X-338099Y1905327D01*
X-324769D01*
X-318105Y1911991D01*
Y1938649D01*
X-164822Y2199314D02*
X-191480D01*
X-178151D01*
Y2159327D01*
X-204809D02*
Y2199314D01*
X-224802D01*
X-231467Y2192649D01*
Y2179320D01*
X-224802Y2172656D01*
X-204809D01*
X-271454Y2199314D02*
X-258125Y2192649D01*
X-244796Y2179320D01*
Y2165991D01*
X-251460Y2159327D01*
X-264789D01*
X-271454Y2165991D01*
Y2172656D01*
X-264789Y2179320D01*
X-244796D01*
X-284783Y2192649D02*
X-291447Y2199314D01*
X-304776D01*
X-311441Y2192649D01*
Y2165991D01*
X-304776Y2159327D01*
X-291447D01*
X-284783Y2165991D01*
Y2192649D01*
X-324770Y2159327D02*
X-338099D01*
X-331434D01*
Y2199314D01*
X-324770Y2192649D01*
X93303Y2707314D02*
X66645D01*
X79974D01*
Y2667327D01*
X53316D02*
Y2707314D01*
X33322D01*
X26658Y2700649D01*
Y2687320D01*
X33322Y2680656D01*
X53316D01*
X-13329Y2707314D02*
X0Y2700649D01*
X13329Y2687320D01*
Y2673991D01*
X6664Y2667327D01*
X-6665D01*
X-13329Y2673991D01*
Y2680656D01*
X-6665Y2687320D01*
X13329D01*
X-26658Y2700649D02*
X-33323Y2707314D01*
X-46652D01*
X-53316Y2700649D01*
Y2673991D01*
X-46652Y2667327D01*
X-33323D01*
X-26658Y2673991D01*
Y2700649D01*
X-66645Y2707314D02*
X-93303D01*
Y2700649D01*
X-66645Y2673991D01*
Y2667327D01*
X-158157Y2961314D02*
X-184815D01*
X-171486D01*
Y2921327D01*
X-198144D02*
Y2961314D01*
X-218138D01*
X-224802Y2954649D01*
Y2941320D01*
X-218138Y2934656D01*
X-198144D01*
X-264789Y2961314D02*
X-251460Y2954649D01*
X-238131Y2941320D01*
Y2927991D01*
X-244796Y2921327D01*
X-258125D01*
X-264789Y2927991D01*
Y2934656D01*
X-258125Y2941320D01*
X-238131D01*
X-278118Y2954649D02*
X-284783Y2961314D01*
X-298112D01*
X-304776Y2954649D01*
Y2927991D01*
X-298112Y2921327D01*
X-284783D01*
X-278118Y2927991D01*
Y2954649D01*
X-344763Y2961314D02*
X-331434Y2954649D01*
X-318105Y2941320D01*
Y2927991D01*
X-324769Y2921327D01*
X-338099D01*
X-344763Y2927991D01*
Y2934656D01*
X-338099Y2941320D01*
X-318105D01*
X343971Y1945314D02*
X317313D01*
X330642D01*
Y1905327D01*
X303984D02*
Y1945314D01*
X283990D01*
X277326Y1938649D01*
Y1925320D01*
X283990Y1918656D01*
X303984D01*
X237339Y1945314D02*
X250668Y1938649D01*
X263997Y1925320D01*
Y1911991D01*
X257332Y1905327D01*
X244003D01*
X237339Y1911991D01*
Y1918656D01*
X244003Y1925320D01*
X263997D01*
X224010Y1905327D02*
X210681D01*
X217345D01*
Y1945314D01*
X224010Y1938649D01*
X190687D02*
X184023Y1945314D01*
X170694D01*
X164029Y1938649D01*
Y1931985D01*
X170694Y1925320D01*
X164029Y1918656D01*
Y1911991D01*
X170694Y1905327D01*
X184023D01*
X190687Y1911991D01*
Y1918656D01*
X184023Y1925320D01*
X190687Y1931985D01*
Y1938649D01*
X184023Y1925320D02*
X170694D01*
X343971Y2199314D02*
X317313D01*
X330642D01*
Y2159327D01*
X303984D02*
Y2199314D01*
X283990D01*
X277326Y2192649D01*
Y2179320D01*
X283990Y2172656D01*
X303984D01*
X237339Y2199314D02*
X250668Y2192649D01*
X263997Y2179320D01*
Y2165991D01*
X257332Y2159327D01*
X244003D01*
X237339Y2165991D01*
Y2172656D01*
X244003Y2179320D01*
X263997D01*
X224010Y2159327D02*
X210681D01*
X217345D01*
Y2199314D01*
X224010Y2192649D01*
X190687Y2165991D02*
X184023Y2159327D01*
X170694D01*
X164029Y2165991D01*
Y2192649D01*
X170694Y2199314D01*
X184023D01*
X190687Y2192649D01*
Y2185985D01*
X184023Y2179320D01*
X164029D01*
X93303Y2199314D02*
X66645D01*
X79974D01*
Y2159327D01*
X53316D02*
Y2199314D01*
X33322D01*
X26658Y2192649D01*
Y2179320D01*
X33322Y2172656D01*
X53316D01*
X-13329Y2199314D02*
X0Y2192649D01*
X13329Y2179320D01*
Y2165991D01*
X6664Y2159327D01*
X-6665D01*
X-13329Y2165991D01*
Y2172656D01*
X-6665Y2179320D01*
X13329D01*
X-53316Y2159327D02*
X-26658D01*
X-53316Y2185985D01*
Y2192649D01*
X-46652Y2199314D01*
X-33323D01*
X-26658Y2192649D01*
X-66645Y2199314D02*
X-93303D01*
Y2192649D01*
X-66645Y2165991D01*
Y2159327D01*
X93303Y2961314D02*
X66645D01*
X79974D01*
Y2921327D01*
X53316D02*
Y2961314D01*
X33322D01*
X26658Y2954649D01*
Y2941320D01*
X33322Y2934656D01*
X53316D01*
X-13329Y2961314D02*
X0Y2954649D01*
X13329Y2941320D01*
Y2927991D01*
X6664Y2921327D01*
X-6665D01*
X-13329Y2927991D01*
Y2934656D01*
X-6665Y2941320D01*
X13329D01*
X-53316Y2921327D02*
X-26658D01*
X-53316Y2947985D01*
Y2954649D01*
X-46652Y2961314D01*
X-33323D01*
X-26658Y2954649D01*
X-93303Y2961314D02*
X-79974Y2954649D01*
X-66645Y2941320D01*
Y2927991D01*
X-73309Y2921327D01*
X-86639D01*
X-93303Y2927991D01*
Y2934656D01*
X-86639Y2941320D01*
X-66645D01*
X1269323Y812474D02*
X1242665D01*
X1255994D01*
Y772487D01*
X1229336D02*
Y812474D01*
X1209342D01*
X1202678Y805809D01*
Y792480D01*
X1209342Y785816D01*
X1229336D01*
X1162691Y812474D02*
X1176020Y805809D01*
X1189349Y792480D01*
Y779151D01*
X1182684Y772487D01*
X1169355D01*
X1162691Y779151D01*
Y785816D01*
X1169355Y792480D01*
X1189349D01*
X1149362Y805809D02*
X1142697Y812474D01*
X1129368D01*
X1122704Y805809D01*
Y799145D01*
X1129368Y792480D01*
X1136033D01*
X1129368D01*
X1122704Y785816D01*
Y779151D01*
X1129368Y772487D01*
X1142697D01*
X1149362Y779151D01*
X1109375Y805809D02*
X1102711Y812474D01*
X1089381D01*
X1082717Y805809D01*
Y799145D01*
X1089381Y792480D01*
X1096046D01*
X1089381D01*
X1082717Y785816D01*
Y779151D01*
X1089381Y772487D01*
X1102711D01*
X1109375Y779151D01*
X603843Y1183314D02*
X577185D01*
X590514D01*
Y1143327D01*
X563856D02*
Y1183314D01*
X543862D01*
X537198Y1176649D01*
Y1163320D01*
X543862Y1156656D01*
X563856D01*
X497211Y1183314D02*
X510540Y1176649D01*
X523869Y1163320D01*
Y1149991D01*
X517204Y1143327D01*
X503875D01*
X497211Y1149991D01*
Y1156656D01*
X503875Y1163320D01*
X523869D01*
X483882Y1176649D02*
X477217Y1183314D01*
X463888D01*
X457224Y1176649D01*
Y1169985D01*
X463888Y1163320D01*
X470553D01*
X463888D01*
X457224Y1156656D01*
Y1149991D01*
X463888Y1143327D01*
X477217D01*
X483882Y1149991D01*
X423901Y1143327D02*
Y1183314D01*
X443895Y1163320D01*
X417237D01*
X848638Y1691314D02*
X821980D01*
X835309D01*
Y1651327D01*
X808651D02*
Y1691314D01*
X788658D01*
X781993Y1684649D01*
Y1671320D01*
X788658Y1664656D01*
X808651D01*
X742006Y1691314D02*
X755335Y1684649D01*
X768664Y1671320D01*
Y1657991D01*
X762000Y1651327D01*
X748671D01*
X742006Y1657991D01*
Y1664656D01*
X748671Y1671320D01*
X768664D01*
X728677Y1684649D02*
X722013Y1691314D01*
X708684D01*
X702019Y1684649D01*
Y1677985D01*
X708684Y1671320D01*
X715348D01*
X708684D01*
X702019Y1664656D01*
Y1657991D01*
X708684Y1651327D01*
X722013D01*
X728677Y1657991D01*
X688690Y1651327D02*
X675361D01*
X682026D01*
Y1691314D01*
X688690Y1684649D01*
X1109303Y1437314D02*
X1082645D01*
X1095974D01*
Y1397327D01*
X1069316D02*
Y1437314D01*
X1049322D01*
X1042658Y1430649D01*
Y1417320D01*
X1049322Y1410656D01*
X1069316D01*
X1029329Y1430649D02*
X1022664Y1437314D01*
X1009335D01*
X1002671Y1430649D01*
Y1423985D01*
X1009335Y1417320D01*
X1002671Y1410656D01*
Y1403991D01*
X1009335Y1397327D01*
X1022664D01*
X1029329Y1403991D01*
Y1410656D01*
X1022664Y1417320D01*
X1029329Y1423985D01*
Y1430649D01*
X1022664Y1417320D02*
X1009335D01*
X989342Y1430649D02*
X982677Y1437314D01*
X969348D01*
X962684Y1430649D01*
Y1403991D01*
X969348Y1397327D01*
X982677D01*
X989342Y1403991D01*
Y1430649D01*
X949355D02*
X942691Y1437314D01*
X929361D01*
X922697Y1430649D01*
Y1403991D01*
X929361Y1397327D01*
X942691D01*
X949355Y1403991D01*
Y1430649D01*
X1356638Y927702D02*
X1329980D01*
X1343309D01*
Y887715D01*
X1316651D02*
Y927702D01*
X1296658D01*
X1289993Y921038D01*
Y907709D01*
X1296658Y901044D01*
X1316651D01*
X1276664Y921038D02*
X1270000Y927702D01*
X1256671D01*
X1250006Y921038D01*
Y914373D01*
X1256671Y907709D01*
X1250006Y901044D01*
Y894379D01*
X1256671Y887715D01*
X1270000D01*
X1276664Y894379D01*
Y901044D01*
X1270000Y907709D01*
X1276664Y914373D01*
Y921038D01*
X1270000Y907709D02*
X1256671D01*
X1236677Y921038D02*
X1230013Y927702D01*
X1216684D01*
X1210019Y921038D01*
Y894379D01*
X1216684Y887715D01*
X1230013D01*
X1236677Y894379D01*
Y921038D01*
X1196691Y887715D02*
X1183362D01*
X1190026D01*
Y927702D01*
X1196691Y921038D01*
X-1176697Y2961314D02*
X-1203355D01*
X-1190026D01*
Y2921327D01*
X-1216684D02*
Y2961314D01*
X-1236678D01*
X-1243342Y2954649D01*
Y2941320D01*
X-1236678Y2934656D01*
X-1216684D01*
X-1283329Y2961314D02*
X-1270000Y2954649D01*
X-1256671Y2941320D01*
Y2927991D01*
X-1263336Y2921327D01*
X-1276665D01*
X-1283329Y2927991D01*
Y2934656D01*
X-1276665Y2941320D01*
X-1256671D01*
X-1296658Y2954649D02*
X-1303323Y2961314D01*
X-1316652D01*
X-1323316Y2954649D01*
Y2927991D01*
X-1316652Y2921327D01*
X-1303323D01*
X-1296658Y2927991D01*
Y2954649D01*
X-1336645Y2927991D02*
X-1343309Y2921327D01*
X-1356639D01*
X-1363303Y2927991D01*
Y2954649D01*
X-1356639Y2961314D01*
X-1343309D01*
X-1336645Y2954649D01*
Y2947985D01*
X-1343309Y2941320D01*
X-1363303D01*
X1109303Y1183314D02*
X1082645D01*
X1095974D01*
Y1143327D01*
X1069316D02*
Y1183314D01*
X1049322D01*
X1042658Y1176649D01*
Y1163320D01*
X1049322Y1156656D01*
X1069316D01*
X1002671Y1183314D02*
X1016000Y1176649D01*
X1029329Y1163320D01*
Y1149991D01*
X1022664Y1143327D01*
X1009335D01*
X1002671Y1149991D01*
Y1156656D01*
X1009335Y1163320D01*
X1029329D01*
X962684Y1143327D02*
X989342D01*
X962684Y1169985D01*
Y1176649D01*
X969348Y1183314D01*
X982677D01*
X989342Y1176649D01*
X922697Y1183314D02*
X949355D01*
Y1163320D01*
X936026Y1169985D01*
X929361D01*
X922697Y1163320D01*
Y1149991D01*
X929361Y1143327D01*
X942691D01*
X949355Y1149991D01*
X614166Y4485314D02*
X587508D01*
X600837D01*
Y4445327D01*
X574179D02*
Y4485314D01*
X554186D01*
X547521Y4478649D01*
Y4465320D01*
X554186Y4458656D01*
X574179D01*
X507534Y4485314D02*
X520863Y4478649D01*
X534192Y4465320D01*
Y4451991D01*
X527528Y4445327D01*
X514199D01*
X507534Y4451991D01*
Y4458656D01*
X514199Y4465320D01*
X534192D01*
X494205Y4445327D02*
X480876D01*
X487541D01*
Y4485314D01*
X494205Y4478649D01*
X460883Y4445327D02*
X447554D01*
X454218D01*
Y4485314D01*
X460883Y4478649D01*
X597971Y1945314D02*
X571313D01*
X584642D01*
Y1905327D01*
X557984D02*
Y1945314D01*
X537990D01*
X531326Y1938649D01*
Y1925320D01*
X537990Y1918656D01*
X557984D01*
X491339Y1945314D02*
X504668Y1938649D01*
X517997Y1925320D01*
Y1911991D01*
X511332Y1905327D01*
X498003D01*
X491339Y1911991D01*
Y1918656D01*
X498003Y1925320D01*
X517997D01*
X478010Y1905327D02*
X464681D01*
X471345D01*
Y1945314D01*
X478010Y1938649D01*
X418029Y1905327D02*
X444687D01*
X418029Y1931985D01*
Y1938649D01*
X424694Y1945314D01*
X438023D01*
X444687Y1938649D01*
X-418029Y4231314D02*
X-444687D01*
X-431358D01*
Y4191327D01*
X-458016D02*
Y4231314D01*
X-478010D01*
X-484674Y4224649D01*
Y4211320D01*
X-478010Y4204656D01*
X-458016D01*
X-524661Y4231314D02*
X-511332Y4224649D01*
X-498003Y4211320D01*
Y4197991D01*
X-504668Y4191327D01*
X-517997D01*
X-524661Y4197991D01*
Y4204656D01*
X-517997Y4211320D01*
X-498003D01*
X-537990Y4191327D02*
X-551319D01*
X-544655D01*
Y4231314D01*
X-537990Y4224649D01*
X-571313D02*
X-577977Y4231314D01*
X-591306D01*
X-597971Y4224649D01*
Y4217985D01*
X-591306Y4211320D01*
X-584642D01*
X-591306D01*
X-597971Y4204656D01*
Y4197991D01*
X-591306Y4191327D01*
X-577977D01*
X-571313Y4197991D01*
X1867971Y3215314D02*
X1841313D01*
X1854642D01*
Y3175327D01*
X1827984D02*
Y3215314D01*
X1807990D01*
X1801326Y3208649D01*
Y3195320D01*
X1807990Y3188656D01*
X1827984D01*
X1761339Y3215314D02*
X1774668Y3208649D01*
X1787997Y3195320D01*
Y3181991D01*
X1781332Y3175327D01*
X1768003D01*
X1761339Y3181991D01*
Y3188656D01*
X1768003Y3195320D01*
X1787997D01*
X1748010Y3175327D02*
X1734681D01*
X1741346D01*
Y3215314D01*
X1748010Y3208649D01*
X1694694Y3175327D02*
Y3215314D01*
X1714687Y3195320D01*
X1688029D01*
X591621Y2961314D02*
X564963D01*
X578292D01*
Y2921327D01*
X551634D02*
Y2961314D01*
X531640D01*
X524976Y2954649D01*
Y2941320D01*
X531640Y2934656D01*
X551634D01*
X484989Y2961314D02*
X498318Y2954649D01*
X511647Y2941320D01*
Y2927991D01*
X504982Y2921327D01*
X491653D01*
X484989Y2927991D01*
Y2934656D01*
X491653Y2941320D01*
X511647D01*
X471660Y2921327D02*
X458331D01*
X464996D01*
Y2961314D01*
X471660Y2954649D01*
X411679Y2961314D02*
X438337D01*
Y2941320D01*
X425009Y2947985D01*
X418344D01*
X411679Y2941320D01*
Y2927991D01*
X418344Y2921327D01*
X431673D01*
X438337Y2927991D01*
X-418029Y1437314D02*
X-444687D01*
X-431358D01*
Y1397327D01*
X-458016D02*
Y1437314D01*
X-478010D01*
X-484674Y1430649D01*
Y1417320D01*
X-478010Y1410656D01*
X-458016D01*
X-524661Y1437314D02*
X-511332Y1430649D01*
X-498003Y1417320D01*
Y1403991D01*
X-504668Y1397327D01*
X-517997D01*
X-524661Y1403991D01*
Y1410656D01*
X-517997Y1417320D01*
X-498003D01*
X-537990Y1397327D02*
X-551319D01*
X-544655D01*
Y1437314D01*
X-537990Y1430649D01*
X-597971Y1437314D02*
X-584642Y1430649D01*
X-571313Y1417320D01*
Y1403991D01*
X-577977Y1397327D01*
X-591306D01*
X-597971Y1403991D01*
Y1410656D01*
X-591306Y1417320D01*
X-571313D01*
X1613971Y1691314D02*
X1587313D01*
X1600642D01*
Y1651327D01*
X1573984D02*
Y1691314D01*
X1553990D01*
X1547326Y1684649D01*
Y1671320D01*
X1553990Y1664656D01*
X1573984D01*
X1507339Y1691314D02*
X1520668Y1684649D01*
X1533997Y1671320D01*
Y1657991D01*
X1527332Y1651327D01*
X1514003D01*
X1507339Y1657991D01*
Y1664656D01*
X1514003Y1671320D01*
X1533997D01*
X1494010Y1651327D02*
X1480681D01*
X1487345D01*
Y1691314D01*
X1494010Y1684649D01*
X1460687Y1691314D02*
X1434029D01*
Y1684649D01*
X1460687Y1657991D01*
Y1651327D01*
X-668697Y1183314D02*
X-695355D01*
X-682026D01*
Y1143327D01*
X-708684D02*
Y1183314D01*
X-728678D01*
X-735342Y1176649D01*
Y1163320D01*
X-728678Y1156656D01*
X-708684D01*
X-775329Y1183314D02*
X-748671D01*
Y1163320D01*
X-762000Y1169985D01*
X-768665D01*
X-775329Y1163320D01*
Y1149991D01*
X-768665Y1143327D01*
X-755336D01*
X-748671Y1149991D01*
X-788658Y1176649D02*
X-795323Y1183314D01*
X-808652D01*
X-815316Y1176649D01*
Y1149991D01*
X-808652Y1143327D01*
X-795323D01*
X-788658Y1149991D01*
Y1176649D01*
X-828645D02*
X-835309Y1183314D01*
X-848639D01*
X-855303Y1176649D01*
Y1149991D01*
X-848639Y1143327D01*
X-835309D01*
X-828645Y1149991D01*
Y1176649D01*
X-922697Y934394D02*
X-949355D01*
X-936026D01*
Y894407D01*
X-962684D02*
Y934394D01*
X-982677D01*
X-989342Y927729D01*
Y914400D01*
X-982677Y907736D01*
X-962684D01*
X-1029329Y934394D02*
X-1002671D01*
Y914400D01*
X-1016000Y921065D01*
X-1022664D01*
X-1029329Y914400D01*
Y901071D01*
X-1022664Y894407D01*
X-1009335D01*
X-1002671Y901071D01*
X-1042658Y927729D02*
X-1049322Y934394D01*
X-1062651D01*
X-1069316Y927729D01*
Y901071D01*
X-1062651Y894407D01*
X-1049322D01*
X-1042658Y901071D01*
Y927729D01*
X-1082645Y934394D02*
X-1109303D01*
Y927729D01*
X-1082645Y901071D01*
Y894407D01*
X-929362Y1183314D02*
X-956020D01*
X-942691D01*
Y1143327D01*
X-969349D02*
Y1183314D01*
X-989342D01*
X-996007Y1176649D01*
Y1163320D01*
X-989342Y1156656D01*
X-969349D01*
X-1035994Y1183314D02*
X-1009336D01*
Y1163320D01*
X-1022664Y1169985D01*
X-1029329D01*
X-1035994Y1163320D01*
Y1149991D01*
X-1029329Y1143327D01*
X-1016000D01*
X-1009336Y1149991D01*
X-1049323Y1176649D02*
X-1055987Y1183314D01*
X-1069316D01*
X-1075981Y1176649D01*
Y1149991D01*
X-1069316Y1143327D01*
X-1055987D01*
X-1049323Y1149991D01*
Y1176649D01*
X-1089309Y1143327D02*
X-1102638D01*
X-1095974D01*
Y1183314D01*
X-1089309Y1176649D01*
X-414697Y1183314D02*
X-441355D01*
X-428026D01*
Y1143327D01*
X-454684D02*
Y1183314D01*
X-474678D01*
X-481342Y1176649D01*
Y1163320D01*
X-474678Y1156656D01*
X-454684D01*
X-521329Y1183314D02*
X-494671D01*
Y1163320D01*
X-508000Y1169985D01*
X-514665D01*
X-521329Y1163320D01*
Y1149991D01*
X-514665Y1143327D01*
X-501336D01*
X-494671Y1149991D01*
X-534658Y1176649D02*
X-541323Y1183314D01*
X-554652D01*
X-561316Y1176649D01*
Y1149991D01*
X-554652Y1143327D01*
X-541323D01*
X-534658Y1149991D01*
Y1176649D01*
X-601303Y1143327D02*
X-574645D01*
X-601303Y1169985D01*
Y1176649D01*
X-594639Y1183314D01*
X-581309D01*
X-574645Y1176649D01*
X-1430697Y1183314D02*
X-1457355D01*
X-1444026D01*
Y1143327D01*
X-1470684D02*
Y1183314D01*
X-1490678D01*
X-1497342Y1176649D01*
Y1163320D01*
X-1490678Y1156656D01*
X-1470684D01*
X-1537329Y1183314D02*
X-1510671D01*
Y1163320D01*
X-1524000Y1169985D01*
X-1530665D01*
X-1537329Y1163320D01*
Y1149991D01*
X-1530665Y1143327D01*
X-1517336D01*
X-1510671Y1149991D01*
X-1550658Y1176649D02*
X-1557323Y1183314D01*
X-1570652D01*
X-1577316Y1176649D01*
Y1149991D01*
X-1570652Y1143327D01*
X-1557323D01*
X-1550658Y1149991D01*
Y1176649D01*
X-1617303Y1183314D02*
X-1590645D01*
Y1163320D01*
X-1603974Y1169985D01*
X-1610639D01*
X-1617303Y1163320D01*
Y1149991D01*
X-1610639Y1143327D01*
X-1597309D01*
X-1590645Y1149991D01*
X-1684697Y1437314D02*
X-1711355D01*
X-1698026D01*
Y1397327D01*
X-1724684D02*
Y1437314D01*
X-1744678D01*
X-1751342Y1430649D01*
Y1417320D01*
X-1744678Y1410656D01*
X-1724684D01*
X-1791329Y1437314D02*
X-1764671D01*
Y1417320D01*
X-1778000Y1423985D01*
X-1784665D01*
X-1791329Y1417320D01*
Y1403991D01*
X-1784665Y1397327D01*
X-1771336D01*
X-1764671Y1403991D01*
X-1804658Y1430649D02*
X-1811323Y1437314D01*
X-1824652D01*
X-1831316Y1430649D01*
Y1403991D01*
X-1824652Y1397327D01*
X-1811323D01*
X-1804658Y1403991D01*
Y1430649D01*
X-1871303Y1437314D02*
X-1857974Y1430649D01*
X-1844645Y1417320D01*
Y1403991D01*
X-1851309Y1397327D01*
X-1864639D01*
X-1871303Y1403991D01*
Y1410656D01*
X-1864639Y1417320D01*
X-1844645D01*
X-1176697Y934394D02*
X-1203355D01*
X-1190026D01*
Y894407D01*
X-1216684D02*
Y934394D01*
X-1236678D01*
X-1243342Y927729D01*
Y914400D01*
X-1236678Y907736D01*
X-1216684D01*
X-1283329Y934394D02*
X-1256671D01*
Y914400D01*
X-1270000Y921065D01*
X-1276665D01*
X-1283329Y914400D01*
Y901071D01*
X-1276665Y894407D01*
X-1263336D01*
X-1256671Y901071D01*
X-1296658Y927729D02*
X-1303323Y934394D01*
X-1316652D01*
X-1323316Y927729D01*
Y901071D01*
X-1316652Y894407D01*
X-1303323D01*
X-1296658Y901071D01*
Y927729D01*
X-1336645D02*
X-1343309Y934394D01*
X-1356639D01*
X-1363303Y927729D01*
Y921065D01*
X-1356639Y914400D01*
X-1349974D01*
X-1356639D01*
X-1363303Y907736D01*
Y901071D01*
X-1356639Y894407D01*
X-1343309D01*
X-1336645Y901071D01*
X-668697Y1437314D02*
X-695355D01*
X-682026D01*
Y1397327D01*
X-708684D02*
Y1437314D01*
X-728678D01*
X-735342Y1430649D01*
Y1417320D01*
X-728678Y1410656D01*
X-708684D01*
X-775329Y1437314D02*
X-748671D01*
Y1417320D01*
X-762000Y1423985D01*
X-768665D01*
X-775329Y1417320D01*
Y1403991D01*
X-768665Y1397327D01*
X-755336D01*
X-748671Y1403991D01*
X-788658Y1430649D02*
X-795323Y1437314D01*
X-808652D01*
X-815316Y1430649D01*
Y1403991D01*
X-808652Y1397327D01*
X-795323D01*
X-788658Y1403991D01*
Y1430649D01*
X-848639Y1397327D02*
Y1437314D01*
X-828645Y1417320D01*
X-855303D01*
X343971Y2453314D02*
X317313D01*
X330642D01*
Y2413327D01*
X303984D02*
Y2453314D01*
X283990D01*
X277326Y2446649D01*
Y2433320D01*
X283990Y2426656D01*
X303984D01*
X237339Y2453314D02*
X263997D01*
Y2433320D01*
X250668Y2439985D01*
X244003D01*
X237339Y2433320D01*
Y2419991D01*
X244003Y2413327D01*
X257332D01*
X263997Y2419991D01*
X224010Y2413327D02*
X210681D01*
X217345D01*
Y2453314D01*
X224010Y2446649D01*
X190687D02*
X184023Y2453314D01*
X170694D01*
X164029Y2446649D01*
Y2419991D01*
X170694Y2413327D01*
X184023D01*
X190687Y2419991D01*
Y2446649D01*
X-1176697Y2707314D02*
X-1203355D01*
X-1190026D01*
Y2667327D01*
X-1216684D02*
Y2707314D01*
X-1236678D01*
X-1243342Y2700649D01*
Y2687320D01*
X-1236678Y2680656D01*
X-1216684D01*
X-1256671Y2707314D02*
X-1283329D01*
Y2700649D01*
X-1256671Y2673991D01*
Y2667327D01*
X-1296658Y2700649D02*
X-1303323Y2707314D01*
X-1316652D01*
X-1323316Y2700649D01*
Y2673991D01*
X-1316652Y2667327D01*
X-1303323D01*
X-1296658Y2673991D01*
Y2700649D01*
X-1356639Y2667327D02*
Y2707314D01*
X-1336645Y2687320D01*
X-1363303D01*
X-1176697Y3723314D02*
X-1203355D01*
X-1190026D01*
Y3683327D01*
X-1216684D02*
Y3723314D01*
X-1236678D01*
X-1243342Y3716649D01*
Y3703320D01*
X-1236678Y3696656D01*
X-1216684D01*
X-1256671Y3723314D02*
X-1283329D01*
Y3716649D01*
X-1256671Y3689991D01*
Y3683327D01*
X-1296658Y3716649D02*
X-1303323Y3723314D01*
X-1316652D01*
X-1323316Y3716649D01*
Y3689991D01*
X-1316652Y3683327D01*
X-1303323D01*
X-1296658Y3689991D01*
Y3716649D01*
X-1363303Y3723314D02*
X-1336645D01*
Y3703320D01*
X-1349974Y3709985D01*
X-1356639D01*
X-1363303Y3703320D01*
Y3689991D01*
X-1356639Y3683327D01*
X-1343309D01*
X-1336645Y3689991D01*
X93303Y1437314D02*
X66645D01*
X79974D01*
Y1397327D01*
X53316D02*
Y1437314D01*
X33322D01*
X26658Y1430649D01*
Y1417320D01*
X33322Y1410656D01*
X53316D01*
X13329Y1437314D02*
X-13329D01*
Y1430649D01*
X13329Y1403991D01*
Y1397327D01*
X-26658Y1430649D02*
X-33323Y1437314D01*
X-46652D01*
X-53316Y1430649D01*
Y1403991D01*
X-46652Y1397327D01*
X-33323D01*
X-26658Y1403991D01*
Y1430649D01*
X-93303Y1397327D02*
X-66645D01*
X-93303Y1423985D01*
Y1430649D01*
X-86639Y1437314D01*
X-73309D01*
X-66645Y1430649D01*
X610671Y1691314D02*
X584013D01*
X597342D01*
Y1651327D01*
X570684D02*
Y1691314D01*
X550690D01*
X544026Y1684649D01*
Y1671320D01*
X550690Y1664656D01*
X570684D01*
X530697Y1691314D02*
X504039D01*
Y1684649D01*
X530697Y1657991D01*
Y1651327D01*
X490710D02*
X477381D01*
X484045D01*
Y1691314D01*
X490710Y1684649D01*
X457387D02*
X450723Y1691314D01*
X437394D01*
X430729Y1684649D01*
Y1657991D01*
X437394Y1651327D01*
X450723D01*
X457387Y1657991D01*
Y1684649D01*
X-1684697Y2199314D02*
X-1711355D01*
X-1698026D01*
Y2159327D01*
X-1724684D02*
Y2199314D01*
X-1744678D01*
X-1751342Y2192649D01*
Y2179320D01*
X-1744678Y2172656D01*
X-1724684D01*
X-1764671Y2199314D02*
X-1791329D01*
Y2192649D01*
X-1764671Y2165991D01*
Y2159327D01*
X-1804658Y2192649D02*
X-1811323Y2199314D01*
X-1824652D01*
X-1831316Y2192649D01*
Y2165991D01*
X-1824652Y2159327D01*
X-1811323D01*
X-1804658Y2165991D01*
Y2192649D01*
X-1844645D02*
X-1851309Y2199314D01*
X-1864639D01*
X-1871303Y2192649D01*
Y2185985D01*
X-1864639Y2179320D01*
X-1857974D01*
X-1864639D01*
X-1871303Y2172656D01*
Y2165991D01*
X-1864639Y2159327D01*
X-1851309D01*
X-1844645Y2165991D01*
X1363303Y2453314D02*
X1336645D01*
X1349974D01*
Y2413327D01*
X1323316D02*
Y2453314D01*
X1303323D01*
X1296658Y2446649D01*
Y2433320D01*
X1303323Y2426656D01*
X1323316D01*
X1263336Y2413327D02*
Y2453314D01*
X1283329Y2433320D01*
X1256671D01*
X1243342Y2446649D02*
X1236678Y2453314D01*
X1223349D01*
X1216684Y2446649D01*
Y2419991D01*
X1223349Y2413327D01*
X1236678D01*
X1243342Y2419991D01*
Y2446649D01*
X1203355D02*
X1196691Y2453314D01*
X1183362D01*
X1176697Y2446649D01*
Y2439985D01*
X1183362Y2433320D01*
X1190026D01*
X1183362D01*
X1176697Y2426656D01*
Y2419991D01*
X1183362Y2413327D01*
X1196691D01*
X1203355Y2419991D01*
%TF.MD5,1eac91fff5e4ff8ffb9a06261d3abd47*%
M02*
