%TF.GenerationSoftware,Altium Limited,Altium Designer,26.10.1 (5)*%
G04 Layer_Color=8421504*
G04 Board_Origin=74386096|43952041*
%FSLAX45Y45*%
%MOMM*%
%TF.SameCoordinates,2921B627-0CEA-4390-BE51-8046150D5B20*%
%TF.FilePolarity,Positive*%
%TF.FileFunction,Paste,Top*%
%TF.Part,Single*%
G01*
G75*
%TA.AperFunction,SMDPad,CuDef*%
%ADD12R,0.29000X0.25000*%
%ADD13R,0.45000X0.40000*%
%ADD14R,0.95000X0.95000*%
%ADD15R,0.40000X0.45000*%
%ADD16R,0.95000X0.95000*%
%ADD17R,0.20000X0.28000*%
%ADD18R,0.28000X0.20000*%
%TA.AperFunction,ConnectorPad*%
%ADD19R,1.15000X0.60000*%
%TA.AperFunction,SMDPad,CuDef*%
%ADD20R,0.32000X0.32000*%
%TA.AperFunction,BGAPad,CuDef*%
%ADD21C,0.22500*%
%ADD22C,0.25999*%
%ADD23C,0.20320*%
%ADD24C,0.27000*%
%TA.AperFunction,SMDPad,CuDef*%
%ADD25R,0.47000X0.52000*%
%ADD26R,2.50000X2.50000*%
%ADD27R,0.66000X0.26000*%
%ADD29R,0.45000X0.25000*%
%ADD30R,0.40000X0.35000*%
%ADD31R,0.50000X0.30000*%
%TA.AperFunction,BGAPad,CuDef*%
%ADD32R,0.20000X0.20000*%
%ADD33R,0.20000X0.20000*%
%ADD34C,0.18000*%
%TA.AperFunction,SMDPad,CuDef*%
G04:AMPARAMS|DCode=35|XSize=0.24mm|YSize=1.2mm|CornerRadius=0.06mm|HoleSize=0mm|Usage=FLASHONLY|Rotation=90.000|XOffset=0mm|YOffset=0mm|HoleType=Round|Shape=RoundedRectangle|*
%AMROUNDEDRECTD35*
21,1,0.24000,1.08000,0,0,90.0*
21,1,0.12000,1.20000,0,0,90.0*
1,1,0.12000,0.54000,0.06000*
1,1,0.12000,0.54000,-0.06000*
1,1,0.12000,-0.54000,-0.06000*
1,1,0.12000,-0.54000,0.06000*
%
%ADD35ROUNDEDRECTD35*%
%TA.AperFunction,BGAPad,CuDef*%
%ADD36C,0.17780*%
%TA.AperFunction,SMDPad,CuDef*%
%ADD37R,0.22500X0.46300*%
%ADD38R,0.10000X0.10000*%
%ADD39P,0.67882X4X270.0*%
%ADD40P,0.74953X4X270.0*%
%ADD41R,0.11200X0.35000*%
%ADD42P,0.74953X4X180.0*%
%ADD43R,0.35000X0.11200*%
%ADD44C,0.20000*%
%ADD45R,1.37000X0.60000*%
%ADD46R,0.25000X0.70000*%
%ADD47R,0.25000X0.60000*%
%ADD48R,0.60000X0.25000*%
%ADD49R,1.65000X2.65000*%
%ADD50R,0.25000X0.29000*%
%ADD51R,0.35000X0.52000*%
%ADD52R,0.90000X1.80000*%
%ADD53R,0.70000X0.50000*%
%ADD54R,0.50000X0.70000*%
%ADD55R,0.55000X0.35000*%
%ADD56R,0.75000X0.90000*%
%ADD57R,0.90000X0.75000*%
%ADD58R,0.32000X0.32000*%
%ADD59R,1.05000X2.20000*%
%ADD60R,1.80000X1.50000*%
G04:AMPARAMS|DCode=61|XSize=1.85414mm|YSize=0.51583mm|CornerRadius=0.25791mm|HoleSize=0mm|Usage=FLASHONLY|Rotation=90.000|XOffset=0mm|YOffset=0mm|HoleType=Round|Shape=RoundedRectangle|*
%AMROUNDEDRECTD61*
21,1,1.85414,0.00000,0,0,90.0*
21,1,1.33831,0.51583,0,0,90.0*
1,1,0.51583,0.00000,0.66916*
1,1,0.51583,0.00000,-0.66916*
1,1,0.51583,0.00000,-0.66916*
1,1,0.51583,0.00000,0.66916*
%
%ADD61ROUNDEDRECTD61*%
%ADD62R,3.50520X3.50520*%
%ADD63R,0.25400X0.81280*%
%ADD64R,0.49000X0.52000*%
%ADD65R,0.70000X0.25000*%
%ADD66R,0.50000X0.15000*%
G04:AMPARAMS|DCode=68|XSize=0.23928mm|YSize=0.73107mm|CornerRadius=0.11964mm|HoleSize=0mm|Usage=FLASHONLY|Rotation=0.000|XOffset=0mm|YOffset=0mm|HoleType=Round|Shape=RoundedRectangle|*
%AMROUNDEDRECTD68*
21,1,0.23928,0.49178,0,0,0.0*
21,1,0.00000,0.73107,0,0,0.0*
1,1,0.23928,0.00000,-0.24589*
1,1,0.23928,0.00000,-0.24589*
1,1,0.23928,0.00000,0.24589*
1,1,0.23928,0.00000,0.24589*
%
%ADD68ROUNDEDRECTD68*%
%ADD69R,0.60000X0.20000*%
%ADD70R,1.22000X0.62000*%
%ADD72R,0.48000X0.40000*%
%ADD73R,0.52000X0.49000*%
%ADD74R,1.30000X0.85000*%
%ADD75R,0.85000X1.30000*%
%ADD76R,1.00000X2.00000*%
%ADD77R,2.80000X0.80000*%
%ADD78R,0.16000X0.18000*%
%ADD79R,0.18000X0.16000*%
%ADD80R,0.40000X0.35000*%
%ADD81R,1.00000X0.90000*%
%ADD82R,0.30000X0.60000*%
%ADD83R,1.00000X1.05000*%
%ADD84R,0.27000X0.26000*%
%ADD85R,0.70000X1.30000*%
%ADD86R,0.52000X0.35000*%
%TA.AperFunction,ConnectorPad*%
%ADD89R,1.15000X0.30000*%
%TA.AperFunction,SMDPad,CuDef*%
%ADD90R,0.90000X1.00000*%
%ADD91R,1.00000X2.20000*%
%ADD92R,0.26000X0.66000*%
%ADD93R,1.30000X0.70000*%
%ADD94R,0.46300X0.22500*%
%ADD95R,0.56200X0.22500*%
%ADD96R,2.00000X0.60000*%
%ADD97R,0.60000X0.30000*%
%ADD98R,0.36000X0.25000*%
%ADD99R,0.35000X0.55000*%
%ADD100R,0.25000X0.36000*%
%ADD102R,0.51583X1.85414*%
%ADD103R,0.81280X0.25400*%
%ADD104R,0.80000X0.25000*%
%ADD105R,0.73107X0.23928*%
G04:AMPARAMS|DCode=106|XSize=0.73107mm|YSize=0.23928mm|CornerRadius=0.11964mm|HoleSize=0mm|Usage=FLASHONLY|Rotation=0.000|XOffset=0mm|YOffset=0mm|HoleType=Round|Shape=RoundedRectangle|*
%AMROUNDEDRECTD106*
21,1,0.73107,0.00000,0,0,0.0*
21,1,0.49178,0.23928,0,0,0.0*
1,1,0.23928,0.24589,0.00000*
1,1,0.23928,-0.24589,0.00000*
1,1,0.23928,-0.24589,0.00000*
1,1,0.23928,0.24589,0.00000*
%
%ADD106ROUNDEDRECTD106*%
%ADD107R,0.20000X0.60000*%
%ADD108R,0.25000X0.40000*%
%ADD109R,0.70000X0.40000*%
%ADD110R,0.26000X0.27000*%
%ADD111R,0.85000X2.30000*%
%ADD112R,0.50000X0.90000*%
%TA.AperFunction,NonConductor*%
%ADD273R,0.62500X0.75510*%
%ADD274R,0.62500X0.75500*%
%ADD275R,1.73925X1.73925*%
G36*
X994604Y4367328D02*
X997789Y4366009D01*
X1000655Y4364093D01*
X1003093Y4361656D01*
X1005008Y4358790D01*
X1006327Y4355605D01*
X1007000Y4352224D01*
Y4348777D01*
X1006327Y4345396D01*
X1005008Y4342211D01*
X1003093Y4339345D01*
X1000655Y4336907D01*
X997789Y4334992D01*
X994604Y4333673D01*
X991223Y4333000D01*
X989500D01*
Y4333000D01*
X970500Y4333000D01*
X968777D01*
X965396Y4333673D01*
X962211Y4334992D01*
X959345Y4336907D01*
X956907Y4339345D01*
X954992Y4342211D01*
X953672Y4345396D01*
X953000Y4348777D01*
Y4352224D01*
X953672Y4355605D01*
X954992Y4358790D01*
X956907Y4361656D01*
X959345Y4364093D01*
X962211Y4366009D01*
X965396Y4367328D01*
X968777Y4368000D01*
X991223D01*
X994604Y4367328D01*
D02*
G37*
G36*
X965417Y4319616D02*
X967237Y4318862D01*
X968875Y4317768D01*
X970268Y4316375D01*
X971362Y4314737D01*
X972116Y4312917D01*
X972500Y4310985D01*
Y4310000D01*
Y4310000D01*
Y4302000D01*
Y4301015D01*
X972116Y4299083D01*
X971362Y4297263D01*
X970268Y4295626D01*
X968875Y4294233D01*
X967237Y4293138D01*
X965417Y4292384D01*
X963485Y4292000D01*
X961515D01*
X959583Y4292384D01*
X957763Y4293138D01*
X956126Y4294233D01*
X954733Y4295626D01*
X953638Y4297263D01*
X952884Y4299083D01*
X952500Y4301015D01*
Y4302000D01*
Y4302000D01*
Y4310000D01*
Y4310985D01*
X952884Y4312917D01*
X953638Y4314737D01*
X954733Y4316375D01*
X956126Y4317768D01*
X957763Y4318862D01*
X959583Y4319616D01*
X961515Y4320000D01*
X963485D01*
X965417Y4319616D01*
D02*
G37*
G36*
X1000417Y4319615D02*
X1002237Y4318862D01*
X1003875Y4317767D01*
X1005267Y4316374D01*
X1006362Y4314736D01*
X1007116Y4312916D01*
X1007500Y4310985D01*
Y4310000D01*
Y4310000D01*
Y4302000D01*
Y4301015D01*
X1007116Y4299083D01*
X1006362Y4297263D01*
X1005267Y4295625D01*
X1003875Y4294232D01*
X1002237Y4293138D01*
X1000417Y4292384D01*
X998485Y4292000D01*
X996515D01*
X994583Y4292384D01*
X992763Y4293138D01*
X991126Y4294232D01*
X989733Y4295625D01*
X988638Y4297263D01*
X987884Y4299083D01*
X987500Y4301015D01*
Y4302000D01*
Y4302000D01*
Y4310000D01*
Y4310985D01*
X987884Y4312916D01*
X988638Y4314736D01*
X989733Y4316374D01*
X991126Y4317767D01*
X992763Y4318862D01*
X994583Y4319615D01*
X996515Y4320000D01*
X998485D01*
X1000417Y4319615D01*
D02*
G37*
G36*
X-1439820Y3517700D02*
X-1531820D01*
Y3609700D01*
X-1439820D01*
Y3517700D01*
D02*
G37*
G36*
X-1556820D02*
X-1648820D01*
Y3609700D01*
X-1556820D01*
Y3517700D01*
D02*
G37*
G36*
X-1439820Y3400700D02*
X-1531820D01*
Y3492700D01*
X-1439820D01*
Y3400700D01*
D02*
G37*
G36*
X-1556820D02*
X-1648820D01*
Y3492700D01*
X-1556820D01*
Y3400700D01*
D02*
G37*
G36*
X872960Y3291254D02*
X861760D01*
X837960Y3315054D01*
Y3326254D01*
X872960Y3326254D01*
Y3291254D01*
D02*
G37*
G36*
X807960Y3326254D02*
Y3315054D01*
X784160Y3291254D01*
X772960D01*
Y3326254D01*
X807960Y3326254D01*
D02*
G37*
G36*
X872960Y3216254D02*
X837960Y3216254D01*
Y3227454D01*
X861760Y3251254D01*
X872960D01*
Y3216254D01*
D02*
G37*
G36*
X807960Y3227454D02*
Y3216254D01*
X772960Y3216254D01*
Y3251254D01*
X784160D01*
X807960Y3227454D01*
D02*
G37*
G36*
X-955524Y3108760D02*
X-1047524D01*
Y3200760D01*
X-955524D01*
Y3108760D01*
D02*
G37*
G36*
X-1072524D02*
X-1164524D01*
Y3200760D01*
X-1072524D01*
Y3108760D01*
D02*
G37*
G36*
X-955524Y2991760D02*
X-1047524D01*
Y3083760D01*
X-955524D01*
Y2991760D01*
D02*
G37*
G36*
X-1072524D02*
X-1164524D01*
Y3083760D01*
X-1072524D01*
Y2991760D01*
D02*
G37*
G36*
X1976396Y2354637D02*
X1973403Y2354634D01*
X1955399Y2372651D01*
X1955395Y2390636D01*
X1976400Y2390639D01*
X1976396Y2354637D01*
D02*
G37*
G36*
X1911404Y2390636D02*
X1911400Y2372651D01*
X1893396Y2354634D01*
X1890403Y2354637D01*
X1890400Y2390639D01*
X1911404Y2390636D01*
D02*
G37*
G36*
X1976396Y2304642D02*
X1976400Y2268640D01*
X1955395Y2268643D01*
X1955399Y2286628D01*
X1973403Y2304645D01*
X1976396Y2304642D01*
D02*
G37*
G36*
X1911400Y2286628D02*
X1911404Y2268643D01*
X1890400Y2268640D01*
X1890403Y2304642D01*
X1893396Y2304645D01*
X1911400Y2286628D01*
D02*
G37*
G36*
X-633260Y1917380D02*
X-644460D01*
X-668260Y1941180D01*
Y1952380D01*
X-633260Y1952380D01*
Y1917380D01*
D02*
G37*
G36*
X-698260Y1952380D02*
Y1941180D01*
X-722060Y1917380D01*
X-733260D01*
Y1952380D01*
X-698260Y1952380D01*
D02*
G37*
G36*
X-633260Y1842380D02*
X-668260Y1842380D01*
Y1853580D01*
X-644460Y1877380D01*
X-633260D01*
Y1842380D01*
D02*
G37*
G36*
X-698260Y1853580D02*
Y1842380D01*
X-733260Y1842380D01*
Y1877380D01*
X-722060D01*
X-698260Y1853580D01*
D02*
G37*
G36*
X952917Y1737116D02*
X954737Y1736362D01*
X956375Y1735267D01*
X957768Y1733874D01*
X958862Y1732237D01*
X959616Y1730417D01*
X960000Y1728485D01*
Y1727500D01*
Y1726515D01*
X959616Y1724583D01*
X958862Y1722763D01*
X957768Y1721125D01*
X956375Y1719732D01*
X954737Y1718638D01*
X952917Y1717884D01*
X950985Y1717500D01*
X941015D01*
X939083Y1717884D01*
X937264Y1718638D01*
X935626Y1719732D01*
X934233Y1721125D01*
X933138Y1722763D01*
X932384Y1724583D01*
X932000Y1726515D01*
Y1727500D01*
Y1728485D01*
X932384Y1730417D01*
X933138Y1732237D01*
X934233Y1733874D01*
X935626Y1735267D01*
X937264Y1736362D01*
X939083Y1737116D01*
X941015Y1737500D01*
X950985D01*
X952917Y1737116D01*
D02*
G37*
G36*
X1235000Y1685000D02*
X1223800D01*
X1200000Y1708800D01*
Y1720000D01*
X1235000D01*
X1235000Y1685000D01*
D02*
G37*
G36*
X1160000Y1708800D02*
X1136200Y1685000D01*
X1125000D01*
X1125000Y1720000D01*
X1160000D01*
Y1708800D01*
D02*
G37*
G36*
X995605Y1736327D02*
X998790Y1735008D01*
X1001656Y1733093D01*
X1004093Y1730655D01*
X1006009Y1727789D01*
X1007328Y1724604D01*
X1008001Y1721223D01*
Y1719500D01*
Y1700500D01*
Y1698777D01*
X1007328Y1695396D01*
X1006009Y1692211D01*
X1004093Y1689345D01*
X1001656Y1686907D01*
X998790Y1684992D01*
X995605Y1683673D01*
X992224Y1683000D01*
X988777D01*
X985396Y1683673D01*
X982211Y1684992D01*
X979345Y1686907D01*
X976907Y1689345D01*
X974992Y1692211D01*
X973673Y1695396D01*
X973000Y1698777D01*
Y1700500D01*
X973001D01*
X973000Y1719500D01*
Y1721223D01*
X973673Y1724604D01*
X974992Y1727789D01*
X976907Y1730655D01*
X979345Y1733093D01*
X982211Y1735008D01*
X985396Y1736327D01*
X988777Y1737000D01*
X992224D01*
X995605Y1736327D01*
D02*
G37*
G36*
X952917Y1702116D02*
X954736Y1701362D01*
X956374Y1700267D01*
X957767Y1698874D01*
X958862Y1697237D01*
X959616Y1695417D01*
X960000Y1693485D01*
Y1692500D01*
Y1691515D01*
X959616Y1689583D01*
X958862Y1687763D01*
X957767Y1686125D01*
X956374Y1684732D01*
X954736Y1683638D01*
X952917Y1682884D01*
X950985Y1682500D01*
X941015D01*
X939083Y1682884D01*
X937263Y1683638D01*
X935625Y1684732D01*
X934232Y1686125D01*
X933138Y1687763D01*
X932384Y1689583D01*
X932000Y1691515D01*
Y1692500D01*
Y1693485D01*
X932384Y1695417D01*
X933138Y1697237D01*
X934232Y1698874D01*
X935625Y1700267D01*
X937263Y1701362D01*
X939083Y1702116D01*
X941015Y1702500D01*
X950985D01*
X952917Y1702116D01*
D02*
G37*
G36*
X1235000Y1620000D02*
X1200000D01*
Y1631200D01*
X1223800Y1655000D01*
X1235000D01*
X1235000Y1620000D01*
D02*
G37*
G36*
X1160000Y1631200D02*
Y1620000D01*
X1125000D01*
X1125000Y1655000D01*
X1136200D01*
X1160000Y1631200D01*
D02*
G37*
G36*
X827404Y1028789D02*
X830589Y1027470D01*
X833456Y1025555D01*
X835893Y1023117D01*
X837808Y1020251D01*
X839128Y1017066D01*
X839800Y1013685D01*
Y1010238D01*
X839128Y1006857D01*
X837808Y1003672D01*
X835893Y1000806D01*
X833456Y998369D01*
X830589Y996453D01*
X827404Y995134D01*
X824023Y994462D01*
X822300D01*
Y994462D01*
X803300Y994462D01*
X801577D01*
X798196Y995134D01*
X795011Y996453D01*
X792145Y998369D01*
X789707Y1000806D01*
X787792Y1003672D01*
X786473Y1006857D01*
X785800Y1010238D01*
Y1013685D01*
X786473Y1017066D01*
X787792Y1020251D01*
X789707Y1023117D01*
X792145Y1025555D01*
X795011Y1027470D01*
X798196Y1028789D01*
X801577Y1029462D01*
X824023D01*
X827404Y1028789D01*
D02*
G37*
G36*
X-622936Y1012968D02*
X-619751Y1011649D01*
X-616884Y1009734D01*
X-614447Y1007296D01*
X-612532Y1004430D01*
X-611212Y1001245D01*
X-610540Y997864D01*
Y994417D01*
X-611212Y991036D01*
X-612532Y987851D01*
X-614447Y984985D01*
X-616884Y982547D01*
X-619751Y980632D01*
X-622936Y979313D01*
X-626317Y978640D01*
X-628040D01*
Y978641D01*
X-647040Y978640D01*
X-648763D01*
X-652144Y979313D01*
X-655329Y980632D01*
X-658195Y982547D01*
X-660633Y984985D01*
X-662548Y987851D01*
X-663867Y991036D01*
X-664540Y994417D01*
Y997864D01*
X-663867Y1001245D01*
X-662548Y1004430D01*
X-660633Y1007296D01*
X-658195Y1009734D01*
X-655329Y1011649D01*
X-652144Y1012968D01*
X-648763Y1013641D01*
X-626317D01*
X-622936Y1012968D01*
D02*
G37*
G36*
X798217Y981078D02*
X800037Y980324D01*
X801675Y979229D01*
X803068Y977836D01*
X804162Y976198D01*
X804916Y974379D01*
X805300Y972447D01*
Y971462D01*
Y971461D01*
Y963462D01*
Y962477D01*
X804916Y960545D01*
X804162Y958725D01*
X803068Y957087D01*
X801675Y955694D01*
X800037Y954600D01*
X798217Y953846D01*
X796285Y953462D01*
X794315D01*
X792383Y953846D01*
X790564Y954600D01*
X788926Y955694D01*
X787533Y957087D01*
X786438Y958725D01*
X785684Y960545D01*
X785300Y962477D01*
Y963461D01*
Y963462D01*
Y971462D01*
Y972447D01*
X785684Y974379D01*
X786438Y976198D01*
X787533Y977836D01*
X788926Y979229D01*
X790564Y980324D01*
X792383Y981078D01*
X794315Y981462D01*
X796285D01*
X798217Y981078D01*
D02*
G37*
G36*
X833217Y981077D02*
X835037Y980323D01*
X836675Y979229D01*
X838068Y977836D01*
X839162Y976198D01*
X839916Y974378D01*
X840300Y972446D01*
Y971461D01*
Y971461D01*
Y963461D01*
Y962476D01*
X839916Y960544D01*
X839162Y958725D01*
X838068Y957087D01*
X836675Y955694D01*
X835037Y954599D01*
X833217Y953845D01*
X831285Y953461D01*
X829315D01*
X827383Y953845D01*
X825563Y954599D01*
X823926Y955694D01*
X822533Y957087D01*
X821438Y958725D01*
X820684Y960544D01*
X820300Y962476D01*
Y963461D01*
Y963462D01*
Y971461D01*
Y972446D01*
X820684Y974378D01*
X821438Y976198D01*
X822533Y977836D01*
X823926Y979229D01*
X825563Y980323D01*
X827383Y981077D01*
X829315Y981461D01*
X831285D01*
X833217Y981077D01*
D02*
G37*
G36*
X-652123Y965256D02*
X-650303Y964502D01*
X-648665Y963408D01*
X-647272Y962015D01*
X-646178Y960377D01*
X-645424Y958557D01*
X-645040Y956625D01*
Y955640D01*
Y955640D01*
Y947640D01*
Y946655D01*
X-645424Y944724D01*
X-646178Y942904D01*
X-647272Y941266D01*
X-648665Y939873D01*
X-650303Y938778D01*
X-652123Y938025D01*
X-654055Y937640D01*
X-656025D01*
X-657957Y938025D01*
X-659776Y938778D01*
X-661414Y939873D01*
X-662807Y941266D01*
X-663902Y942904D01*
X-664656Y944724D01*
X-665040Y946655D01*
Y947640D01*
Y947640D01*
Y955640D01*
Y956625D01*
X-664656Y958557D01*
X-663902Y960377D01*
X-662807Y962015D01*
X-661414Y963408D01*
X-659776Y964502D01*
X-657957Y965256D01*
X-656025Y965640D01*
X-654055D01*
X-652123Y965256D01*
D02*
G37*
G36*
X-617123Y965256D02*
X-615303Y964502D01*
X-613665Y963407D01*
X-612272Y962014D01*
X-611178Y960377D01*
X-610424Y958557D01*
X-610040Y956625D01*
Y955640D01*
Y955640D01*
Y947640D01*
Y946655D01*
X-610424Y944723D01*
X-611178Y942903D01*
X-612272Y941265D01*
X-613665Y939872D01*
X-615303Y938778D01*
X-617123Y938024D01*
X-619055Y937640D01*
X-621025D01*
X-622957Y938024D01*
X-624776Y938778D01*
X-626414Y939872D01*
X-627807Y941265D01*
X-628902Y942903D01*
X-629656Y944723D01*
X-630040Y946655D01*
Y947640D01*
Y947640D01*
Y955640D01*
Y956625D01*
X-629656Y958557D01*
X-628902Y960377D01*
X-627807Y962014D01*
X-626414Y963407D01*
X-624776Y964502D01*
X-622957Y965256D01*
X-621025Y965640D01*
X-619055D01*
X-617123Y965256D01*
D02*
G37*
D12*
X812214Y2994460D02*
D03*
X756214D02*
D03*
X-711420Y1723441D02*
D03*
X-767420D02*
D03*
X-256924Y2842260D02*
D03*
X1536760Y1440180D02*
D03*
X-1549140Y1595120D02*
D03*
X-883860Y1775460D02*
D03*
X-939860Y1709420D02*
D03*
X-892204Y1998904D02*
D03*
X-948204Y2078904D02*
D03*
X358000Y4580000D02*
D03*
X888941Y2928620D02*
D03*
X-1386114Y2321775D02*
D03*
X812740Y1727499D02*
D03*
X759400Y1242343D02*
D03*
X28000Y-52880D02*
D03*
X541560Y2580640D02*
D03*
X520100Y1890000D02*
D03*
X119440Y2580640D02*
D03*
X138000Y1890000D02*
D03*
X-1201141Y1628357D02*
D03*
X1414840Y1729740D02*
D03*
X1653600Y3355340D02*
D03*
X1592000Y1810000D02*
D03*
X1022000Y2650000D02*
D03*
X-1840311Y1589549D02*
D03*
X-774520Y3218180D02*
D03*
X-1242120Y3385820D02*
D03*
X1567843Y4640924D02*
D03*
X-1186120Y3385820D02*
D03*
X626669Y3146534D02*
D03*
X682669D02*
D03*
X626669Y3204603D02*
D03*
X682669D02*
D03*
X888940Y2862580D02*
D03*
X944940D02*
D03*
X-718521Y3218180D02*
D03*
X-312924Y2842260D02*
D03*
Y2776220D02*
D03*
X-256924D02*
D03*
X-723960Y2792924D02*
D03*
X-667960D02*
D03*
X-510600Y2082800D02*
D03*
X-454600D02*
D03*
X1480760Y1440180D02*
D03*
Y1376678D02*
D03*
X1536760D02*
D03*
X485560Y2641600D02*
D03*
X541559D02*
D03*
X335220Y1734820D02*
D03*
X391220D02*
D03*
X-587038Y176707D02*
D03*
X-531038D02*
D03*
X63440Y2641600D02*
D03*
X119440D02*
D03*
X-38160Y1742501D02*
D03*
X17840D02*
D03*
X-675700Y1341120D02*
D03*
X-619700D02*
D03*
X-904300Y1417320D02*
D03*
X-848300D02*
D03*
X1831280Y1841500D02*
D03*
X1887280D02*
D03*
X-1605140Y1595120D02*
D03*
X-1729400Y1589120D02*
D03*
X-1673400D02*
D03*
X268640Y1417460D02*
D03*
X212640D02*
D03*
X268010Y1348028D02*
D03*
X212010D02*
D03*
X269639Y1576316D02*
D03*
X213639D02*
D03*
X-99460Y2728520D02*
D03*
X-155460D02*
D03*
X368240Y2349500D02*
D03*
X424240D02*
D03*
X1511843Y4640924D02*
D03*
X-530190Y-15240D02*
D03*
X-586190D02*
D03*
X948374Y1242343D02*
D03*
X892374D02*
D03*
X-939860Y1775460D02*
D03*
X-883860Y1709420D02*
D03*
X-1013400Y1800860D02*
D03*
X-1069400D02*
D03*
X-948204Y1998904D02*
D03*
X-892204Y2078904D02*
D03*
X-1021020Y1930400D02*
D03*
X-1077020D02*
D03*
X-1142000Y1790000D02*
D03*
X-1198000D02*
D03*
X1162000Y3640000D02*
D03*
X1218000D02*
D03*
Y3720000D02*
D03*
X1162000D02*
D03*
X308000Y3790000D02*
D03*
X252001D02*
D03*
X1078000Y3640000D02*
D03*
X1022000D02*
D03*
Y3560000D02*
D03*
X1078000D02*
D03*
X-228000Y4020000D02*
D03*
X-172000D02*
D03*
X-159960Y4272280D02*
D03*
X-215960D02*
D03*
X-162000Y4200000D02*
D03*
X-218000D02*
D03*
X-78000D02*
D03*
X-22000D02*
D03*
X559597Y4270000D02*
D03*
X615597D02*
D03*
X925796Y3610000D02*
D03*
X869796D02*
D03*
X-75960Y4272280D02*
D03*
X-19960D02*
D03*
X302000Y4580000D02*
D03*
X869796Y3531939D02*
D03*
X925796D02*
D03*
X302000Y4500000D02*
D03*
X358000D02*
D03*
X1398660Y2850380D02*
D03*
X1454660D02*
D03*
Y2930380D02*
D03*
X1398660D02*
D03*
X1304660Y2850380D02*
D03*
X1248660D02*
D03*
Y2770380D02*
D03*
X1304660D02*
D03*
X552042Y3204603D02*
D03*
X496042D02*
D03*
X1154660Y2850380D02*
D03*
X1098660D02*
D03*
X552042Y3146355D02*
D03*
X496042D02*
D03*
X944940Y2928620D02*
D03*
X619820Y2893060D02*
D03*
X563820D02*
D03*
X81955Y238760D02*
D03*
X25955D02*
D03*
X-1330114Y2321775D02*
D03*
X-1398000Y2650000D02*
D03*
X-1342000D02*
D03*
X868740Y1727499D02*
D03*
X815400Y1242343D02*
D03*
X-28000Y-52880D02*
D03*
X-168000D02*
D03*
X-112000D02*
D03*
X485560Y2580640D02*
D03*
X170240Y-53340D02*
D03*
X114240D02*
D03*
X464100Y1810000D02*
D03*
X520100D02*
D03*
X464100Y1730000D02*
D03*
X520100D02*
D03*
X464100Y1890000D02*
D03*
X595621Y233734D02*
D03*
X539621D02*
D03*
X1145593Y-17020D02*
D03*
X1089593D02*
D03*
X269180Y2728520D02*
D03*
X325180D02*
D03*
X63440Y2580640D02*
D03*
X82000Y1810000D02*
D03*
X138000D02*
D03*
X82000Y1730000D02*
D03*
X138000D02*
D03*
X82000Y1890000D02*
D03*
X-5020Y2349500D02*
D03*
X-61020D02*
D03*
X1887280Y1770380D02*
D03*
X1831280D02*
D03*
X-1896311Y1589549D02*
D03*
X-1257140Y1628357D02*
D03*
X-1394520Y1628140D02*
D03*
X-1338520D02*
D03*
X1597600Y3355340D02*
D03*
X1078000Y2650000D02*
D03*
X1648000Y1810000D02*
D03*
X1358840Y1729740D02*
D03*
D13*
X1996440Y3815760D02*
D03*
Y3900760D02*
D03*
X-2225760Y2595200D02*
D03*
Y2510200D02*
D03*
X2226538Y2109262D02*
D03*
Y2194262D02*
D03*
X2515558Y60280D02*
D03*
Y-24720D02*
D03*
X3905558Y-14560D02*
D03*
Y70440D02*
D03*
D14*
X1996440Y3665360D02*
D03*
Y3515360D02*
D03*
X-2225040Y2769800D02*
D03*
Y2919800D02*
D03*
X2225040Y1967300D02*
D03*
Y1817300D02*
D03*
X3910640Y2014180D02*
D03*
X2515560Y-328620D02*
D03*
X3905560D02*
D03*
X3910640Y1864180D02*
D03*
X2895600Y1502340D02*
D03*
Y1652340D02*
D03*
X2656840Y1502340D02*
D03*
Y1652340D02*
D03*
X2515560Y-178620D02*
D03*
X3905560D02*
D03*
D15*
X1181780Y896620D02*
D03*
X1266780D02*
D03*
X1828214Y919540D02*
D03*
X1743214D02*
D03*
X4022680Y5445760D02*
D03*
X3937680D02*
D03*
X-681520Y3124200D02*
D03*
X-1730420Y3208020D02*
D03*
X-1815420D02*
D03*
X-766520Y3124200D02*
D03*
X2809240Y1798800D02*
D03*
X2724240D02*
D03*
X3006000D02*
D03*
X2921000D02*
D03*
X3844880Y1717040D02*
D03*
X3759880D02*
D03*
X-974054Y2298421D02*
D03*
X-889054D02*
D03*
X-974054Y2198421D02*
D03*
X-889054D02*
D03*
D16*
X1182300Y764540D02*
D03*
X1332300D02*
D03*
X1827600D02*
D03*
X1677600D02*
D03*
X4220140Y5445760D02*
D03*
X4370140D02*
D03*
D17*
X997500Y4306000D02*
D03*
X830300Y967461D02*
D03*
X-620040Y951640D02*
D03*
X962500Y4306000D02*
D03*
X795300Y967461D02*
D03*
X-655040Y951640D02*
D03*
D18*
X946000Y1692500D02*
D03*
X946000Y1727500D02*
D03*
D19*
X3903740Y806300D02*
D03*
Y1446300D02*
D03*
Y886300D02*
D03*
Y1366300D02*
D03*
D20*
X1688620Y4254500D02*
D03*
X-1788160Y3126740D02*
D03*
X-771520Y3040380D02*
D03*
X780260Y4439920D02*
D03*
X-1700290Y1737435D02*
D03*
X-1079020Y1869440D02*
D03*
X-243360Y3423920D02*
D03*
X-1393980Y2252980D02*
D03*
Y2184400D02*
D03*
X-712491Y2021146D02*
D03*
X-713260Y1777380D02*
D03*
X676120Y744860D02*
D03*
X368331Y2410460D02*
D03*
X-60480D02*
D03*
X1608300Y1412240D02*
D03*
Y1485900D02*
D03*
X1711960Y3863340D02*
D03*
Y4000500D02*
D03*
X1402560Y2649220D02*
D03*
X1748000Y3169920D02*
D03*
X548560Y2506900D02*
D03*
X1711960Y3931916D02*
D03*
X2940840Y215900D02*
D03*
X3695220Y218440D02*
D03*
X3730640Y1296300D02*
D03*
X-1373645Y2065161D02*
D03*
X-1502660D02*
D03*
X-1343671Y1743011D02*
D03*
X-1700290Y1669709D02*
D03*
X360000Y4660000D02*
D03*
X1036660Y2930380D02*
D03*
X886940Y2994660D02*
D03*
X-434894Y2652333D02*
D03*
X1404140Y1526540D02*
D03*
X1903400Y2209639D02*
D03*
X792960Y3381254D02*
D03*
Y3161254D02*
D03*
X1416840Y1663700D02*
D03*
X410000Y1970000D02*
D03*
X125723Y2506900D02*
D03*
X30000Y1970000D02*
D03*
X1535257Y3543608D02*
D03*
X1455257D02*
D03*
X1780000Y2550000D02*
D03*
Y2630000D02*
D03*
X1430000Y1810000D02*
D03*
X1940000Y2550000D02*
D03*
X1270000Y1810000D02*
D03*
X1120000D02*
D03*
X960000D02*
D03*
X1950000Y1940000D02*
D03*
Y2100000D02*
D03*
X1750000Y2200000D02*
D03*
X1810000Y2460000D02*
D03*
X1462560Y2649220D02*
D03*
X1963400Y2209639D02*
D03*
X1490000Y1810000D02*
D03*
X1330000D02*
D03*
X1356840Y1663700D02*
D03*
X840260Y4439920D02*
D03*
X1180000Y1810000D02*
D03*
X1020000D02*
D03*
X-711520Y3040380D02*
D03*
X-1728160Y3126740D02*
D03*
X1651960Y3931916D02*
D03*
X1628620Y4254500D02*
D03*
X1651960Y4000500D02*
D03*
Y3863340D02*
D03*
X1395257Y3543608D02*
D03*
X1595257D02*
D03*
X1805460Y1343660D02*
D03*
X1745460D02*
D03*
X-1640290Y1737435D02*
D03*
X-1019020Y1869440D02*
D03*
X-183360Y3423920D02*
D03*
X-1333980Y2252980D02*
D03*
Y2184400D02*
D03*
X-652491Y2021146D02*
D03*
X-653260Y1777380D02*
D03*
X736120Y744860D02*
D03*
X428331Y2410460D02*
D03*
X-480D02*
D03*
X1668300Y1412240D02*
D03*
Y1485900D02*
D03*
X1808000Y3169920D02*
D03*
X488560Y2506900D02*
D03*
X2880840Y215900D02*
D03*
X3635220Y218440D02*
D03*
X3670640Y1296300D02*
D03*
X-1433645Y2065161D02*
D03*
X-1562660D02*
D03*
X-1200000Y1870000D02*
D03*
X-1140000D02*
D03*
X-1403671Y1743011D02*
D03*
X-1640290Y1669709D02*
D03*
X1220000Y3800000D02*
D03*
X1160000D02*
D03*
X1220000Y3560000D02*
D03*
X1160000D02*
D03*
X-79999Y4020000D02*
D03*
X-19999D02*
D03*
X300000Y4660000D02*
D03*
X1456660Y3010380D02*
D03*
X1396660D02*
D03*
X1096660Y2930380D02*
D03*
X946940Y2994660D02*
D03*
X-462760Y2857500D02*
D03*
X-522760D02*
D03*
X-494894Y2652333D02*
D03*
X1344140Y1526540D02*
D03*
X852960Y3381254D02*
D03*
Y3161254D02*
D03*
X350000Y1970000D02*
D03*
X65724Y2506900D02*
D03*
X-30000Y1970000D02*
D03*
X1720000Y2550000D02*
D03*
Y2630000D02*
D03*
X1880000Y2550000D02*
D03*
X1890000Y1940000D02*
D03*
Y2100000D02*
D03*
X1810000Y2200000D02*
D03*
X1750000Y2460000D02*
D03*
D21*
X890000Y4305000D02*
D03*
X840000D02*
D03*
X-1550000Y1812494D02*
D03*
Y1943134D02*
D03*
X840000Y4355000D02*
D03*
X790000Y4305000D02*
D03*
X890000Y4355000D02*
D03*
X790000D02*
D03*
X-1500000Y1862494D02*
D03*
Y1812494D02*
D03*
X-1550000Y1862494D02*
D03*
X-1600000D02*
D03*
Y1812494D02*
D03*
X-1500000Y1993134D02*
D03*
Y1943134D02*
D03*
X-1550000Y1993134D02*
D03*
X-1600000D02*
D03*
Y1943134D02*
D03*
D22*
X-251460Y2971160D02*
D03*
X891540Y1158240D02*
D03*
X713020Y864460D02*
D03*
X1791040Y1417321D02*
D03*
X1791668Y1533229D02*
D03*
X1790752Y1648781D02*
D03*
X-1206500Y1529080D02*
D03*
X1831668Y1533229D02*
D03*
X1831041Y1417321D02*
D03*
X-211460Y2971160D02*
D03*
Y2931160D02*
D03*
X-251460D02*
D03*
X-291460Y2971160D02*
D03*
Y2931160D02*
D03*
X931540Y1158240D02*
D03*
Y1118240D02*
D03*
X891540D02*
D03*
X851540Y1158240D02*
D03*
Y1118240D02*
D03*
X753020Y864460D02*
D03*
Y824460D02*
D03*
X713020D02*
D03*
X673020Y864460D02*
D03*
Y824460D02*
D03*
X1751040Y1417321D02*
D03*
Y1457320D02*
D03*
X1791040D02*
D03*
X1831041D02*
D03*
X1751668Y1533229D02*
D03*
Y1573229D02*
D03*
X1791668D02*
D03*
X1831668D02*
D03*
X1750752Y1648781D02*
D03*
Y1688781D02*
D03*
X1790752D02*
D03*
X1830752Y1648781D02*
D03*
Y1688781D02*
D03*
X-1166500Y1529080D02*
D03*
Y1489080D02*
D03*
X-1206500D02*
D03*
X-1246500Y1529080D02*
D03*
Y1489080D02*
D03*
D23*
X1535264Y3916781D02*
D03*
Y3876781D02*
D03*
X1515262Y3996781D02*
D03*
X1495259Y3916781D02*
D03*
Y3876781D02*
D03*
X1455254Y3916781D02*
D03*
Y3876781D02*
D03*
X940000Y3710000D02*
D03*
X1176660Y2920380D02*
D03*
X1375244Y3916781D02*
D03*
X1575269D02*
D03*
X1415249Y3996781D02*
D03*
X1575269D02*
D03*
X1375244Y3796781D02*
D03*
X1575269D02*
D03*
X1415249Y3916781D02*
D03*
X1455254Y3836781D02*
D03*
Y3796781D02*
D03*
X1575269Y3956781D02*
D03*
Y3876781D02*
D03*
X1495259Y3836781D02*
D03*
Y3796781D02*
D03*
X1455254Y3996781D02*
D03*
X1375244D02*
D03*
X1535264Y3796781D02*
D03*
X1455254Y3956781D02*
D03*
X1535264Y3836781D02*
D03*
X1575269D02*
D03*
X1415249Y3956781D02*
D03*
Y3876781D02*
D03*
Y3836781D02*
D03*
Y3796781D02*
D03*
X1375244Y3956781D02*
D03*
Y3876781D02*
D03*
Y3836781D02*
D03*
X940000Y3750000D02*
D03*
Y3790000D02*
D03*
Y3830000D02*
D03*
Y3870000D02*
D03*
X980000Y3710000D02*
D03*
Y3750000D02*
D03*
Y3790000D02*
D03*
Y3830000D02*
D03*
Y3870000D02*
D03*
X1020000Y3710000D02*
D03*
Y3750000D02*
D03*
Y3790000D02*
D03*
Y3830000D02*
D03*
Y3870000D02*
D03*
X1060000Y3710000D02*
D03*
Y3750000D02*
D03*
Y3790000D02*
D03*
Y3830000D02*
D03*
Y3870000D02*
D03*
X1176660Y2960380D02*
D03*
Y3000380D02*
D03*
Y3040380D02*
D03*
Y3080380D02*
D03*
X1216660Y2920380D02*
D03*
Y2960380D02*
D03*
Y3000380D02*
D03*
Y3040380D02*
D03*
Y3080380D02*
D03*
X1256660Y2920380D02*
D03*
Y2960380D02*
D03*
Y3000380D02*
D03*
Y3040380D02*
D03*
Y3080380D02*
D03*
X1296660Y2920380D02*
D03*
Y2960380D02*
D03*
Y3000380D02*
D03*
Y3040380D02*
D03*
Y3080380D02*
D03*
D24*
X1135000Y2455000D02*
D03*
X1185000Y2305000D02*
D03*
X1435000D02*
D03*
X1585000D02*
D03*
X1285000Y2255000D02*
D03*
X1335000Y2205000D02*
D03*
X1185000Y2155000D02*
D03*
X1435000D02*
D03*
Y2355000D02*
D03*
X1335000Y2255000D02*
D03*
X1435000Y2105000D02*
D03*
X1285000Y2205000D02*
D03*
X1185000Y2355000D02*
D03*
X1235000Y2105000D02*
D03*
X1185000D02*
D03*
X1035000Y1955000D02*
D03*
X1335000D02*
D03*
X1535000Y2455000D02*
D03*
X1485000Y2405000D02*
D03*
X1585000Y2505000D02*
D03*
X1035000D02*
D03*
X1085000D02*
D03*
X1135000D02*
D03*
X1185000D02*
D03*
X1235000D02*
D03*
X1285000D02*
D03*
X1335000D02*
D03*
X1385000D02*
D03*
X1435000D02*
D03*
X1485000D02*
D03*
X1535000D02*
D03*
X1035000Y2455000D02*
D03*
X1085000D02*
D03*
X1185000D02*
D03*
X1235000D02*
D03*
X1285000D02*
D03*
X1335000D02*
D03*
X1385000D02*
D03*
X1435000D02*
D03*
X1485000D02*
D03*
X1585000D02*
D03*
X1035000Y2405000D02*
D03*
X1085000D02*
D03*
X1135000D02*
D03*
X1185000D02*
D03*
X1235000D02*
D03*
X1285000D02*
D03*
X1335000D02*
D03*
X1385000D02*
D03*
X1435000D02*
D03*
X1535000D02*
D03*
X1585000D02*
D03*
X1035000Y2355000D02*
D03*
X1085000D02*
D03*
X1135000D02*
D03*
X1235000D02*
D03*
X1285000D02*
D03*
X1335000D02*
D03*
X1385000D02*
D03*
X1485000D02*
D03*
X1535000D02*
D03*
X1585000D02*
D03*
X1035000Y2305000D02*
D03*
X1085000D02*
D03*
X1135000D02*
D03*
X1485000D02*
D03*
X1535000D02*
D03*
X1035000Y2255000D02*
D03*
X1085000D02*
D03*
X1135000D02*
D03*
X1185000D02*
D03*
X1435000D02*
D03*
X1485000D02*
D03*
X1535000D02*
D03*
X1585000D02*
D03*
X1035000Y2205000D02*
D03*
X1085000D02*
D03*
X1135000D02*
D03*
X1185000D02*
D03*
X1435000D02*
D03*
X1485000D02*
D03*
X1535000D02*
D03*
X1585000D02*
D03*
X1035000Y2155000D02*
D03*
X1085000D02*
D03*
X1135000D02*
D03*
X1485000D02*
D03*
X1535000D02*
D03*
X1585000D02*
D03*
X1035000Y2105000D02*
D03*
X1085000D02*
D03*
X1135000D02*
D03*
X1285000D02*
D03*
X1335000D02*
D03*
X1385000D02*
D03*
X1485000D02*
D03*
X1535000D02*
D03*
X1585000D02*
D03*
X1035000Y2055000D02*
D03*
X1085000D02*
D03*
X1135000D02*
D03*
X1185000D02*
D03*
X1235000D02*
D03*
X1285000D02*
D03*
X1335000D02*
D03*
X1385000D02*
D03*
X1435000D02*
D03*
X1485000D02*
D03*
X1535000D02*
D03*
X1585000D02*
D03*
X1035000Y2005000D02*
D03*
X1085000D02*
D03*
X1135000D02*
D03*
X1185000D02*
D03*
X1235000D02*
D03*
X1285000D02*
D03*
X1335000D02*
D03*
X1385000D02*
D03*
X1435000D02*
D03*
X1485000D02*
D03*
X1535000D02*
D03*
X1585000D02*
D03*
X1085000Y1955000D02*
D03*
X1135000D02*
D03*
X1185000D02*
D03*
X1235000D02*
D03*
X1285000D02*
D03*
X1385000D02*
D03*
X1435000D02*
D03*
X1485000D02*
D03*
X1535000D02*
D03*
X1585000D02*
D03*
D25*
X1694660Y4176120D02*
D03*
X1813500Y2371000D02*
D03*
X1627660Y4176120D02*
D03*
X1694660Y4094120D02*
D03*
X1627660D02*
D03*
X1746500Y2371000D02*
D03*
Y2289000D02*
D03*
X1813500D02*
D03*
D26*
X-1544320Y3505200D02*
D03*
X-1060024Y3096260D02*
D03*
D27*
X-1355820Y3505200D02*
D03*
Y3555200D02*
D03*
X-1248524Y3096260D02*
D03*
Y3046260D02*
D03*
X-1355820Y3405200D02*
D03*
X-1732820D02*
D03*
X-1355820Y3455200D02*
D03*
Y3605200D02*
D03*
X-1732820Y3555200D02*
D03*
Y3455200D02*
D03*
Y3505200D02*
D03*
Y3605200D02*
D03*
X-1248524Y3196260D02*
D03*
X-871524D02*
D03*
X-1248524Y3146260D02*
D03*
Y2996260D02*
D03*
X-871524Y3046260D02*
D03*
Y3146260D02*
D03*
Y3096260D02*
D03*
Y2996260D02*
D03*
D29*
X-338860Y2410220D02*
D03*
Y2360220D02*
D03*
Y2460220D02*
D03*
Y2510220D02*
D03*
X-595860Y2360220D02*
D03*
Y2410220D02*
D03*
Y2460220D02*
D03*
Y2510220D02*
D03*
D30*
X1404620Y1382800D02*
D03*
Y1447800D02*
D03*
X1344620D02*
D03*
Y1382800D02*
D03*
D31*
X1565154Y2853705D02*
D03*
Y2983705D02*
D03*
X1852154Y2853705D02*
D03*
Y2918705D02*
D03*
Y2983705D02*
D03*
Y3048705D02*
D03*
X1565154Y2918705D02*
D03*
Y3048705D02*
D03*
D32*
X-1581700Y3220160D02*
D03*
X-1491700Y3150160D02*
D03*
X-1101640Y2816300D02*
D03*
X-1011640Y2746300D02*
D03*
X-1021800Y3385817D02*
D03*
X-1111800Y3455817D02*
D03*
X1134660Y4496360D02*
D03*
X1044660Y4566360D02*
D03*
X-603080Y2219960D02*
D03*
X1326600Y1172920D02*
D03*
X1416600Y1102920D02*
D03*
X428321Y1494080D02*
D03*
X516306Y2728431D02*
D03*
X426306Y2798431D02*
D03*
X95800Y2728520D02*
D03*
X5800Y2798520D02*
D03*
X51520Y111200D02*
D03*
X-1581700Y3150160D02*
D03*
Y3185160D02*
D03*
X-1491700Y3220160D02*
D03*
Y3185160D02*
D03*
X-1101640Y2746300D02*
D03*
Y2781300D02*
D03*
X-1011640Y2816300D02*
D03*
Y2781300D02*
D03*
X-1021800Y3455817D02*
D03*
Y3420817D02*
D03*
X-1111800Y3385817D02*
D03*
Y3420817D02*
D03*
X1134660Y4566360D02*
D03*
Y4531360D02*
D03*
X1044660Y4496360D02*
D03*
Y4531360D02*
D03*
X-513080Y2219960D02*
D03*
Y2184960D02*
D03*
Y2149960D02*
D03*
X-603080D02*
D03*
Y2184960D02*
D03*
X1326600Y1102920D02*
D03*
Y1137920D02*
D03*
X1416600Y1172920D02*
D03*
Y1137920D02*
D03*
X1326600Y1240080D02*
D03*
Y1275080D02*
D03*
Y1310080D02*
D03*
X1416600D02*
D03*
Y1275080D02*
D03*
Y1240080D02*
D03*
X338321Y1494080D02*
D03*
Y1529080D02*
D03*
Y1564080D02*
D03*
X428321D02*
D03*
Y1529080D02*
D03*
X994960Y1026240D02*
D03*
Y991240D02*
D03*
Y956240D02*
D03*
X904960D02*
D03*
Y991240D02*
D03*
Y1026240D02*
D03*
X516306Y2798431D02*
D03*
Y2763431D02*
D03*
X426306Y2728431D02*
D03*
Y2763431D02*
D03*
X281220Y2409900D02*
D03*
Y2374900D02*
D03*
Y2339900D02*
D03*
X191220D02*
D03*
Y2374900D02*
D03*
Y2409900D02*
D03*
X95800Y2798520D02*
D03*
Y2763520D02*
D03*
X5800Y2728520D02*
D03*
Y2763520D02*
D03*
X-145500Y2409900D02*
D03*
Y2374900D02*
D03*
Y2339900D02*
D03*
X-235500D02*
D03*
Y2374900D02*
D03*
Y2409900D02*
D03*
X141520Y111200D02*
D03*
Y76200D02*
D03*
Y41200D02*
D03*
X51520D02*
D03*
Y76200D02*
D03*
X-108500Y117400D02*
D03*
Y152400D02*
D03*
Y187400D02*
D03*
X-18500D02*
D03*
Y152400D02*
D03*
Y117400D02*
D03*
D33*
X-1598220Y3885480D02*
D03*
X-1668220Y3795480D02*
D03*
X-1186740Y3557820D02*
D03*
X-1256740Y3467820D02*
D03*
X-774463Y2886160D02*
D03*
X-704463Y2976160D02*
D03*
Y3374940D02*
D03*
X-782880Y2620560D02*
D03*
X428320Y1421680D02*
D03*
X273760Y1812840D02*
D03*
X203760Y1722840D02*
D03*
X655100Y1809209D02*
D03*
X585099Y1719210D02*
D03*
X403300Y1894120D02*
D03*
X19669Y1899998D02*
D03*
X-1641400Y1523280D02*
D03*
X-1711400Y1433280D02*
D03*
X-1786180D02*
D03*
X-1856180D02*
D03*
X-1711683Y1263781D02*
D03*
X-1641683Y1353781D02*
D03*
X-1328980Y1548680D02*
D03*
X-774463Y3284940D02*
D03*
X-852880Y2620560D02*
D03*
X-1668220Y3885480D02*
D03*
X-1633220D02*
D03*
X-1598220Y3795480D02*
D03*
X-1633220D02*
D03*
X-1256740Y3557820D02*
D03*
X-1221740D02*
D03*
X-1186740Y3467820D02*
D03*
X-1221740D02*
D03*
X-704463Y2886160D02*
D03*
X-739463D02*
D03*
X-774463Y2976160D02*
D03*
X-739463D02*
D03*
X-704463Y3284940D02*
D03*
X-739463D02*
D03*
X-774463Y3374940D02*
D03*
X-739463D02*
D03*
X-782880Y2530560D02*
D03*
X-817880D02*
D03*
X-852880D02*
D03*
X-817880Y2620560D02*
D03*
X428320Y1331680D02*
D03*
X393321D02*
D03*
X358320D02*
D03*
Y1421680D02*
D03*
X393321D02*
D03*
X203760Y1812840D02*
D03*
X238760D02*
D03*
X273760Y1722840D02*
D03*
X238760D02*
D03*
X585099Y1809209D02*
D03*
X620099D02*
D03*
X655100Y1719210D02*
D03*
X620099D02*
D03*
X403300Y1804120D02*
D03*
X368300D02*
D03*
X333300D02*
D03*
Y1894120D02*
D03*
X368300D02*
D03*
X19669Y1809999D02*
D03*
X-15331D02*
D03*
X-50331D02*
D03*
Y1899998D02*
D03*
X-15331D02*
D03*
X-1711400Y1523280D02*
D03*
X-1676400D02*
D03*
X-1641400Y1433280D02*
D03*
X-1676400D02*
D03*
X-1856180Y1523280D02*
D03*
X-1821180D02*
D03*
X-1786180D02*
D03*
X-1821180Y1433280D02*
D03*
X-1641683Y1263781D02*
D03*
X-1676683D02*
D03*
X-1711683Y1353781D02*
D03*
X-1676683D02*
D03*
X-1328980Y1458680D02*
D03*
X-1363980D02*
D03*
X-1398980D02*
D03*
Y1548680D02*
D03*
X-1363980D02*
D03*
X-1515834Y2962600D02*
D03*
X-1550834D02*
D03*
X-1585834D02*
D03*
Y3052600D02*
D03*
X-1550834D02*
D03*
X-1515834D02*
D03*
X-1514859Y2790220D02*
D03*
X-1549859D02*
D03*
X-1584859D02*
D03*
Y2880220D02*
D03*
X-1549859D02*
D03*
X-1514859D02*
D03*
D34*
X-885204Y1878904D02*
D03*
X-463773Y2784720D02*
D03*
X-885204Y1913904D02*
D03*
Y1843904D02*
D03*
X-920204Y1913904D02*
D03*
Y1878904D02*
D03*
Y1843904D02*
D03*
X-955204Y1913904D02*
D03*
Y1878904D02*
D03*
Y1843904D02*
D03*
X-498772Y2784720D02*
D03*
X-428772D02*
D03*
X-498772Y2749720D02*
D03*
X-463773D02*
D03*
X-428772D02*
D03*
X-498772Y2714720D02*
D03*
X-463773D02*
D03*
X-428772D02*
D03*
D35*
X-1725000Y1860000D02*
D03*
X-1895000Y1910000D02*
D03*
Y1860000D02*
D03*
X-1725000Y2010000D02*
D03*
Y1910000D02*
D03*
Y1960000D02*
D03*
Y1810000D02*
D03*
X-1895000Y2010000D02*
D03*
Y1960000D02*
D03*
Y1810000D02*
D03*
D36*
X-1275000Y1945640D02*
D03*
X-1425000Y1815000D02*
D03*
X-1275000D02*
D03*
X-1425000Y1945640D02*
D03*
Y1995640D02*
D03*
X-1375000Y1945640D02*
D03*
Y1995640D02*
D03*
X-1325000Y1945640D02*
D03*
Y1995640D02*
D03*
X-1275000D02*
D03*
X-1425000Y1865000D02*
D03*
X-1375000Y1815000D02*
D03*
Y1865000D02*
D03*
X-1325000Y1815000D02*
D03*
Y1865000D02*
D03*
X-1275000D02*
D03*
D37*
X-260090Y3095370D02*
D03*
X-220090D02*
D03*
X-455300Y3339960D02*
D03*
X-415300D02*
D03*
X-260090Y3339070D02*
D03*
X-220090D02*
D03*
X-180090D02*
D03*
X-140090D02*
D03*
X-180090Y3095370D02*
D03*
X-140090D02*
D03*
X-535300Y3339960D02*
D03*
X-495300D02*
D03*
X-535300Y3096260D02*
D03*
X-495300D02*
D03*
X-455300D02*
D03*
X-415300D02*
D03*
D38*
X1895400Y2273640D02*
D03*
X1971400D02*
D03*
Y2385639D02*
D03*
X1895400D02*
D03*
D39*
X1933400Y2329639D02*
D03*
D40*
X822960Y3271254D02*
D03*
X-683260Y1897380D02*
D03*
D41*
X778560Y3308754D02*
D03*
X-727660Y1934880D02*
D03*
X867360Y3308754D02*
D03*
X778560Y3233754D02*
D03*
X867360D02*
D03*
X-638860Y1934880D02*
D03*
X-727660Y1859880D02*
D03*
X-638860D02*
D03*
D42*
X1180000Y1670000D02*
D03*
D43*
X1217500Y1714400D02*
D03*
Y1625600D02*
D03*
X1142500Y1714400D02*
D03*
Y1625600D02*
D03*
D44*
X403060Y2526240D02*
D03*
X-20151D02*
D03*
X-43180Y294080D02*
D03*
X225780D02*
D03*
X368060Y2491240D02*
D03*
Y2526240D02*
D03*
X403060Y2491240D02*
D03*
X-55151Y2491240D02*
D03*
Y2526240D02*
D03*
X-20151Y2491240D02*
D03*
X-43180Y259080D02*
D03*
X-78180Y294080D02*
D03*
Y259080D02*
D03*
X225780D02*
D03*
X190780Y294080D02*
D03*
Y259080D02*
D03*
D45*
X410000Y2150000D02*
D03*
X20000Y2147500D02*
D03*
D46*
X410000Y2057500D02*
D03*
X460000Y2242500D02*
D03*
X20000Y2055000D02*
D03*
X70000Y2240000D02*
D03*
X360000Y2057500D02*
D03*
X460000D02*
D03*
X360000Y2242500D02*
D03*
X410000D02*
D03*
X-30000Y2055000D02*
D03*
X70000D02*
D03*
X-30000Y2240000D02*
D03*
X20000D02*
D03*
D47*
X-455000Y1192500D02*
D03*
X-405000D02*
D03*
X-305000D02*
D03*
X-355000Y1567500D02*
D03*
X-405000D02*
D03*
X-355000Y1192500D02*
D03*
X-305000Y1567500D02*
D03*
X-455000D02*
D03*
D48*
X-242500Y1255000D02*
D03*
Y1305000D02*
D03*
X-517500Y1505000D02*
D03*
Y1455000D02*
D03*
Y1405000D02*
D03*
Y1355000D02*
D03*
Y1305000D02*
D03*
Y1255000D02*
D03*
X-242500Y1355000D02*
D03*
Y1405000D02*
D03*
Y1455000D02*
D03*
Y1505000D02*
D03*
D49*
X-380000Y1380000D02*
D03*
D50*
X35560Y1237080D02*
D03*
X4361180Y1775520D02*
D03*
X3728720Y1432500D02*
D03*
X3726180Y802700D02*
D03*
X1230000Y4302000D02*
D03*
X702703Y3729500D02*
D03*
X218440Y2863061D02*
D03*
X650240Y1009080D02*
D03*
X1643380Y1288518D02*
D03*
X1968500Y1785560D02*
D03*
X-1564640Y1526600D02*
D03*
X2041743Y2217535D02*
D03*
X-1564640Y1341060D02*
D03*
X-957580Y3385760D02*
D03*
X-943060Y2760357D02*
D03*
X-1419860Y3164217D02*
D03*
X-1524000Y3850980D02*
D03*
X-1653340Y3220217D02*
D03*
X-1660834Y3035600D02*
D03*
X-1440834D02*
D03*
X-1659859Y2863220D02*
D03*
X-1169120Y2816357D02*
D03*
X-1439859Y2863220D02*
D03*
X1930000Y1528919D02*
D03*
X1643380Y1344518D02*
D03*
X-1524000Y3794980D02*
D03*
X35560Y1293080D02*
D03*
X-1922780Y1433062D02*
D03*
Y1489062D02*
D03*
X2956560Y650668D02*
D03*
Y594668D02*
D03*
X2041743Y2273535D02*
D03*
X495300Y1491080D02*
D03*
Y1547080D02*
D03*
X35560Y1412514D02*
D03*
Y1356514D02*
D03*
X4361180Y1719520D02*
D03*
X2616200Y594668D02*
D03*
Y650668D02*
D03*
X2870200Y594668D02*
D03*
Y650668D02*
D03*
X2720340Y594668D02*
D03*
Y650668D02*
D03*
X-868680Y2387540D02*
D03*
Y2443540D02*
D03*
X-805085Y2443539D02*
D03*
Y2387540D02*
D03*
X3728720Y1488500D02*
D03*
X3726180Y746700D02*
D03*
X-1478280Y1341060D02*
D03*
Y1397060D02*
D03*
X-1640840Y1140400D02*
D03*
Y1196400D02*
D03*
X-1783080Y1305500D02*
D03*
Y1361500D02*
D03*
X-1653340Y3164217D02*
D03*
X-1419860Y3220217D02*
D03*
X-1169120Y2760357D02*
D03*
X-943060Y2816357D02*
D03*
X-957580Y3441759D02*
D03*
X1230000Y4358000D02*
D03*
X1070000D02*
D03*
Y4302000D02*
D03*
X1230000Y4612000D02*
D03*
Y4668000D02*
D03*
Y4452000D02*
D03*
Y4508000D02*
D03*
X950000Y4612000D02*
D03*
Y4668000D02*
D03*
Y4508000D02*
D03*
Y4452000D02*
D03*
X-1440834Y2979600D02*
D03*
X-1660834D02*
D03*
X-1439859Y2807220D02*
D03*
X-1659859D02*
D03*
X480001Y3930000D02*
D03*
Y3874000D02*
D03*
X400000Y3872000D02*
D03*
Y3928000D02*
D03*
X230003Y3873440D02*
D03*
Y3929440D02*
D03*
X1150000Y4168000D02*
D03*
Y4112000D02*
D03*
X910000Y4112000D02*
D03*
Y4168000D02*
D03*
X980000Y4112000D02*
D03*
Y4168000D02*
D03*
Y4028000D02*
D03*
Y3972000D02*
D03*
X910000Y4028000D02*
D03*
Y3972000D02*
D03*
X702703Y3785500D02*
D03*
X708660Y3926900D02*
D03*
Y3870900D02*
D03*
X40000Y4502000D02*
D03*
Y4558000D02*
D03*
X640000Y3928000D02*
D03*
Y3872000D02*
D03*
X-120000Y4502000D02*
D03*
Y4558000D02*
D03*
X120001Y4558000D02*
D03*
Y4502000D02*
D03*
X304800Y3929440D02*
D03*
Y3873441D02*
D03*
X623886Y3729500D02*
D03*
Y3785500D02*
D03*
X107673Y3527955D02*
D03*
Y3471955D02*
D03*
X173247Y3527955D02*
D03*
Y3471955D02*
D03*
X417964Y3527954D02*
D03*
Y3471954D02*
D03*
X340389Y3658460D02*
D03*
Y3602460D02*
D03*
X1456660Y3398380D02*
D03*
Y3342380D02*
D03*
X496016Y3527956D02*
D03*
Y3471956D02*
D03*
X1186660Y3342380D02*
D03*
Y3398380D02*
D03*
X1266660Y3342380D02*
D03*
Y3398380D02*
D03*
Y3248380D02*
D03*
Y3192380D02*
D03*
X17780Y2862520D02*
D03*
Y2918520D02*
D03*
X1186660Y3248380D02*
D03*
Y3192380D02*
D03*
X976660D02*
D03*
Y3248380D02*
D03*
X218440Y2919060D02*
D03*
X492760D02*
D03*
Y2863061D02*
D03*
X1536660Y3342380D02*
D03*
Y3398380D02*
D03*
X976660Y3060110D02*
D03*
Y3116110D02*
D03*
X429620Y2861327D02*
D03*
Y2917327D02*
D03*
X107674Y3602459D02*
D03*
Y3658459D02*
D03*
X154940Y2863060D02*
D03*
Y2919060D02*
D03*
X-388620Y2910500D02*
D03*
Y2854500D02*
D03*
X-530860Y2943800D02*
D03*
Y2999800D02*
D03*
X-594360Y2943800D02*
D03*
Y2999800D02*
D03*
X-255169Y2703220D02*
D03*
Y2647220D02*
D03*
X-337360Y2703220D02*
D03*
Y2647220D02*
D03*
X-257360Y2563220D02*
D03*
Y2507220D02*
D03*
X-677360Y2563220D02*
D03*
Y2507220D02*
D03*
Y2703220D02*
D03*
Y2647220D02*
D03*
X-597360Y2703220D02*
D03*
Y2647220D02*
D03*
X1252220Y1341180D02*
D03*
Y1285180D02*
D03*
X1183640Y1341180D02*
D03*
Y1285180D02*
D03*
X299720Y304860D02*
D03*
Y248860D02*
D03*
X1060000Y1698000D02*
D03*
Y1642000D02*
D03*
X759653Y1100284D02*
D03*
Y1156284D02*
D03*
X650240Y953080D02*
D03*
X718820Y1009080D02*
D03*
Y953080D02*
D03*
X967740Y875501D02*
D03*
Y819501D02*
D03*
X488310Y2405799D02*
D03*
Y2349799D02*
D03*
X63500Y2405440D02*
D03*
Y2349440D02*
D03*
X-610000Y1238000D02*
D03*
Y1182000D02*
D03*
X1930000Y1584919D02*
D03*
X1968500Y1841560D02*
D03*
X-1564640Y1397060D02*
D03*
Y1470600D02*
D03*
X-1849120Y1305500D02*
D03*
Y1361500D02*
D03*
X-1709420Y1140400D02*
D03*
Y1196400D02*
D03*
X-1478280Y1473080D02*
D03*
Y1529080D02*
D03*
D51*
X1581343Y4559300D02*
D03*
X1801500Y2710000D02*
D03*
X1065327Y66489D02*
D03*
X1148327D02*
D03*
X-610460Y68580D02*
D03*
X-527460D02*
D03*
X1498343Y4559300D02*
D03*
X1718500Y2710000D02*
D03*
D52*
X821424Y21525D02*
D03*
X-853060Y22860D02*
D03*
X551424Y21525D02*
D03*
X-1123060Y22860D02*
D03*
D53*
X1060000Y4218000D02*
D03*
X820000D02*
D03*
X1356660Y3455380D02*
D03*
X1096660D02*
D03*
X674214Y3376872D02*
D03*
X674895Y2975826D02*
D03*
X1060000Y4128000D02*
D03*
X820000D02*
D03*
Y4035000D02*
D03*
Y3945000D02*
D03*
X1060000Y4035000D02*
D03*
Y3945000D02*
D03*
X1356660Y3365380D02*
D03*
X1096660D02*
D03*
X674214Y3286872D02*
D03*
X674895Y3065826D02*
D03*
X1356660Y3270380D02*
D03*
Y3180380D02*
D03*
X1096660Y3270380D02*
D03*
Y3180380D02*
D03*
X577456Y3286832D02*
D03*
Y3376831D02*
D03*
X577714Y3066304D02*
D03*
Y2976304D02*
D03*
D54*
X-286060Y4110000D02*
D03*
Y4380000D02*
D03*
X-196060Y4110000D02*
D03*
Y4380000D02*
D03*
X-105000Y4110000D02*
D03*
X-15000D02*
D03*
X-105000Y4380000D02*
D03*
X-15000D02*
D03*
D55*
X-1271500Y910000D02*
D03*
Y1240000D02*
D03*
Y1020000D02*
D03*
X-1128500D02*
D03*
X-1271500Y1130000D02*
D03*
X-1128500D02*
D03*
X-1298500Y2450000D02*
D03*
X-1441500D02*
D03*
X-312800Y2166620D02*
D03*
X-169800D02*
D03*
X-1128500Y910000D02*
D03*
Y1240000D02*
D03*
D56*
X3590480Y1463040D02*
D03*
X1151280Y2750820D02*
D03*
X-2037500Y2310000D02*
D03*
Y2170000D02*
D03*
X1639909Y1712439D02*
D03*
X1639907Y1592173D02*
D03*
X1504909Y1712439D02*
D03*
X1504907Y1592173D02*
D03*
X1016280Y2750820D02*
D03*
X3455480Y1463040D02*
D03*
X-1902500Y2310000D02*
D03*
Y2170000D02*
D03*
D57*
X-63559Y1256702D02*
D03*
X1700020Y3494177D02*
D03*
X988060Y1408240D02*
D03*
X-711200Y1103440D02*
D03*
X-63559Y1637922D02*
D03*
X780000Y2202500D02*
D03*
X650000D02*
D03*
X780000Y2337500D02*
D03*
X1700020Y3629177D02*
D03*
X-63559Y1391702D02*
D03*
X700000Y4157500D02*
D03*
Y4022500D02*
D03*
X1264920Y4167060D02*
D03*
Y4032060D02*
D03*
X988060Y1543240D02*
D03*
X-711200Y1238440D02*
D03*
X-63559Y1502922D02*
D03*
X650000Y2337500D02*
D03*
D58*
X499876Y1359860D02*
D03*
X3210560Y1368580D02*
D03*
X2765326Y352989D02*
D03*
X1668780Y3721580D02*
D03*
X1305257Y3625608D02*
D03*
X3528060Y352989D02*
D03*
X711200Y4365780D02*
D03*
X1439320Y5520778D02*
D03*
X1361440D02*
D03*
X-2040000Y1950000D02*
D03*
X440000Y4560000D02*
D03*
X857233Y3686999D02*
D03*
X780000Y3727000D02*
D03*
X86360Y2856060D02*
D03*
X281792Y2859696D02*
D03*
X-124460Y2978940D02*
D03*
X-462280Y2936800D02*
D03*
X-678180Y2256000D02*
D03*
X1094740Y1473680D02*
D03*
X1021080Y1171377D02*
D03*
X1744980Y1838480D02*
D03*
X-1079500Y1533680D02*
D03*
X-163190Y1343703D02*
D03*
X890000Y2270000D02*
D03*
Y2030000D02*
D03*
Y2120000D02*
D03*
Y2330000D02*
D03*
X711200Y4305780D02*
D03*
X890000Y2180000D02*
D03*
Y1970000D02*
D03*
X1305257Y3685608D02*
D03*
X1668780Y3781580D02*
D03*
X499876Y1419860D02*
D03*
X3210560Y1308580D02*
D03*
X2765326Y412989D02*
D03*
X3528060D02*
D03*
X1150000Y4360000D02*
D03*
Y4300000D02*
D03*
X1439320Y5460778D02*
D03*
X1361440D02*
D03*
X-2040000Y2010000D02*
D03*
X160000Y3870000D02*
D03*
Y3930000D02*
D03*
X560000Y3867000D02*
D03*
Y3927000D02*
D03*
X1150001Y4015124D02*
D03*
Y3955124D02*
D03*
X-39999Y4500000D02*
D03*
Y4560000D02*
D03*
X440000Y4500000D02*
D03*
X857233Y3746999D02*
D03*
X780000Y3787000D02*
D03*
X80000Y3930000D02*
D03*
Y3870000D02*
D03*
X228600Y4561360D02*
D03*
Y4501360D02*
D03*
X340398Y3529955D02*
D03*
Y3469955D02*
D03*
X30097Y3529954D02*
D03*
Y3469954D02*
D03*
X1456660Y3250380D02*
D03*
Y3190380D02*
D03*
X496015Y3398015D02*
D03*
Y3338015D02*
D03*
X495547Y3060961D02*
D03*
Y3000961D02*
D03*
X86360Y2916060D02*
D03*
X281792Y2919696D02*
D03*
X173267Y3659921D02*
D03*
Y3599921D02*
D03*
X358140Y2856060D02*
D03*
Y2916060D02*
D03*
X-124460Y2918940D02*
D03*
X-594360Y2797500D02*
D03*
Y2857499D02*
D03*
X-462280Y2996800D02*
D03*
X-678180Y2316000D02*
D03*
X1094740Y1533680D02*
D03*
X1021080Y1111377D02*
D03*
X1744980Y1778480D02*
D03*
X-1079500Y1473680D02*
D03*
X-163190Y1403703D02*
D03*
D59*
X2829740Y4902200D02*
D03*
X2534740D02*
D03*
X3403780Y5761200D02*
D03*
X3108780D02*
D03*
Y3792220D02*
D03*
X3403780D02*
D03*
D60*
X3445160Y2714441D02*
D03*
X2925160D02*
D03*
X3445160Y3004441D02*
D03*
X2925160D02*
D03*
D61*
X3450640Y1013756D02*
D03*
Y1238841D02*
D03*
X3355639D02*
D03*
X3545641D02*
D03*
Y1013756D02*
D03*
D62*
X2846070Y1026980D02*
D03*
D63*
X2671070Y1272090D02*
D03*
X2871070D02*
D03*
X3021070D02*
D03*
X2821070Y781870D02*
D03*
X2721070Y1272090D02*
D03*
X2771070D02*
D03*
X2821070D02*
D03*
X2921070D02*
D03*
X2971070D02*
D03*
X3021070Y781870D02*
D03*
X2971070D02*
D03*
X2921070D02*
D03*
X2871070D02*
D03*
X2771070D02*
D03*
X2721070D02*
D03*
X2671070D02*
D03*
D64*
X1569040Y4467860D02*
D03*
X1525860Y4218940D02*
D03*
X1156380Y1191260D02*
D03*
X-1046263Y5633510D02*
D03*
X1440860Y4218940D02*
D03*
X-532720Y1658620D02*
D03*
X-447720D02*
D03*
X-259560Y1653540D02*
D03*
X-174560D02*
D03*
X510949Y5346700D02*
D03*
X425949D02*
D03*
X1049192D02*
D03*
X964192D02*
D03*
X510949Y5634634D02*
D03*
X425949D02*
D03*
X1484040Y4467860D02*
D03*
X-148360Y5350493D02*
D03*
X-233360D02*
D03*
X964192Y5633720D02*
D03*
X1049192D02*
D03*
X-148360Y5633510D02*
D03*
X-233360D02*
D03*
X-422340Y5350493D02*
D03*
X-507340D02*
D03*
X699418Y5636260D02*
D03*
X784418D02*
D03*
X-696321Y5633510D02*
D03*
X-781321D02*
D03*
X-696321Y5350493D02*
D03*
X-781321D02*
D03*
X-422340Y5633510D02*
D03*
X-507340D02*
D03*
X-961263Y5350493D02*
D03*
X-1046263D02*
D03*
X150540Y5633720D02*
D03*
X235540D02*
D03*
X-961263Y5633510D02*
D03*
X1454740Y2771140D02*
D03*
X1369740D02*
D03*
X1479160Y3090380D02*
D03*
X1394160D02*
D03*
X1241380Y1191260D02*
D03*
D65*
X2879100Y363220D02*
D03*
X3636019D02*
D03*
X3039100Y313220D02*
D03*
Y363220D02*
D03*
Y413220D02*
D03*
X2879100Y313220D02*
D03*
X3796019D02*
D03*
Y363220D02*
D03*
Y413220D02*
D03*
X3636019Y313220D02*
D03*
D66*
X-1485900Y1736800D02*
D03*
X-1555900Y1666800D02*
D03*
Y1701800D02*
D03*
Y1736800D02*
D03*
X-1485900Y1701800D02*
D03*
Y1666800D02*
D03*
D68*
X380001Y4409053D02*
D03*
X123219Y3009607D02*
D03*
X180000Y4030947D02*
D03*
X230001D02*
D03*
X280000D02*
D03*
X330001D02*
D03*
X380001D02*
D03*
X330001Y4409053D02*
D03*
X280000D02*
D03*
X230001D02*
D03*
X180000D02*
D03*
X323220Y3387713D02*
D03*
X273219D02*
D03*
X223220D02*
D03*
X173219D02*
D03*
X123219D02*
D03*
X173219Y3009607D02*
D03*
X223220D02*
D03*
X273219D02*
D03*
X323220D02*
D03*
D69*
X-1231554Y2173421D02*
D03*
X-1091554Y2323421D02*
D03*
Y2273421D02*
D03*
X-1231554Y2223421D02*
D03*
Y2273421D02*
D03*
Y2323421D02*
D03*
X-1091554Y2223421D02*
D03*
Y2173421D02*
D03*
D70*
X-1569000Y2550000D02*
D03*
Y2455000D02*
D03*
Y2645000D02*
D03*
X-1831000D02*
D03*
Y2455000D02*
D03*
D72*
X-1196380Y1348740D02*
D03*
X-1328380D02*
D03*
D73*
X1536700Y1212260D02*
D03*
X976660Y3412880D02*
D03*
Y3327880D02*
D03*
X1536700Y1297260D02*
D03*
D74*
X-990000Y2632500D02*
D03*
X-1160000D02*
D03*
X-657460Y1602500D02*
D03*
X-990000Y2467500D02*
D03*
X-1160000D02*
D03*
X-657460Y1437500D02*
D03*
D75*
X-1532457Y1216660D02*
D03*
X-1532500Y1050000D02*
D03*
X-1367457Y1216660D02*
D03*
X-1367500Y1050000D02*
D03*
X-1012498Y1300000D02*
D03*
X-847498D02*
D03*
X-1012500Y1130000D02*
D03*
X-847500D02*
D03*
D76*
X3741940Y6235700D02*
D03*
X4441940D02*
D03*
D77*
X4091940Y6154200D02*
D03*
Y6317200D02*
D03*
D78*
X1618360Y3425080D02*
D03*
X1944932Y1684433D02*
D03*
X1914932D02*
D03*
X1588360Y3425080D02*
D03*
D79*
X1108880Y1302780D02*
D03*
Y1272780D02*
D03*
D80*
X-1750834Y3040102D02*
D03*
X-1749861Y2867721D02*
D03*
X-1750834Y2975098D02*
D03*
X-1749861Y2802722D02*
D03*
D81*
X-1610360Y4232900D02*
D03*
X-1520890Y4585960D02*
D03*
X-1341820D02*
D03*
X-1431290Y4232900D02*
D03*
X-1252190Y4072900D02*
D03*
Y4232900D02*
D03*
X-1431290Y4072900D02*
D03*
X-625400Y4425960D02*
D03*
Y4585960D02*
D03*
X-804500D02*
D03*
Y4425960D02*
D03*
X-1073090Y4072900D02*
D03*
Y4232900D02*
D03*
X-894000D02*
D03*
Y4072900D02*
D03*
X-1162700Y4425960D02*
D03*
Y4585960D02*
D03*
X-267201Y3719800D02*
D03*
Y3879800D02*
D03*
X-714900Y4072900D02*
D03*
Y4232900D02*
D03*
X-625401Y3719800D02*
D03*
Y3879800D02*
D03*
X-983600Y4425960D02*
D03*
Y4585960D02*
D03*
X-1341820Y4425960D02*
D03*
X-535801Y4072900D02*
D03*
Y4232901D02*
D03*
X-1162700Y3719800D02*
D03*
Y3879800D02*
D03*
X-1520890Y4425960D02*
D03*
X-1610360Y4072900D02*
D03*
X-983600Y3719800D02*
D03*
Y3879800D02*
D03*
X-804500Y3719800D02*
D03*
Y3879800D02*
D03*
X-446301Y3879800D02*
D03*
Y3719800D02*
D03*
Y4585961D02*
D03*
Y4425960D02*
D03*
D82*
X-1045359Y5747249D02*
D03*
X980182Y5234486D02*
D03*
X1050182D02*
D03*
X-162051Y5234541D02*
D03*
X-232051D02*
D03*
X980182Y5747189D02*
D03*
X1050182D02*
D03*
X-162051Y5747249D02*
D03*
X-232051D02*
D03*
X441227Y5234486D02*
D03*
X511227D02*
D03*
X-436485Y5234541D02*
D03*
X-506485D02*
D03*
X716167Y5747009D02*
D03*
X786167D02*
D03*
X-710919Y5747249D02*
D03*
X-780919D02*
D03*
X716167Y5234486D02*
D03*
X786167D02*
D03*
X-710919Y5234541D02*
D03*
X-780919D02*
D03*
X441227Y5747009D02*
D03*
X511227D02*
D03*
X-436485Y5747249D02*
D03*
X-506485D02*
D03*
X166286Y5234486D02*
D03*
X236286D02*
D03*
X-975359Y5234541D02*
D03*
X-1045359D02*
D03*
X166286Y5747009D02*
D03*
X236286D02*
D03*
X-975359Y5747249D02*
D03*
D83*
X2682240Y4749700D02*
D03*
X3256280Y5608700D02*
D03*
Y3944720D02*
D03*
D84*
X1603360Y3462080D02*
D03*
X1929932Y1647433D02*
D03*
D85*
X1415247Y3664781D02*
D03*
X1575247D02*
D03*
D86*
X1470660Y4301900D02*
D03*
Y4384900D02*
D03*
D89*
X3903740Y1201300D02*
D03*
Y1301300D02*
D03*
Y1251300D02*
D03*
Y1151300D02*
D03*
Y1051300D02*
D03*
Y1001300D02*
D03*
Y1101300D02*
D03*
Y951300D02*
D03*
D90*
X-1979920Y1694180D02*
D03*
X-1819920D02*
D03*
D91*
X-460840Y1831340D02*
D03*
X-280840D02*
D03*
D92*
X-1444320Y3316700D02*
D03*
X-1544320D02*
D03*
X-1494320D02*
D03*
X-1644320D02*
D03*
X-1594320D02*
D03*
X-1444320Y3693700D02*
D03*
X-1544320D02*
D03*
X-1494320D02*
D03*
X-1594320D02*
D03*
X-1644320D02*
D03*
X-1160024Y3284760D02*
D03*
X-1060024D02*
D03*
X-1110024D02*
D03*
X-960024D02*
D03*
X-1010024D02*
D03*
X-1160024Y2907760D02*
D03*
X-1060024D02*
D03*
X-1110024D02*
D03*
X-1010024D02*
D03*
X-960024D02*
D03*
D93*
X1770000Y1940000D02*
D03*
Y2100000D02*
D03*
D94*
X-118240Y3277220D02*
D03*
X-281940Y3237220D02*
D03*
X-118240D02*
D03*
Y3197220D02*
D03*
X-281940D02*
D03*
Y3157220D02*
D03*
X-118240D02*
D03*
X-557150Y3278110D02*
D03*
X-393450D02*
D03*
Y3238110D02*
D03*
X-557150D02*
D03*
Y3198110D02*
D03*
X-393450D02*
D03*
X-557150Y3158110D02*
D03*
D95*
X-276940Y3277220D02*
D03*
X-398450Y3158110D02*
D03*
D96*
X791157Y2645160D02*
D03*
Y2455160D02*
D03*
D97*
X1262380Y5523940D02*
D03*
Y5453940D02*
D03*
D98*
X1257300Y1539240D02*
D03*
X1173300D02*
D03*
X1257300Y1430020D02*
D03*
X1173300D02*
D03*
X-179160Y27940D02*
D03*
X-95160D02*
D03*
X376267Y234450D02*
D03*
X460267D02*
D03*
X-344080Y180340D02*
D03*
X-428080D02*
D03*
D99*
X125730Y1427100D02*
D03*
Y1570100D02*
D03*
X205740Y2084960D02*
D03*
Y2227960D02*
D03*
D100*
X673020Y1089865D02*
D03*
Y1173865D02*
D03*
X866140Y885920D02*
D03*
Y801920D02*
D03*
D102*
X3355639Y1013756D02*
D03*
D103*
X2600960Y851980D02*
D03*
Y901980D02*
D03*
Y951980D02*
D03*
Y1001980D02*
D03*
Y1051980D02*
D03*
Y1101980D02*
D03*
Y1151980D02*
D03*
Y1201980D02*
D03*
X3091180D02*
D03*
Y1151980D02*
D03*
Y1101980D02*
D03*
Y1051980D02*
D03*
Y1001980D02*
D03*
Y951980D02*
D03*
Y901980D02*
D03*
Y851980D02*
D03*
D104*
X2884100Y413220D02*
D03*
X3641019D02*
D03*
D105*
X90947Y4320000D02*
D03*
X412273Y3098660D02*
D03*
D106*
X90947Y4270000D02*
D03*
Y4220000D02*
D03*
Y4170000D02*
D03*
Y4120000D02*
D03*
X469054D02*
D03*
Y4170000D02*
D03*
Y4220000D02*
D03*
Y4270000D02*
D03*
Y4320000D02*
D03*
X412273Y3148660D02*
D03*
Y3198660D02*
D03*
Y3248660D02*
D03*
Y3298660D02*
D03*
X34166D02*
D03*
Y3248660D02*
D03*
Y3198660D02*
D03*
Y3148660D02*
D03*
Y3098660D02*
D03*
D107*
X-1161554Y2153421D02*
D03*
Y2343421D02*
D03*
D108*
X-1063900Y1664260D02*
D03*
X-1018900D02*
D03*
X-1062704Y2003904D02*
D03*
X-1017704D02*
D03*
X-1873333Y2972600D02*
D03*
X-1828333D02*
D03*
X-1872359Y2800220D02*
D03*
X-1827359D02*
D03*
D109*
X-1041400Y1734260D02*
D03*
X-1040204Y2073904D02*
D03*
X-1850833Y3042600D02*
D03*
X-1849859Y2870220D02*
D03*
D110*
X1071880Y1287780D02*
D03*
D111*
X-1590757Y2242982D02*
D03*
X-1785757D02*
D03*
D112*
X-1002497Y960000D02*
D03*
X-1002496Y790000D02*
D03*
X-857496Y960000D02*
D03*
X-857495Y790000D02*
D03*
D273*
X-503610Y2392466D02*
D03*
X-431120Y2392465D02*
D03*
D274*
X-431119Y2477969D02*
D03*
X-503610Y2477970D02*
D03*
D275*
X280000Y4220000D02*
D03*
X223220Y3198660D02*
D03*
%TF.MD5,e6d296a8761915774c5d90e2749e8ff1*%
M02*
