M48
;Layer_Color=9474304
;FILE_FORMAT=4:4
METRIC,LZ
;TYPE=PLATED
T01F00S00C0.1016
T02F00S00C0.1020
;TYPE=NON_PLATED
%
T01
X-00023884Y00005051
X-00006426Y00002765
X00008192Y00007591
X00012026Y0001872
X-000033Y00019572
X-00001287Y00029428
X00019547
X00031496Y00019304
X00014114Y-00005364
X00254606Y-00032901
X00393606Y-00032823
X00396242Y00080669
X00385062Y00080689
X00369568Y00080309
X00376114Y00129591
X00375922Y00143211
X00383992Y00144591
X00395988Y00144571
X00355998Y00146265
X00324106Y00137047
X00305157Y00127248
X00303887Y00118967
X00284057Y00127248
X00264057
X00271427Y00118967
X00287657Y00102737
X00285157Y00078226
X00271427Y00086507
X00303887
X00182211Y00141755
X00182368Y00153323
X00182148Y00164939
X00167071Y00169457
X00166953Y00173653
X00160629Y00161185
X00160813Y00156962
X00144759Y0016623
X00144534Y00172935
X00146312Y00181063
X00131969Y00188722
X00130722Y00207831
X00135663Y00207769
X00137151Y00210448
X00140465Y00210461
X0014655Y00215539
X00150663Y00212769
X00153391Y00215815
X00146231Y00222663
X0014655Y00230539
X00150769Y00227663
X00141231Y00227663
X0013655Y00225461
Y00220539
X00125465
X00125416Y0022551
X00116337Y00223231
X00115427Y00230352
X00115663Y00237769
X00116216Y00242685
X00121256Y0024273
X0012319Y00235458
X0012573Y00237744
X00131231Y00242663
X0013045Y00250539
X00135653Y00247706
X00141024Y00252158
X00145993
X00150993
X00153416Y00262636
X00149287Y00264902
X00142636Y002595
X00141231Y00242663
X00140465Y00235539
X0013249Y00232325
X00109827Y0022749
X0011061Y00220286
X00108485Y0021445
X00110928Y00212593
X00111544Y0020955
X0011557
X00120664Y00207748
X00125845Y00207483
X0012655Y00210461
X0012155Y00215461
X00099875Y00212141
X00097536Y00208043
X00104188Y00206692
X0009525Y00197576
X00109015Y00190658
X00115277Y00181067
X00118715Y00170841
X0012305Y00167039
X00112965
X00114998Y00153924
X00112505Y00147388
X00120372Y00142833
X00104471Y00140703
X00108838Y00132969
X00106646Y0013051
X00135703Y00117374
X00097535Y00169207
X00099822Y0018099
X00157214Y0019591
X0017153Y00220354
X00162367Y00230475
X00159466Y00234654
X0015621Y00238214
X00188443Y00232703
X00198211Y00232195
X00199765Y00220984
X00207205Y00221804
X00193767Y00178495
X00183231Y00271042
X00176625Y0027066
X00168075Y00268274
X00180521Y00285271
X00182978Y00294362
X001601Y00298196
X00153509Y0029669
X00165608Y0030861
X0016239Y0032287
X00142616Y00318927
X00132616Y00317577
X00128716Y00303999
X00128697Y00296018
Y00292058
X00114616Y00292077
X00107052Y0029297
X00106851Y00285018
X00116756Y00283788
X00118252Y00277094
X00118148Y00272636
X00123952Y0027305
X00127897Y00277018
X00131556Y00279541
X00134156Y00273244
X00128778Y0026543
X00101173Y00268021
X00098806Y00265938
X00098781Y00275102
X00106303Y0027393
X0011104Y00247904
X00118616Y00299999
X00114001Y00311568
X00106616Y00317577
X00100716Y00319199
X00107188Y00340868
X00103383Y0035052
X00097536Y00346202
X00094989Y00379039
X00103039Y00394
X00117457Y0039275
X0013615Y00395678
X00139174Y00389717
X00137829Y00386709
X00142514Y00387717
Y00391639
X00143977Y00399658
X00154659Y00399668
X00152537Y00394623
X00156537Y00391639
Y00387717
X00150351Y00387759
X0014881Y00378287
X00145796Y0036576
X00150368Y00354417
X00150616Y00339877
X00164629Y00348957
X00175477
X00173101Y00358902
X00176002Y00365721
X0017526Y00369316
X00163943Y00372007
X00130537Y00370632
X0012957Y00357503
X001135Y00366402
X00123444Y00336042
X00109949Y00422601
X00102989Y00420261
X00102761Y00430639
X00113393Y00445187
X00107402Y00456569
X00096159Y00452993
X00139446Y0045964
X00151123Y00462842
X00150851Y0046701
X00156464Y00467614
X00307478Y00371562
X00337578Y00372409
X00341466Y00271405
X00289466
X00394114Y00201379
X00433068Y00177513
X00077978Y00188722
X00074591Y00187071
X00068526Y00185928
X00065024
X00062992Y00183388
X0006096Y00178562
X0006156Y0017196
X00058518Y00195083
X000478Y00215039
X0003905
X00046Y00228607
X00056359Y00226441
X00073565Y00233426
X00080994Y00233192
X00085684Y00232985
X00085957Y00218093
X00086004Y0020066
X00033274Y00189484
X00030734Y00181264
X0001736Y00172304
X-00007115Y00174391
X-00004826Y00184658
X-000047Y00189992
X0000005Y00214789
X0001005
X0000762Y00209246
X00007828Y00228357
X00003002Y00241085
X-00003586Y00241038
X-00014Y0023749
X-00030836Y00241061
X-00038354Y00245872
X-00043451Y00245598
Y00240304
X-00062617Y00236002
X-0007804Y00234465
X-00085218Y00241683
X-00096012Y00240159
X-00093782Y00246001
X-00093235Y00263144
X-00085087Y0026201
X-00091275Y00276055
X-00098133Y0027465
X-00097888Y00278114
X-00107133Y0028165
X-00113881Y00281655
X-00112732Y00275252
X-00109745Y0026323
X-00104885Y00263124
X-00121141Y0026325
X-00124Y00253695
X-00115173Y00243717
X-00112599Y00238
X-00114046Y0022225
X-00126186Y00217362
X-00131757Y0020849
X-00146395Y00206776
X-00152795Y00206569
X-00159297Y00206536
X-00150097Y00197084
X-00151969Y00194333
Y00181269
X-00145531Y0018148
X-0014695Y00186289
X-00151621Y001737
X-00160998Y00173724
Y00166991
X-00175531Y0018598
X-00186469Y0018602
X-00192531Y0019102
X-00183865Y00223228
X-00163305Y0025498
X-00151469Y00255
X-00149Y00248337
X-0013675Y00265039
X-00118952Y00284965
X-00112952Y00290815
Y00299665
X-00121802Y00304665
Y00314665
X-00127903Y00309665
X-00129796Y00319665
X-00112952
X-00099053
Y00328515
X-00098283Y00342116
X-00107758Y00345619
X-00114898Y00342057
X-00118124Y00349629
X-00132551Y0035054
X-00132532Y00360559
X-00138613Y0035554
X-00147482Y00360559
X-00161382
Y00368593
X-00157788Y00368707
X-00170232Y00355559
X-00161382Y00340559
X-00147482
X-00141382Y00331709
X-00152254Y00318582
X-00158192Y00314994
X-00179849Y002972
X-00185911Y00279928
X-00092952Y00290815
X-00099053Y00299665
X-00102952Y00309665
X-00090203Y00314665
X-00084102Y00304587
X-00073777Y00304078
X-00074416Y00321832
X-00059184Y00319825
X-00052665Y0032385
X-0005703Y00333909
X-00043938Y00339619
X-00042499Y00309606
X-00043178Y00299641
X-00035865Y00290648
X-00028196Y00297155
X-00018032Y00297141
X-00017779Y0028858
X-00009396Y00291933
X-00001272Y00291891
X00005631Y00292188
X00009272Y00301
X00007891Y00307614
X-00010509Y00309599
X-00014874Y00315761
Y00323761
X-00008774Y00327761
Y00319761
X-00010959Y00333946
X00014207Y0032768
X00030243
X00035372Y00338811
X00037089Y00366235
X00020377Y00366181
X0002825Y00379039
X0002743Y00387305
X0005295Y00386589
X00058928Y00381
X00059378Y00372911
X00059525Y00352796
X00063671Y00336726
X00075366Y00330836
X00085346Y0032896
Y00325165
X00082346Y00316086
X00094635Y00306031
X00088933Y00289293
X00089728Y00279652
X00060706Y00286335
X00058932Y00289267
X00064804Y0029446
X00059903Y00299611
X00052783Y00297058
X00038864Y00285417
X00036576Y00268224
X00028715Y00272831
X00026408Y00265383
X00022606Y00263144
X0000653Y00272891
X00004138Y00276605
X-00013957Y00272831
X-00022713Y00277369
X-00043327Y00278433
X-00046967Y0026518
X-00064705Y00256342
X-00069346Y00279383
X-00067396Y00288655
X-00080612Y00219734
X-00095631Y00217356
X-0009179Y0020791
X-00092251Y0019991
X-00086851Y00197592
X-0008547Y00187851
X-00088386Y0018441
X-0009552Y0018388
X-00098571Y00187851
X-00104699Y00186741
X-00114Y00186039
X-00117046Y00179111
X-00124469Y0018152
Y00194584
X-00107171Y00207538
X-00100655Y00231241
X-00126206Y00232303
X-00107171Y00173406
X-00097036Y00170981
X-00085336Y00177585
X-00077216Y00166878
X-00062696Y00160211
X-00054476Y00146336
X-00041065Y00148292
X-00035389Y00148375
X-00036322Y00140781
X-0003495Y00138039
X-00034785Y00126961
X-000412
X-0003765Y00119427
X-0002745Y00119289
X-00028237Y00125505
X-00027285Y00130461
X-00007112Y0013154
X-00012463Y00144812
X-00009391Y00163832
X-00034888Y0015975
X-0003245Y00156789
X-00043535
X-00058913Y00134112
X-00060198Y0011176
X-00074245Y00110355
X-00058973Y00095184
X-00048535Y00119289
X-00064106Y00186761
Y00190683
X-00075256Y00193449
X-00034888Y00192786
X-00035627Y00208243
X-00038354Y00217575
X-00028709Y00221912
X00001035Y00252663
X00028672Y0023749
X00039676Y00241123
X00045883Y00241085
X00044474Y00255234
X00048668Y00254913
X00050856Y00252711
X00054681Y00272882
X00030751Y00307614
X00079982Y00353161
X00083619Y00360704
X00082594Y00375186
X00091694Y0037338
X00077958Y00391
X00078989Y00394461
X0006705Y00392585
X0005872Y0039707
X00042909Y00409976
X00019795Y0041023
X0000155Y00411039
X0000495Y00392961
X0000155Y00438039
X-0000895Y00450239
X0002591Y00456175
X0003495Y00440945
X00042655Y00433598
X00047203Y00450115
X00064344Y00467011
X00064694Y00427201
X00081026Y004305
X00092011Y00430539
X00019795Y00433344
X-0002554Y00411124
X-00135634Y00375197
X-00129848Y00154907
X-00123742Y00152775
X-001137Y00154056
X-00120396Y00143002
X-00127098Y0014459
X-00140768Y00150561
X-00152908Y00134112
X-00156753Y00124201
X-00156773Y00120724
X-00156736Y00106687
X-00156824Y00103521
X-00174184Y00126398
X-00183964Y00155779
X00045941Y00146545
X00045988Y00142188
X00053154Y0013608
X00088716Y00137453
X0009415Y00140793
X00086001Y00115824
X00088646Y00108458
X00083698Y00101241
X00086061Y00096766
X00080977Y00094022
X00083562Y00088383
X00079382Y00082446
X00068086Y00086491
X00061989Y00100947
X00045626Y0053469
Y00563483
X00018536Y00563402
X-00011805Y00563371
X-00039204
X-00066602
X-00093096
Y00535069
X-00066602
X-00039204
X-00011805
X00072972Y00563646
X0009945Y00563392
Y0053469
X00171196Y00541483
X00168612Y00544508
X00167317Y0054897
X00250424Y00490181
X00279924
X00307828Y00576081
X00337678Y00576031
T02
X00108636Y00224157
M30
