%TF.GenerationSoftware,Altium Limited,Altium Designer,26.10.1 (5)*%
G04 Layer_Color=0*
G04 Board_Origin=74386096|43952041*
%FSLAX45Y45*%
%MOMM*%
%TF.SameCoordinates,2921B627-0CEA-4390-BE51-8046150D5B20*%
%TF.FilePolarity,Positive*%
%TF.FileFunction,Plated,9,10,Blind,Drill*%
%TF.Part,Single*%
G01*
G75*
%TA.AperFunction,ViaDrill,NotFilled*%
%ADD290C,0.10160*%
D290*
X1386759Y1633781D02*
D03*
X1016000Y1254760D02*
D03*
X508000Y4572000D02*
D03*
X-508000Y4318000D02*
D03*
X508081Y3048081D02*
D03*
X508041Y2032040D02*
D03*
X-505949Y1554071D02*
D03*
X1905081Y3190321D02*
D03*
X1437837Y3974592D02*
D03*
X3530600Y2481580D02*
D03*
X3528060Y4053840D02*
D03*
X200660Y71208D02*
D03*
X3474720Y4084320D02*
D03*
X2618612Y2910397D02*
D03*
X2618740Y2481580D02*
D03*
X2921000Y2484120D02*
D03*
Y2938780D02*
D03*
X3220720Y2481580D02*
D03*
X-18559Y1294200D02*
D03*
X222531Y1276444D02*
D03*
X-252643Y1255354D02*
D03*
X322580Y1262380D02*
D03*
X-172720Y1249680D02*
D03*
X757280Y2031649D02*
D03*
X1015283Y2205247D02*
D03*
X1011375Y2066530D02*
D03*
X1084917Y2105080D02*
D03*
X1256464Y2920182D02*
D03*
Y2960576D02*
D03*
X-1500000Y1862494D02*
D03*
X-1523898Y1901409D02*
D03*
%TF.MD5,bd306f36120797bb60569de898456fbc*%
M02*
