%TF.GenerationSoftware,Altium Limited,Altium Designer,26.10.1 (5)*%
G04 Layer_Physical_Order=9*
G04 Layer_Color=32896*
G04 Board_Origin=74386096|43952041*
%FSLAX45Y45*%
%MOMM*%
%TF.SameCoordinates,9E1A2420-9DF8-4FB8-AA41-10CD80989974*%
%TF.FilePolarity,Positive*%
%TF.FileFunction,Copper,L9,Inr,Signal*%
%TF.Part,Single*%
G01*
G75*
%TA.AperFunction,Conductor*%
%ADD10C,0.20000*%
%ADD113C,0.10160*%
%ADD114C,0.07620*%
%ADD115C,0.12700*%
%ADD117C,0.15240*%
%ADD118C,0.20320*%
%ADD119C,0.50000*%
%ADD120C,0.15200*%
%ADD133C,0.38100*%
%TA.AperFunction,ComponentPad*%
%ADD134R,1.55000X1.55000*%
%ADD135C,1.55000*%
%ADD136R,1.55000X1.55000*%
%ADD137O,1.57480X0.95000*%
%TA.AperFunction,ViaPad*%
%ADD142C,0.30480*%
%ADD144C,0.20320*%
%TA.AperFunction,Conductor*%
%ADD145C,0.10200*%
%TA.AperFunction,ViaPad*%
%ADD146C,0.15240*%
%TA.AperFunction,Conductor*%
%ADD149C,0.19050*%
G36*
X515745Y4578663D02*
X516252Y4578314D01*
X516831Y4578006D01*
X517484Y4577739D01*
X518211Y4577513D01*
X519010Y4577328D01*
X519883Y4577184D01*
X520829Y4577081D01*
X522941Y4576999D01*
X522848Y4566839D01*
X521754Y4566819D01*
X519787Y4566658D01*
X518913Y4566518D01*
X518111Y4566337D01*
X517383Y4566116D01*
X516727Y4565855D01*
X516145Y4565553D01*
X515635Y4565212D01*
X515199Y4564830D01*
X515312Y4579054D01*
X515745Y4578663D01*
D02*
G37*
G36*
X531596Y4564784D02*
X531163Y4565175D01*
X530656Y4565524D01*
X530077Y4565832D01*
X529424Y4566099D01*
X528697Y4566325D01*
X527898Y4566510D01*
X527025Y4566654D01*
X526079Y4566757D01*
X523967Y4566839D01*
X524061Y4576999D01*
X525154Y4577019D01*
X527122Y4577180D01*
X527996Y4577320D01*
X528797Y4577501D01*
X529526Y4577722D01*
X530181Y4577983D01*
X530763Y4578284D01*
X531273Y4578626D01*
X531710Y4579008D01*
X531596Y4564784D01*
D02*
G37*
G36*
X-515199Y4310830D02*
X-515635Y4311212D01*
X-516145Y4311553D01*
X-516727Y4311855D01*
X-517383Y4312116D01*
X-518111Y4312337D01*
X-518913Y4312518D01*
X-519787Y4312658D01*
X-520734Y4312759D01*
X-522848Y4312839D01*
X-522941Y4322999D01*
X-521848Y4323020D01*
X-519883Y4323184D01*
X-519010Y4323328D01*
X-518211Y4323513D01*
X-517484Y4323739D01*
X-516831Y4324006D01*
X-516252Y4324314D01*
X-515745Y4324663D01*
X-515312Y4325054D01*
X-515199Y4310830D01*
D02*
G37*
G36*
X-531273Y4324626D02*
X-530763Y4324284D01*
X-530181Y4323983D01*
X-529526Y4323722D01*
X-528797Y4323501D01*
X-527996Y4323320D01*
X-527122Y4323180D01*
X-526174Y4323079D01*
X-524061Y4322999D01*
X-523967Y4312839D01*
X-525060Y4312818D01*
X-527025Y4312654D01*
X-527898Y4312510D01*
X-528697Y4312325D01*
X-529424Y4312099D01*
X-530077Y4311832D01*
X-530656Y4311524D01*
X-531163Y4311175D01*
X-531596Y4310784D01*
X-531710Y4325008D01*
X-531273Y4324626D01*
D02*
G37*
G36*
X-128844Y4261612D02*
X-129059Y4261739D01*
X-129443Y4261853D01*
X-129997Y4261953D01*
X-130720Y4262039D01*
X-133901Y4262220D01*
X-138604Y4262280D01*
Y4282280D01*
X-136868Y4282287D01*
X-129443Y4282707D01*
X-129059Y4282821D01*
X-128844Y4282948D01*
Y4261612D01*
D02*
G37*
G36*
X-128606Y4189096D02*
X-128807Y4189204D01*
X-129180Y4189301D01*
X-129723Y4189387D01*
X-130437Y4189461D01*
X-133602Y4189614D01*
X-138303Y4189665D01*
X-138888Y4209665D01*
X-137152Y4209673D01*
X-129697Y4210153D01*
X-129303Y4210282D01*
X-129076Y4210427D01*
X-128606Y4189096D01*
D02*
G37*
G36*
X958607Y4074451D02*
X959068Y4074257D01*
X959688Y4074085D01*
X960466Y4073936D01*
X961403Y4073811D01*
X963751Y4073628D01*
X968461Y4073525D01*
Y4054475D01*
X966733Y4054464D01*
X960466Y4054064D01*
X959688Y4053915D01*
X959068Y4053743D01*
X958607Y4053549D01*
X958304Y4053332D01*
Y4074668D01*
X958607Y4074451D01*
D02*
G37*
G36*
X392042Y4040498D02*
X393182Y4039544D01*
X394357Y4038703D01*
X395566Y4037974D01*
X396809Y4037357D01*
X398086Y4036852D01*
X399398Y4036460D01*
X400744Y4036179D01*
X402124Y4036011D01*
X403539Y4035955D01*
X403486Y4025795D01*
X402073Y4025739D01*
X400694Y4025572D01*
X399346Y4025294D01*
X398032Y4024904D01*
X396750Y4024403D01*
X395501Y4023791D01*
X394284Y4023067D01*
X393101Y4022232D01*
X391950Y4021286D01*
X390831Y4020228D01*
X390936Y4041564D01*
X392042Y4040498D01*
D02*
G37*
G36*
X138495Y3386023D02*
X138633Y3384542D01*
X138874Y3383115D01*
X139218Y3381744D01*
X139664Y3380428D01*
X140213Y3379168D01*
X140865Y3377963D01*
X141620Y3376813D01*
X142477Y3375718D01*
X143437Y3374679D01*
X136253Y3367495D01*
X135214Y3368455D01*
X134120Y3369313D01*
X132970Y3370067D01*
X131765Y3370719D01*
X130504Y3371268D01*
X129188Y3371715D01*
X127817Y3372059D01*
X126391Y3372300D01*
X124909Y3372438D01*
X123372Y3372474D01*
X138459Y3387561D01*
X138495Y3386023D01*
D02*
G37*
G36*
X583712Y3225122D02*
X589259Y3220170D01*
X589611Y3219978D01*
X589853Y3219915D01*
X574766Y3204828D01*
X574703Y3205071D01*
X574512Y3205423D01*
X574191Y3205885D01*
X573742Y3206457D01*
X571620Y3208835D01*
X568337Y3212203D01*
X582479Y3226345D01*
X583712Y3225122D01*
D02*
G37*
G36*
X577472Y3134720D02*
X577256Y3134847D01*
X576872Y3134961D01*
X576318Y3135061D01*
X575596Y3135148D01*
X572414Y3135328D01*
X567711Y3135388D01*
Y3155388D01*
X569448Y3155395D01*
X576872Y3155816D01*
X577256Y3155929D01*
X577472Y3156056D01*
Y3134720D01*
D02*
G37*
G36*
X500882Y3040911D02*
X500446Y3041293D01*
X499936Y3041635D01*
X499354Y3041936D01*
X498698Y3042197D01*
X497970Y3042418D01*
X497168Y3042599D01*
X496294Y3042739D01*
X495347Y3042840D01*
X493233Y3042920D01*
X493140Y3053080D01*
X494233Y3053101D01*
X496198Y3053265D01*
X497071Y3053409D01*
X497870Y3053594D01*
X498597Y3053820D01*
X499250Y3054087D01*
X499829Y3054395D01*
X500336Y3054744D01*
X500769Y3055135D01*
X500882Y3040911D01*
D02*
G37*
G36*
X484808Y3054707D02*
X485318Y3054365D01*
X485900Y3054064D01*
X486555Y3053803D01*
X487284Y3053582D01*
X488085Y3053401D01*
X488959Y3053261D01*
X489907Y3053160D01*
X492020Y3053080D01*
X492114Y3042920D01*
X491021Y3042899D01*
X489056Y3042735D01*
X488183Y3042591D01*
X487384Y3042406D01*
X486657Y3042180D01*
X486004Y3041913D01*
X485425Y3041605D01*
X484918Y3041256D01*
X484485Y3040865D01*
X484371Y3055089D01*
X484808Y3054707D01*
D02*
G37*
G36*
X-695889Y2981476D02*
X-695431Y2981067D01*
X-694893Y2980707D01*
X-694276Y2980394D01*
X-693580Y2980130D01*
X-692805Y2979914D01*
X-691951Y2979746D01*
X-691019Y2979625D01*
X-690006Y2979554D01*
X-688916Y2979529D01*
X-690821Y2969369D01*
X-691924Y2969355D01*
X-694790Y2969132D01*
X-695597Y2968999D01*
X-696331Y2968836D01*
X-696990Y2968644D01*
X-697576Y2968422D01*
X-698088Y2968170D01*
X-698526Y2967888D01*
X-696269Y2981932D01*
X-695889Y2981476D01*
D02*
G37*
G36*
X-366912Y2966967D02*
X-367292Y2967423D01*
X-367750Y2967832D01*
X-368288Y2968192D01*
X-368905Y2968504D01*
X-369601Y2968769D01*
X-370376Y2968985D01*
X-371230Y2969153D01*
X-372163Y2969273D01*
X-373175Y2969345D01*
X-374265Y2969369D01*
X-372360Y2979529D01*
X-371257Y2979544D01*
X-368391Y2979766D01*
X-367584Y2979900D01*
X-366850Y2980063D01*
X-366191Y2980255D01*
X-365605Y2980477D01*
X-365093Y2980729D01*
X-364655Y2981011D01*
X-366912Y2966967D01*
D02*
G37*
G36*
X-350929Y2979563D02*
X-350421Y2979218D01*
X-349840Y2978913D01*
X-349185Y2978649D01*
X-348458Y2978425D01*
X-347658Y2978242D01*
X-346784Y2978100D01*
X-345838Y2977998D01*
X-343725Y2977917D01*
Y2967757D01*
X-344818Y2967737D01*
X-346784Y2967574D01*
X-347658Y2967432D01*
X-348458Y2967249D01*
X-349185Y2967026D01*
X-349840Y2966761D01*
X-350421Y2966457D01*
X-350929Y2966111D01*
X-351364Y2965725D01*
Y2979949D01*
X-350929Y2979563D01*
D02*
G37*
G36*
X-189618Y2965270D02*
X-189971Y2965743D01*
X-190407Y2966165D01*
X-190924Y2966538D01*
X-191524Y2966862D01*
X-192205Y2967135D01*
X-192969Y2967359D01*
X-193814Y2967533D01*
X-194742Y2967658D01*
X-195751Y2967732D01*
X-196843Y2967757D01*
X-194237Y2977917D01*
X-193127Y2977930D01*
X-190258Y2978117D01*
X-189455Y2978230D01*
X-188079Y2978530D01*
X-187506Y2978718D01*
X-187010Y2978931D01*
X-186591Y2979168D01*
X-189618Y2965270D01*
D02*
G37*
G36*
X-732224Y2547066D02*
X-731079Y2546116D01*
X-729899Y2545278D01*
X-728687Y2544552D01*
X-727441Y2543937D01*
X-726161Y2543434D01*
X-724848Y2543043D01*
X-723501Y2542764D01*
X-722121Y2542596D01*
X-720707Y2542540D01*
Y2532380D01*
X-722121Y2532324D01*
X-723501Y2532156D01*
X-724848Y2531877D01*
X-726161Y2531486D01*
X-727441Y2530983D01*
X-728687Y2530368D01*
X-729899Y2529642D01*
X-731079Y2528804D01*
X-732224Y2527854D01*
X-733336Y2526792D01*
Y2548128D01*
X-732224Y2547066D01*
D02*
G37*
G36*
X-236322Y2484454D02*
X-237282Y2483415D01*
X-238139Y2482320D01*
X-238894Y2481171D01*
X-239546Y2479965D01*
X-240095Y2478705D01*
X-240542Y2477389D01*
X-240885Y2476018D01*
X-241127Y2474591D01*
X-241265Y2473110D01*
X-241301Y2471572D01*
X-256388Y2486659D01*
X-254850Y2486695D01*
X-253369Y2486833D01*
X-251942Y2487075D01*
X-250571Y2487418D01*
X-249255Y2487865D01*
X-247995Y2488414D01*
X-246789Y2489066D01*
X-245640Y2489821D01*
X-244545Y2490678D01*
X-243506Y2491638D01*
X-236322Y2484454D01*
D02*
G37*
G36*
X500842Y2024871D02*
X500405Y2025252D01*
X499896Y2025594D01*
X499313Y2025895D01*
X498658Y2026156D01*
X497929Y2026377D01*
X497128Y2026558D01*
X496254Y2026699D01*
X495307Y2026799D01*
X493193Y2026879D01*
X493100Y2037039D01*
X494192Y2037060D01*
X496158Y2037224D01*
X497031Y2037368D01*
X497830Y2037553D01*
X498556Y2037779D01*
X499209Y2038046D01*
X499789Y2038355D01*
X500295Y2038704D01*
X500728Y2039094D01*
X500842Y2024871D01*
D02*
G37*
G36*
X484768Y2038666D02*
X485277Y2038325D01*
X485860Y2038024D01*
X486515Y2037762D01*
X487243Y2037542D01*
X488045Y2037361D01*
X488919Y2037220D01*
X489866Y2037120D01*
X491980Y2037039D01*
X492074Y2026879D01*
X490981Y2026859D01*
X489016Y2026694D01*
X488143Y2026551D01*
X487343Y2026366D01*
X486617Y2026139D01*
X485964Y2025873D01*
X485384Y2025564D01*
X484878Y2025215D01*
X484445Y2024824D01*
X484331Y2039048D01*
X484768Y2038666D01*
D02*
G37*
G36*
X750081Y2024479D02*
X749645Y2024861D01*
X749135Y2025202D01*
X748553Y2025504D01*
X747897Y2025765D01*
X747169Y2025986D01*
X746368Y2026167D01*
X745493Y2026307D01*
X744546Y2026408D01*
X742433Y2026488D01*
X742339Y2036648D01*
X743432Y2036669D01*
X745397Y2036833D01*
X746270Y2036977D01*
X747070Y2037162D01*
X747796Y2037388D01*
X748449Y2037655D01*
X749028Y2037963D01*
X749535Y2038312D01*
X749968Y2038703D01*
X750081Y2024479D01*
D02*
G37*
G36*
X734007Y2038275D02*
X734517Y2037933D01*
X735099Y2037632D01*
X735754Y2037371D01*
X736483Y2037150D01*
X737284Y2036969D01*
X738159Y2036829D01*
X739106Y2036728D01*
X741219Y2036648D01*
X741313Y2026488D01*
X740221Y2026467D01*
X738255Y2026303D01*
X737382Y2026159D01*
X736583Y2025974D01*
X735857Y2025748D01*
X735204Y2025481D01*
X734624Y2025173D01*
X734117Y2024823D01*
X733684Y2024433D01*
X733571Y2038657D01*
X734007Y2038275D01*
D02*
G37*
G36*
X-498204Y1560735D02*
X-497698Y1560385D01*
X-497118Y1560077D01*
X-496465Y1559810D01*
X-495739Y1559584D01*
X-494939Y1559399D01*
X-494067Y1559255D01*
X-493120Y1559153D01*
X-491008Y1559070D01*
X-491102Y1548910D01*
X-492195Y1548890D01*
X-494163Y1548729D01*
X-495037Y1548589D01*
X-495838Y1548408D01*
X-496567Y1548187D01*
X-497222Y1547926D01*
X-497805Y1547625D01*
X-498314Y1547283D01*
X-498751Y1546902D01*
X-498637Y1561125D01*
X-498204Y1560735D01*
D02*
G37*
G36*
X-482354Y1546855D02*
X-482787Y1547246D01*
X-483293Y1547595D01*
X-483873Y1547903D01*
X-484526Y1548170D01*
X-485252Y1548396D01*
X-486052Y1548582D01*
X-486924Y1548725D01*
X-487870Y1548828D01*
X-489983Y1548910D01*
X-489889Y1559070D01*
X-488795Y1559090D01*
X-486828Y1559251D01*
X-485954Y1559392D01*
X-485152Y1559572D01*
X-484424Y1559793D01*
X-483768Y1560055D01*
X-483186Y1560356D01*
X-482676Y1560697D01*
X-482240Y1561079D01*
X-482354Y1546855D01*
D02*
G37*
G36*
X-750004Y1533606D02*
X-748859Y1532656D01*
X-747679Y1531818D01*
X-746467Y1531092D01*
X-745221Y1530477D01*
X-743941Y1529974D01*
X-742628Y1529583D01*
X-741281Y1529304D01*
X-739901Y1529136D01*
X-738487Y1529080D01*
Y1518920D01*
X-739901Y1518864D01*
X-741281Y1518696D01*
X-742628Y1518417D01*
X-743941Y1518026D01*
X-745221Y1517523D01*
X-746467Y1516908D01*
X-747679Y1516182D01*
X-748859Y1515344D01*
X-750004Y1514394D01*
X-751116Y1513332D01*
Y1534668D01*
X-750004Y1533606D01*
D02*
G37*
G36*
X107542Y1359525D02*
X108014Y1359127D01*
X108563Y1358776D01*
X109190Y1358472D01*
X109894Y1358215D01*
X110675Y1358004D01*
X111534Y1357841D01*
X112470Y1357723D01*
X113484Y1357653D01*
X114575Y1357630D01*
X113087Y1347470D01*
X111987Y1347454D01*
X109125Y1347212D01*
X108317Y1347067D01*
X107582Y1346889D01*
X106920Y1346680D01*
X106330Y1346437D01*
X105813Y1346163D01*
X105370Y1345857D01*
X107148Y1359969D01*
X107542Y1359525D01*
D02*
G37*
G36*
X916838Y1305561D02*
X916258Y1305526D01*
X915655Y1305411D01*
X915028Y1305216D01*
X914378Y1304940D01*
X913706Y1304584D01*
X913011Y1304147D01*
X912293Y1303630D01*
X911551Y1303032D01*
X910000Y1301596D01*
X902816Y1308780D01*
X903574Y1309567D01*
X904850Y1311073D01*
X905367Y1311791D01*
X905804Y1312486D01*
X906160Y1313158D01*
X906436Y1313808D01*
X906631Y1314435D01*
X906746Y1315038D01*
X906781Y1315618D01*
X916838Y1305561D01*
D02*
G37*
G36*
X-18660Y1284040D02*
X-18906Y1284000D01*
X-19215Y1283874D01*
X-19588Y1283662D01*
X-20025Y1283365D01*
X-20525Y1282983D01*
X-21719Y1281963D01*
X-23987Y1279791D01*
X-32968Y1288771D01*
X-32158Y1289591D01*
X-29393Y1292734D01*
X-29096Y1293171D01*
X-28885Y1293544D01*
X-28759Y1293853D01*
X-28718Y1294098D01*
X-18660Y1284040D01*
D02*
G37*
G36*
X230452Y1282928D02*
X231152Y1282367D01*
X231889Y1281872D01*
X232661Y1281442D01*
X233469Y1281079D01*
X234313Y1280782D01*
X235193Y1280551D01*
X236108Y1280386D01*
X237059Y1280287D01*
X238045Y1280254D01*
Y1272634D01*
X237059Y1272601D01*
X236108Y1272502D01*
X235193Y1272337D01*
X234313Y1272105D01*
X233469Y1271808D01*
X232661Y1271445D01*
X231889Y1271016D01*
X231152Y1270520D01*
X230452Y1269959D01*
X229786Y1269332D01*
Y1283556D01*
X230452Y1282928D01*
D02*
G37*
G36*
X286495Y1269006D02*
X285930Y1269695D01*
X285317Y1270312D01*
X284656Y1270856D01*
X283947Y1271328D01*
X283190Y1271727D01*
X282384Y1272053D01*
X281531Y1272307D01*
X280630Y1272489D01*
X279680Y1272597D01*
X278683Y1272634D01*
X279800Y1280254D01*
X280775Y1280282D01*
X281725Y1280368D01*
X282650Y1280510D01*
X283548Y1280709D01*
X284422Y1280966D01*
X285269Y1281279D01*
X286091Y1281649D01*
X286888Y1282076D01*
X287659Y1282561D01*
X288405Y1283102D01*
X286495Y1269006D01*
D02*
G37*
G36*
X677216Y1276276D02*
X676256Y1275236D01*
X675399Y1274142D01*
X674644Y1272992D01*
X673992Y1271787D01*
X673443Y1270527D01*
X672996Y1269211D01*
X672653Y1267840D01*
X672411Y1266413D01*
X672273Y1264931D01*
X672237Y1263394D01*
X657151Y1278481D01*
X658688Y1278517D01*
X660170Y1278655D01*
X661596Y1278896D01*
X662967Y1279240D01*
X664283Y1279687D01*
X665543Y1280236D01*
X666749Y1280888D01*
X667898Y1281642D01*
X668993Y1282500D01*
X670032Y1283460D01*
X677216Y1276276D01*
D02*
G37*
G36*
X2180Y1271214D02*
X2688Y1270869D01*
X3269Y1270564D01*
X3924Y1270300D01*
X4651Y1270076D01*
X5451Y1269893D01*
X6325Y1269751D01*
X7272Y1269649D01*
X9384Y1269568D01*
Y1259408D01*
X8291Y1259388D01*
X6325Y1259225D01*
X5451Y1259083D01*
X4651Y1258900D01*
X3924Y1258677D01*
X3269Y1258413D01*
X2688Y1258108D01*
X2180Y1257762D01*
X1745Y1257376D01*
Y1271600D01*
X2180Y1271214D01*
D02*
G37*
G36*
X-292955Y1262607D02*
X-292293Y1262017D01*
X-291590Y1261497D01*
X-290845Y1261046D01*
X-290060Y1260664D01*
X-289233Y1260352D01*
X-288365Y1260109D01*
X-287456Y1259936D01*
X-286505Y1259832D01*
X-285514Y1259797D01*
X-286027Y1252177D01*
X-287009Y1252146D01*
X-287959Y1252053D01*
X-288880Y1251897D01*
X-289769Y1251680D01*
X-290628Y1251400D01*
X-291456Y1251058D01*
X-292253Y1250655D01*
X-293020Y1250189D01*
X-293756Y1249660D01*
X-294462Y1249070D01*
X-293575Y1263266D01*
X-292955Y1262607D01*
D02*
G37*
G36*
X-260327Y1248708D02*
X-260948Y1249367D01*
X-261610Y1249957D01*
X-262313Y1250477D01*
X-263057Y1250928D01*
X-263843Y1251310D01*
X-264670Y1251622D01*
X-265538Y1251865D01*
X-266447Y1252038D01*
X-267397Y1252142D01*
X-268389Y1252177D01*
X-267876Y1259797D01*
X-266894Y1259828D01*
X-265944Y1259921D01*
X-265023Y1260077D01*
X-264134Y1260294D01*
X-263275Y1260574D01*
X-262447Y1260916D01*
X-261649Y1261320D01*
X-260883Y1261786D01*
X-260147Y1262314D01*
X-259441Y1262904D01*
X-260327Y1248708D01*
D02*
G37*
G36*
X992727Y1261386D02*
X993237Y1261044D01*
X993819Y1260743D01*
X994474Y1260482D01*
X995203Y1260261D01*
X996004Y1260080D01*
X996878Y1259940D01*
X997826Y1259839D01*
X999939Y1259759D01*
X1000033Y1249599D01*
X998940Y1249578D01*
X996975Y1249414D01*
X996102Y1249270D01*
X995303Y1249085D01*
X994576Y1248859D01*
X993923Y1248592D01*
X993344Y1248284D01*
X992837Y1247935D01*
X992404Y1247544D01*
X992290Y1261768D01*
X992727Y1261386D01*
D02*
G37*
G36*
X329065Y1254459D02*
X328503Y1253758D01*
X328008Y1253022D01*
X327579Y1252249D01*
X327216Y1251441D01*
X326918Y1250597D01*
X326687Y1249718D01*
X326522Y1248803D01*
X326423Y1247852D01*
X326390Y1246865D01*
X318770D01*
X318737Y1247852D01*
X318638Y1248803D01*
X318473Y1249718D01*
X318242Y1250597D01*
X317944Y1251441D01*
X317581Y1252249D01*
X317152Y1253022D01*
X316657Y1253758D01*
X316095Y1254459D01*
X315468Y1255124D01*
X329692D01*
X329065Y1254459D01*
D02*
G37*
G36*
X-171285Y1239622D02*
X-172191Y1239463D01*
X-173076Y1239247D01*
X-173938Y1238974D01*
X-174779Y1238645D01*
X-175598Y1238259D01*
X-176394Y1237817D01*
X-177169Y1237317D01*
X-177921Y1236762D01*
X-178651Y1236149D01*
X-179360Y1235480D01*
X-185640Y1239976D01*
X-184960Y1240708D01*
X-184367Y1241456D01*
X-183860Y1242222D01*
X-183441Y1243004D01*
X-183108Y1243802D01*
X-182862Y1244617D01*
X-182703Y1245449D01*
X-182631Y1246297D01*
X-182646Y1247162D01*
X-182747Y1248044D01*
X-171285Y1239622D01*
D02*
G37*
G36*
X318464Y1230016D02*
X317790Y1229295D01*
X317188Y1228553D01*
X316657Y1227789D01*
X316199Y1227004D01*
X315813Y1226197D01*
X315498Y1225369D01*
X315255Y1224519D01*
X315085Y1223648D01*
X314986Y1222755D01*
X314959Y1221842D01*
X304902Y1231899D01*
X305815Y1231926D01*
X306708Y1232025D01*
X307579Y1232195D01*
X308429Y1232438D01*
X309257Y1232753D01*
X310064Y1233139D01*
X310849Y1233597D01*
X311613Y1234128D01*
X312355Y1234730D01*
X313076Y1235404D01*
X318464Y1230016D01*
D02*
G37*
G36*
X-284579Y1228985D02*
X-283878Y1228423D01*
X-283142Y1227928D01*
X-282369Y1227499D01*
X-281561Y1227135D01*
X-280717Y1226838D01*
X-279838Y1226607D01*
X-278923Y1226442D01*
X-277972Y1226343D01*
X-276985Y1226310D01*
Y1218690D01*
X-277972Y1218657D01*
X-278923Y1218558D01*
X-279838Y1218393D01*
X-280717Y1218162D01*
X-281561Y1217864D01*
X-282369Y1217501D01*
X-283142Y1217072D01*
X-283878Y1216577D01*
X-284579Y1216015D01*
X-285244Y1215388D01*
Y1229612D01*
X-284579Y1228985D01*
D02*
G37*
G36*
X642676Y829819D02*
X642844Y828439D01*
X643123Y827092D01*
X643514Y825779D01*
X644017Y824499D01*
X644632Y823253D01*
X645358Y822041D01*
X646196Y820861D01*
X647146Y819716D01*
X648208Y818604D01*
X626872D01*
X627934Y819716D01*
X628884Y820861D01*
X629722Y822041D01*
X630448Y823253D01*
X631063Y824499D01*
X631566Y825779D01*
X631957Y827092D01*
X632236Y828439D01*
X632404Y829819D01*
X632460Y831233D01*
X642620D01*
X642676Y829819D01*
D02*
G37*
G36*
X121625Y228900D02*
X121943Y228730D01*
X122365Y228581D01*
X122891Y228451D01*
X123520Y228341D01*
X125090Y228181D01*
X127075Y228101D01*
X128224Y228091D01*
X126712Y215391D01*
X125555Y215387D01*
X120544Y215094D01*
X120268Y215015D01*
X120104Y214926D01*
X121410Y229090D01*
X121625Y228900D01*
D02*
G37*
G36*
X207018Y84083D02*
X207284Y79906D01*
X207383Y79387D01*
X207498Y78974D01*
X207627Y78666D01*
X207772Y78464D01*
X193548D01*
X193693Y78666D01*
X193822Y78974D01*
X193937Y79387D01*
X194036Y79906D01*
X194120Y80530D01*
X194241Y82096D01*
X194310Y85236D01*
X207010D01*
X207018Y84083D01*
D02*
G37*
G36*
X1200394Y4312217D02*
X1200773Y4312110D01*
X1201322Y4312016D01*
X1202042Y4311935D01*
X1205217Y4311766D01*
X1209919Y4311709D01*
X1210168Y4291709D01*
X1208432Y4291702D01*
X1200994Y4291256D01*
X1200605Y4291135D01*
X1200384Y4291001D01*
X1200184Y4312336D01*
X1200394Y4312217D01*
D02*
G37*
G36*
X3481446Y4076629D02*
X3481100Y4076121D01*
X3480796Y4075540D01*
X3480532Y4074886D01*
X3480308Y4074159D01*
X3480125Y4073358D01*
X3479983Y4072485D01*
X3479881Y4071538D01*
X3479800Y4069425D01*
X3469640D01*
X3469620Y4070518D01*
X3469457Y4072485D01*
X3469315Y4073358D01*
X3469132Y4074159D01*
X3468908Y4074886D01*
X3468644Y4075540D01*
X3468340Y4076121D01*
X3467994Y4076629D01*
X3467608Y4077064D01*
X3481832D01*
X3481446Y4076629D01*
D02*
G37*
G36*
X3535717Y4047087D02*
X3535443Y4046570D01*
X3535200Y4045980D01*
X3534991Y4045318D01*
X3534813Y4044583D01*
X3534668Y4043775D01*
X3534475Y4041940D01*
X3534426Y4040913D01*
X3534410Y4039813D01*
X3524250Y4038325D01*
X3524227Y4039416D01*
X3524039Y4041366D01*
X3523876Y4042225D01*
X3523665Y4043006D01*
X3523408Y4043710D01*
X3523104Y4044337D01*
X3522753Y4044886D01*
X3522355Y4045358D01*
X3521911Y4045752D01*
X3536023Y4047530D01*
X3535717Y4047087D01*
D02*
G37*
G36*
X1225754Y4023742D02*
X1225321Y4024132D01*
X1224815Y4024481D01*
X1224235Y4024788D01*
X1223582Y4025055D01*
X1222856Y4025281D01*
X1222056Y4025466D01*
X1221183Y4025610D01*
X1220237Y4025713D01*
X1218125Y4025795D01*
X1218211Y4035955D01*
X1219304Y4035975D01*
X1221272Y4036135D01*
X1222146Y4036276D01*
X1222947Y4036457D01*
X1223675Y4036678D01*
X1224331Y4036940D01*
X1224913Y4037241D01*
X1225423Y4037583D01*
X1225859Y4037965D01*
X1225754Y4023742D01*
D02*
G37*
G36*
X1404562Y3982068D02*
X1405055Y3981695D01*
X1405623Y3981365D01*
X1406266Y3981080D01*
X1406983Y3980838D01*
X1407776Y3980641D01*
X1408643Y3980487D01*
X1409585Y3980377D01*
X1411693Y3980289D01*
X1410977Y3970129D01*
X1409882Y3970111D01*
X1407908Y3969964D01*
X1407029Y3969835D01*
X1406224Y3969669D01*
X1405490Y3969466D01*
X1404829Y3969227D01*
X1404240Y3968950D01*
X1403723Y3968637D01*
X1403279Y3968287D01*
X1404144Y3982485D01*
X1404562Y3982068D01*
D02*
G37*
G36*
X1430162Y3967934D02*
X1429744Y3968351D01*
X1429251Y3968724D01*
X1428683Y3969054D01*
X1428040Y3969339D01*
X1427323Y3969581D01*
X1426530Y3969778D01*
X1425663Y3969932D01*
X1424721Y3970042D01*
X1422613Y3970129D01*
X1423329Y3980289D01*
X1424424Y3980308D01*
X1426398Y3980455D01*
X1427277Y3980584D01*
X1428082Y3980750D01*
X1428816Y3980953D01*
X1429477Y3981192D01*
X1430066Y3981469D01*
X1430583Y3981782D01*
X1431027Y3982132D01*
X1430162Y3967934D01*
D02*
G37*
G36*
X1382068Y3593607D02*
X1381627Y3593973D01*
X1381113Y3594300D01*
X1380527Y3594589D01*
X1379867Y3594839D01*
X1379136Y3595051D01*
X1378332Y3595224D01*
X1377455Y3595359D01*
X1375484Y3595512D01*
X1374390Y3595532D01*
X1373974Y3605692D01*
X1375066Y3605713D01*
X1377028Y3605884D01*
X1377898Y3606033D01*
X1378694Y3606224D01*
X1379416Y3606459D01*
X1380064Y3606736D01*
X1380638Y3607055D01*
X1381138Y3607417D01*
X1381564Y3607822D01*
X1382068Y3593607D01*
D02*
G37*
G36*
X1229770Y3610132D02*
X1230941Y3609200D01*
X1232142Y3608378D01*
X1233373Y3607665D01*
X1234633Y3607062D01*
X1235923Y3606569D01*
X1237243Y3606185D01*
X1238592Y3605911D01*
X1239971Y3605747D01*
X1241380Y3605692D01*
X1241635Y3595532D01*
X1240216Y3595475D01*
X1238835Y3595304D01*
X1237492Y3595020D01*
X1236186Y3594622D01*
X1234917Y3594110D01*
X1233685Y3593484D01*
X1232491Y3592745D01*
X1231334Y3591891D01*
X1230215Y3590924D01*
X1229132Y3589844D01*
X1228628Y3611174D01*
X1229770Y3610132D01*
D02*
G37*
G36*
X1357827Y3343306D02*
X1359333Y3342030D01*
X1360051Y3341513D01*
X1360746Y3341076D01*
X1361418Y3340720D01*
X1362068Y3340444D01*
X1362695Y3340249D01*
X1363298Y3340134D01*
X1363878Y3340099D01*
X1353821Y3330042D01*
X1353786Y3330622D01*
X1353671Y3331225D01*
X1353476Y3331852D01*
X1353200Y3332502D01*
X1352844Y3333174D01*
X1352407Y3333869D01*
X1351890Y3334587D01*
X1351292Y3335329D01*
X1349856Y3336880D01*
X1357040Y3344064D01*
X1357827Y3343306D01*
D02*
G37*
G36*
X1897882Y3183151D02*
X1897446Y3183533D01*
X1896936Y3183875D01*
X1896354Y3184176D01*
X1895698Y3184437D01*
X1894970Y3184658D01*
X1894168Y3184839D01*
X1893294Y3184979D01*
X1892347Y3185080D01*
X1890233Y3185160D01*
X1890140Y3195320D01*
X1891233Y3195341D01*
X1893198Y3195505D01*
X1894071Y3195649D01*
X1894870Y3195834D01*
X1895597Y3196060D01*
X1896250Y3196327D01*
X1896829Y3196635D01*
X1897336Y3196984D01*
X1897769Y3197375D01*
X1897882Y3183151D01*
D02*
G37*
G36*
X1881808Y3196947D02*
X1882318Y3196605D01*
X1882900Y3196304D01*
X1883555Y3196043D01*
X1884284Y3195822D01*
X1885085Y3195641D01*
X1885959Y3195501D01*
X1886907Y3195400D01*
X1889020Y3195320D01*
X1889114Y3185160D01*
X1888021Y3185139D01*
X1886056Y3184975D01*
X1885183Y3184831D01*
X1884384Y3184646D01*
X1883657Y3184420D01*
X1883004Y3184153D01*
X1882425Y3183845D01*
X1881918Y3183496D01*
X1881485Y3183105D01*
X1881371Y3197329D01*
X1881808Y3196947D01*
D02*
G37*
G36*
X1280174Y2953568D02*
X1279737Y2953950D01*
X1279228Y2954292D01*
X1278645Y2954593D01*
X1277990Y2954854D01*
X1277262Y2955075D01*
X1276460Y2955256D01*
X1275586Y2955396D01*
X1274639Y2955497D01*
X1272525Y2955577D01*
X1272431Y2965737D01*
X1273524Y2965758D01*
X1275489Y2965922D01*
X1276362Y2966066D01*
X1277162Y2966251D01*
X1277888Y2966477D01*
X1278541Y2966744D01*
X1279121Y2967052D01*
X1279627Y2967401D01*
X1280060Y2967792D01*
X1280174Y2953568D01*
D02*
G37*
G36*
X1264100Y2967364D02*
X1264609Y2967023D01*
X1265192Y2966721D01*
X1265847Y2966460D01*
X1266576Y2966239D01*
X1267377Y2966058D01*
X1268251Y2965918D01*
X1269198Y2965817D01*
X1271312Y2965737D01*
X1271405Y2955577D01*
X1270313Y2955556D01*
X1268347Y2955392D01*
X1267474Y2955248D01*
X1266675Y2955063D01*
X1265949Y2954837D01*
X1265296Y2954570D01*
X1264716Y2954262D01*
X1264210Y2953913D01*
X1263776Y2953522D01*
X1263663Y2967746D01*
X1264100Y2967364D01*
D02*
G37*
G36*
X2927485Y2930859D02*
X2926923Y2930158D01*
X2926428Y2929422D01*
X2925999Y2928649D01*
X2925635Y2927841D01*
X2925338Y2926997D01*
X2925107Y2926118D01*
X2924942Y2925203D01*
X2924843Y2924252D01*
X2924810Y2923265D01*
X2917190D01*
X2917157Y2924252D01*
X2917058Y2925203D01*
X2916893Y2926118D01*
X2916662Y2926997D01*
X2916365Y2927841D01*
X2916001Y2928649D01*
X2915572Y2929422D01*
X2915077Y2930158D01*
X2914515Y2930859D01*
X2913888Y2931524D01*
X2928112D01*
X2927485Y2930859D01*
D02*
G37*
G36*
X1264436Y2926604D02*
X1265132Y2926039D01*
X1265865Y2925540D01*
X1266634Y2925108D01*
X1267439Y2924742D01*
X1268281Y2924443D01*
X1269159Y2924210D01*
X1270073Y2924044D01*
X1271024Y2923944D01*
X1271952Y2923913D01*
X1272877Y2923944D01*
X1273828Y2924042D01*
X1274744Y2924206D01*
X1275625Y2924436D01*
X1276471Y2924731D01*
X1277281Y2925091D01*
X1278057Y2925518D01*
X1278798Y2926009D01*
X1279503Y2926567D01*
X1280174Y2927190D01*
X1280060Y2912966D01*
X1279401Y2913598D01*
X1278705Y2914163D01*
X1277972Y2914662D01*
X1277203Y2915094D01*
X1276398Y2915460D01*
X1275556Y2915759D01*
X1274678Y2915992D01*
X1273764Y2916158D01*
X1272813Y2916258D01*
X1271885Y2916289D01*
X1270960Y2916258D01*
X1270009Y2916160D01*
X1269093Y2915996D01*
X1268212Y2915767D01*
X1267367Y2915471D01*
X1266556Y2915111D01*
X1265780Y2914685D01*
X1265039Y2914193D01*
X1264334Y2913636D01*
X1263663Y2913012D01*
X1263776Y2927236D01*
X1264436Y2926604D01*
D02*
G37*
G36*
X2625146Y2902517D02*
X2624588Y2901812D01*
X2624095Y2901072D01*
X2623668Y2900297D01*
X2623307Y2899487D01*
X2623011Y2898642D01*
X2622781Y2897761D01*
X2622617Y2896845D01*
X2622519Y2895894D01*
X2622486Y2894908D01*
X2614866Y2894857D01*
X2614833Y2895844D01*
X2614733Y2896795D01*
X2614567Y2897709D01*
X2614335Y2898588D01*
X2614036Y2899430D01*
X2613671Y2900235D01*
X2613239Y2901005D01*
X2612741Y2901738D01*
X2612177Y2902436D01*
X2611546Y2903096D01*
X2625769Y2903186D01*
X2625146Y2902517D01*
D02*
G37*
G36*
X1259057Y2530346D02*
X1258622Y2530733D01*
X1258114Y2531079D01*
X1257533Y2531384D01*
X1256879Y2531648D01*
X1256152Y2531871D01*
X1255351Y2532055D01*
X1254478Y2532197D01*
X1253531Y2532299D01*
X1251418Y2532380D01*
X1251425Y2542540D01*
X1252518Y2542560D01*
X1254485Y2542723D01*
X1255358Y2542865D01*
X1256159Y2543047D01*
X1256886Y2543271D01*
X1257541Y2543535D01*
X1258122Y2543839D01*
X1258630Y2544185D01*
X1259065Y2544570D01*
X1259057Y2530346D01*
D02*
G37*
G36*
X2924843Y2498648D02*
X2924942Y2497697D01*
X2925107Y2496782D01*
X2925338Y2495903D01*
X2925635Y2495059D01*
X2925999Y2494251D01*
X2926428Y2493478D01*
X2926923Y2492742D01*
X2927485Y2492041D01*
X2928112Y2491376D01*
X2913888D01*
X2914515Y2492041D01*
X2915077Y2492742D01*
X2915572Y2493478D01*
X2916001Y2494251D01*
X2916365Y2495059D01*
X2916662Y2495903D01*
X2916893Y2496782D01*
X2917058Y2497697D01*
X2917157Y2498648D01*
X2917190Y2499635D01*
X2924810D01*
X2924843Y2498648D01*
D02*
G37*
G36*
X2622519Y2496133D02*
X2622619Y2495182D01*
X2622785Y2494268D01*
X2623017Y2493389D01*
X2623316Y2492547D01*
X2623681Y2491741D01*
X2624113Y2490972D01*
X2624611Y2490238D01*
X2625175Y2489541D01*
X2625806Y2488880D01*
X2611583Y2488791D01*
X2612206Y2489460D01*
X2612764Y2490165D01*
X2613257Y2490905D01*
X2613684Y2491680D01*
X2614045Y2492490D01*
X2614341Y2493335D01*
X2614571Y2494216D01*
X2614735Y2495131D01*
X2614833Y2496082D01*
X2614866Y2497068D01*
X2622486Y2497120D01*
X2622519Y2496133D01*
D02*
G37*
G36*
X3534433Y2496004D02*
X3534621Y2494054D01*
X3534784Y2493195D01*
X3534995Y2492414D01*
X3535252Y2491710D01*
X3535556Y2491083D01*
X3535907Y2490534D01*
X3536305Y2490062D01*
X3536749Y2489668D01*
X3522637Y2487890D01*
X3522943Y2488333D01*
X3523217Y2488850D01*
X3523460Y2489440D01*
X3523669Y2490102D01*
X3523847Y2490837D01*
X3523992Y2491645D01*
X3524185Y2493480D01*
X3524234Y2494507D01*
X3524250Y2495607D01*
X3534410Y2497095D01*
X3534433Y2496004D01*
D02*
G37*
G36*
X3234844Y2488520D02*
X3234086Y2487733D01*
X3232810Y2486227D01*
X3232293Y2485509D01*
X3231856Y2484814D01*
X3231500Y2484142D01*
X3231224Y2483492D01*
X3231029Y2482865D01*
X3230914Y2482262D01*
X3230879Y2481682D01*
X3220822Y2491739D01*
X3221402Y2491774D01*
X3222005Y2491889D01*
X3222632Y2492084D01*
X3223282Y2492360D01*
X3223954Y2492716D01*
X3224649Y2493153D01*
X3225367Y2493670D01*
X3226109Y2494268D01*
X3227660Y2495704D01*
X3234844Y2488520D01*
D02*
G37*
G36*
X1349104Y2461768D02*
X1348669Y2462154D01*
X1348161Y2462500D01*
X1347580Y2462804D01*
X1346926Y2463068D01*
X1346199Y2463292D01*
X1345398Y2463475D01*
X1344525Y2463617D01*
X1343578Y2463719D01*
X1341465Y2463800D01*
Y2473960D01*
X1342558Y2473980D01*
X1344525Y2474143D01*
X1345398Y2474285D01*
X1346199Y2474468D01*
X1346926Y2474692D01*
X1347580Y2474956D01*
X1348161Y2475260D01*
X1348669Y2475606D01*
X1349104Y2475992D01*
Y2461768D01*
D02*
G37*
G36*
X1044369Y2198135D02*
X1043704Y2198762D01*
X1043003Y2199324D01*
X1042267Y2199819D01*
X1041494Y2200248D01*
X1040686Y2200611D01*
X1039842Y2200908D01*
X1038963Y2201140D01*
X1038048Y2201305D01*
X1037097Y2201404D01*
X1036110Y2201437D01*
Y2209057D01*
X1037097Y2209090D01*
X1038048Y2209189D01*
X1038963Y2209354D01*
X1039842Y2209585D01*
X1040686Y2209882D01*
X1041494Y2210246D01*
X1042267Y2210675D01*
X1043003Y2211170D01*
X1043704Y2211731D01*
X1044369Y2212359D01*
Y2198135D01*
D02*
G37*
G36*
X1023204Y2211731D02*
X1023905Y2211170D01*
X1024641Y2210675D01*
X1025414Y2210246D01*
X1026222Y2209882D01*
X1027066Y2209585D01*
X1027945Y2209354D01*
X1028860Y2209189D01*
X1029811Y2209090D01*
X1030798Y2209057D01*
Y2201437D01*
X1029811Y2201404D01*
X1028860Y2201305D01*
X1027945Y2201140D01*
X1027066Y2200908D01*
X1026222Y2200611D01*
X1025414Y2200248D01*
X1024641Y2199819D01*
X1023905Y2199324D01*
X1023204Y2198762D01*
X1022539Y2198135D01*
Y2212359D01*
X1023204Y2211731D01*
D02*
G37*
G36*
X1092662Y2111744D02*
X1093168Y2111395D01*
X1093748Y2111086D01*
X1094401Y2110819D01*
X1095127Y2110593D01*
X1095927Y2110408D01*
X1096799Y2110264D01*
X1097746Y2110162D01*
X1099858Y2110079D01*
X1099764Y2099919D01*
X1098671Y2099899D01*
X1096703Y2099738D01*
X1095829Y2099598D01*
X1095028Y2099417D01*
X1094299Y2099196D01*
X1093644Y2098935D01*
X1093061Y2098634D01*
X1092552Y2098292D01*
X1092115Y2097911D01*
X1092229Y2112134D01*
X1092662Y2111744D01*
D02*
G37*
G36*
X1108512Y2097864D02*
X1108079Y2098255D01*
X1107573Y2098604D01*
X1106993Y2098912D01*
X1106340Y2099179D01*
X1105614Y2099406D01*
X1104814Y2099591D01*
X1103942Y2099734D01*
X1102996Y2099837D01*
X1100883Y2099919D01*
X1100977Y2110079D01*
X1102071Y2110099D01*
X1104038Y2110260D01*
X1104912Y2110401D01*
X1105714Y2110582D01*
X1106442Y2110802D01*
X1107098Y2111064D01*
X1107680Y2111365D01*
X1108190Y2111706D01*
X1108626Y2112088D01*
X1108512Y2097864D01*
D02*
G37*
G36*
X1019120Y2073193D02*
X1019626Y2072844D01*
X1020206Y2072535D01*
X1020859Y2072268D01*
X1021585Y2072042D01*
X1022385Y2071857D01*
X1023258Y2071713D01*
X1024204Y2071611D01*
X1026316Y2071528D01*
X1026222Y2061368D01*
X1025129Y2061348D01*
X1023162Y2061188D01*
X1022287Y2061047D01*
X1021486Y2060866D01*
X1020757Y2060645D01*
X1020102Y2060384D01*
X1019519Y2060083D01*
X1019010Y2059742D01*
X1018574Y2059360D01*
X1018687Y2073583D01*
X1019120Y2073193D01*
D02*
G37*
G36*
X1034970Y2059313D02*
X1034537Y2059704D01*
X1034031Y2060053D01*
X1033451Y2060362D01*
X1032798Y2060629D01*
X1032072Y2060855D01*
X1031273Y2061040D01*
X1030400Y2061184D01*
X1029454Y2061286D01*
X1027342Y2061368D01*
X1027436Y2071528D01*
X1028529Y2071549D01*
X1030496Y2071709D01*
X1031371Y2071850D01*
X1032172Y2072031D01*
X1032900Y2072252D01*
X1033556Y2072513D01*
X1034138Y2072814D01*
X1034648Y2073155D01*
X1035084Y2073537D01*
X1034970Y2059313D01*
D02*
G37*
G36*
X1505100Y1694880D02*
X1505614Y1694555D01*
X1506201Y1694269D01*
X1506861Y1694021D01*
X1507593Y1693811D01*
X1508397Y1693640D01*
X1509274Y1693506D01*
X1511246Y1693353D01*
X1512340Y1693334D01*
X1512820Y1683174D01*
X1511728Y1683153D01*
X1509767Y1682981D01*
X1508897Y1682831D01*
X1508102Y1682638D01*
X1507381Y1682402D01*
X1506734Y1682124D01*
X1506161Y1681802D01*
X1505662Y1681437D01*
X1505238Y1681030D01*
X1504658Y1695242D01*
X1505100Y1694880D01*
D02*
G37*
G36*
X1863958Y1677709D02*
X1862812Y1678747D01*
X1861637Y1679676D01*
X1860433Y1680496D01*
X1859199Y1681207D01*
X1857937Y1681808D01*
X1856646Y1682300D01*
X1855325Y1682682D01*
X1853975Y1682956D01*
X1852596Y1683120D01*
X1851188Y1683174D01*
X1850895Y1693334D01*
X1852314Y1693392D01*
X1853695Y1693563D01*
X1855038Y1693848D01*
X1856343Y1694247D01*
X1857610Y1694760D01*
X1858840Y1695387D01*
X1860031Y1696129D01*
X1861185Y1696984D01*
X1862300Y1697953D01*
X1863378Y1699037D01*
X1863958Y1677709D01*
D02*
G37*
G36*
X1394504Y1640445D02*
X1395011Y1640095D01*
X1395590Y1639787D01*
X1396243Y1639520D01*
X1396970Y1639294D01*
X1397769Y1639109D01*
X1398642Y1638965D01*
X1399588Y1638862D01*
X1401700Y1638780D01*
X1401607Y1628620D01*
X1400513Y1628600D01*
X1398546Y1628439D01*
X1397672Y1628299D01*
X1396870Y1628118D01*
X1396142Y1627897D01*
X1395486Y1627636D01*
X1394904Y1627335D01*
X1394394Y1626993D01*
X1393958Y1626611D01*
X1394071Y1640835D01*
X1394504Y1640445D01*
D02*
G37*
G36*
X1410355Y1626565D02*
X1409922Y1626956D01*
X1409415Y1627305D01*
X1408836Y1627613D01*
X1408183Y1627880D01*
X1407456Y1628106D01*
X1406657Y1628291D01*
X1405784Y1628435D01*
X1404838Y1628538D01*
X1402726Y1628620D01*
X1402820Y1638780D01*
X1403913Y1638800D01*
X1405881Y1638961D01*
X1406755Y1639101D01*
X1407556Y1639282D01*
X1408285Y1639503D01*
X1408940Y1639764D01*
X1409522Y1640066D01*
X1410032Y1640407D01*
X1410469Y1640789D01*
X1410355Y1626565D01*
D02*
G37*
G36*
X1532071Y1580443D02*
X1532568Y1580075D01*
X1533139Y1579750D01*
X1533784Y1579469D01*
X1534504Y1579231D01*
X1535298Y1579036D01*
X1536167Y1578885D01*
X1537109Y1578776D01*
X1539218Y1578690D01*
X1538648Y1568530D01*
X1537553Y1568511D01*
X1535581Y1568360D01*
X1534703Y1568229D01*
X1533898Y1568059D01*
X1533165Y1567852D01*
X1532505Y1567607D01*
X1531917Y1567325D01*
X1531402Y1567005D01*
X1530959Y1566647D01*
X1531649Y1580854D01*
X1532071Y1580443D01*
D02*
G37*
G36*
X1864240Y1562806D02*
X1863170Y1563894D01*
X1862060Y1564867D01*
X1860911Y1565725D01*
X1859724Y1566469D01*
X1858498Y1567099D01*
X1857233Y1567614D01*
X1855929Y1568015D01*
X1854587Y1568301D01*
X1853206Y1568473D01*
X1851786Y1568530D01*
X1852135Y1578690D01*
X1853542Y1578744D01*
X1854921Y1578907D01*
X1856271Y1579179D01*
X1857593Y1579560D01*
X1858887Y1580050D01*
X1860152Y1580649D01*
X1861389Y1581356D01*
X1862598Y1582172D01*
X1863779Y1583097D01*
X1864931Y1584131D01*
X1864240Y1562806D01*
D02*
G37*
G36*
X1629075Y1526924D02*
X1631587Y1524721D01*
X1631914Y1524508D01*
X1632183Y1524371D01*
X1632393Y1524310D01*
X1632545Y1524325D01*
X1626405Y1515211D01*
X1622095Y1519528D01*
X1628398Y1527592D01*
X1629075Y1526924D01*
D02*
G37*
G36*
X1581873Y1484788D02*
X1581988Y1484184D01*
X1582183Y1483558D01*
X1582459Y1482908D01*
X1582815Y1482236D01*
X1583252Y1481541D01*
X1583769Y1480823D01*
X1584367Y1480081D01*
X1585803Y1478530D01*
X1578619Y1471346D01*
X1577832Y1472104D01*
X1576326Y1473380D01*
X1575608Y1473897D01*
X1574913Y1474334D01*
X1574240Y1474690D01*
X1573591Y1474966D01*
X1572964Y1475161D01*
X1572361Y1475276D01*
X1571780Y1475310D01*
X1581838Y1485368D01*
X1581873Y1484788D01*
D02*
G37*
G36*
X1863636Y1446652D02*
X1862524Y1447714D01*
X1861379Y1448664D01*
X1860199Y1449502D01*
X1858987Y1450229D01*
X1857741Y1450843D01*
X1856461Y1451346D01*
X1855148Y1451738D01*
X1853801Y1452017D01*
X1852421Y1452185D01*
X1851007Y1452240D01*
Y1462400D01*
X1852421Y1462456D01*
X1853801Y1462624D01*
X1855148Y1462903D01*
X1856461Y1463295D01*
X1857741Y1463797D01*
X1858987Y1464412D01*
X1860199Y1465139D01*
X1861379Y1465977D01*
X1862524Y1466927D01*
X1863636Y1467988D01*
Y1446652D01*
D02*
G37*
G36*
X1236809Y1345131D02*
X1236415Y1345575D01*
X1235943Y1345973D01*
X1235394Y1346324D01*
X1234767Y1346628D01*
X1234063Y1346885D01*
X1233282Y1347096D01*
X1232423Y1347259D01*
X1231486Y1347377D01*
X1230473Y1347447D01*
X1229382Y1347470D01*
X1230870Y1357630D01*
X1231969Y1357646D01*
X1234831Y1357888D01*
X1235640Y1358033D01*
X1236375Y1358211D01*
X1237037Y1358420D01*
X1237627Y1358663D01*
X1238143Y1358937D01*
X1238587Y1359243D01*
X1236809Y1345131D01*
D02*
G37*
G36*
X1289644Y1278056D02*
X1289209Y1278442D01*
X1288701Y1278787D01*
X1288120Y1279092D01*
X1287466Y1279356D01*
X1286738Y1279580D01*
X1285938Y1279762D01*
X1285064Y1279905D01*
X1284118Y1280006D01*
X1282005Y1280088D01*
Y1290248D01*
X1283098Y1290268D01*
X1285064Y1290430D01*
X1285938Y1290573D01*
X1286738Y1290756D01*
X1287466Y1290979D01*
X1288120Y1291243D01*
X1288701Y1291548D01*
X1289209Y1291894D01*
X1289644Y1292280D01*
Y1278056D01*
D02*
G37*
G36*
X1008801Y1247590D02*
X1008365Y1247972D01*
X1007855Y1248313D01*
X1007273Y1248615D01*
X1006617Y1248876D01*
X1005889Y1249097D01*
X1005087Y1249278D01*
X1004213Y1249418D01*
X1003266Y1249519D01*
X1001152Y1249599D01*
X1001059Y1259759D01*
X1002152Y1259780D01*
X1004117Y1259944D01*
X1004990Y1260088D01*
X1005789Y1260273D01*
X1006516Y1260499D01*
X1007169Y1260766D01*
X1007748Y1261074D01*
X1008255Y1261423D01*
X1008688Y1261814D01*
X1008801Y1247590D01*
D02*
G37*
G36*
X1468484Y1003808D02*
X1468049Y1004194D01*
X1467541Y1004540D01*
X1466960Y1004844D01*
X1466306Y1005108D01*
X1465579Y1005332D01*
X1464778Y1005515D01*
X1463905Y1005657D01*
X1462958Y1005759D01*
X1460845Y1005840D01*
Y1016000D01*
X1461938Y1016020D01*
X1463905Y1016183D01*
X1464778Y1016325D01*
X1465579Y1016508D01*
X1466306Y1016732D01*
X1466960Y1016996D01*
X1467541Y1017300D01*
X1468049Y1017646D01*
X1468484Y1018032D01*
Y1003808D01*
D02*
G37*
G36*
X4257040Y807720D02*
X2504440D01*
Y1436178D01*
X4257040D01*
Y807720D01*
D02*
G37*
%LPC*%
G36*
X3358726Y1182880D02*
X3351954D01*
X3345699Y1180289D01*
X3340911Y1175501D01*
X3338320Y1169246D01*
Y1162474D01*
X3340911Y1156219D01*
X3345699Y1151431D01*
X3351954Y1148840D01*
X3358726D01*
X3364981Y1151431D01*
X3369769Y1156219D01*
X3372360Y1162474D01*
Y1169246D01*
X3369769Y1175501D01*
X3364981Y1180289D01*
X3358726Y1182880D01*
D02*
G37*
G36*
X3118704Y1168831D02*
X3111933D01*
X3105677Y1166240D01*
X3100889Y1161452D01*
X3098298Y1155197D01*
Y1148425D01*
X3100889Y1142170D01*
X3105677Y1137382D01*
X3111933Y1134791D01*
X3118704D01*
X3124959Y1137382D01*
X3129747Y1142170D01*
X3132338Y1148425D01*
Y1155197D01*
X3129747Y1161452D01*
X3124959Y1166240D01*
X3118704Y1168831D01*
D02*
G37*
G36*
X3865498Y1168301D02*
X3858727D01*
X3852472Y1165710D01*
X3847684Y1160922D01*
X3845093Y1154666D01*
Y1147895D01*
X3847684Y1141640D01*
X3852472Y1136852D01*
X3858727Y1134261D01*
X3865498D01*
X3871754Y1136852D01*
X3876542Y1141640D01*
X3879133Y1147895D01*
Y1154666D01*
X3876542Y1160922D01*
X3871754Y1165710D01*
X3865498Y1168301D01*
D02*
G37*
G36*
X3118704Y1118831D02*
X3111933D01*
X3105677Y1116240D01*
X3100889Y1111452D01*
X3098298Y1105197D01*
Y1098426D01*
X3100889Y1092170D01*
X3105677Y1087382D01*
X3111933Y1084791D01*
X3118704D01*
X3124959Y1087382D01*
X3129747Y1092170D01*
X3132338Y1098426D01*
Y1105197D01*
X3129747Y1111452D01*
X3124959Y1116240D01*
X3118704Y1118831D01*
D02*
G37*
G36*
X3865498Y1118301D02*
X3858727D01*
X3852472Y1115710D01*
X3847684Y1110922D01*
X3845093Y1104666D01*
Y1097895D01*
X3847684Y1091640D01*
X3852472Y1086852D01*
X3858727Y1084261D01*
X3865498D01*
X3871754Y1086852D01*
X3876542Y1091640D01*
X3879133Y1097895D01*
Y1104666D01*
X3876542Y1110922D01*
X3871754Y1115710D01*
X3865498Y1118301D01*
D02*
G37*
G36*
X3359024Y1104140D02*
X3352253D01*
X3345998Y1101549D01*
X3341210Y1096761D01*
X3338619Y1090506D01*
Y1083734D01*
X3341210Y1077479D01*
X3345998Y1072691D01*
X3352253Y1070100D01*
X3359024D01*
X3365280Y1072691D01*
X3370068Y1077479D01*
X3372659Y1083734D01*
Y1090506D01*
X3370068Y1096761D01*
X3365280Y1101549D01*
X3359024Y1104140D01*
D02*
G37*
%LPD*%
D10*
X-2136140Y3881120D02*
X-2130938Y3886322D01*
X-1483726D01*
X-1889339Y3718981D02*
X-1162859D01*
X-2136140Y3627120D02*
X-1981200D01*
X-1889339Y3718981D01*
X-2129607Y4206617D02*
X-1997369Y4074379D01*
X-897068D01*
X-1622320Y4467120D02*
X-1389380Y4234180D01*
X-2130663Y4467120D02*
X-1622320D01*
X1264993Y4301446D02*
X1265080D01*
X1264730Y4301709D02*
X1264993Y4301446D01*
X1194242Y4301709D02*
X1264730D01*
X1194098Y4301566D02*
X1194242Y4301709D01*
X1189401Y4301566D02*
X1194098D01*
X-785830Y3083428D02*
X-434708D01*
X-364467Y3153669D02*
X110787D01*
X-434708Y3083428D02*
X-364467Y3153669D01*
X110787D02*
X119067Y3145388D01*
X588355D01*
X1228970Y4406677D02*
X1229227Y4406420D01*
X1228970Y4406677D02*
X1228970D01*
X-1146115Y3083703D02*
X-786105D01*
X-785830Y3083428D01*
X-1244807Y3244243D02*
X-882476D01*
X-857899Y3268820D01*
X545321Y3249360D02*
X590005Y3204676D01*
X-140414Y3268820D02*
X-120954Y3249360D01*
X-857899Y3268820D02*
X-140414D01*
X-120954Y3249360D02*
X545321D01*
X-1483378Y3886200D02*
X-1160780D01*
X-1483438Y3886260D02*
X-1483378Y3886200D01*
X-1256670Y4272570D02*
X-689837D01*
X-689547Y4272280D02*
X-117960D01*
X-689837Y4272570D02*
X-689547Y4272280D01*
X-736201Y4198904D02*
X-735440Y4199665D01*
X-122801D02*
X-122465Y4200002D01*
X-1348927Y4198904D02*
X-736201D01*
X-735440Y4199665D02*
X-122801D01*
X-122465Y4200002D02*
X-117960D01*
X-1389380Y4234180D02*
X-892820D01*
X-892770Y4234130D01*
D113*
X1084998Y2104999D02*
X1115744D01*
X1115825Y2104918D01*
X1084917Y2105080D02*
X1084998Y2104999D01*
X1386840Y1633700D02*
X1417586D01*
X985173Y1254679D02*
X1015919D01*
X508081Y4571919D02*
X538827D01*
X-538827Y4317919D02*
X-508081D01*
X477254Y3048000D02*
X508000D01*
X477214Y2031959D02*
X507960D01*
X-505868Y1553990D02*
X-475122D01*
X1874254Y3190240D02*
X1905000D01*
X1397087Y3975209D02*
X1437219D01*
X1396469Y3975827D02*
X1397087Y3975209D01*
X1437219D02*
X1437837Y3974592D01*
X3529330Y2482850D02*
X3530600Y2481580D01*
X3528060Y4053840D02*
X3529330Y4052570D01*
Y2482850D02*
Y4052570D01*
X193693Y3317240D02*
X936570D01*
X123219Y3387713D02*
X193693Y3317240D01*
X936570D02*
X960977Y3341647D01*
X1352273D02*
X1363980Y3329940D01*
X960977Y3341647D02*
X1352273D01*
X65105Y1287780D02*
X150709D01*
X-5511Y1264488D02*
X41813D01*
X65105Y1287780D01*
X150709D02*
X165876Y1302947D01*
X3474720Y2735580D02*
Y4084320D01*
X3220720Y2481580D02*
X3474720Y2735580D01*
X100330Y1352550D02*
X1243627D01*
X99060Y1353820D02*
X100330Y1352550D01*
X1243627D02*
X1244897Y1351280D01*
X1202416Y1463810D02*
X1202639Y1464033D01*
X-113559Y1463587D02*
X-113336Y1463810D01*
X904167Y1302947D02*
X916940Y1315720D01*
X165876Y1302947D02*
X904167D01*
X726453Y2031568D02*
X757199D01*
X380075Y4030875D02*
X1232988D01*
X380000Y4030949D02*
X380075Y4030875D01*
X1232988D02*
X1233062Y4030800D01*
X959992Y2537460D02*
X1266311D01*
X-744220D02*
X959992D01*
X1266311D02*
X1266316Y2537454D01*
X-762000Y1524000D02*
X1624806D01*
X1633813Y1514993D02*
X1636563D01*
X1624806Y1524000D02*
X1633813Y1514993D01*
X1218000Y3600252D02*
X1218360Y3600612D01*
X1388707D01*
X1389067Y3600972D01*
X-236086Y2491874D02*
X438386D01*
X-256540Y2471420D02*
X-236086Y2491874D01*
X461380Y2468880D02*
X959992D01*
X1356360D01*
X438386Y2491874D02*
X461380Y2468880D01*
X717962Y1010920D02*
X1475740D01*
X637540Y930498D02*
X717962Y1010920D01*
X637540Y807720D02*
Y930498D01*
X1599828Y1457320D02*
X1874520D01*
X1571679Y1485470D02*
X1599828Y1457320D01*
X1524550Y1573610D02*
X1874970D01*
X1524057Y1574103D02*
X1524550Y1573610D01*
X1874970D02*
X1875464Y1573116D01*
X1497698Y1687840D02*
X1498113Y1688254D01*
X1874133D01*
X1874547Y1688669D01*
X678924Y1285168D02*
X1296900D01*
X656998Y1263242D02*
X678924Y1285168D01*
X1042202Y2066448D02*
X1042283Y2066367D01*
X1011456Y2066448D02*
X1042202D01*
X1011375Y2066530D02*
X1011456Y2066448D01*
X1287291Y2960657D02*
X1287373Y2960738D01*
X1256545Y2960657D02*
X1287291D01*
X1256464Y2960576D02*
X1256545Y2960657D01*
X-360232Y2974449D02*
X-358620Y2972837D01*
X-702949Y2974449D02*
X-360232D01*
X-704561Y2976062D02*
X-702949Y2974449D01*
X-358620Y2972837D02*
X-185926D01*
X-183764Y2970675D01*
X-181015D01*
D114*
X2618676Y2481644D02*
X2618740Y2481580D01*
X2618612Y2910397D02*
X2618676Y2910333D01*
Y2481644D02*
Y2910333D01*
X2921000Y2484120D02*
Y2938780D01*
X304800Y1221740D02*
X322580Y1239520D01*
Y1262380D01*
X-253276Y1255987D02*
X-252643Y1255354D01*
X-301260Y1256620D02*
X-300627Y1255987D01*
X-253276D01*
X-292500Y1222500D02*
X-197728D01*
X-172720Y1247508D02*
Y1249680D01*
X-197728Y1222500D02*
X-172720Y1247508D01*
X222531Y1276444D02*
X293276D01*
X294640Y1275080D01*
X1015283Y2205247D02*
X1051625D01*
X1287291Y2920101D02*
X1287373Y2920020D01*
X1256545Y2920101D02*
X1287291D01*
X1256464Y2920182D02*
X1256545Y2920101D01*
D115*
X-40835Y1248048D02*
X-17439Y1224652D01*
X121772D02*
X129703Y1232583D01*
X-17439Y1224652D02*
X121772D01*
X129703Y1232583D02*
X131765D01*
X200660Y71208D02*
Y174578D01*
X153496Y221741D02*
X200660Y174578D01*
X-40835Y1248048D02*
Y1271924D01*
X-18559Y1294200D01*
X114465Y221741D02*
X153496D01*
X113532Y222674D02*
X114465Y221741D01*
D117*
X377837Y1554190D02*
X1145413D01*
X1148882Y1557659D01*
X363790Y1568237D02*
X377837Y1554190D01*
X199139Y1568237D02*
X363790D01*
X-1523898Y1901409D02*
X-1523695Y1901612D01*
X-1469618D01*
X-1469414Y1901816D01*
X-1322399Y3612301D02*
X-116841D01*
X-111340Y3606800D02*
X-76200D01*
X-116841Y3612301D02*
X-111340Y3606800D01*
X-1322820Y3612722D02*
X-1322399Y3612301D01*
X-153294Y3241040D02*
X-150229Y3237974D01*
X-525489Y3241040D02*
X-153294D01*
X1148882Y1557659D02*
X1150256D01*
X-113336Y1463810D02*
X1202416D01*
X670239Y3927326D02*
X1174186D01*
X669860Y3927705D02*
X670239Y3927326D01*
X1174186D02*
X1174565Y3926947D01*
X1288578Y3108173D02*
X1425370D01*
X1287790Y3107385D02*
X1288578Y3108173D01*
X1425370D02*
X1426157Y3108960D01*
X1007503Y3260670D02*
X1506377D01*
X1007372Y3260801D02*
X1007503Y3260670D01*
X1506377D02*
X1506509Y3260538D01*
X960386Y2851326D02*
X1278020D01*
X1278966Y2850380D01*
X959440Y2852272D02*
X960386Y2851326D01*
X-89497Y4425000D02*
X47501D01*
X283258Y3790010D02*
X529167D01*
X529498Y3789680D01*
X282928Y3790341D02*
X283258Y3790010D01*
X-1897090Y2118070D02*
X-1072170D01*
X-1897380Y2117780D02*
X-1897090Y2118070D01*
X-1072170D02*
X-1071880Y2118360D01*
X-1953260Y1673860D02*
X-1131759D01*
X-1071457Y1734162D01*
X-150229Y3237974D02*
X-148854D01*
X-673864Y2891347D02*
X-140272D01*
X-139456Y2890531D01*
X-674526Y2892009D02*
X-673864Y2891347D01*
X-901581Y2892671D02*
X-900919Y2892009D01*
X-674526D01*
X-89881Y3204588D02*
X-87737D01*
X-1701800Y3187700D02*
X-106770D01*
X-89881Y3204588D01*
X-1180495Y3384776D02*
X-109734D01*
X-1181537Y3385818D02*
X-1180495Y3384776D01*
X-109734D02*
X-108692Y3383734D01*
X-840740Y3116580D02*
X-840135Y3117185D01*
X-594082D01*
X-593478Y3117789D01*
X-1469092Y1862332D02*
X-885188D01*
X-884676Y1861820D01*
X-1469173Y1862413D02*
X-1469092Y1862332D01*
X-1499919Y1862413D02*
X-1469173D01*
X-1500000Y1862494D02*
X-1499919Y1862413D01*
X-869110Y1970610D02*
X-868680Y1971040D01*
X-1500151Y1970179D02*
X-1499721Y1970610D01*
X-869110D01*
D118*
X-1366520Y2390140D02*
X-1262500D01*
X-1414780Y3213100D02*
X-424180D01*
X-911429Y2926246D02*
X-391672D01*
X-929521Y2908153D02*
X-911429Y2926246D01*
X-1297940Y2908300D02*
X-929668D01*
X-929521Y2908153D01*
X-1613142Y3687068D02*
X-1363668D01*
X-1360012Y3683411D01*
D119*
X-1272564Y1358876D02*
X-548757D01*
X-1371600Y1259840D02*
X-1272564Y1358876D01*
X-548757D02*
X-494585Y1304705D01*
X-163894D02*
X-42947Y1183758D01*
X-494585Y1304705D02*
X-163894D01*
X-42947Y1150102D02*
Y1183758D01*
X-1371600Y1246526D02*
Y1259840D01*
Y1191260D02*
Y1246526D01*
D120*
X203319Y3575512D02*
X353823D01*
X353875Y3575459D01*
X203267Y3575564D02*
X203319Y3575512D01*
X353060Y2959100D02*
X589280D01*
D133*
X-412001Y4620260D02*
X1455420D01*
X-446301Y4585961D02*
X-412001Y4620260D01*
D134*
X-629920Y553720D02*
D03*
D135*
X-883920D02*
D03*
X2169160Y1043940D02*
D03*
X2219960Y165100D02*
D03*
X-2136140Y3627120D02*
D03*
X-2130663Y4213120D02*
D03*
D136*
X2169160Y1297940D02*
D03*
X2219960Y419100D02*
D03*
X-2136140Y3881120D02*
D03*
X-2130663Y4467120D02*
D03*
D137*
X4330700Y2997200D02*
D03*
Y3124200D02*
D03*
Y3378200D02*
D03*
X4152900Y3378200D02*
D03*
X4152900Y3251200D02*
D03*
X4330700D02*
D03*
X4152900Y3124200D02*
D03*
X4152900Y2997200D02*
D03*
Y2870200D02*
D03*
X4330700D02*
D03*
D142*
X1625600Y4529640D02*
D03*
X1701026Y4522575D02*
D03*
X1793665Y4509804D02*
D03*
X2304166Y4512921D02*
D03*
X1904166D02*
D03*
X2504487D02*
D03*
X2104166D02*
D03*
X2407469D02*
D03*
X2204166D02*
D03*
X2004166D02*
D03*
X2613564D02*
D03*
X-894074Y5336177D02*
D03*
Y5786176D02*
D03*
X605932Y6586182D02*
D03*
X105932Y6336182D02*
D03*
X155926Y5336177D02*
D03*
X2855932Y6586182D02*
D03*
X2750003Y6293372D02*
D03*
X3150003D02*
D03*
X3250003D02*
D03*
X2850003D02*
D03*
X3050003D02*
D03*
X2650000D02*
D03*
X2950003D02*
D03*
X3355932Y6586182D02*
D03*
X2950000Y6200000D02*
D03*
X2600000D02*
D03*
X2850000D02*
D03*
X3050000D02*
D03*
X3150000D02*
D03*
X2759614Y6176790D02*
D03*
X3250000Y6200000D02*
D03*
X3600000Y6550000D02*
D03*
X3450000Y6300000D02*
D03*
X3350000D02*
D03*
X4500000Y6600000D02*
D03*
X4400000Y6598453D02*
D03*
X4300000Y6602215D02*
D03*
X4200000Y6600000D02*
D03*
X4050000Y6603536D02*
D03*
X3950000Y6600000D02*
D03*
X3750000D02*
D03*
X3650000D02*
D03*
X3550000Y6500000D02*
D03*
Y6400000D02*
D03*
Y6300000D02*
D03*
X4450000Y5900000D02*
D03*
X4350000D02*
D03*
X4250000D02*
D03*
X4150000D02*
D03*
X4050000D02*
D03*
X3950000D02*
D03*
X3839900D02*
D03*
X3750000D02*
D03*
X3650000D02*
D03*
X3550000D02*
D03*
Y6000000D02*
D03*
Y6100000D02*
D03*
Y6200000D02*
D03*
X3450000D02*
D03*
X3350000D02*
D03*
X2750000Y6100000D02*
D03*
Y6000000D02*
D03*
X2600000D02*
D03*
Y5900000D02*
D03*
X2750000D02*
D03*
Y5800000D02*
D03*
X2600000D02*
D03*
Y5700000D02*
D03*
X2750000D02*
D03*
Y5600000D02*
D03*
X2600000Y5500000D02*
D03*
X2750000D02*
D03*
Y5400000D02*
D03*
X2600000D02*
D03*
Y5300000D02*
D03*
X2750000D02*
D03*
Y5200000D02*
D03*
X2600000D02*
D03*
Y5092823D02*
D03*
X2750000Y5100000D02*
D03*
X2600000Y4610967D02*
D03*
X2494341Y4600000D02*
D03*
X2400000D02*
D03*
X2300000D02*
D03*
X2200000D02*
D03*
X2100000D02*
D03*
X1900000D02*
D03*
X1800000D02*
D03*
X2600000Y6100000D02*
D03*
Y5600000D02*
D03*
X2000000Y4600000D02*
D03*
X1713314Y4635454D02*
D03*
X2712604Y4588763D02*
D03*
X-200000Y4450000D02*
D03*
X3180289Y1173798D02*
D03*
X3158996Y1081170D02*
D03*
X3300954Y1172378D02*
D03*
X3300600Y1081170D02*
D03*
X3797300Y1173480D02*
D03*
X3817620Y1076960D02*
D03*
X2834640Y1353820D02*
D03*
X2573020Y1381760D02*
D03*
X3450789Y1013756D02*
D03*
X4355932Y7586182D02*
D03*
Y7336182D02*
D03*
Y7086182D02*
D03*
Y6836182D02*
D03*
Y5836182D02*
D03*
Y5586182D02*
D03*
Y5336182D02*
D03*
Y4336182D02*
D03*
Y4086182D02*
D03*
Y3836182D02*
D03*
Y3586182D02*
D03*
Y2586182D02*
D03*
Y2336182D02*
D03*
Y2086182D02*
D03*
Y586182D02*
D03*
Y336182D02*
D03*
Y86182D02*
D03*
Y-163818D02*
D03*
Y-413818D02*
D03*
X4105932Y7586182D02*
D03*
Y7336182D02*
D03*
Y7086182D02*
D03*
Y6836182D02*
D03*
Y5836182D02*
D03*
Y5586182D02*
D03*
Y5336182D02*
D03*
Y4336182D02*
D03*
Y4086182D02*
D03*
Y3836182D02*
D03*
Y3586182D02*
D03*
Y2586182D02*
D03*
Y2336182D02*
D03*
Y2086182D02*
D03*
Y1836182D02*
D03*
Y1336182D02*
D03*
Y1086182D02*
D03*
Y836182D02*
D03*
Y586182D02*
D03*
Y336182D02*
D03*
Y86182D02*
D03*
Y-163818D02*
D03*
Y-413818D02*
D03*
X3855932Y7836182D02*
D03*
Y7586182D02*
D03*
Y7336182D02*
D03*
Y7086182D02*
D03*
Y5836182D02*
D03*
Y5586182D02*
D03*
Y5336182D02*
D03*
Y5086182D02*
D03*
Y4836182D02*
D03*
Y4586182D02*
D03*
Y4336182D02*
D03*
Y4086182D02*
D03*
Y3836182D02*
D03*
Y3586182D02*
D03*
Y3336182D02*
D03*
Y3086182D02*
D03*
Y2836182D02*
D03*
Y2586182D02*
D03*
Y2336182D02*
D03*
Y336182D02*
D03*
Y-413818D02*
D03*
Y-663818D02*
D03*
X3605932Y7836182D02*
D03*
Y7586182D02*
D03*
Y7336182D02*
D03*
Y7086182D02*
D03*
Y6836182D02*
D03*
Y5836182D02*
D03*
Y5586182D02*
D03*
Y5336182D02*
D03*
Y5086182D02*
D03*
Y4836182D02*
D03*
Y4586182D02*
D03*
Y4336182D02*
D03*
Y4086182D02*
D03*
Y3836182D02*
D03*
Y3586182D02*
D03*
Y3336182D02*
D03*
Y-413818D02*
D03*
X3355932Y7836182D02*
D03*
Y7586182D02*
D03*
Y7336182D02*
D03*
Y7086182D02*
D03*
Y6836182D02*
D03*
Y5586182D02*
D03*
Y5336182D02*
D03*
Y5086182D02*
D03*
Y4836182D02*
D03*
Y4586182D02*
D03*
Y4336182D02*
D03*
Y3586182D02*
D03*
Y2336182D02*
D03*
Y2086182D02*
D03*
Y336182D02*
D03*
Y86182D02*
D03*
Y-413818D02*
D03*
X3105932Y7836182D02*
D03*
Y7586182D02*
D03*
Y7336182D02*
D03*
Y7086182D02*
D03*
Y6836182D02*
D03*
Y6586182D02*
D03*
Y5586182D02*
D03*
Y5336182D02*
D03*
Y5086182D02*
D03*
Y4836182D02*
D03*
Y4586182D02*
D03*
Y4336182D02*
D03*
Y3586182D02*
D03*
Y3086182D02*
D03*
Y2586182D02*
D03*
Y2336182D02*
D03*
Y2086182D02*
D03*
Y336182D02*
D03*
Y86182D02*
D03*
Y-413818D02*
D03*
X2855932Y7836182D02*
D03*
Y7586182D02*
D03*
Y7336182D02*
D03*
Y7086182D02*
D03*
Y6836182D02*
D03*
Y5586182D02*
D03*
Y5086182D02*
D03*
Y2586182D02*
D03*
Y1836182D02*
D03*
X2605932Y7836182D02*
D03*
Y7586182D02*
D03*
Y7336182D02*
D03*
Y7086182D02*
D03*
Y6836182D02*
D03*
Y6586182D02*
D03*
Y3086182D02*
D03*
Y336182D02*
D03*
Y-163818D02*
D03*
Y-663818D02*
D03*
X2355932Y7836182D02*
D03*
Y7586182D02*
D03*
Y7336182D02*
D03*
Y7086182D02*
D03*
Y6836182D02*
D03*
Y6586182D02*
D03*
X2105932Y7836182D02*
D03*
Y7586182D02*
D03*
Y7336182D02*
D03*
Y7086182D02*
D03*
Y6836182D02*
D03*
Y6586182D02*
D03*
Y-663818D02*
D03*
X1855932Y7836182D02*
D03*
Y7586182D02*
D03*
Y7336182D02*
D03*
Y7086182D02*
D03*
X1605932Y7836182D02*
D03*
Y7586182D02*
D03*
Y7336182D02*
D03*
Y7086182D02*
D03*
Y6836182D02*
D03*
X1355932Y7836182D02*
D03*
Y7586182D02*
D03*
Y7336182D02*
D03*
Y7086182D02*
D03*
Y6836182D02*
D03*
X1105932Y7836182D02*
D03*
Y7586182D02*
D03*
Y7336182D02*
D03*
Y7086182D02*
D03*
Y6836182D02*
D03*
Y-663818D02*
D03*
X855932Y7836182D02*
D03*
Y7586182D02*
D03*
Y7336182D02*
D03*
Y7086182D02*
D03*
Y6836182D02*
D03*
Y6336182D02*
D03*
X605932Y7836182D02*
D03*
Y7586182D02*
D03*
Y7336182D02*
D03*
Y7086182D02*
D03*
Y6836182D02*
D03*
Y-663818D02*
D03*
X355932Y7836182D02*
D03*
Y7586182D02*
D03*
Y7336182D02*
D03*
Y7086182D02*
D03*
Y6836182D02*
D03*
Y-663818D02*
D03*
X105932Y7836182D02*
D03*
Y7586182D02*
D03*
Y7336182D02*
D03*
Y7086182D02*
D03*
Y6836182D02*
D03*
Y6586182D02*
D03*
Y-663818D02*
D03*
X-144068Y7836182D02*
D03*
Y7586182D02*
D03*
Y7336182D02*
D03*
Y7086182D02*
D03*
Y6836182D02*
D03*
Y6586182D02*
D03*
Y6336182D02*
D03*
Y-663818D02*
D03*
X-394068Y7836182D02*
D03*
Y7586182D02*
D03*
Y7336182D02*
D03*
Y7086182D02*
D03*
Y6836182D02*
D03*
Y6586182D02*
D03*
Y6336182D02*
D03*
X-644068Y7836182D02*
D03*
Y7586182D02*
D03*
Y7336182D02*
D03*
Y7086182D02*
D03*
Y6836182D02*
D03*
X-894068Y7836182D02*
D03*
Y7586182D02*
D03*
Y7336182D02*
D03*
Y7086182D02*
D03*
Y6836182D02*
D03*
Y-663818D02*
D03*
X-1144068Y7836182D02*
D03*
Y7586182D02*
D03*
Y7336182D02*
D03*
Y7086182D02*
D03*
Y6836182D02*
D03*
Y6586182D02*
D03*
Y-663818D02*
D03*
X-1394068Y7586182D02*
D03*
Y7336182D02*
D03*
Y7086182D02*
D03*
Y6836182D02*
D03*
Y6336182D02*
D03*
X-1644068Y7836182D02*
D03*
Y7586182D02*
D03*
Y7336182D02*
D03*
Y7086182D02*
D03*
Y6836182D02*
D03*
Y6336182D02*
D03*
X-1894068Y7836182D02*
D03*
Y7586182D02*
D03*
Y7336182D02*
D03*
Y7086182D02*
D03*
Y6836182D02*
D03*
Y6336182D02*
D03*
Y-663818D02*
D03*
X-2144068Y7586182D02*
D03*
Y7336182D02*
D03*
Y7086182D02*
D03*
Y6836182D02*
D03*
Y6586182D02*
D03*
Y6336182D02*
D03*
X-1419860Y3098800D02*
D03*
X-1689100Y3261360D02*
D03*
X-1391920Y3035600D02*
D03*
X-1382306Y2877720D02*
D03*
X-1697668Y3086100D02*
D03*
X-1701800Y2867721D02*
D03*
X2001520Y3898900D02*
D03*
X-1794074Y5486176D02*
D03*
X-1644074D02*
D03*
X-1494074D02*
D03*
X-894074Y5036177D02*
D03*
Y5186177D02*
D03*
X-744074Y5036177D02*
D03*
X-594074D02*
D03*
Y5186177D02*
D03*
Y5336177D02*
D03*
Y5636176D02*
D03*
Y5786176D02*
D03*
X-444074Y5036177D02*
D03*
X-294074D02*
D03*
Y5186177D02*
D03*
Y5336177D02*
D03*
Y5636176D02*
D03*
Y5786176D02*
D03*
X-144074Y5036177D02*
D03*
X5926D02*
D03*
Y5186177D02*
D03*
Y5486176D02*
D03*
Y5636176D02*
D03*
Y5786176D02*
D03*
X155926Y5036177D02*
D03*
X305926D02*
D03*
Y5186177D02*
D03*
Y5636176D02*
D03*
Y5786176D02*
D03*
X455926Y5036177D02*
D03*
X605926D02*
D03*
Y5186177D02*
D03*
X905926Y5036177D02*
D03*
Y5186177D02*
D03*
X380000Y4030949D02*
D03*
X-897068Y4074379D02*
D03*
X-1162859Y3718981D02*
D03*
X588355Y3145388D02*
D03*
X1189401Y4301566D02*
D03*
X1228970Y4406677D02*
D03*
X-446301Y4585961D02*
D03*
X-1160780Y3886200D02*
D03*
X-892820Y4234180D02*
D03*
X-42947Y1183758D02*
D03*
Y1142888D02*
D03*
X-1371600Y1191260D02*
D03*
Y1246526D02*
D03*
X-117960Y4200002D02*
D03*
Y4272280D02*
D03*
X590005Y3204676D02*
D03*
X123219Y3387713D02*
D03*
X947420Y4064000D02*
D03*
X1218000Y3600252D02*
D03*
X-256540Y2471420D02*
D03*
X-744220Y2537460D02*
D03*
X-762000Y1524000D02*
D03*
X1875464Y1573116D02*
D03*
X1874547Y1688669D02*
D03*
X1874520Y1457320D02*
D03*
X656998Y1263242D02*
D03*
X637540Y807720D02*
D03*
D144*
X1115825Y2104918D02*
D03*
X1386759Y1633781D02*
D03*
X1417667Y1633619D02*
D03*
X985092Y1254598D02*
D03*
X1016000Y1254760D02*
D03*
X538908Y4571838D02*
D03*
X508000Y4572000D02*
D03*
X-538908Y4317838D02*
D03*
X-508000Y4318000D02*
D03*
X508081Y3048081D02*
D03*
X477173Y3047919D02*
D03*
X477132Y2031878D02*
D03*
X508041Y2032040D02*
D03*
X-475041Y1553909D02*
D03*
X-505949Y1554071D02*
D03*
X1905081Y3190321D02*
D03*
X1874173Y3190159D02*
D03*
X1267460Y896620D02*
D03*
X1396566Y3897693D02*
D03*
X1396469Y3975827D02*
D03*
X1437837Y3974592D02*
D03*
X3530600Y2481580D02*
D03*
X3528060Y4053840D02*
D03*
X1265080Y4301446D02*
D03*
X-1469414Y1901816D02*
D03*
X200660Y71208D02*
D03*
X-76200Y3606800D02*
D03*
X131765Y1232583D02*
D03*
X-5511Y1264488D02*
D03*
X3474720Y4084320D02*
D03*
X2618612Y2910397D02*
D03*
X2618740Y2481580D02*
D03*
X2921000Y2484120D02*
D03*
Y2938780D02*
D03*
X3220720Y2481580D02*
D03*
X-18559Y1294200D02*
D03*
X1178560Y4064000D02*
D03*
X1455420Y4620260D02*
D03*
X-1146115Y3083703D02*
D03*
X-1244807Y3244243D02*
D03*
X-525489Y3241040D02*
D03*
X-1483726Y3886322D02*
D03*
X-1256670Y4272570D02*
D03*
X-1348927Y4198904D02*
D03*
X-1389380Y4234180D02*
D03*
X199139Y1568237D02*
D03*
X222531Y1276444D02*
D03*
X304800Y1221740D02*
D03*
X-252643Y1255354D02*
D03*
X-301260Y1256620D02*
D03*
X-292500Y1222500D02*
D03*
X294640Y1275080D02*
D03*
X1150256Y1557659D02*
D03*
X1244897Y1351280D02*
D03*
X99060Y1353820D02*
D03*
X-113559Y1463587D02*
D03*
X1202639Y1464033D02*
D03*
X322580Y1262380D02*
D03*
X113532Y222674D02*
D03*
X-172720Y1249680D02*
D03*
X916940Y1315720D02*
D03*
X726372Y2031487D02*
D03*
X757280Y2031649D02*
D03*
X1233062Y4030800D02*
D03*
X1266316Y2537454D02*
D03*
X1636563Y1514993D02*
D03*
X1389067Y3600972D02*
D03*
X1363980Y3329940D02*
D03*
X1356360Y2468880D02*
D03*
X1571679Y1485470D02*
D03*
X1475740Y1010920D02*
D03*
X1524057Y1574103D02*
D03*
X1497698Y1687840D02*
D03*
X1296900Y1285168D02*
D03*
X1051625Y2205247D02*
D03*
X1015283D02*
D03*
X1042283Y2066367D02*
D03*
X1011375Y2066530D02*
D03*
X1084917Y2105080D02*
D03*
X1174565Y3926947D02*
D03*
X669860Y3927705D02*
D03*
X1426157Y3108960D02*
D03*
X1287790Y3107385D02*
D03*
X1506509Y3260538D02*
D03*
X1007372Y3260801D02*
D03*
X1287373Y2920020D02*
D03*
X1256464Y2920182D02*
D03*
X1287373Y2960738D02*
D03*
X1256464Y2960576D02*
D03*
X1278966Y2850380D02*
D03*
X959440Y2852272D02*
D03*
X-89497Y4425000D02*
D03*
X47501D02*
D03*
X-1366520Y2390140D02*
D03*
X-1262500D02*
D03*
X282928Y3790341D02*
D03*
X529498Y3789680D02*
D03*
X203267Y3575564D02*
D03*
X353875Y3575459D02*
D03*
X353060Y2959100D02*
D03*
X589280D02*
D03*
X-1071880Y2118360D02*
D03*
X-1897380Y2117780D02*
D03*
X-1953260Y1673860D02*
D03*
X-1071457Y1734162D02*
D03*
X-424180Y3213100D02*
D03*
X-391672Y2926246D02*
D03*
X-139456Y2890531D02*
D03*
X-673864Y2891347D02*
D03*
X-901581Y2892671D02*
D03*
X-87737Y3204588D02*
D03*
X-1701800Y3187700D02*
D03*
X-1322820Y3612722D02*
D03*
X-108692Y3383734D02*
D03*
X-1181537Y3385818D02*
D03*
X-704561Y2976062D02*
D03*
X-593478Y3117789D02*
D03*
X-840740Y3116580D02*
D03*
X-148854Y3237974D02*
D03*
X-358620Y2972837D02*
D03*
X-181015Y2970675D02*
D03*
X-1297940Y2908300D02*
D03*
X-1360012Y3683411D02*
D03*
X-1613142Y3687068D02*
D03*
X-1414780Y3213100D02*
D03*
X-990600D02*
D03*
X-929521Y2908153D02*
D03*
X-884676Y1861820D02*
D03*
X-1469092Y1862332D02*
D03*
X-1500000Y1862494D02*
D03*
X-1523898Y1901409D02*
D03*
X-868680Y1971040D02*
D03*
X-1500151Y1970179D02*
D03*
D145*
X1396566Y3897693D02*
X1997773D01*
D146*
X2030925Y2561178D02*
D03*
Y2411178D02*
D03*
Y1961178D02*
D03*
Y1661178D02*
D03*
X1880925Y3461177D02*
D03*
X1730925Y4361177D02*
D03*
X1580925D02*
D03*
X1430926Y911178D02*
D03*
X1130926Y1061178D02*
D03*
Y911178D02*
D03*
X830926Y1811178D02*
D03*
X680926Y4511177D02*
D03*
Y3611177D02*
D03*
X530926Y4661177D02*
D03*
Y4361177D02*
D03*
X230926Y4661177D02*
D03*
X80926D02*
D03*
Y3761177D02*
D03*
X-69074Y4661177D02*
D03*
Y3911177D02*
D03*
Y3761177D02*
D03*
X-219074Y4661177D02*
D03*
Y4511177D02*
D03*
Y2111178D02*
D03*
X-369074Y4661177D02*
D03*
Y4511177D02*
D03*
Y4361177D02*
D03*
Y3911177D02*
D03*
Y3761177D02*
D03*
X-519074Y4661177D02*
D03*
X-669074D02*
D03*
Y4511177D02*
D03*
Y911178D02*
D03*
X-819074Y4661177D02*
D03*
Y4511177D02*
D03*
Y2261178D02*
D03*
Y161178D02*
D03*
X-969074Y4661177D02*
D03*
Y4511177D02*
D03*
Y161178D02*
D03*
Y11178D02*
D03*
X-1119074Y4661177D02*
D03*
Y161178D02*
D03*
X-1269074Y2561178D02*
D03*
X-1419074Y4361177D02*
D03*
Y2561178D02*
D03*
Y911178D02*
D03*
Y161178D02*
D03*
Y11178D02*
D03*
X-1569074Y4661177D02*
D03*
Y4511177D02*
D03*
Y3761177D02*
D03*
X-1719074Y4511177D02*
D03*
Y4361177D02*
D03*
Y4211177D02*
D03*
Y2561178D02*
D03*
X-1869073Y3611177D02*
D03*
Y3461177D02*
D03*
Y3311177D02*
D03*
Y3161177D02*
D03*
Y2561178D02*
D03*
X-2019073Y2711177D02*
D03*
Y2561178D02*
D03*
Y2411178D02*
D03*
X830926Y4511177D02*
D03*
X-2107551Y2310000D02*
D03*
X-2110740Y2170000D02*
D03*
X834052Y1981430D02*
D03*
X1668100Y3295650D02*
D03*
X782666Y4493397D02*
D03*
X662394Y4329761D02*
D03*
X-2095500Y2009140D02*
D03*
X-1351280Y1701800D02*
D03*
X-1308793Y3316781D02*
D03*
X-911860Y3427259D02*
D03*
D149*
X947420Y4064000D02*
X1178560D01*
%TF.MD5,f722949bd40679eebb8970cedf37d2b8*%
M02*
