%TF.GenerationSoftware,Altium Limited,Altium Designer,26.10.1 (5)*%
G04 Layer_Color=65535*
G04 Board_Origin=74386096|43952041*
%FSLAX45Y45*%
%MOMM*%
%TF.SameCoordinates,2921B627-0CEA-4390-BE51-8046150D5B20*%
%TF.FilePolarity,Positive*%
%TF.FileFunction,Legend,Top*%
%TF.Part,Single*%
G01*
G75*
%TA.AperFunction,NonConductor*%
%ADD152C,0.30000*%
%ADD153C,0.20000*%
%ADD154C,0.15000*%
%ADD155C,0.10000*%
%ADD156C,0.25000*%
%ADD157C,0.05000*%
%ADD158C,0.18000*%
%ADD159C,0.15240*%
%ADD160C,0.04999*%
%ADD161C,0.12700*%
%ADD162C,0.20320*%
%ADD163C,0.10160*%
%ADD164C,0.06000*%
%ADD165C,0.08000*%
%ADD166C,0.07620*%
G36*
X4260900Y2072400D02*
X4330700Y2142200D01*
X4400500Y2072400D01*
X4260900D01*
D02*
G37*
G36*
X4330700Y2762200D02*
X4260900Y2692400D01*
X4400500D01*
X4330700Y2762200D01*
D02*
G37*
G36*
X4249420Y3751580D02*
X4319220Y3821380D01*
X4389020Y3751580D01*
X4249420D01*
D02*
G37*
G36*
X4310380Y4476700D02*
X4240580Y4406900D01*
X4380180D01*
X4310380Y4476700D01*
D02*
G37*
G36*
X3804440Y6260754D02*
X3916560D01*
Y6210700D01*
X3804440D01*
Y6260754D01*
D02*
G37*
D152*
X2009140Y3399860D02*
G03*
X2009140Y3399860I-12700J0D01*
G01*
X-2212340Y3035300D02*
G03*
X-2212340Y3035300I-12700J0D01*
G01*
X1460500Y764540D02*
G03*
X1460500Y764540I-12700J0D01*
G01*
X1574800D02*
G03*
X1574800Y764540I-12700J0D01*
G01*
X2237740Y1701800D02*
G03*
X2237740Y1701800I-12700J0D01*
G01*
X4498340Y5445760D02*
G03*
X4498340Y5445760I-12700J0D01*
G01*
X3923340Y2129680D02*
G03*
X3923340Y2129680I-12700J0D01*
G01*
X2908300Y1386840D02*
G03*
X2908300Y1386840I-12700J0D01*
G01*
X2669540D02*
G03*
X2669540Y1386840I-12700J0D01*
G01*
X2528260Y-444120D02*
G03*
X2528260Y-444120I-12700J0D01*
G01*
X3918260D02*
G03*
X3918260Y-444120I-12700J0D01*
G01*
D153*
X3644740Y6235700D02*
G03*
X3644740Y6235700I-10000J0D01*
G01*
X513090Y2275000D02*
G03*
X513090Y2275000I-5590J0D01*
G01*
X123090Y2272500D02*
G03*
X123090Y2272500I-5590J0D01*
G01*
X-1063463Y2128421D02*
G03*
X-1063463Y2128421I-5590J0D01*
G01*
X2683560Y-820420D02*
X3737560D01*
Y-566420D01*
X2683560Y-820420D02*
Y-566420D01*
X3737560D01*
X2457500Y3215980D02*
X3511500D01*
Y3469980D01*
X2457500Y3215980D02*
Y3469980D01*
X3511500D01*
X2683560Y-134620D02*
X3737560D01*
X2683560Y-388620D02*
Y-134620D01*
X3737560Y-388620D02*
Y-134620D01*
X2683560Y-388620D02*
X3737560D01*
D154*
X1567859Y3109051D02*
G03*
X1567859Y3109051I-5590J0D01*
G01*
X3301493Y957228D02*
G03*
X3303710Y957426I1647J-5928D01*
G01*
D155*
X918822Y5234486D02*
G03*
X928822Y5234486I5000J0D01*
G01*
D02*
G03*
X918822Y5234486I-5000J0D01*
G01*
X-100691Y5234541D02*
G03*
X-110691Y5234541I-5000J0D01*
G01*
D02*
G03*
X-100691Y5234541I5000J0D01*
G01*
X918822Y5747189D02*
G03*
X928822Y5747189I5000J0D01*
G01*
D02*
G03*
X918822Y5747189I-5000J0D01*
G01*
X-100691Y5747249D02*
G03*
X-110691Y5747249I-5000J0D01*
G01*
D02*
G03*
X-100691Y5747249I5000J0D01*
G01*
X379867Y5234486D02*
G03*
X389867Y5234486I5000J0D01*
G01*
D02*
G03*
X379867Y5234486I-5000J0D01*
G01*
X-375125Y5234541D02*
G03*
X-385125Y5234541I-5000J0D01*
G01*
D02*
G03*
X-375125Y5234541I5000J0D01*
G01*
X654807Y5747009D02*
G03*
X664807Y5747009I5000J0D01*
G01*
D02*
G03*
X654807Y5747009I-5000J0D01*
G01*
X-649559Y5747249D02*
G03*
X-659559Y5747249I-5000J0D01*
G01*
D02*
G03*
X-649559Y5747249I5000J0D01*
G01*
X654807Y5234486D02*
G03*
X664807Y5234486I5000J0D01*
G01*
D02*
G03*
X654807Y5234486I-5000J0D01*
G01*
X-649559Y5234541D02*
G03*
X-659559Y5234541I-5000J0D01*
G01*
D02*
G03*
X-649559Y5234541I5000J0D01*
G01*
X379867Y5747009D02*
G03*
X389867Y5747009I5000J0D01*
G01*
D02*
G03*
X379867Y5747009I-5000J0D01*
G01*
X-375125Y5747249D02*
G03*
X-385125Y5747249I-5000J0D01*
G01*
D02*
G03*
X-375125Y5747249I5000J0D01*
G01*
X104926Y5234486D02*
G03*
X114926Y5234486I5000J0D01*
G01*
D02*
G03*
X104926Y5234486I-5000J0D01*
G01*
X-913999Y5234541D02*
G03*
X-923999Y5234541I-5000J0D01*
G01*
D02*
G03*
X-913999Y5234541I5000J0D01*
G01*
X104926Y5747009D02*
G03*
X114926Y5747009I5000J0D01*
G01*
D02*
G03*
X104926Y5747009I-5000J0D01*
G01*
X-913999Y5747249D02*
G03*
X-923999Y5747249I-5000J0D01*
G01*
D02*
G03*
X-913999Y5747249I5000J0D01*
G01*
X1262380Y5585300D02*
G03*
X1262380Y5575300I0J-5000D01*
G01*
D02*
G03*
X1262380Y5585300I0J5000D01*
G01*
X2846600Y455720D02*
G03*
X2846600Y455720I-5000J0D01*
G01*
X3603519D02*
G03*
X3603519Y455720I-5000J0D01*
G01*
X3025140Y3611880D02*
X3489960D01*
X3025140Y5943600D02*
X3489960D01*
Y3611880D02*
Y5943600D01*
X3025140Y3611880D02*
Y5943600D01*
X-476920Y418720D02*
Y689720D01*
X2033160Y1450940D02*
X2304160D01*
X2083960Y572100D02*
X2354960D01*
X-2272140Y4034120D02*
X-2001140D01*
X-2266663Y4620120D02*
X-1995663D01*
X2482740Y2430140D02*
X2753740D01*
X3090646D02*
X3361646D01*
X3394600D02*
X3665599D01*
X2786693D02*
X3057693D01*
X-2169540Y6769200D02*
X-1898540D01*
X1437040Y-857360D02*
Y-586360D01*
X3344800Y6769200D02*
X3615800D01*
X-645540D02*
X-374540D01*
X2328801D02*
X2599801D01*
X-1153540D02*
X-882540D01*
X2835736D02*
X3106736D01*
X1345820D02*
X1616820D01*
X329818D02*
X600818D01*
X-1661540D02*
X-1390540D01*
X1820800D02*
X2091800D01*
X837819D02*
X1108819D01*
X-157861D02*
X113139D01*
X3852800D02*
X4123800D01*
X-1824320Y-857360D02*
Y-586360D01*
X349920Y-857360D02*
Y-586360D01*
X-737200Y-857360D02*
Y-586360D01*
X-330681Y3391102D02*
X-280651D01*
X-331808Y3340499D02*
Y3390529D01*
X-343582Y3044801D02*
Y3094831D01*
X-394739Y3044228D02*
X-344709D01*
X-1472059Y1631135D02*
X-1437303D01*
Y1665890D01*
X-114853Y223809D02*
X-89453D01*
X-114853D02*
Y249209D01*
X154107Y223809D02*
X179507D01*
X154107D02*
Y249209D01*
X-1402080Y1323340D02*
Y1374140D01*
X1249520Y174447D02*
X1329494D01*
X1289507Y214434D02*
Y134460D01*
X424340Y150020D02*
X344366D01*
X-1331120Y150020D02*
X-1251146D01*
X-266860Y166827D02*
X-186886D01*
X-226873Y206814D02*
Y126840D01*
D156*
X2930960Y3151541D02*
G03*
X2930960Y3151541I-12500J0D01*
G01*
X3630461Y4594180D02*
Y5134611D01*
X3884461D01*
Y4594180D02*
Y5134611D01*
X3630461Y4594180D02*
X3884461D01*
X3653321Y3407740D02*
X3907321D01*
X3653321Y2899740D02*
Y3407740D01*
X3907321Y2899740D02*
Y3407740D01*
X3653321Y2899740D02*
X3907321D01*
D157*
X4249420Y3751580D02*
X4389020D01*
X4319220Y3821380D02*
X4389020Y3751580D01*
X4249420D02*
X4319220Y3821380D01*
X4260900Y2072400D02*
X4330700Y2142200D01*
X4400500Y2072400D01*
X4260900D02*
X4400500D01*
X757216Y4272208D02*
X784716D01*
X757216D02*
Y4299708D01*
X-1632784Y1779702D02*
X-1605284D01*
X-1632784D02*
Y1807202D01*
Y1910342D02*
X-1605284D01*
X-1632784D02*
Y1937842D01*
X-201960Y3001660D02*
X-176960D01*
Y2976660D02*
Y3001660D01*
X941040Y1188740D02*
X966040D01*
Y1163740D02*
Y1188740D01*
X762520Y894960D02*
X787520D01*
Y869960D02*
Y894960D01*
X1716540Y1386820D02*
X1741540D01*
X1716540D02*
Y1411820D01*
X1717168Y1502729D02*
X1742168D01*
X1717168D02*
Y1527728D01*
X1716252Y1618281D02*
X1741252D01*
X1716252D02*
Y1643281D01*
X-1157000Y1559580D02*
X-1132000D01*
Y1534580D02*
Y1559580D01*
X1607757Y3981781D02*
Y4031781D01*
X1342757D02*
X1392757D01*
X1342757Y3981781D02*
Y4031781D01*
Y3761781D02*
Y3811781D01*
Y3761781D02*
X1392757D01*
X1557757D02*
X1607757D01*
Y3811781D01*
X1665000Y2485000D02*
Y2585000D01*
X1565000D02*
X1665000D01*
X955000D02*
X1055000D01*
X955000Y2485000D02*
Y2585000D01*
Y1875000D02*
Y1975000D01*
Y1875000D02*
X1055000D01*
X1665000Y1880000D02*
Y1975000D01*
X-1299000Y1072500D02*
X-1243777D01*
X-1299000Y1183640D02*
X-1244000D01*
X1584660Y4179120D02*
Y4221620D01*
X1622160D01*
X1703500Y2374000D02*
Y2416500D01*
X1741000D01*
X-1339332Y3300212D02*
Y3350244D01*
X-1389364Y3300212D02*
X-1339332D01*
X-1265012Y3251216D02*
Y3301248D01*
X-1214980D01*
X905000Y3677500D02*
Y3705000D01*
Y3677500D02*
X932500D01*
X1141660Y2887880D02*
Y2915380D01*
Y2887880D02*
X1169160D01*
X-307360Y2545220D02*
Y2595220D01*
X-357360D02*
X-307360D01*
X-627360D02*
X-577360D01*
X-627360Y2275220D02*
Y2325220D01*
Y2275220D02*
X-577360D01*
X-357360D02*
X-307360D01*
Y2325220D01*
X1443620Y1461800D02*
Y1484300D01*
X1421120D02*
X1443620D01*
X1583654Y3123705D02*
X1833654D01*
X1583654Y2778705D02*
X1833654D01*
X-1464200Y3122660D02*
Y3157660D01*
X-1499200Y3122660D02*
X-1464200D01*
X-984140Y2718800D02*
Y2753800D01*
X-1019140Y2718800D02*
X-984140D01*
X-1139300Y3448317D02*
Y3483317D01*
X-1104300D01*
X-1695720Y3767980D02*
X-1660720D01*
X-1695720D02*
Y3802980D01*
X-1284240Y3440320D02*
X-1249240D01*
X-1284240D02*
Y3475320D01*
X-711963Y3003660D02*
X-676963D01*
Y2968660D02*
Y3003660D01*
X1017160Y4558860D02*
Y4593860D01*
X1052160D01*
X-860204Y1908904D02*
Y1938904D01*
X-890204D02*
X-860204D01*
X-1965000Y2045000D02*
X-1750000D01*
X-1870000Y1775000D02*
X-1750000D01*
X-1455000Y1915640D02*
Y1935640D01*
Y1915640D02*
X-1435000D01*
X-1455000Y1785000D02*
Y1805000D01*
Y1785000D02*
X-1435000D01*
X-711963Y3402440D02*
X-676963D01*
Y3367440D02*
Y3402440D01*
X-630580Y2212460D02*
Y2247460D01*
X-595580D01*
X-523772Y2809720D02*
X-493772D01*
X-523772Y2779720D02*
Y2809720D01*
X1444100Y1075420D02*
Y1110420D01*
X1409100Y1075420D02*
X1444100D01*
Y1212580D02*
Y1247580D01*
X1409100Y1212580D02*
X1444100D01*
X-790380Y2648060D02*
X-755380D01*
Y2613060D02*
Y2648060D01*
X420821Y1449180D02*
X455821D01*
Y1414180D02*
Y1449180D01*
X455821Y1466580D02*
Y1501580D01*
X420821Y1466580D02*
X455821D01*
X1998400Y2382140D02*
Y2412139D01*
X1963400D02*
X1998400D01*
X855460Y3343754D02*
X890460D01*
Y3308754D02*
Y3343754D01*
X-650760Y1969880D02*
X-615760D01*
Y1934880D02*
Y1969880D01*
X1252500Y1602500D02*
Y1637500D01*
X1217500Y1602500D02*
X1252500D01*
X877460Y1018740D02*
Y1053740D01*
X912460D01*
X398806Y2790931D02*
Y2825931D01*
X433806D01*
X163720Y2402400D02*
Y2437400D01*
X198720D01*
X-21700Y2791020D02*
Y2826020D01*
X13300D01*
X-263000Y2402400D02*
Y2437400D01*
X-228000D01*
X176260Y1695340D02*
X211260D01*
X176260D02*
Y1730340D01*
X557599Y1691710D02*
X592599D01*
X557599D02*
Y1726710D01*
X395800Y1921620D02*
X430800D01*
Y1886620D02*
Y1921620D01*
X12169Y1927499D02*
X47169D01*
Y1892499D02*
Y1927499D01*
X24020Y103700D02*
Y138700D01*
X59020D01*
X9000Y89900D02*
Y124900D01*
X-26000Y89900D02*
X9000D01*
X340560Y2463740D02*
Y2488740D01*
Y2463740D02*
X365560D01*
X-82651D02*
Y2488740D01*
Y2463740D02*
X-57651D01*
X-1738900Y1405780D02*
X-1703900D01*
X-1738900D02*
Y1440780D01*
X-1883680Y1405780D02*
X-1848680D01*
X-1883680D02*
Y1440780D01*
X-1649183Y1381281D02*
X-1614183D01*
Y1346281D02*
Y1381281D01*
X-1336480Y1576180D02*
X-1301480D01*
Y1541180D02*
Y1576180D01*
X-555000Y1560000D02*
Y1605000D01*
X-510000D01*
X-1523334Y3080100D02*
X-1488334D01*
Y3045100D02*
Y3080100D01*
X-1522359Y2907720D02*
X-1487359D01*
Y2872720D02*
Y2907720D01*
X1023570Y4084648D02*
X1093673Y4084925D01*
X783570Y4084648D02*
X853673Y4084925D01*
X-152985Y4143673D02*
X-152708Y4073570D01*
X-152985Y4413673D02*
X-152708Y4343570D01*
X783570Y3901648D02*
X853673Y3901925D01*
X1023570Y3901648D02*
X1093673Y3901925D01*
X28075Y4143673D02*
X28352Y4073570D01*
X28075Y4413673D02*
X28352Y4343570D01*
X1320230Y3322028D02*
X1390333Y3322305D01*
X1060230Y3322028D02*
X1130333Y3322305D01*
X637785Y3243520D02*
X707888Y3243797D01*
X641222Y3108902D02*
X711325Y3109178D01*
X1320230Y3137029D02*
X1390333Y3137305D01*
X1060230Y3137029D02*
X1130333Y3137305D01*
X543783Y3419907D02*
X613886Y3420183D01*
X541285Y2932952D02*
X611388Y2933229D01*
X1297461Y1508630D02*
Y1568630D01*
Y1399410D02*
Y1459410D01*
X75576Y1375280D02*
X175575D01*
X-1246680Y2399846D02*
Y2499845D01*
X642410Y1049704D02*
X702410D01*
X836750Y926081D02*
X896750D01*
X-219321Y-1450D02*
Y58550D01*
X336106Y205060D02*
Y265059D01*
X155586Y2033140D02*
X255585D01*
X-303919Y149730D02*
Y209730D01*
X-364620Y2116775D02*
Y2216774D01*
X-1076680Y859846D02*
Y959845D01*
Y1189846D02*
Y1289846D01*
X435000Y4015000D02*
X485001D01*
Y4065000D01*
X435000Y4425000D02*
X485001D01*
Y4375000D02*
Y4425000D01*
X75000Y4015000D02*
X125001D01*
X75000D02*
Y4065000D01*
X80000Y4425000D02*
X130001D01*
X18219Y3403660D02*
X68220D01*
X18219Y3353660D02*
Y3403660D01*
Y2993660D02*
X68220D01*
X18219D02*
Y3043660D01*
X378219Y3403660D02*
X428220D01*
Y3353660D02*
Y3403660D01*
X373219Y2993660D02*
X423220D01*
D158*
X2425700Y4640580D02*
Y5969000D01*
Y4640580D02*
X2997200D01*
Y4579620D02*
Y4640580D01*
Y4551680D02*
Y4579620D01*
Y4386580D02*
Y4551680D01*
Y3883660D02*
Y4386580D01*
Y3657600D02*
Y3883660D01*
Y3586480D02*
Y3657600D01*
Y3586480D02*
X3520440D01*
Y5969000D01*
X2425700D02*
X3520440D01*
D159*
X2566670Y747580D02*
Y794576D01*
Y747580D02*
X2613666D01*
X-1258585Y7718374D02*
X-1309368D01*
X-1334760Y7692982D01*
Y7591415D01*
X-1309368Y7566023D01*
X-1258585D01*
X-1233193Y7591415D01*
Y7692982D01*
X-1258585Y7718374D01*
X-1182409Y7515240D02*
Y7667591D01*
X-1106234D01*
X-1080842Y7642199D01*
Y7591415D01*
X-1106234Y7566023D01*
X-1182409D01*
X-953883D02*
X-1004667D01*
X-1030059Y7591415D01*
Y7642199D01*
X-1004667Y7667591D01*
X-953883D01*
X-928491Y7642199D01*
Y7616807D01*
X-1030059D01*
X-877708Y7566023D02*
Y7667591D01*
X-801533D01*
X-776141Y7642199D01*
Y7566023D01*
X-725357D02*
Y7718374D01*
X-623790Y7566023D01*
Y7718374D01*
X-496831Y7566023D02*
X-547615D01*
X-573006Y7591415D01*
Y7642199D01*
X-547615Y7667591D01*
X-496831D01*
X-471439Y7642199D01*
Y7616807D01*
X-573006D01*
X-420656Y7667591D02*
Y7566023D01*
Y7616807D01*
X-395264Y7642199D01*
X-369872Y7667591D01*
X-344480D01*
X-268305D02*
X-217522Y7566023D01*
X-166738Y7667591D01*
X-39779Y7566023D02*
X-90562D01*
X-115954Y7591415D01*
Y7642199D01*
X-90562Y7667591D01*
X-39779D01*
X-14387Y7642199D01*
Y7616807D01*
X-115954D01*
X290314Y7692982D02*
X264923Y7718374D01*
X214139D01*
X188747Y7692982D01*
Y7591415D01*
X214139Y7566023D01*
X264923D01*
X290314Y7591415D01*
Y7642199D01*
X239531D01*
X417273Y7566023D02*
X366490D01*
X341098Y7591415D01*
Y7642199D01*
X366490Y7667591D01*
X417273D01*
X442665Y7642199D01*
Y7616807D01*
X341098D01*
X493449Y7566023D02*
Y7667591D01*
X569624D01*
X595016Y7642199D01*
Y7566023D01*
X747367D02*
X645799D01*
X747367Y7667591D01*
Y7692982D01*
X721975Y7718374D01*
X671191D01*
X645799Y7692982D01*
X950501Y7718374D02*
Y7566023D01*
X1026676D01*
X1052068Y7591415D01*
Y7692982D01*
X1026676Y7718374D01*
X950501D01*
X1179027Y7566023D02*
X1128243D01*
X1102851Y7591415D01*
Y7642199D01*
X1128243Y7667591D01*
X1179027D01*
X1204419Y7642199D01*
Y7616807D01*
X1102851D01*
X1255202Y7667591D02*
X1305986Y7566023D01*
X1356769Y7667591D01*
X1559904Y7718374D02*
Y7566023D01*
X1636079D01*
X1661471Y7591415D01*
Y7616807D01*
X1636079Y7642199D01*
X1559904D01*
X1636079D01*
X1661471Y7667591D01*
Y7692982D01*
X1636079Y7718374D01*
X1559904D01*
X1737646Y7566023D02*
X1788430D01*
X1813822Y7591415D01*
Y7642199D01*
X1788430Y7667591D01*
X1737646D01*
X1712254Y7642199D01*
Y7591415D01*
X1737646Y7566023D01*
X1889997Y7667591D02*
X1940780D01*
X1966172Y7642199D01*
Y7566023D01*
X1889997D01*
X1864605Y7591415D01*
X1889997Y7616807D01*
X1966172D01*
X2016956Y7667591D02*
Y7566023D01*
Y7616807D01*
X2042348Y7642199D01*
X2067739Y7667591D01*
X2093131D01*
X2270874Y7718374D02*
Y7566023D01*
X2194698D01*
X2169307Y7591415D01*
Y7642199D01*
X2194698Y7667591D01*
X2270874D01*
X2474008Y7642199D02*
X2575575D01*
X2778709Y7566023D02*
Y7718374D01*
X2854885D01*
X2880277Y7692982D01*
Y7642199D01*
X2854885Y7616807D01*
X2778709D01*
X2829493D02*
X2880277Y7566023D01*
X3007236D02*
X2956452D01*
X2931060Y7591415D01*
Y7642199D01*
X2956452Y7667591D01*
X3007236D01*
X3032627Y7642199D01*
Y7616807D01*
X2931060D01*
X3083411Y7667591D02*
X3134194Y7566023D01*
X3184978Y7667591D01*
X3235762Y7566023D02*
X3286545D01*
X3261153D01*
Y7718374D01*
X3235762Y7692982D01*
X4069146Y307291D02*
X4170713D01*
X4119929D01*
Y154940D01*
X4297672Y307291D02*
X4246888D01*
X4221497Y281899D01*
Y180332D01*
X4246888Y154940D01*
X4297672D01*
X4323064Y180332D01*
Y281899D01*
X4297672Y307291D01*
X4373847Y154940D02*
Y307291D01*
X4450023D01*
X4475414Y281899D01*
Y231115D01*
X4450023Y205723D01*
X4373847D01*
D160*
X556260Y3548380D02*
Y3601720D01*
D161*
X4228466Y4141702D02*
X4229102Y4040236D01*
X4056380Y3838580D02*
Y3939408D01*
Y4040236D01*
X4056382Y4142336D01*
X4056380Y4241891D02*
X4056382Y4142336D01*
X4228466Y4141702D02*
X4228468Y4241891D01*
X4228466Y3939408D02*
X4229100Y4040236D01*
X4228466Y3939408D02*
X4229100Y3838580D01*
X4056382Y4142336D02*
X4401815Y4141064D01*
X4056380Y4040236D02*
X4401820D01*
X4056380Y3838580D02*
X4401820D01*
X4056380Y3939408D02*
X4401820D01*
X4056380Y4241891D02*
X4401820D01*
Y3838580D02*
Y3941400D01*
Y4050620D01*
Y4238580D02*
Y4342720D01*
Y4140783D02*
X4401825Y4050620D01*
X4401820Y4140783D02*
X4401825Y4238580D01*
X4228466Y4241891D02*
Y4342719D01*
X4056380Y4241891D02*
Y4342720D01*
X4228466Y4342719D01*
X4401820D01*
X4061460Y2262748D02*
X4406900D01*
X4061460Y2161920D02*
X4406900D01*
Y2264740D01*
X4061460Y2363576D02*
X4406900D01*
X4061462Y2465676D02*
X4406895Y2464404D01*
X4061460Y2565231D02*
X4406900D01*
Y2264740D02*
Y2373960D01*
Y2464123D02*
X4406905Y2373960D01*
X4406900Y2464123D02*
X4406905Y2561920D01*
X4406900D02*
Y2666060D01*
X4233546Y2666059D02*
X4406900D01*
X4061460Y2666060D02*
X4233546Y2666059D01*
Y2565231D02*
Y2666059D01*
Y2465042D02*
X4233548Y2565231D01*
X4233546Y2465042D02*
X4234182Y2363576D01*
X4233546Y2262748D02*
X4234180Y2363576D01*
X4061460Y2565231D02*
Y2666060D01*
Y2565231D02*
X4061462Y2465676D01*
X4061460Y2363576D02*
X4061462Y2465676D01*
X4061460Y2262748D02*
Y2363576D01*
X4233546Y2262748D02*
X4234180Y2161920D01*
X4061460D02*
Y2262748D01*
X3987056Y5994890D02*
Y6034877D01*
X4007049Y6054870D01*
X4027043Y6034877D01*
Y5994890D01*
Y6024880D01*
X3987056D01*
X4077027Y5994890D02*
Y6054870D01*
X4047036Y6024880D01*
X4087023D01*
X4107017Y6044873D02*
X4117014Y6054870D01*
X4137007D01*
X4147004Y6044873D01*
Y6004886D01*
X4137007Y5994890D01*
X4117014D01*
X4107017Y6004886D01*
Y6044873D01*
X4166998D02*
X4176994Y6054870D01*
X4196988D01*
X4206984Y6044873D01*
Y6004886D01*
X4196988Y5994890D01*
X4176994D01*
X4166998Y6004886D01*
Y6044873D01*
X3589020Y5737839D02*
X3673659D01*
X3631340D01*
Y5610881D01*
X3800618Y5737839D02*
X3715979D01*
Y5610881D01*
X3800618D01*
X3715979Y5674360D02*
X3758299D01*
X3927577Y5716680D02*
X3906417Y5737839D01*
X3864097D01*
X3842938Y5716680D01*
Y5695520D01*
X3864097Y5674360D01*
X3906417D01*
X3927577Y5653200D01*
Y5632040D01*
X3906417Y5610881D01*
X3864097D01*
X3842938Y5632040D01*
X3969897Y5737839D02*
X4054536D01*
X4012216D01*
Y5610881D01*
X4096855Y5737839D02*
X4139175D01*
X4118015D01*
Y5610881D01*
X4096855D01*
X4139175D01*
X4202655D02*
Y5737839D01*
X4287294Y5610881D01*
Y5737839D01*
X4414253Y5716680D02*
X4393093Y5737839D01*
X4350773D01*
X4329613Y5716680D01*
Y5632040D01*
X4350773Y5610881D01*
X4393093D01*
X4414253Y5632040D01*
Y5674360D01*
X4371933D01*
X3589020Y5786481D02*
Y5913440D01*
X3652499D01*
X3673659Y5892280D01*
Y5849960D01*
X3652499Y5828801D01*
X3589020D01*
X3631340D02*
X3673659Y5786481D01*
X3800618Y5913440D02*
X3715979D01*
Y5849960D01*
X3758299D01*
X3715979D01*
Y5786481D01*
X-2160441Y6504744D02*
X-2175253Y6519556D01*
X-2204877D01*
X-2219688Y6504744D01*
Y6489932D01*
X-2204877Y6475120D01*
X-2175253D01*
X-2160441Y6460308D01*
Y6445496D01*
X-2175253Y6430684D01*
X-2204877D01*
X-2219688Y6445496D01*
X-2130817Y6519556D02*
X-2071570D01*
X-2101193D01*
Y6430684D01*
X-2041946Y6519556D02*
X-2012322D01*
X-2027134D01*
Y6430684D01*
X-2041946D01*
X-2012322D01*
X-1967887D02*
Y6519556D01*
X-1938263Y6489932D01*
X-1908639Y6519556D01*
Y6430684D01*
X-1879015D02*
X-1849392D01*
X-1864204D01*
Y6519556D01*
X-1879015Y6504744D01*
X-2089522Y6669855D02*
X-2107849Y6688182D01*
X-2144504D01*
X-2162832Y6669855D01*
Y6596545D01*
X-2144504Y6578218D01*
X-2107849D01*
X-2089522Y6596545D01*
X-2052867Y6688182D02*
Y6578218D01*
Y6633200D01*
X-1979558D01*
Y6688182D01*
Y6578218D01*
X-1942903D02*
X-1906248D01*
X-1924576D01*
Y6688182D01*
X-1942903Y6669855D01*
X-651253Y6504744D02*
X-666065Y6519556D01*
X-695688D01*
X-710500Y6504744D01*
Y6489932D01*
X-695688Y6475120D01*
X-666065D01*
X-651253Y6460308D01*
Y6445496D01*
X-666065Y6430684D01*
X-695688D01*
X-710500Y6445496D01*
X-621629Y6519556D02*
X-562381D01*
X-592005D01*
Y6430684D01*
X-532758Y6519556D02*
X-503134D01*
X-517946D01*
Y6430684D01*
X-532758D01*
X-503134D01*
X-458698D02*
Y6519556D01*
X-429075Y6489932D01*
X-399451Y6519556D01*
Y6430684D01*
X-325392D02*
Y6519556D01*
X-369827Y6475120D01*
X-310580D01*
X-1159253Y6504744D02*
X-1174065Y6519556D01*
X-1203688D01*
X-1218500Y6504744D01*
Y6489932D01*
X-1203688Y6475120D01*
X-1174065D01*
X-1159253Y6460308D01*
Y6445496D01*
X-1174065Y6430684D01*
X-1203688D01*
X-1218500Y6445496D01*
X-1129629Y6519556D02*
X-1070381D01*
X-1100005D01*
Y6430684D01*
X-1040758Y6519556D02*
X-1011134D01*
X-1025946D01*
Y6430684D01*
X-1040758D01*
X-1011134D01*
X-966698D02*
Y6519556D01*
X-937075Y6489932D01*
X-907451Y6519556D01*
Y6430684D01*
X-877827Y6504744D02*
X-863015Y6519556D01*
X-833392D01*
X-818580Y6504744D01*
Y6489932D01*
X-833392Y6475120D01*
X-848203D01*
X-833392D01*
X-818580Y6460308D01*
Y6445496D01*
X-833392Y6430684D01*
X-863015D01*
X-877827Y6445496D01*
X-1667253Y6504744D02*
X-1682065Y6519556D01*
X-1711688D01*
X-1726500Y6504744D01*
Y6489932D01*
X-1711688Y6475120D01*
X-1682065D01*
X-1667253Y6460308D01*
Y6445496D01*
X-1682065Y6430684D01*
X-1711688D01*
X-1726500Y6445496D01*
X-1637629Y6519556D02*
X-1578381D01*
X-1608005D01*
Y6430684D01*
X-1548758Y6519556D02*
X-1519134D01*
X-1533946D01*
Y6430684D01*
X-1548758D01*
X-1519134D01*
X-1474698D02*
Y6519556D01*
X-1445075Y6489932D01*
X-1415451Y6519556D01*
Y6430684D01*
X-1326580D02*
X-1385827D01*
X-1326580Y6489932D01*
Y6504744D01*
X-1341392Y6519556D01*
X-1371015D01*
X-1385827Y6504744D01*
X3859508Y6688182D02*
X3786198D01*
Y6578218D01*
X3859508D01*
X3786198Y6633200D02*
X3822853D01*
X3896163Y6578218D02*
Y6688182D01*
X3969473Y6578218D01*
Y6688182D01*
X4079437Y6669855D02*
X4061110Y6688182D01*
X4024455D01*
X4006127Y6669855D01*
Y6596545D01*
X4024455Y6578218D01*
X4061110D01*
X4079437Y6596545D01*
X4116092Y6688182D02*
Y6578218D01*
X4189402D01*
X3360672Y6669855D02*
X3342345Y6688182D01*
X3305690D01*
X3287362Y6669855D01*
Y6596545D01*
X3305690Y6578218D01*
X3342345D01*
X3360672Y6596545D01*
X3397327Y6688182D02*
Y6578218D01*
Y6633200D01*
X3470636D01*
Y6688182D01*
Y6578218D01*
X3507291D02*
X3543946D01*
X3525619D01*
Y6688182D01*
X3507291Y6669855D01*
X3672238Y6578218D02*
X3598928D01*
X3672238Y6651527D01*
Y6669855D01*
X3653911Y6688182D01*
X3617256D01*
X3598928Y6669855D01*
X2869936D02*
X2851608Y6688182D01*
X2814953D01*
X2796626Y6669855D01*
Y6596545D01*
X2814953Y6578218D01*
X2851608D01*
X2869936Y6596545D01*
X2906590Y6688182D02*
Y6578218D01*
Y6633200D01*
X2979900D01*
Y6688182D01*
Y6578218D01*
X3016555D02*
X3053210D01*
X3034882D01*
Y6688182D01*
X3016555Y6669855D01*
X3108192Y6578218D02*
X3144847D01*
X3126519D01*
Y6688182D01*
X3108192Y6669855D01*
X2390492D02*
X2372164Y6688182D01*
X2335509D01*
X2317182Y6669855D01*
Y6596545D01*
X2335509Y6578218D01*
X2372164D01*
X2390492Y6596545D01*
X2427146Y6688182D02*
Y6578218D01*
Y6633200D01*
X2500456D01*
Y6688182D01*
Y6578218D01*
X2537111Y6669855D02*
X2555438Y6688182D01*
X2592093D01*
X2610420Y6669855D01*
Y6651527D01*
X2592093Y6633200D01*
X2610420Y6614872D01*
Y6596545D01*
X2592093Y6578218D01*
X2555438D01*
X2537111Y6596545D01*
Y6614872D01*
X2555438Y6633200D01*
X2537111Y6651527D01*
Y6669855D01*
X2555438Y6633200D02*
X2592093D01*
X1882491Y6669855D02*
X1864163Y6688182D01*
X1827508D01*
X1809181Y6669855D01*
Y6596545D01*
X1827508Y6578218D01*
X1864163D01*
X1882491Y6596545D01*
X1919145Y6688182D02*
Y6578218D01*
Y6633200D01*
X1992455D01*
Y6688182D01*
Y6578218D01*
X2029110Y6688182D02*
X2102419D01*
Y6669855D01*
X2029110Y6596545D01*
Y6578218D01*
X1361692Y6669855D02*
X1343365Y6688182D01*
X1306710D01*
X1288382Y6669855D01*
Y6596545D01*
X1306710Y6578218D01*
X1343365D01*
X1361692Y6596545D01*
X1398347Y6688182D02*
Y6578218D01*
Y6633200D01*
X1471656D01*
Y6688182D01*
Y6578218D01*
X1508311D02*
X1544966D01*
X1526639D01*
Y6688182D01*
X1508311Y6669855D01*
X1599948D02*
X1618276Y6688182D01*
X1654931D01*
X1673258Y6669855D01*
Y6596545D01*
X1654931Y6578218D01*
X1618276D01*
X1599948Y6596545D01*
Y6669855D01*
X899510D02*
X881182Y6688182D01*
X844527D01*
X826200Y6669855D01*
Y6596545D01*
X844527Y6578218D01*
X881182D01*
X899510Y6596545D01*
X936164Y6688182D02*
Y6578218D01*
Y6633200D01*
X1009474D01*
Y6688182D01*
Y6578218D01*
X1046129Y6596545D02*
X1064456Y6578218D01*
X1101111D01*
X1119438Y6596545D01*
Y6669855D01*
X1101111Y6688182D01*
X1064456D01*
X1046129Y6669855D01*
Y6651527D01*
X1064456Y6633200D01*
X1119438D01*
X391508Y6669855D02*
X373181Y6688182D01*
X336526D01*
X318199Y6669855D01*
Y6596545D01*
X336526Y6578218D01*
X373181D01*
X391508Y6596545D01*
X428163Y6688182D02*
Y6578218D01*
Y6633200D01*
X501473D01*
Y6688182D01*
Y6578218D01*
X611437Y6688182D02*
X574782Y6669855D01*
X538128Y6633200D01*
Y6596545D01*
X556455Y6578218D01*
X593110D01*
X611437Y6596545D01*
Y6614872D01*
X593110Y6633200D01*
X538128D01*
X-75849Y6669855D02*
X-94177Y6688182D01*
X-130832D01*
X-149159Y6669855D01*
Y6596545D01*
X-130832Y6578218D01*
X-94177D01*
X-75849Y6596545D01*
X-39195Y6688182D02*
Y6578218D01*
Y6633200D01*
X34115D01*
Y6688182D01*
Y6578218D01*
X144079Y6688182D02*
X70770D01*
Y6633200D01*
X107424Y6651527D01*
X125752D01*
X144079Y6633200D01*
Y6596545D01*
X125752Y6578218D01*
X89097D01*
X70770Y6596545D01*
X-583849Y6669855D02*
X-602177Y6688182D01*
X-638832D01*
X-657159Y6669855D01*
Y6596545D01*
X-638832Y6578218D01*
X-602177D01*
X-583849Y6596545D01*
X-547195Y6688182D02*
Y6578218D01*
Y6633200D01*
X-473885D01*
Y6688182D01*
Y6578218D01*
X-382248D02*
Y6688182D01*
X-437230Y6633200D01*
X-363921D01*
X-1091849Y6669855D02*
X-1110177Y6688182D01*
X-1146832D01*
X-1165159Y6669855D01*
Y6596545D01*
X-1146832Y6578218D01*
X-1110177D01*
X-1091849Y6596545D01*
X-1055195Y6688182D02*
Y6578218D01*
Y6633200D01*
X-981885D01*
Y6688182D01*
Y6578218D01*
X-945230Y6669855D02*
X-926903Y6688182D01*
X-890248D01*
X-871921Y6669855D01*
Y6651527D01*
X-890248Y6633200D01*
X-908576D01*
X-890248D01*
X-871921Y6614872D01*
Y6596545D01*
X-890248Y6578218D01*
X-926903D01*
X-945230Y6596545D01*
X-1599849Y6669855D02*
X-1618177Y6688182D01*
X-1654832D01*
X-1673159Y6669855D01*
Y6596545D01*
X-1654832Y6578218D01*
X-1618177D01*
X-1599849Y6596545D01*
X-1563195Y6688182D02*
Y6578218D01*
Y6633200D01*
X-1489885D01*
Y6688182D01*
Y6578218D01*
X-1379921D02*
X-1453230D01*
X-1379921Y6651527D01*
Y6669855D01*
X-1398248Y6688182D01*
X-1434903D01*
X-1453230Y6669855D01*
X361135Y6519556D02*
X301887D01*
Y6430684D01*
X361135D01*
X301887Y6475120D02*
X331511D01*
X390759Y6430684D02*
Y6519556D01*
X450006Y6430684D01*
Y6519556D01*
X538878Y6504744D02*
X524065Y6519556D01*
X494442D01*
X479630Y6504744D01*
Y6445496D01*
X494442Y6430684D01*
X524065D01*
X538878Y6445496D01*
Y6475120D01*
X509254D01*
X568501D02*
X627749D01*
X-106223Y6519556D02*
X-165471D01*
Y6430684D01*
X-106223D01*
X-165471Y6475120D02*
X-135847D01*
X-76599Y6430684D02*
Y6519556D01*
X-17352Y6430684D01*
Y6519556D01*
X71520Y6504744D02*
X56708Y6519556D01*
X27084D01*
X12272Y6504744D01*
Y6445496D01*
X27084Y6430684D01*
X56708D01*
X71520Y6445496D01*
Y6475120D01*
X41896D01*
X101143D02*
X160391D01*
X130767Y6504744D02*
Y6445496D01*
X854324Y6519556D02*
Y6430684D01*
Y6475120D01*
X913571D01*
Y6519556D01*
Y6430684D01*
X943195D02*
Y6519556D01*
X987631D01*
X1002443Y6504744D01*
Y6475120D01*
X987631Y6460308D01*
X943195D01*
X972819D02*
X1002443Y6430684D01*
X1032067Y6475120D02*
X1091314D01*
X1061690Y6504744D02*
Y6445496D01*
X1807681Y6519556D02*
X1748434D01*
Y6430684D01*
X1807681D01*
X1748434Y6475120D02*
X1778057D01*
X1837305Y6430684D02*
Y6519556D01*
X1896552Y6430684D01*
Y6519556D01*
X1985424Y6504744D02*
X1970612Y6519556D01*
X1940988D01*
X1926176Y6504744D01*
Y6445496D01*
X1940988Y6430684D01*
X1970612D01*
X1985424Y6445496D01*
Y6475120D01*
X1955800D01*
X2074295Y6430684D02*
X2015048D01*
X2074295Y6489932D01*
Y6504744D01*
X2059483Y6519556D01*
X2029859D01*
X2015048Y6504744D01*
X2103919Y6475120D02*
X2163166D01*
X2133543Y6504744D02*
Y6445496D01*
X1362325Y6519556D02*
Y6430684D01*
Y6475120D01*
X1421572D01*
Y6519556D01*
Y6430684D01*
X1451196D02*
Y6519556D01*
X1495632D01*
X1510444Y6504744D01*
Y6475120D01*
X1495632Y6460308D01*
X1451196D01*
X1480820D02*
X1510444Y6430684D01*
X1540068Y6475120D02*
X1599315D01*
X2315682Y6519556D02*
X2256435D01*
Y6430684D01*
X2315682D01*
X2256435Y6475120D02*
X2286058D01*
X2345306Y6430684D02*
Y6519556D01*
X2404553Y6430684D01*
Y6519556D01*
X2493425Y6504744D02*
X2478613Y6519556D01*
X2448989D01*
X2434177Y6504744D01*
Y6445496D01*
X2448989Y6430684D01*
X2478613D01*
X2493425Y6445496D01*
Y6475120D01*
X2463801D01*
X2582296Y6430684D02*
X2523049D01*
X2582296Y6489932D01*
Y6504744D01*
X2567484Y6519556D01*
X2537860D01*
X2523049Y6504744D01*
X2611920Y6475120D02*
X2671167D01*
X3361305Y6430684D02*
Y6519556D01*
X3405740D01*
X3420552Y6504744D01*
Y6475120D01*
X3405740Y6460308D01*
X3361305D01*
X3390929D02*
X3420552Y6430684D01*
X3450176D02*
Y6519556D01*
X3494612D01*
X3509424Y6504744D01*
Y6475120D01*
X3494612Y6460308D01*
X3450176D01*
X3479800D02*
X3509424Y6430684D01*
X3539048Y6475120D02*
X3598295D01*
X2852241Y6430684D02*
Y6519556D01*
X2896677D01*
X2911489Y6504744D01*
Y6475120D01*
X2896677Y6460308D01*
X2852241D01*
X2881865D02*
X2911489Y6430684D01*
X2941112D02*
Y6519556D01*
X2985548D01*
X3000360Y6504744D01*
Y6475120D01*
X2985548Y6460308D01*
X2941112D01*
X2970736D02*
X3000360Y6430684D01*
X3029984Y6475120D02*
X3089231D01*
X3059608Y6504744D02*
Y6445496D01*
X2547620Y3744280D02*
X2589940D01*
X2568780D01*
Y3617321D01*
X2547620D01*
X2589940D01*
X2738059D02*
X2653419D01*
X2738059Y3701960D01*
Y3723120D01*
X2716899Y3744280D01*
X2674579D01*
X2653419Y3723120D01*
X2865017D02*
X2843857Y3744280D01*
X2801538D01*
X2780378Y3723120D01*
Y3638481D01*
X2801538Y3617321D01*
X2843857D01*
X2865017Y3638481D01*
X4074624Y3652499D02*
X4032304D01*
X4053464D01*
Y3546700D01*
X4032304Y3525541D01*
X4011144D01*
X3989984Y3546700D01*
X4116943Y3652499D02*
X4201582D01*
X4159263D01*
Y3525541D01*
X4243902D02*
Y3610180D01*
X4286222Y3652499D01*
X4328541Y3610180D01*
Y3525541D01*
Y3589020D01*
X4243902D01*
X4455500Y3631340D02*
X4434340Y3652499D01*
X4392020D01*
X4370861Y3631340D01*
Y3546700D01*
X4392020Y3525541D01*
X4434340D01*
X4455500Y3546700D01*
Y3589020D01*
X4413180D01*
X4082599Y5323819D02*
X4040280D01*
X4061439D01*
Y5218020D01*
X4040280Y5196861D01*
X4019120D01*
X3997960Y5218020D01*
X4124919Y5323819D02*
X4209558D01*
X4167239D01*
Y5196861D01*
X4251878D02*
Y5281500D01*
X4294197Y5323819D01*
X4336517Y5281500D01*
Y5196861D01*
Y5260340D01*
X4251878D01*
X4463476Y5302660D02*
X4442316Y5323819D01*
X4399996D01*
X4378837Y5302660D01*
Y5218020D01*
X4399996Y5196861D01*
X4442316D01*
X4463476Y5218020D01*
Y5260340D01*
X4421156D01*
X4024340Y2769051D02*
X4004346D01*
X4014343D01*
Y2719067D01*
X4004346Y2709070D01*
X3994349D01*
X3984353Y2719067D01*
X4044333Y2759054D02*
X4054330Y2769051D01*
X4074324D01*
X4084320Y2759054D01*
Y2749057D01*
X4074324Y2739060D01*
X4064327D01*
X4074324D01*
X4084320Y2729064D01*
Y2719067D01*
X4074324Y2709070D01*
X4054330D01*
X4044333Y2719067D01*
X4104314Y2759054D02*
X4114311Y2769051D01*
X4134304D01*
X4144301Y2759054D01*
Y2719067D01*
X4134304Y2709070D01*
X4114311D01*
X4104314Y2719067D01*
Y2759054D01*
X4164294Y2709070D02*
X4184288D01*
X4174291D01*
Y2769051D01*
X4164294Y2759054D01*
X3186303Y5491470D02*
X3166309D01*
X3176306D01*
Y5441486D01*
X3166309Y5431490D01*
X3156312D01*
X3146316Y5441486D01*
X3236287Y5431490D02*
Y5491470D01*
X3206296Y5461480D01*
X3246283D01*
X3266277Y5481473D02*
X3276274Y5491470D01*
X3296267D01*
X3306264Y5481473D01*
Y5441486D01*
X3296267Y5431490D01*
X3276274D01*
X3266277Y5441486D01*
Y5481473D01*
X3366244Y5491470D02*
X3326258D01*
Y5461480D01*
X3346251Y5471477D01*
X3356248D01*
X3366244Y5461480D01*
Y5441486D01*
X3356248Y5431490D01*
X3336254D01*
X3326258Y5441486D01*
X3186303Y4134630D02*
X3166309D01*
X3176306D01*
Y4084646D01*
X3166309Y4074650D01*
X3156312D01*
X3146316Y4084646D01*
X3236287Y4074650D02*
Y4134630D01*
X3206296Y4104640D01*
X3246283D01*
X3266277Y4124633D02*
X3276274Y4134630D01*
X3296267D01*
X3306264Y4124633D01*
Y4084646D01*
X3296267Y4074650D01*
X3276274D01*
X3266277Y4084646D01*
Y4124633D01*
X3356248Y4074650D02*
Y4134630D01*
X3326258Y4104640D01*
X3366244D01*
X2577601Y483090D02*
Y543070D01*
X2607591D01*
X2617588Y533073D01*
Y513080D01*
X2607591Y503083D01*
X2577601D01*
X2597594D02*
X2617588Y483090D01*
X2637581D02*
X2657575D01*
X2647578D01*
Y543070D01*
X2637581Y533073D01*
X2717555Y483090D02*
Y543070D01*
X2687565Y513080D01*
X2727552D01*
X2747545Y533073D02*
X2757542Y543070D01*
X2777536D01*
X2787532Y533073D01*
Y493086D01*
X2777536Y483090D01*
X2757542D01*
X2747545Y493086D01*
Y533073D01*
X2807526Y483090D02*
X2827520D01*
X2817523D01*
Y543070D01*
X2807526Y533073D01*
X2425799Y1768810D02*
Y1828790D01*
X2455789D01*
X2465786Y1818793D01*
Y1798800D01*
X2455789Y1788803D01*
X2425799D01*
X2445793D02*
X2465786Y1768810D01*
X2485780D02*
X2505773D01*
X2495776D01*
Y1828790D01*
X2485780Y1818793D01*
X2565754Y1768810D02*
Y1828790D01*
X2535763Y1798800D01*
X2575750D01*
X2595744Y1768810D02*
X2615737D01*
X2605741D01*
Y1828790D01*
X2595744Y1818793D01*
X2645727Y1768810D02*
X2665721D01*
X2655724D01*
Y1828790D01*
X2645727Y1818793D01*
X2504929Y1447464D02*
X2564910D01*
Y1477454D01*
X2554913Y1487451D01*
X2514926D01*
X2504929Y1477454D01*
Y1447464D01*
X2564910Y1507444D02*
Y1527438D01*
Y1517441D01*
X2504929D01*
X2514926Y1507444D01*
X2564910Y1587418D02*
X2504929D01*
X2534920Y1557428D01*
Y1597415D01*
X2514926Y1617409D02*
X2504929Y1627405D01*
Y1647399D01*
X2514926Y1657395D01*
X2554913D01*
X2564910Y1647399D01*
Y1627405D01*
X2554913Y1617409D01*
X2514926D01*
X2504929Y1717376D02*
Y1677389D01*
X2534920D01*
X2524923Y1697383D01*
Y1707379D01*
X2534920Y1717376D01*
X2554913D01*
X2564910Y1707379D01*
Y1687386D01*
X2554913Y1677389D01*
X2984989Y1457624D02*
X3044970D01*
Y1487614D01*
X3034973Y1497611D01*
X2994986D01*
X2984989Y1487614D01*
Y1457624D01*
X3044970Y1517604D02*
Y1537598D01*
Y1527601D01*
X2984989D01*
X2994986Y1517604D01*
X3044970Y1597578D02*
X2984989D01*
X3014980Y1567588D01*
Y1607575D01*
X2994986Y1627568D02*
X2984989Y1637565D01*
Y1657559D01*
X2994986Y1667555D01*
X3034973D01*
X3044970Y1657559D01*
Y1637565D01*
X3034973Y1627568D01*
X2994986D01*
X3044970Y1717539D02*
X2984989D01*
X3014980Y1687549D01*
Y1727536D01*
X2544590Y108884D02*
X2484609D01*
Y138874D01*
X2494606Y148871D01*
X2514600D01*
X2524596Y138874D01*
Y108884D01*
Y128877D02*
X2544590Y148871D01*
Y168864D02*
Y188858D01*
Y178861D01*
X2484609D01*
X2494606Y168864D01*
X2544590Y248838D02*
X2484609D01*
X2514600Y218848D01*
Y258835D01*
X2494606Y278828D02*
X2484609Y288825D01*
Y308819D01*
X2494606Y318815D01*
X2534593D01*
X2544590Y308819D01*
Y288825D01*
X2534593Y278828D01*
X2494606D01*
Y338809D02*
X2484609Y348806D01*
Y368799D01*
X2494606Y378796D01*
X2504603D01*
X2514600Y368799D01*
X2524596Y378796D01*
X2534593D01*
X2544590Y368799D01*
Y348806D01*
X2534593Y338809D01*
X2524596D01*
X2514600Y348806D01*
X2504603Y338809D01*
X2494606D01*
X2514600Y348806D02*
Y368799D01*
X3934124Y1687050D02*
Y1747030D01*
X3964114D01*
X3974111Y1737033D01*
Y1717040D01*
X3964114Y1707043D01*
X3934124D01*
X3954118D02*
X3974111Y1687050D01*
X3994105D02*
X4014098D01*
X4004101D01*
Y1747030D01*
X3994105Y1737033D01*
X4074078Y1687050D02*
Y1747030D01*
X4044088Y1717040D01*
X4084075D01*
X4104069Y1737033D02*
X4114065Y1747030D01*
X4134059D01*
X4144056Y1737033D01*
Y1697046D01*
X4134059Y1687050D01*
X4114065D01*
X4104069Y1697046D01*
Y1737033D01*
X4164049D02*
X4174046Y1747030D01*
X4194040D01*
X4204036Y1737033D01*
Y1697046D01*
X4194040Y1687050D01*
X4174046D01*
X4164049Y1697046D01*
Y1737033D01*
X2752953Y61960D02*
X2742956Y51963D01*
Y31970D01*
X2752953Y21973D01*
X2792940D01*
X2802937Y31970D01*
Y51963D01*
X2792940Y61960D01*
X2802937Y81954D02*
Y101947D01*
Y91950D01*
X2742956D01*
X2752953Y81954D01*
X2802937Y161928D02*
X2742956D01*
X2772946Y131937D01*
Y171924D01*
X2752953Y191918D02*
X2742956Y201915D01*
Y221908D01*
X2752953Y231905D01*
X2792940D01*
X2802937Y221908D01*
Y201915D01*
X2792940Y191918D01*
X2752953D01*
X2742956Y251898D02*
Y291885D01*
X2752953D01*
X2792940Y251898D01*
X2802937D01*
X3411546Y356600D02*
X3401549Y346603D01*
Y326609D01*
X3411546Y316613D01*
X3451533D01*
X3461530Y326609D01*
Y346603D01*
X3451533Y356600D01*
X3461530Y376593D02*
Y396587D01*
Y386590D01*
X3401549D01*
X3411546Y376593D01*
X3461530Y456567D02*
X3401549D01*
X3431540Y426577D01*
Y466564D01*
X3411546Y486558D02*
X3401549Y496554D01*
Y516548D01*
X3411546Y526545D01*
X3451533D01*
X3461530Y516548D01*
Y496554D01*
X3451533Y486558D01*
X3411546D01*
X3401549Y586525D02*
Y546538D01*
X3431540D01*
X3421543Y566532D01*
Y576528D01*
X3431540Y586525D01*
X3451533D01*
X3461530Y576528D01*
Y556535D01*
X3451533Y546538D01*
X2530329Y-767416D02*
X2590310D01*
Y-737426D01*
X2580313Y-727429D01*
X2540326D01*
X2530329Y-737426D01*
Y-767416D01*
X2590310Y-707436D02*
Y-687442D01*
Y-697439D01*
X2530329D01*
X2540326Y-707436D01*
X2590310Y-627462D02*
X2530329D01*
X2560320Y-657452D01*
Y-617465D01*
X2540326Y-597471D02*
X2530329Y-587475D01*
Y-567481D01*
X2540326Y-557485D01*
X2580313D01*
X2590310Y-567481D01*
Y-587475D01*
X2580313Y-597471D01*
X2540326D01*
X2590310Y-497504D02*
Y-537491D01*
X2550323Y-497504D01*
X2540326D01*
X2530329Y-507501D01*
Y-527494D01*
X2540326Y-537491D01*
X4039089Y1803064D02*
X4099070D01*
Y1833054D01*
X4089073Y1843051D01*
X4049086D01*
X4039089Y1833054D01*
Y1803064D01*
X4099070Y1863044D02*
Y1883038D01*
Y1873041D01*
X4039089D01*
X4049086Y1863044D01*
X4099070Y1943018D02*
X4039089D01*
X4069080Y1913028D01*
Y1953015D01*
X4049086Y1973008D02*
X4039089Y1983005D01*
Y2002999D01*
X4049086Y2012995D01*
X4089073D01*
X4099070Y2002999D01*
Y1983005D01*
X4089073Y1973008D01*
X4049086D01*
Y2032989D02*
X4039089Y2042986D01*
Y2062979D01*
X4049086Y2072976D01*
X4089073D01*
X4099070Y2062979D01*
Y2042986D01*
X4089073Y2032989D01*
X4049086D01*
X3009564Y574530D02*
Y634510D01*
X3039554D01*
X3049551Y624513D01*
Y604520D01*
X3039554Y594523D01*
X3009564D01*
X3029558D02*
X3049551Y574530D01*
X3069545D02*
X3089538D01*
X3079541D01*
Y634510D01*
X3069545Y624513D01*
X3149518Y574530D02*
Y634510D01*
X3119528Y604520D01*
X3159515D01*
X3179509Y624513D02*
X3189505Y634510D01*
X3209499D01*
X3219496Y624513D01*
Y584526D01*
X3209499Y574530D01*
X3189505D01*
X3179509Y584526D01*
Y624513D01*
X3279476Y634510D02*
X3259483Y624513D01*
X3239489Y604520D01*
Y584526D01*
X3249486Y574530D01*
X3269480D01*
X3279476Y584526D01*
Y594523D01*
X3269480Y604520D01*
X3239489D01*
X2874944Y483090D02*
Y543070D01*
X2904934D01*
X2914931Y533073D01*
Y513080D01*
X2904934Y503083D01*
X2874944D01*
X2894938D02*
X2914931Y483090D01*
X2934925D02*
X2954918D01*
X2944921D01*
Y543070D01*
X2934925Y533073D01*
X3014898Y483090D02*
Y543070D01*
X2984908Y513080D01*
X3024895D01*
X3044889Y533073D02*
X3054885Y543070D01*
X3074879D01*
X3084876Y533073D01*
Y493086D01*
X3074879Y483090D01*
X3054885D01*
X3044889Y493086D01*
Y533073D01*
X3134860Y483090D02*
Y543070D01*
X3104869Y513080D01*
X3144856D01*
X3052744Y253510D02*
Y203526D01*
X3062741Y193530D01*
X3082734D01*
X3092731Y203526D01*
Y253510D01*
X3112725Y193530D02*
X3132718D01*
X3122721D01*
Y253510D01*
X3112725Y243513D01*
X3192698Y193530D02*
Y253510D01*
X3162708Y223520D01*
X3202695D01*
X3222689Y243513D02*
X3232685Y253510D01*
X3252679D01*
X3262676Y243513D01*
Y203526D01*
X3252679Y193530D01*
X3232685D01*
X3222689Y203526D01*
Y243513D01*
X3322656Y193530D02*
X3282669D01*
X3322656Y233517D01*
Y243513D01*
X3312660Y253510D01*
X3292666D01*
X3282669Y243513D01*
X3598681Y575494D02*
Y525510D01*
X3608677Y515513D01*
X3628671D01*
X3638668Y525510D01*
Y575494D01*
X3658661Y515513D02*
X3678655D01*
X3668658D01*
Y575494D01*
X3658661Y565497D01*
X3738635Y515513D02*
Y575494D01*
X3708645Y545503D01*
X3748632D01*
X3768625Y565497D02*
X3778622Y575494D01*
X3798616D01*
X3808612Y565497D01*
Y525510D01*
X3798616Y515513D01*
X3778622D01*
X3768625Y525510D01*
Y565497D01*
X3828606Y515513D02*
X3848600D01*
X3838603D01*
Y575494D01*
X3828606Y565497D01*
X3198349Y677844D02*
X3248333D01*
X3258330Y687840D01*
Y707834D01*
X3248333Y717831D01*
X3198349D01*
X3258330Y737824D02*
Y757818D01*
Y747821D01*
X3198349D01*
X3208346Y737824D01*
X3258330Y817798D02*
X3198349D01*
X3228340Y787808D01*
Y827795D01*
X3208346Y847788D02*
X3198349Y857785D01*
Y877779D01*
X3208346Y887775D01*
X3248333D01*
X3258330Y877779D01*
Y857785D01*
X3248333Y847788D01*
X3208346D01*
Y907769D02*
X3198349Y917766D01*
Y937759D01*
X3208346Y947756D01*
X3248333D01*
X3258330Y937759D01*
Y917766D01*
X3248333Y907769D01*
X3208346D01*
X4306470Y1687362D02*
X4246489D01*
Y1717352D01*
X4256486Y1727349D01*
X4276480D01*
X4286476Y1717352D01*
Y1687362D01*
Y1707356D02*
X4306470Y1727349D01*
Y1747343D02*
Y1767336D01*
Y1757339D01*
X4246489D01*
X4256486Y1747343D01*
X4306470Y1827317D02*
X4246489D01*
X4276480Y1797326D01*
Y1837313D01*
X4306470Y1857307D02*
Y1877301D01*
Y1867304D01*
X4246489D01*
X4256486Y1857307D01*
Y1907291D02*
X4246489Y1917287D01*
Y1937281D01*
X4256486Y1947278D01*
X4296473D01*
X4306470Y1937281D01*
Y1917287D01*
X4296473Y1907291D01*
X4256486D01*
X2542050Y456864D02*
X2482070D01*
Y486854D01*
X2492067Y496851D01*
X2512060D01*
X2522057Y486854D01*
Y456864D01*
Y476858D02*
X2542050Y496851D01*
Y516845D02*
Y536838D01*
Y526841D01*
X2482070D01*
X2492067Y516845D01*
X2542050Y596818D02*
X2482070D01*
X2512060Y566828D01*
Y606815D01*
X2492067Y626809D02*
X2482070Y636805D01*
Y656799D01*
X2492067Y666796D01*
X2532054D01*
X2542050Y656799D01*
Y636805D01*
X2532054Y626809D01*
X2492067D01*
X2542050Y726776D02*
Y686789D01*
X2502063Y726776D01*
X2492067D01*
X2482070Y716780D01*
Y696786D01*
X2492067Y686789D01*
X3082544Y1771350D02*
Y1831330D01*
X3112534D01*
X3122531Y1821333D01*
Y1801340D01*
X3112534Y1791343D01*
X3082544D01*
X3102538D02*
X3122531Y1771350D01*
X3142525D02*
X3162518D01*
X3152521D01*
Y1831330D01*
X3142525Y1821333D01*
X3222499Y1771350D02*
Y1831330D01*
X3192508Y1801340D01*
X3232495D01*
X3252489Y1821333D02*
X3262485Y1831330D01*
X3282479D01*
X3292476Y1821333D01*
Y1781346D01*
X3282479Y1771350D01*
X3262485D01*
X3252489Y1781346D01*
Y1821333D01*
X3312469D02*
X3322466Y1831330D01*
X3342460D01*
X3352456Y1821333D01*
Y1811337D01*
X3342460Y1801340D01*
X3332463D01*
X3342460D01*
X3352456Y1791343D01*
Y1781346D01*
X3342460Y1771350D01*
X3322466D01*
X3312469Y1781346D01*
X3991891Y576090D02*
X3971898D01*
X3981894D01*
Y526106D01*
X3971898Y516110D01*
X3961901D01*
X3951904Y526106D01*
X4011885Y516110D02*
X4031878D01*
X4021881D01*
Y576090D01*
X4011885Y566093D01*
X4091858Y516110D02*
Y576090D01*
X4061868Y546100D01*
X4101855D01*
X4121849Y566093D02*
X4131845Y576090D01*
X4151839D01*
X4161836Y566093D01*
Y526106D01*
X4151839Y516110D01*
X4131845D01*
X4121849Y526106D01*
Y566093D01*
X4181829D02*
X4191826Y576090D01*
X4211820D01*
X4221816Y566093D01*
Y526106D01*
X4211820Y516110D01*
X4191826D01*
X4181829Y526106D01*
Y566093D01*
X3613930Y3442689D02*
Y3462682D01*
Y3452686D01*
X3563946D01*
X3553950Y3462682D01*
Y3472679D01*
X3563946Y3482676D01*
X3553950Y3422695D02*
Y3402702D01*
Y3412699D01*
X3613930D01*
X3603933Y3422695D01*
Y3372712D02*
X3613930Y3362715D01*
Y3342722D01*
X3603933Y3332725D01*
X3593937D01*
X3583940Y3342722D01*
Y3352718D01*
Y3342722D01*
X3573943Y3332725D01*
X3563946D01*
X3553950Y3342722D01*
Y3362715D01*
X3563946Y3372712D01*
X3603933Y3312731D02*
X3613930Y3302735D01*
Y3282741D01*
X3603933Y3272744D01*
X3563946D01*
X3553950Y3282741D01*
Y3302735D01*
X3563946Y3312731D01*
X3603933D01*
Y3252751D02*
X3613930Y3242754D01*
Y3222760D01*
X3603933Y3212764D01*
X3563946D01*
X3553950Y3222760D01*
Y3242754D01*
X3563946Y3252751D01*
X3603933D01*
X2939270Y4816983D02*
Y4796989D01*
Y4806986D01*
X2989254D01*
X2999250Y4796989D01*
Y4786992D01*
X2989254Y4776996D01*
X2999250Y4866967D02*
X2939270D01*
X2969260Y4836976D01*
Y4876963D01*
X2949267Y4896957D02*
X2939270Y4906954D01*
Y4926947D01*
X2949267Y4936944D01*
X2989254D01*
X2999250Y4926947D01*
Y4906954D01*
X2989254Y4896957D01*
X2949267D01*
Y4956938D02*
X2939270Y4966934D01*
Y4986928D01*
X2949267Y4996924D01*
X2959263D01*
X2969260Y4986928D01*
Y4976931D01*
Y4986928D01*
X2979257Y4996924D01*
X2989254D01*
X2999250Y4986928D01*
Y4966934D01*
X2989254Y4956938D01*
X3196881Y982324D02*
X3256862D01*
Y1012314D01*
X3246865Y1022311D01*
X3206878D01*
X3196881Y1012314D01*
Y982324D01*
X3256862Y1042304D02*
Y1062298D01*
Y1052301D01*
X3196881D01*
X3206878Y1042304D01*
X3256862Y1122278D02*
X3196881D01*
X3226872Y1092288D01*
Y1132275D01*
X3206878Y1152268D02*
X3196881Y1162265D01*
Y1182259D01*
X3206878Y1192255D01*
X3246865D01*
X3256862Y1182259D01*
Y1162265D01*
X3246865Y1152268D01*
X3206878D01*
Y1212249D02*
X3196881Y1222246D01*
Y1242239D01*
X3206878Y1252236D01*
X3216875D01*
X3226872Y1242239D01*
Y1232243D01*
Y1242239D01*
X3236868Y1252236D01*
X3246865D01*
X3256862Y1242239D01*
Y1222246D01*
X3246865Y1212249D01*
X2941011Y128733D02*
X2931014Y138730D01*
X2911021D01*
X2901024Y128733D01*
Y88746D01*
X2911021Y78750D01*
X2931014D01*
X2941011Y88746D01*
X2961004Y78750D02*
X2980998D01*
X2971001D01*
Y138730D01*
X2961004Y128733D01*
X3040978Y78750D02*
Y138730D01*
X3010988Y108740D01*
X3050975D01*
X3070969Y128733D02*
X3080965Y138730D01*
X3100959D01*
X3110956Y128733D01*
Y88746D01*
X3100959Y78750D01*
X3080965D01*
X3070969Y88746D01*
Y128733D01*
X3170936Y138730D02*
X3150943Y128733D01*
X3130949Y108740D01*
Y88746D01*
X3140946Y78750D01*
X3160940D01*
X3170936Y88746D01*
Y98743D01*
X3160940Y108740D01*
X3130949D01*
X3509431Y146513D02*
X3499434Y156510D01*
X3479441D01*
X3469444Y146513D01*
Y106526D01*
X3479441Y96530D01*
X3499434D01*
X3509431Y106526D01*
X3529424Y96530D02*
X3549418D01*
X3539421D01*
Y156510D01*
X3529424Y146513D01*
X3609398Y96530D02*
Y156510D01*
X3579408Y126520D01*
X3619395D01*
X3639389Y146513D02*
X3649385Y156510D01*
X3669379D01*
X3679376Y146513D01*
Y106526D01*
X3669379Y96530D01*
X3649385D01*
X3639389Y106526D01*
Y146513D01*
X3729360Y96530D02*
Y156510D01*
X3699369Y126520D01*
X3739356D01*
X3185486Y1472211D02*
X3175489Y1462214D01*
Y1442220D01*
X3185486Y1432224D01*
X3225473D01*
X3235470Y1442220D01*
Y1462214D01*
X3225473Y1472211D01*
X3235470Y1492204D02*
Y1512198D01*
Y1502201D01*
X3175489D01*
X3185486Y1492204D01*
X3235470Y1572178D02*
X3175489D01*
X3205480Y1542188D01*
Y1582175D01*
X3185486Y1602169D02*
X3175489Y1612165D01*
Y1632159D01*
X3185486Y1642155D01*
X3225473D01*
X3235470Y1632159D01*
Y1612165D01*
X3225473Y1602169D01*
X3185486D01*
X3235470Y1702136D02*
Y1662149D01*
X3195483Y1702136D01*
X3185486D01*
X3175489Y1692139D01*
Y1672146D01*
X3185486Y1662149D01*
X3287250Y1394614D02*
Y1434601D01*
Y1414607D01*
X3347230D01*
Y1454594D02*
X3287250D01*
Y1484585D01*
X3297247Y1494581D01*
X3317240D01*
X3327237Y1484585D01*
Y1454594D01*
X3347230Y1514575D02*
Y1534568D01*
Y1524571D01*
X3287250D01*
X3297247Y1514575D01*
X3347230Y1594549D02*
X3287250D01*
X3317240Y1564558D01*
Y1604545D01*
X3297247Y1624539D02*
X3287250Y1634536D01*
Y1654529D01*
X3297247Y1664526D01*
X3337234D01*
X3347230Y1654529D01*
Y1634536D01*
X3337234Y1624539D01*
X3297247D01*
X3347230Y1724507D02*
Y1684520D01*
X3307243Y1724507D01*
X3297247D01*
X3287250Y1714510D01*
Y1694516D01*
X3297247Y1684520D01*
X4008456Y4489032D02*
X3988463D01*
X3998459D01*
Y4439048D01*
X3988463Y4429052D01*
X3978466D01*
X3968469Y4439048D01*
X4058440Y4429052D02*
Y4489032D01*
X4028450Y4459042D01*
X4068437D01*
X4088430Y4479035D02*
X4098427Y4489032D01*
X4118421D01*
X4128417Y4479035D01*
Y4439048D01*
X4118421Y4429052D01*
X4098427D01*
X4088430Y4439048D01*
Y4479035D01*
X4148411D02*
X4158407Y4489032D01*
X4178401D01*
X4188398Y4479035D01*
Y4439048D01*
X4178401Y4429052D01*
X4158407D01*
X4148411Y4439048D01*
Y4479035D01*
X2727626Y2754393D02*
X2717630Y2744396D01*
Y2724402D01*
X2727626Y2714406D01*
X2737623D01*
X2747620Y2724402D01*
Y2744396D01*
X2757617Y2754393D01*
X2767613D01*
X2777610Y2744396D01*
Y2724402D01*
X2767613Y2714406D01*
X2717630Y2774386D02*
X2777610D01*
X2757617Y2794380D01*
X2777610Y2814373D01*
X2717630D01*
Y2834367D02*
Y2874354D01*
X2727626D01*
X2767613Y2834367D01*
X2777610D01*
X2727626Y2894348D02*
X2717630Y2904344D01*
Y2924338D01*
X2727626Y2934334D01*
X2767613D01*
X2777610Y2924338D01*
Y2904344D01*
X2767613Y2894348D01*
X2727626D01*
Y2954328D02*
X2717630Y2964325D01*
Y2984318D01*
X2727626Y2994315D01*
X2767613D01*
X2777610Y2984318D01*
Y2964325D01*
X2767613Y2954328D01*
X2727626D01*
D162*
X3681255Y4645079D02*
X3833605D01*
Y4721254D01*
X3808213Y4746646D01*
X3782822D01*
X3757430Y4721254D01*
Y4645079D01*
Y4721254D01*
X3732038Y4746646D01*
X3706646D01*
X3681255Y4721254D01*
Y4645079D01*
Y4797430D02*
X3833605D01*
Y4898997D01*
X3681255Y5051348D02*
Y4949781D01*
X3833605D01*
Y5051348D01*
X3757430Y4949781D02*
Y5000564D01*
X3856495Y2950605D02*
X3704144D01*
X3754928Y3001389D01*
X3704144Y3052173D01*
X3856495D01*
X3729536Y3204523D02*
X3704144Y3179132D01*
Y3128348D01*
X3729536Y3102956D01*
X3831103D01*
X3856495Y3128348D01*
Y3179132D01*
X3831103Y3204523D01*
X3704144Y3255307D02*
X3831103D01*
X3856495Y3280699D01*
Y3331482D01*
X3831103Y3356874D01*
X3704144D01*
D163*
X2522187Y2729098D02*
X2420620D01*
X2454476Y2762954D01*
X2420620Y2796809D01*
X2522187D01*
X2437548Y2898376D02*
X2420620Y2881449D01*
Y2847593D01*
X2437548Y2830665D01*
X2505259D01*
X2522187Y2847593D01*
Y2881449D01*
X2505259Y2898376D01*
X2420620Y2932232D02*
X2505259D01*
X2522187Y2949160D01*
Y2983016D01*
X2505259Y2999944D01*
X2420620D01*
X2668452Y2627531D02*
X2566884D01*
Y2678314D01*
X2583812Y2695242D01*
X2617668D01*
X2634596Y2678314D01*
Y2627531D01*
Y2661386D02*
X2668452Y2695242D01*
X2566884Y2796809D02*
Y2729098D01*
X2668452D01*
Y2796809D01*
X2617668Y2729098D02*
Y2762954D01*
X2583812Y2898376D02*
X2566884Y2881449D01*
Y2847593D01*
X2583812Y2830665D01*
X2600740D01*
X2617668Y2847593D01*
Y2881449D01*
X2634596Y2898376D01*
X2651524D01*
X2668452Y2881449D01*
Y2847593D01*
X2651524Y2830665D01*
X2566884Y2999944D02*
Y2932232D01*
X2668452D01*
Y2999944D01*
X2617668Y2932232D02*
Y2966088D01*
X2566884Y3033800D02*
Y3101511D01*
Y3067655D01*
X2668452D01*
X756937Y-468640D02*
X744241Y-455944D01*
X718849D01*
X706153Y-468640D01*
Y-519424D01*
X718849Y-532120D01*
X744241D01*
X756937Y-519424D01*
Y-494032D01*
X731545D01*
X782328Y-532120D02*
Y-455944D01*
X833112Y-532120D01*
Y-455944D01*
X858504D02*
Y-532120D01*
X896592D01*
X909287Y-519424D01*
Y-468640D01*
X896592Y-455944D01*
X858504D01*
X-330183Y-468640D02*
X-342879Y-455944D01*
X-368271D01*
X-380967Y-468640D01*
Y-519424D01*
X-368271Y-532120D01*
X-342879D01*
X-330183Y-519424D01*
Y-494032D01*
X-355575D01*
X-304792Y-532120D02*
Y-455944D01*
X-254008Y-532120D01*
Y-455944D01*
X-228616D02*
Y-532120D01*
X-190528D01*
X-177833Y-519424D01*
Y-468640D01*
X-190528Y-455944D01*
X-228616D01*
X2481674Y2472573D02*
Y2548748D01*
X2507066Y2523356D01*
X2532458Y2548748D01*
Y2472573D01*
X2608633Y2536052D02*
X2595938Y2548748D01*
X2570546D01*
X2557850Y2536052D01*
Y2485269D01*
X2570546Y2472573D01*
X2595938D01*
X2608633Y2485269D01*
X2634025Y2548748D02*
Y2485269D01*
X2646721Y2472573D01*
X2672113D01*
X2684809Y2485269D01*
Y2548748D01*
X2786376D02*
Y2485269D01*
X2799072Y2472573D01*
X2824464D01*
X2837159Y2485269D01*
Y2548748D01*
X2862551Y2472573D02*
Y2523356D01*
X2887943Y2548748D01*
X2913335Y2523356D01*
Y2472573D01*
Y2510661D01*
X2862551D01*
X2938727Y2472573D02*
Y2548748D01*
X2976814D01*
X2989510Y2536052D01*
Y2510661D01*
X2976814Y2497965D01*
X2938727D01*
X2964119D02*
X2989510Y2472573D01*
X3014902Y2548748D02*
X3065686D01*
X3040294D01*
Y2472573D01*
X3114134Y2548748D02*
Y2472573D01*
X3152222D01*
X3164918Y2485269D01*
Y2497965D01*
X3152222Y2510661D01*
X3114134D01*
X3152222D01*
X3164918Y2523356D01*
Y2536052D01*
X3152222Y2548748D01*
X3114134D01*
X3190310D02*
Y2472573D01*
X3241093D01*
X3317269Y2548748D02*
X3266485D01*
Y2472573D01*
X3317269D01*
X3266485Y2510661D02*
X3291877D01*
X3418836Y2548748D02*
Y2485269D01*
X3431532Y2472573D01*
X3456924D01*
X3469619Y2485269D01*
Y2548748D01*
X3495011Y2472573D02*
Y2523356D01*
X3520403Y2548748D01*
X3545795Y2523356D01*
Y2472573D01*
Y2510661D01*
X3495011D01*
X3571187Y2472573D02*
Y2548748D01*
X3609274D01*
X3621970Y2536052D01*
Y2510661D01*
X3609274Y2497965D01*
X3571187D01*
X3596579D02*
X3621970Y2472573D01*
X3647362Y2548748D02*
X3698146D01*
X3672754D01*
Y2472573D01*
X1131675Y-455944D02*
Y-506728D01*
X1157067Y-532120D01*
X1182458Y-506728D01*
Y-455944D01*
X1258634Y-468640D02*
X1245938Y-455944D01*
X1220546D01*
X1207850Y-468640D01*
Y-519424D01*
X1220546Y-532120D01*
X1245938D01*
X1258634Y-519424D01*
X1284026Y-455944D02*
Y-532120D01*
Y-494032D01*
X1334809D01*
Y-455944D01*
Y-532120D01*
X1410984Y-468640D02*
X1398289Y-455944D01*
X1372897D01*
X1360201Y-468640D01*
Y-519424D01*
X1372897Y-532120D01*
X1398289D01*
X1410984Y-519424D01*
Y-494032D01*
X1385593D01*
X1436376Y-544816D02*
X1487160D01*
X1512552Y-532120D02*
Y-455944D01*
X1550640D01*
X1563335Y-468640D01*
Y-494032D01*
X1550640Y-506728D01*
X1512552D01*
X1537944D02*
X1563335Y-532120D01*
X1588727D02*
Y-481336D01*
X1614119Y-455944D01*
X1639511Y-481336D01*
Y-532120D01*
Y-494032D01*
X1588727D01*
X1664902Y-455944D02*
X1690294D01*
X1677598D01*
Y-532120D01*
X1664902D01*
X1690294D01*
X1728382Y-455944D02*
Y-532120D01*
X1779165D01*
X-928302Y-455944D02*
Y-506728D01*
X-902910Y-532120D01*
X-877519Y-506728D01*
Y-455944D01*
X-852127D02*
Y-532120D01*
X-814039D01*
X-801343Y-519424D01*
Y-506728D01*
X-814039Y-494032D01*
X-852127D01*
X-814039D01*
X-801343Y-481336D01*
Y-468640D01*
X-814039Y-455944D01*
X-852127D01*
X-775951Y-532120D02*
Y-481336D01*
X-750560Y-455944D01*
X-725168Y-481336D01*
Y-532120D01*
Y-494032D01*
X-775951D01*
X-699776Y-455944D02*
X-648993D01*
X-674384D01*
Y-532120D01*
X-623601D02*
X-598209D01*
X-610905D01*
Y-455944D01*
X-623601Y-468640D01*
X-560121Y-532120D02*
Y-455944D01*
X-522033D01*
X-509338Y-468640D01*
Y-494032D01*
X-522033Y-506728D01*
X-560121D01*
X-534729D02*
X-509338Y-532120D01*
X-1417303Y-468640D02*
X-1429999Y-455944D01*
X-1455391D01*
X-1468087Y-468640D01*
Y-519424D01*
X-1455391Y-532120D01*
X-1429999D01*
X-1417303Y-519424D01*
Y-494032D01*
X-1442695D01*
X-1391912Y-532120D02*
Y-455944D01*
X-1341128Y-532120D01*
Y-455944D01*
X-1315736D02*
Y-532120D01*
X-1277648D01*
X-1264953Y-519424D01*
Y-468640D01*
X-1277648Y-455944D01*
X-1315736D01*
X-1902402D02*
Y-506728D01*
X-1877010Y-532120D01*
X-1851619Y-506728D01*
Y-455944D01*
X-1826227Y-532120D02*
Y-455944D01*
X-1788139D01*
X-1775443Y-468640D01*
Y-494032D01*
X-1788139Y-506728D01*
X-1826227D01*
X-1800835D02*
X-1775443Y-532120D01*
X-1699268Y-455944D02*
X-1750052D01*
Y-532120D01*
X-1699268D01*
X-1750052Y-494032D02*
X-1724660D01*
X-1623093Y-468640D02*
X-1635788Y-455944D01*
X-1661180D01*
X-1673876Y-468640D01*
Y-519424D01*
X-1661180Y-532120D01*
X-1635788D01*
X-1623093Y-519424D01*
X-1597701Y-455944D02*
X-1546917D01*
X-1572309D01*
Y-532120D01*
X132150Y-455944D02*
Y-506728D01*
X157542Y-532120D01*
X182933Y-506728D01*
Y-455944D01*
X208325D02*
Y-532120D01*
X246413D01*
X259109Y-519424D01*
Y-506728D01*
X246413Y-494032D01*
X208325D01*
X246413D01*
X259109Y-481336D01*
Y-468640D01*
X246413Y-455944D01*
X208325D01*
X284501Y-532120D02*
Y-481336D01*
X309892Y-455944D01*
X335284Y-481336D01*
Y-532120D01*
Y-494032D01*
X284501D01*
X360676Y-455944D02*
X411459D01*
X386068D01*
Y-532120D01*
X487635D02*
X436851D01*
X487635Y-481336D01*
Y-468640D01*
X474939Y-455944D01*
X449547D01*
X436851Y-468640D01*
X513027Y-532120D02*
Y-455944D01*
X551114D01*
X563810Y-468640D01*
Y-494032D01*
X551114Y-506728D01*
X513027D01*
X538419D02*
X563810Y-532120D01*
X1907557Y-468640D02*
X1894861Y-455944D01*
X1869469D01*
X1856773Y-468640D01*
Y-519424D01*
X1869469Y-532120D01*
X1894861D01*
X1907557Y-519424D01*
Y-494032D01*
X1882165D01*
X1932948Y-532120D02*
Y-455944D01*
X1983732Y-532120D01*
Y-455944D01*
X2009124D02*
Y-532120D01*
X2047212D01*
X2059907Y-519424D01*
Y-468640D01*
X2047212Y-455944D01*
X2009124D01*
X2743340Y-457208D02*
X2730644Y-444512D01*
X2705252D01*
X2692556Y-457208D01*
Y-507992D01*
X2705252Y-520688D01*
X2730644D01*
X2743340Y-507992D01*
Y-482600D01*
X2717948D01*
X2768732Y-520688D02*
Y-444512D01*
X2819515Y-520688D01*
Y-444512D01*
X2844907D02*
Y-520688D01*
X2882995D01*
X2895690Y-507992D01*
Y-457208D01*
X2882995Y-444512D01*
X2844907D01*
X3048041Y-457208D02*
X3035345Y-444512D01*
X3009954D01*
X2997258Y-457208D01*
Y-507992D01*
X3009954Y-520688D01*
X3035345D01*
X3048041Y-507992D01*
X3111521Y-444512D02*
X3086129D01*
X3073433Y-457208D01*
Y-507992D01*
X3086129Y-520688D01*
X3111521D01*
X3124217Y-507992D01*
Y-457208D01*
X3111521Y-444512D01*
X3149608Y-520688D02*
Y-444512D01*
X3200392Y-520688D01*
Y-444512D01*
X3225784Y-520688D02*
Y-444512D01*
X3276567Y-520688D01*
Y-444512D01*
X3352743D02*
X3301959D01*
Y-520688D01*
X3352743D01*
X3301959Y-482600D02*
X3327351D01*
X3428918Y-457208D02*
X3416222Y-444512D01*
X3390830D01*
X3378134Y-457208D01*
Y-507992D01*
X3390830Y-520688D01*
X3416222D01*
X3428918Y-507992D01*
X3454310Y-444512D02*
X3505093D01*
X3479702D01*
Y-520688D01*
X3568573Y-444512D02*
X3543181D01*
X3530485Y-457208D01*
Y-507992D01*
X3543181Y-520688D01*
X3568573D01*
X3581269Y-507992D01*
Y-457208D01*
X3568573Y-444512D01*
X3606661Y-520688D02*
Y-444512D01*
X3644748D01*
X3657444Y-457208D01*
Y-482600D01*
X3644748Y-495296D01*
X3606661D01*
X3632052D02*
X3657444Y-520688D01*
X3345180Y-40648D02*
Y-74504D01*
X3362108Y-91432D01*
X3379036Y-74504D01*
Y-40648D01*
X3395963D02*
Y-91432D01*
X3421355D01*
X3429819Y-82968D01*
Y-74504D01*
X3421355Y-66040D01*
X3395963D01*
X3421355D01*
X3429819Y-57576D01*
Y-49112D01*
X3421355Y-40648D01*
X3395963D01*
X3446747Y-91432D02*
Y-57576D01*
X3463675Y-40648D01*
X3480603Y-57576D01*
Y-91432D01*
Y-66040D01*
X3446747D01*
X3497530Y-40648D02*
X3531386D01*
X3514458D01*
Y-91432D01*
X3582170D02*
X3548314D01*
X3582170Y-57576D01*
Y-49112D01*
X3573706Y-40648D01*
X3556778D01*
X3548314Y-49112D01*
X3599097Y-91432D02*
Y-40648D01*
X3624489D01*
X3632953Y-49112D01*
Y-66040D01*
X3624489Y-74504D01*
X3599097D01*
X3616025D02*
X3632953Y-91432D01*
X2824480Y-40648D02*
Y-74504D01*
X2841408Y-91432D01*
X2858336Y-74504D01*
Y-40648D01*
X2875263D02*
Y-91432D01*
X2900655D01*
X2909119Y-82968D01*
Y-74504D01*
X2900655Y-66040D01*
X2875263D01*
X2900655D01*
X2909119Y-57576D01*
Y-49112D01*
X2900655Y-40648D01*
X2875263D01*
X2926047Y-91432D02*
Y-57576D01*
X2942975Y-40648D01*
X2959903Y-57576D01*
Y-91432D01*
Y-66040D01*
X2926047D01*
X2976830Y-40648D02*
X3010686D01*
X2993758D01*
Y-91432D01*
X3027614D02*
X3044542D01*
X3036078D01*
Y-40648D01*
X3027614Y-49112D01*
X3069934Y-91432D02*
Y-40648D01*
X3095326D01*
X3103789Y-49112D01*
Y-66040D01*
X3095326Y-74504D01*
X3069934D01*
X3086861D02*
X3103789Y-91432D01*
X3563620Y1639861D02*
Y1599874D01*
X3583614Y1579880D01*
X3603607Y1599874D01*
Y1639861D01*
X3623601D02*
Y1579880D01*
X3653591D01*
X3663588Y1589877D01*
Y1599874D01*
X3653591Y1609870D01*
X3623601D01*
X3653591D01*
X3663588Y1619867D01*
Y1629864D01*
X3653591Y1639861D01*
X3623601D01*
X3683581D02*
Y1589877D01*
X3693578Y1579880D01*
X3713571D01*
X3723568Y1589877D01*
Y1639861D01*
X3783549Y1629864D02*
X3773552Y1639861D01*
X3753558D01*
X3743562Y1629864D01*
Y1619867D01*
X3753558Y1609870D01*
X3773552D01*
X3783549Y1599874D01*
Y1589877D01*
X3773552Y1579880D01*
X3753558D01*
X3743562Y1589877D01*
D164*
X2015140Y1523311D02*
X2041798D01*
X2028469D01*
Y1483324D01*
X2055127Y1523311D02*
Y1483324D01*
Y1503318D01*
X2081785D01*
Y1523311D01*
Y1483324D01*
X2121772Y1523311D02*
X2095114D01*
Y1483324D01*
X2121772D01*
X2095114Y1503318D02*
X2108443D01*
X2135101Y1483324D02*
Y1523311D01*
X2155094D01*
X2161759Y1516647D01*
Y1503318D01*
X2155094Y1496653D01*
X2135101D01*
X2148430D02*
X2161759Y1483324D01*
X2175088D02*
Y1523311D01*
X2188417Y1509983D01*
X2201746Y1523311D01*
Y1483324D01*
X2215075Y1476660D02*
X2241733D01*
X2255062Y1523311D02*
X2268391D01*
X2261726D01*
Y1483324D01*
X2255062D01*
X2268391D01*
X2288384D02*
Y1523311D01*
X2315042Y1483324D01*
Y1523311D01*
X4156000Y5552651D02*
Y5512664D01*
X4175994D01*
X4182658Y5519329D01*
Y5525993D01*
X4175994Y5532658D01*
X4156000D01*
X4175994D01*
X4182658Y5539322D01*
Y5545987D01*
X4175994Y5552651D01*
X4156000D01*
X4195987D02*
Y5512664D01*
X4222645D01*
X4262632Y5552651D02*
X4235974D01*
Y5512664D01*
X4262632D01*
X4235974Y5532658D02*
X4249303D01*
X4275961Y5506000D02*
X4302619D01*
X4315948Y5512664D02*
Y5552651D01*
X4335942D01*
X4342606Y5545987D01*
Y5532658D01*
X4335942Y5525993D01*
X4315948D01*
X4329277D02*
X4342606Y5512664D01*
X4382593Y5545987D02*
X4375929Y5552651D01*
X4362599D01*
X4355935Y5545987D01*
Y5539322D01*
X4362599Y5532658D01*
X4375929D01*
X4382593Y5525993D01*
Y5519329D01*
X4375929Y5512664D01*
X4362599D01*
X4355935Y5519329D01*
X4395922Y5552651D02*
X4422580D01*
X4409251D01*
Y5512664D01*
X4435909D02*
Y5539322D01*
X4455902D01*
X4462567Y5532658D01*
Y5512664D01*
X1938940Y934031D02*
X1965598D01*
X1952269D01*
Y894044D01*
X1978927Y934031D02*
Y894044D01*
Y914038D01*
X2005585D01*
Y934031D01*
Y894044D01*
X2045572Y934031D02*
X2018914D01*
Y894044D01*
X2045572D01*
X2018914Y914038D02*
X2032243D01*
X2058901Y894044D02*
Y934031D01*
X2078894D01*
X2085559Y927367D01*
Y914038D01*
X2078894Y907373D01*
X2058901D01*
X2072230D02*
X2085559Y894044D01*
X2098888D02*
Y934031D01*
X2112217Y920703D01*
X2125546Y934031D01*
Y894044D01*
X2138875Y887380D02*
X2165533D01*
X2198855Y934031D02*
X2185526D01*
X2178862Y927367D01*
Y900709D01*
X2185526Y894044D01*
X2198855D01*
X2205520Y900709D01*
Y927367D01*
X2198855Y934031D01*
X2245507D02*
X2218849D01*
Y914038D01*
X2232178D01*
X2218849D01*
Y894044D01*
X2285494Y927367D02*
X2278829Y934031D01*
X2265500D01*
X2258836Y927367D01*
Y920703D01*
X2265500Y914038D01*
X2278829D01*
X2285494Y907373D01*
Y900709D01*
X2278829Y894044D01*
X2265500D01*
X2258836Y900709D01*
X2298823Y934031D02*
X2325481D01*
X2312152D01*
Y894044D01*
X2338810Y887380D02*
X2365468D01*
X2378797Y934031D02*
X2392126D01*
X2385461D01*
Y894044D01*
X2378797D01*
X2392126D01*
X2412119D02*
Y934031D01*
X2438777Y894044D01*
Y934031D01*
D165*
X2097766Y3416680D02*
X2147749D01*
Y3441672D01*
X2139419Y3450002D01*
X2131088D01*
X2122758Y3441672D01*
Y3416680D01*
Y3441672D01*
X2114427Y3450002D01*
X2106096D01*
X2097766Y3441672D01*
Y3416680D01*
Y3466664D02*
X2147749D01*
Y3499986D01*
X2097766Y3549970D02*
Y3516647D01*
X2147749D01*
Y3549970D01*
X2122758Y3516647D02*
Y3533308D01*
X2156080Y3566631D02*
Y3599953D01*
X2106096Y3649937D02*
X2097766Y3641606D01*
Y3624945D01*
X2106096Y3616615D01*
X2139419D01*
X2147749Y3624945D01*
Y3641606D01*
X2139419Y3649937D01*
X2097766Y3691590D02*
Y3674929D01*
X2106096Y3666598D01*
X2139419D01*
X2147749Y3674929D01*
Y3691590D01*
X2139419Y3699921D01*
X2106096D01*
X2097766Y3691590D01*
X2147749Y3716582D02*
X2097766D01*
X2147749Y3749904D01*
X2097766D01*
X2147749Y3766565D02*
X2097766D01*
X2147749Y3799888D01*
X2097766D01*
X2327076Y1763442D02*
X2318746Y1755112D01*
Y1738451D01*
X2327076Y1730120D01*
X2335407D01*
X2343738Y1738451D01*
Y1755112D01*
X2352068Y1763442D01*
X2360399D01*
X2368729Y1755112D01*
Y1738451D01*
X2360399Y1730120D01*
X2318746Y1780104D02*
X2327076D01*
X2343738Y1796765D01*
X2327076Y1813426D01*
X2318746D01*
X2343738Y1796765D02*
X2368729D01*
X2327076Y1863410D02*
X2318746Y1855079D01*
Y1838418D01*
X2327076Y1830087D01*
X2335407D01*
X2343738Y1838418D01*
Y1855079D01*
X2352068Y1863410D01*
X2360399D01*
X2368729Y1855079D01*
Y1838418D01*
X2360399Y1830087D01*
X2377060Y1880071D02*
Y1913393D01*
X2368729Y1930055D02*
X2318746D01*
Y1955046D01*
X2327076Y1963377D01*
X2343738D01*
X2352068Y1955046D01*
Y1930055D01*
Y1946716D02*
X2368729Y1963377D01*
X2327076Y2013361D02*
X2318746Y2005030D01*
Y1988369D01*
X2327076Y1980038D01*
X2335407D01*
X2343738Y1988369D01*
Y2005030D01*
X2352068Y2013361D01*
X2360399D01*
X2368729Y2005030D01*
Y1988369D01*
X2360399Y1980038D01*
X2318746Y2030022D02*
Y2063344D01*
Y2046683D01*
X2368729D01*
Y2080005D02*
X2335407D01*
Y2104997D01*
X2343738Y2113328D01*
X2368729D01*
X-1949573Y3848782D02*
X-1957904Y3840452D01*
Y3823791D01*
X-1949573Y3815460D01*
X-1916251D01*
X-1907920Y3823791D01*
Y3840452D01*
X-1916251Y3848782D01*
X-1957904Y3865444D02*
X-1907920D01*
X-1932912D01*
Y3898766D01*
X-1957904D01*
X-1907920D01*
X-1949573Y3915427D02*
X-1957904Y3923758D01*
Y3940419D01*
X-1949573Y3948750D01*
X-1941242D01*
X-1932912Y3940419D01*
Y3932088D01*
Y3940419D01*
X-1924581Y3948750D01*
X-1916251D01*
X-1907920Y3940419D01*
Y3923758D01*
X-1916251Y3915427D01*
X-1939413Y4438062D02*
X-1947744Y4429732D01*
Y4413071D01*
X-1939413Y4404740D01*
X-1906091D01*
X-1897760Y4413071D01*
Y4429732D01*
X-1906091Y4438062D01*
X-1947744Y4454724D02*
X-1897760D01*
X-1922752D01*
Y4488046D01*
X-1947744D01*
X-1897760D01*
Y4529699D02*
X-1947744D01*
X-1922752Y4504707D01*
Y4538030D01*
X-2128794Y2723260D02*
X-2078811D01*
X-2103802D01*
Y2756582D01*
X-2128794D01*
X-2078811D01*
X-2128794Y2773244D02*
X-2095472D01*
X-2078811Y2789905D01*
X-2095472Y2806566D01*
X-2128794D01*
X-2070480Y2823227D02*
Y2856550D01*
X-2128794Y2906533D02*
Y2873211D01*
X-2078811D01*
Y2906533D01*
X-2103802Y2873211D02*
Y2889872D01*
X-2078811Y2923195D02*
X-2128794D01*
X-2078811Y2956517D01*
X-2128794D01*
X-743538Y438984D02*
X-751868Y447314D01*
X-768529D01*
X-776860Y438984D01*
Y405661D01*
X-768529Y397331D01*
X-751868D01*
X-743538Y405661D01*
X-701885Y447314D02*
X-718546D01*
X-726876Y438984D01*
Y405661D01*
X-718546Y397331D01*
X-701885D01*
X-693554Y405661D01*
Y438984D01*
X-701885Y447314D01*
X-676893D02*
X-660232D01*
X-668562D01*
Y397331D01*
X-676893D01*
X-660232D01*
X-635240Y447314D02*
Y397331D01*
X-601917D01*
X-585256Y389000D02*
X-551933D01*
X-501950Y397331D02*
X-535272D01*
X-501950Y430653D01*
Y438984D01*
X-510280Y447314D01*
X-526942D01*
X-535272Y438984D01*
X-1066118D02*
X-1074448Y447314D01*
X-1091109D01*
X-1099440Y438984D01*
Y405661D01*
X-1091109Y397331D01*
X-1074448D01*
X-1066118Y405661D01*
X-1024465Y447314D02*
X-1041126D01*
X-1049456Y438984D01*
Y405661D01*
X-1041126Y397331D01*
X-1024465D01*
X-1016134Y405661D01*
Y438984D01*
X-1024465Y447314D01*
X-999473D02*
X-982812D01*
X-991142D01*
Y397331D01*
X-999473D01*
X-982812D01*
X-957820Y447314D02*
Y397331D01*
X-924497D01*
X-907836Y389000D02*
X-874513D01*
X-857852Y397331D02*
X-841191D01*
X-849522D01*
Y447314D01*
X-857852Y438984D01*
X1610740Y633551D02*
Y683534D01*
X1627401Y666873D01*
X1644062Y683534D01*
Y633551D01*
X1660724D02*
Y666873D01*
X1677385Y683534D01*
X1694046Y666873D01*
Y633551D01*
Y658542D01*
X1660724D01*
X1744030Y675204D02*
X1735699Y683534D01*
X1719038D01*
X1710707Y675204D01*
Y641881D01*
X1719038Y633551D01*
X1735699D01*
X1744030Y641881D01*
Y658542D01*
X1727368D01*
X1760691Y625220D02*
X1794013D01*
X1835666Y683534D02*
X1819005D01*
X1810675Y675204D01*
Y641881D01*
X1819005Y633551D01*
X1835666D01*
X1843997Y641881D01*
Y675204D01*
X1835666Y683534D01*
X1860658D02*
Y641881D01*
X1868989Y633551D01*
X1885650D01*
X1893981Y641881D01*
Y683534D01*
X1910642D02*
X1943964D01*
X1927303D01*
Y633551D01*
X1130680Y657832D02*
X1164002D01*
X1147341Y674493D02*
Y641171D01*
X1180664Y682824D02*
Y632840D01*
X1205655D01*
X1213986Y641171D01*
Y674493D01*
X1205655Y682824D01*
X1180664D01*
X1230647D02*
Y649501D01*
X1247308Y632840D01*
X1263970Y649501D01*
Y682824D01*
X1280631D02*
Y632840D01*
X1305623D01*
X1313953Y641171D01*
Y674493D01*
X1305623Y682824D01*
X1280631D01*
X1330615D02*
Y632840D01*
X1355606D01*
X1363937Y641171D01*
Y674493D01*
X1355606Y682824D01*
X1330615D01*
X2090800Y629892D02*
X2124122D01*
X2107461Y646553D02*
Y613231D01*
X2140784Y654884D02*
Y621561D01*
X2157445Y604900D01*
X2174106Y621561D01*
Y654884D01*
X2190767D02*
Y604900D01*
X2215759D01*
X2224090Y613231D01*
Y621561D01*
X2215759Y629892D01*
X2190767D01*
X2215759D01*
X2224090Y638222D01*
Y646553D01*
X2215759Y654884D01*
X2190767D01*
X2240751D02*
Y613231D01*
X2249082Y604900D01*
X2265743D01*
X2274073Y613231D01*
Y654884D01*
X2324057Y646553D02*
X2315726Y654884D01*
X2299065D01*
X2290735Y646553D01*
Y638222D01*
X2299065Y629892D01*
X2315726D01*
X2324057Y621561D01*
Y613231D01*
X2315726Y604900D01*
X2299065D01*
X2290735Y613231D01*
X1958000Y41322D02*
X1991322D01*
X1974661Y57984D02*
Y24661D01*
X2007984Y66314D02*
Y32992D01*
X2024645Y16331D01*
X2041306Y32992D01*
Y66314D01*
X2091290Y57984D02*
X2082959Y66314D01*
X2066298D01*
X2057967Y57984D01*
Y24661D01*
X2066298Y16331D01*
X2082959D01*
X2091290Y24661D01*
X2107951Y66314D02*
Y16331D01*
Y41322D01*
X2141273D01*
Y66314D01*
Y16331D01*
X2191257Y57984D02*
X2182926Y66314D01*
X2166265D01*
X2157934Y57984D01*
Y24661D01*
X2166265Y16331D01*
X2182926D01*
X2191257Y24661D01*
Y41322D01*
X2174596D01*
X2207918Y8000D02*
X2241241D01*
X2257902Y16331D02*
Y66314D01*
X2282894D01*
X2291224Y57984D01*
Y41322D01*
X2282894Y32992D01*
X2257902D01*
X2274563D02*
X2291224Y16331D01*
X2307885D02*
Y49653D01*
X2324547Y66314D01*
X2341208Y49653D01*
Y16331D01*
Y41322D01*
X2307885D01*
X2357869Y66314D02*
X2374530D01*
X2366200D01*
Y16331D01*
X2357869D01*
X2374530D01*
X2399522Y66314D02*
Y16331D01*
X2432845D01*
D166*
X3047833Y3559978D02*
Y3530354D01*
X3062644Y3515543D01*
X3077456Y3530354D01*
Y3559978D01*
X3092268D02*
Y3515543D01*
X3114486D01*
X3121892Y3522949D01*
Y3552572D01*
X3114486Y3559978D01*
X3092268D01*
X3136704D02*
Y3515543D01*
X3158922D01*
X3166327Y3522949D01*
Y3552572D01*
X3158922Y3559978D01*
X3136704D01*
X2823456Y3552572D02*
X2816051Y3559978D01*
X2801238D01*
X2793833Y3552572D01*
Y3545166D01*
X2801238Y3537761D01*
X2816051D01*
X2823456Y3530354D01*
Y3522949D01*
X2816051Y3515543D01*
X2801238D01*
X2793833Y3522949D01*
X2838268Y3559978D02*
Y3515543D01*
X2860486D01*
X2867892Y3522949D01*
Y3552572D01*
X2860486Y3559978D01*
X2838268D01*
X2882704Y3515543D02*
Y3545166D01*
X2897515Y3559978D01*
X2912327Y3545166D01*
Y3515543D01*
Y3537761D01*
X2882704D01*
X2569456Y3552572D02*
X2562051Y3559978D01*
X2547238D01*
X2539833Y3552572D01*
Y3545166D01*
X2547238Y3537761D01*
X2562051D01*
X2569456Y3530354D01*
Y3522949D01*
X2562051Y3515543D01*
X2547238D01*
X2539833Y3522949D01*
X2613892Y3552572D02*
X2606486Y3559978D01*
X2591674D01*
X2584268Y3552572D01*
Y3522949D01*
X2591674Y3515543D01*
X2606486D01*
X2613892Y3522949D01*
X2628704Y3559978D02*
Y3515543D01*
X2658327D01*
X3331456Y3552572D02*
X3324051Y3559978D01*
X3309238D01*
X3301833Y3552572D01*
Y3522949D01*
X3309238Y3515543D01*
X3324051D01*
X3331456Y3522949D01*
Y3537761D01*
X3316644D01*
X3346268Y3515543D02*
Y3559978D01*
X3375892Y3515543D01*
Y3559978D01*
X3390704D02*
Y3515543D01*
X3412922D01*
X3420327Y3522949D01*
Y3552572D01*
X3412922Y3559978D01*
X3390704D01*
X4090475Y3901603D02*
X4084974Y3907105D01*
X4073971D01*
X4068469Y3901603D01*
Y3896102D01*
X4073971Y3890600D01*
X4084974D01*
X4090475Y3885098D01*
Y3879597D01*
X4084974Y3874095D01*
X4073971D01*
X4068469Y3879597D01*
X4101478Y3907105D02*
Y3874095D01*
X4112481Y3885098D01*
X4123485Y3874095D01*
Y3907105D01*
X4134488D02*
Y3874095D01*
X4150992D01*
X4156494Y3879597D01*
Y3901603D01*
X4150992Y3907105D01*
X4134488D01*
X4167497D02*
X4178500D01*
X4172999D01*
Y3874095D01*
X4167497D01*
X4178500D01*
X4211509Y3907105D02*
X4200506D01*
X4195005Y3901603D01*
Y3879597D01*
X4200506Y3874095D01*
X4211509D01*
X4217011Y3879597D01*
Y3901603D01*
X4211509Y3907105D01*
X4120734Y4003203D02*
X4115232Y4008705D01*
X4104229D01*
X4098728Y4003203D01*
Y3981197D01*
X4104229Y3975695D01*
X4115232D01*
X4120734Y3981197D01*
X4131737Y4008705D02*
Y3975695D01*
X4153743D01*
X4164746Y4008705D02*
Y3975695D01*
Y3986698D01*
X4186753Y4008705D01*
X4170248Y3992200D01*
X4186753Y3975695D01*
X4117772Y4077295D02*
Y4110305D01*
X4139779Y4077295D01*
Y4110305D01*
X4172788Y4104803D02*
X4167286Y4110305D01*
X4156283D01*
X4150782Y4104803D01*
Y4082797D01*
X4156283Y4077295D01*
X4167286D01*
X4172788Y4082797D01*
X4117772Y4176355D02*
Y4209365D01*
X4139779Y4176355D01*
Y4209365D01*
X4172788Y4203863D02*
X4167286Y4209365D01*
X4156283D01*
X4150782Y4203863D01*
Y4181857D01*
X4156283Y4176355D01*
X4167286D01*
X4172788Y4181857D01*
X4103808Y4275415D02*
Y4308425D01*
X4120312D01*
X4125814Y4302923D01*
Y4291920D01*
X4120312Y4286418D01*
X4103808D01*
X4114811D02*
X4125814Y4275415D01*
X4158823Y4302923D02*
X4153322Y4308425D01*
X4142319D01*
X4136817Y4302923D01*
Y4297422D01*
X4142319Y4291920D01*
X4153322D01*
X4158823Y4286418D01*
Y4280917D01*
X4153322Y4275415D01*
X4142319D01*
X4136817Y4280917D01*
X4169826Y4308425D02*
X4191833D01*
X4180829D01*
Y4275415D01*
X4293454Y4000663D02*
X4287952Y4006165D01*
X4276949D01*
X4271448Y4000663D01*
Y3978657D01*
X4276949Y3973155D01*
X4287952D01*
X4293454Y3978657D01*
Y3989660D01*
X4282451D01*
X4304457Y3973155D02*
Y4006165D01*
X4326463Y3973155D01*
Y4006165D01*
X4337466D02*
Y3973155D01*
X4353971D01*
X4359473Y3978657D01*
Y4000663D01*
X4353971Y4006165D01*
X4337466D01*
X4271448Y3904565D02*
Y3882558D01*
X4282451Y3871555D01*
X4293454Y3882558D01*
Y3904565D01*
X4304457D02*
Y3871555D01*
X4320962D01*
X4326463Y3877057D01*
Y3899063D01*
X4320962Y3904565D01*
X4304457D01*
X4337466D02*
Y3871555D01*
X4353971D01*
X4359473Y3877057D01*
Y3899063D01*
X4353971Y3904565D01*
X4337466D01*
X4293454Y4104803D02*
X4287952Y4110305D01*
X4276949D01*
X4271448Y4104803D01*
Y4082797D01*
X4276949Y4077295D01*
X4287952D01*
X4293454Y4082797D01*
Y4093800D01*
X4282451D01*
X4304457Y4077295D02*
Y4110305D01*
X4326463Y4077295D01*
Y4110305D01*
X4337466D02*
Y4077295D01*
X4353971D01*
X4359473Y4082797D01*
Y4104803D01*
X4353971Y4110305D01*
X4337466D01*
X4287952Y4178895D02*
Y4211905D01*
X4309959Y4178895D01*
Y4211905D01*
X4342968Y4206403D02*
X4337466Y4211905D01*
X4326463D01*
X4320962Y4206403D01*
Y4184397D01*
X4326463Y4178895D01*
X4337466D01*
X4342968Y4184397D01*
X4295994Y4302923D02*
X4290492Y4308425D01*
X4279489D01*
X4273988Y4302923D01*
Y4280917D01*
X4279489Y4275415D01*
X4290492D01*
X4295994Y4280917D01*
Y4291920D01*
X4284991D01*
X4306997Y4275415D02*
Y4308425D01*
X4329003Y4275415D01*
Y4308425D01*
X4340006D02*
Y4275415D01*
X4356511D01*
X4362013Y4280917D01*
Y4302923D01*
X4356511Y4308425D01*
X4340006D01*
X4276528Y2227905D02*
Y2205898D01*
X4287531Y2194895D01*
X4298534Y2205898D01*
Y2227905D01*
X4309537D02*
Y2194895D01*
X4326042D01*
X4331543Y2200397D01*
Y2222403D01*
X4326042Y2227905D01*
X4309537D01*
X4342546D02*
Y2194895D01*
X4359051D01*
X4364553Y2200397D01*
Y2222403D01*
X4359051Y2227905D01*
X4342546D01*
X4298534Y2324003D02*
X4293032Y2329505D01*
X4282029D01*
X4276528Y2324003D01*
Y2301997D01*
X4282029Y2296495D01*
X4293032D01*
X4298534Y2301997D01*
Y2313000D01*
X4287531D01*
X4309537Y2296495D02*
Y2329505D01*
X4331543Y2296495D01*
Y2329505D01*
X4342546D02*
Y2296495D01*
X4359051D01*
X4364553Y2301997D01*
Y2324003D01*
X4359051Y2329505D01*
X4342546D01*
X4125814Y2326543D02*
X4120312Y2332045D01*
X4109309D01*
X4103808Y2326543D01*
Y2304537D01*
X4109309Y2299035D01*
X4120312D01*
X4125814Y2304537D01*
X4136817Y2332045D02*
Y2299035D01*
X4158823D01*
X4169826Y2332045D02*
Y2299035D01*
Y2310038D01*
X4191833Y2332045D01*
X4175328Y2315540D01*
X4191833Y2299035D01*
X4128354Y2428143D02*
X4122852Y2433645D01*
X4111849D01*
X4106348Y2428143D01*
Y2422642D01*
X4111849Y2417140D01*
X4122852D01*
X4128354Y2411638D01*
Y2406137D01*
X4122852Y2400635D01*
X4111849D01*
X4106348Y2406137D01*
X4139357Y2433645D02*
Y2400635D01*
X4150360Y2411638D01*
X4161363Y2400635D01*
Y2433645D01*
X4188871D02*
X4177868D01*
X4172366Y2428143D01*
Y2406137D01*
X4177868Y2400635D01*
X4188871D01*
X4194373Y2406137D01*
Y2428143D01*
X4188871Y2433645D01*
X4298534Y2428143D02*
X4293032Y2433645D01*
X4282029D01*
X4276528Y2428143D01*
Y2406137D01*
X4282029Y2400635D01*
X4293032D01*
X4298534Y2406137D01*
Y2417140D01*
X4287531D01*
X4309537Y2400635D02*
Y2433645D01*
X4331543Y2400635D01*
Y2433645D01*
X4342546D02*
Y2400635D01*
X4359051D01*
X4364553Y2406137D01*
Y2428143D01*
X4359051Y2433645D01*
X4342546D01*
X4293032Y2502235D02*
Y2535245D01*
X4315039Y2502235D01*
Y2535245D01*
X4348048Y2529743D02*
X4342546Y2535245D01*
X4331543D01*
X4326042Y2529743D01*
Y2507737D01*
X4331543Y2502235D01*
X4342546D01*
X4348048Y2507737D01*
X4122852Y2499695D02*
Y2532705D01*
X4144859Y2499695D01*
Y2532705D01*
X4177868Y2527203D02*
X4172366Y2532705D01*
X4161363D01*
X4155862Y2527203D01*
Y2505197D01*
X4161363Y2499695D01*
X4172366D01*
X4177868Y2505197D01*
X4108888Y2598755D02*
Y2631765D01*
X4125392D01*
X4130894Y2626263D01*
Y2615260D01*
X4125392Y2609758D01*
X4108888D01*
X4119891D02*
X4130894Y2598755D01*
X4163903Y2626263D02*
X4158402Y2631765D01*
X4147399D01*
X4141897Y2626263D01*
Y2620762D01*
X4147399Y2615260D01*
X4158402D01*
X4163903Y2609758D01*
Y2604257D01*
X4158402Y2598755D01*
X4147399D01*
X4141897Y2604257D01*
X4174906Y2631765D02*
X4196913D01*
X4185909D01*
Y2598755D01*
X4301074Y2626263D02*
X4295572Y2631765D01*
X4284569D01*
X4279068Y2626263D01*
Y2604257D01*
X4284569Y2598755D01*
X4295572D01*
X4301074Y2604257D01*
Y2615260D01*
X4290071D01*
X4312077Y2598755D02*
Y2631765D01*
X4334083Y2598755D01*
Y2631765D01*
X4345086D02*
Y2598755D01*
X4361591D01*
X4367093Y2604257D01*
Y2626263D01*
X4361591Y2631765D01*
X4345086D01*
X4095555Y2224943D02*
X4090054Y2230445D01*
X4079051D01*
X4073549Y2224943D01*
Y2219442D01*
X4079051Y2213940D01*
X4090054D01*
X4095555Y2208438D01*
Y2202937D01*
X4090054Y2197435D01*
X4079051D01*
X4073549Y2202937D01*
X4106558Y2230445D02*
Y2197435D01*
X4117561Y2208438D01*
X4128565Y2197435D01*
Y2230445D01*
X4139568D02*
Y2197435D01*
X4156072D01*
X4161574Y2202937D01*
Y2224943D01*
X4156072Y2230445D01*
X4139568D01*
X4172577D02*
X4183580D01*
X4178079D01*
Y2197435D01*
X4172577D01*
X4183580D01*
X4216589Y2230445D02*
X4205586D01*
X4200085Y2224943D01*
Y2202937D01*
X4205586Y2197435D01*
X4216589D01*
X4222091Y2202937D01*
Y2224943D01*
X4216589Y2230445D01*
%TF.MD5,ccb42daf73f9b2eed4b43b3d3a1dce28*%
M02*
