%TF.GenerationSoftware,Altium Limited,Altium Designer,26.10.1 (5)*%
G04 Layer_Color=0*
G04 Board_Origin=74386096|43952041*
%FSLAX45Y45*%
%MOMM*%
%TF.SameCoordinates,9E1A2420-9DF8-4FB8-AA41-10CD80989974*%
%TF.FilePolarity,Positive*%
%TF.FileFunction,Plated,3,8,Blind,Drill*%
%TF.Part,Single*%
G01*
G75*
%TA.AperFunction,ViaDrill,NotFilled*%
%ADD289C,0.15240*%
D289*
X1128087Y2229876D02*
D03*
X1055925Y1886178D02*
D03*
X1147876Y2133655D02*
D03*
X1055785Y1940738D02*
D03*
X-444074Y2036178D02*
D03*
X-294074Y3986177D02*
D03*
X-444074Y3536177D02*
D03*
X1055925Y3686177D02*
D03*
X-1494074Y2786177D02*
D03*
X-1044074Y236178D02*
D03*
X605926Y1586178D02*
D03*
X1355925Y236178D02*
D03*
X-294074Y4136177D02*
D03*
X-144074Y86178D02*
D03*
Y3386177D02*
D03*
X5926Y4736177D02*
D03*
X-294074Y2486177D02*
D03*
X-1344074Y1286178D02*
D03*
X-444074Y1136178D02*
D03*
X1655925Y4436177D02*
D03*
X-1794074Y2336177D02*
D03*
X-594074Y4736177D02*
D03*
X-1644074Y2636177D02*
D03*
X-594074Y3536177D02*
D03*
X305926Y1136178D02*
D03*
X-294074Y2336177D02*
D03*
X-744074Y3686177D02*
D03*
X-1044074Y3386177D02*
D03*
X455926Y2336177D02*
D03*
X-294074Y4286177D02*
D03*
X905926Y3986177D02*
D03*
Y86178D02*
D03*
X-894074Y4586177D02*
D03*
X-1344074Y2186177D02*
D03*
X155926Y4286177D02*
D03*
X-744074Y1586178D02*
D03*
X-1194074Y836178D02*
D03*
X-1794074Y4136177D02*
D03*
X755926Y836178D02*
D03*
X455926Y4736177D02*
D03*
X-144074Y4436177D02*
D03*
X-1494074Y1286178D02*
D03*
X1655925D02*
D03*
X5926Y1886178D02*
D03*
X905926Y986178D02*
D03*
X455926Y236178D02*
D03*
X5926Y2186177D02*
D03*
X-1494074Y986178D02*
D03*
X5926Y3986177D02*
D03*
X305926Y4436177D02*
D03*
X-1044074Y4586177D02*
D03*
Y86178D02*
D03*
X905926Y836178D02*
D03*
X1205925D02*
D03*
X-1644074Y2336177D02*
D03*
X-1344074Y1436178D02*
D03*
X5926Y2336177D02*
D03*
X-744074Y3386177D02*
D03*
X-894074Y-63822D02*
D03*
X1055925Y4136177D02*
D03*
X-144074Y3536177D02*
D03*
X755926Y1286178D02*
D03*
X1355925Y986178D02*
D03*
X-594074Y4436177D02*
D03*
X1805925Y3686177D02*
D03*
X-894074Y4436177D02*
D03*
Y4286177D02*
D03*
X-1944074Y3086177D02*
D03*
X-1344074Y3836177D02*
D03*
X455926Y4136177D02*
D03*
X-744074Y4436177D02*
D03*
X155926Y4136177D02*
D03*
X-144074D02*
D03*
Y4586177D02*
D03*
X5926Y1586178D02*
D03*
X-1644074Y1886178D02*
D03*
Y3986177D02*
D03*
X-1794074Y1736178D02*
D03*
X1505925Y986178D02*
D03*
X-1344074Y2036178D02*
D03*
Y2936177D02*
D03*
X-1944074Y3236177D02*
D03*
X-294074Y2786177D02*
D03*
X-594074Y2186177D02*
D03*
X1055925Y-63822D02*
D03*
X-744074Y236178D02*
D03*
Y-63822D02*
D03*
X-1494074Y2186177D02*
D03*
X455926Y3686177D02*
D03*
X-1494074Y2936177D02*
D03*
X-744074Y686178D02*
D03*
X305926Y3836177D02*
D03*
X1805925Y2336177D02*
D03*
Y1286178D02*
D03*
X305926Y2936177D02*
D03*
X-1794074Y2486177D02*
D03*
X5926Y3236177D02*
D03*
X-744074Y2486177D02*
D03*
X1505925Y3986177D02*
D03*
X-1044074Y3836177D02*
D03*
X-594074Y2036178D02*
D03*
X-894074Y686178D02*
D03*
X155926Y2636177D02*
D03*
X-1194074Y2186177D02*
D03*
X305926Y4736177D02*
D03*
X1055925Y986178D02*
D03*
X1955925Y2936177D02*
D03*
X-744074Y4586177D02*
D03*
X-144074Y3686177D02*
D03*
X-444074Y2186177D02*
D03*
X-294074Y3536177D02*
D03*
X1655925Y4286177D02*
D03*
X1805925Y1736178D02*
D03*
X1955925Y1586178D02*
D03*
Y1736178D02*
D03*
X605926Y686178D02*
D03*
X1955925Y3086177D02*
D03*
X1505925Y1136178D02*
D03*
X-444074Y3986177D02*
D03*
X-1194074Y1136178D02*
D03*
X1055925Y3836177D02*
D03*
X455926Y3386177D02*
D03*
X-1644074Y2786177D02*
D03*
X-444074Y4436177D02*
D03*
X5926Y3836177D02*
D03*
X-1044074Y2486177D02*
D03*
X605926Y86178D02*
D03*
X-1644074Y1586178D02*
D03*
X-444074Y3686177D02*
D03*
Y1736178D02*
D03*
X-744074Y4736177D02*
D03*
X-294074Y2636177D02*
D03*
X-1344074Y4136177D02*
D03*
X1205925Y986178D02*
D03*
X1355925Y1286178D02*
D03*
X305926Y3536177D02*
D03*
X1655925Y3386177D02*
D03*
X1505925Y4436177D02*
D03*
X455926Y1586178D02*
D03*
X1655925Y1436178D02*
D03*
X-894074Y1586178D02*
D03*
X155926Y3986177D02*
D03*
X-1644074Y4136177D02*
D03*
Y4736177D02*
D03*
Y3086177D02*
D03*
X-444074Y4286177D02*
D03*
X-594074Y4586177D02*
D03*
X455926Y3086177D02*
D03*
X-894074Y236178D02*
D03*
X-294074Y3236177D02*
D03*
X-594074Y2936177D02*
D03*
X1055925Y1736178D02*
D03*
X-594074Y2336177D02*
D03*
X-1344074Y836178D02*
D03*
X-894074Y3686177D02*
D03*
X-1194074Y3836177D02*
D03*
X-1644074Y1736178D02*
D03*
X1205925Y236178D02*
D03*
X155926Y4736177D02*
D03*
X1055925Y4436177D02*
D03*
X-594074Y-63822D02*
D03*
X-1194074Y1886178D02*
D03*
X-594074Y2636177D02*
D03*
X755926Y986178D02*
D03*
X305926Y4286177D02*
D03*
X-1644074Y3836177D02*
D03*
X-1494074Y1436178D02*
D03*
X1055925Y1136178D02*
D03*
X5926Y4436177D02*
D03*
X905926Y686178D02*
D03*
X5926Y4586177D02*
D03*
X1055925Y686178D02*
D03*
X-1344074Y3986177D02*
D03*
Y986178D02*
D03*
X1355925Y2336177D02*
D03*
X-144074Y3836177D02*
D03*
X1655925Y4136177D02*
D03*
X-1494074Y2336177D02*
D03*
X-1044074Y4436177D02*
D03*
X-594074Y3686177D02*
D03*
X-1194074Y236178D02*
D03*
X-594074Y3986177D02*
D03*
X305926Y3386177D02*
D03*
X-744074Y836178D02*
D03*
X1205925Y1286178D02*
D03*
X-1044074Y3986177D02*
D03*
X-1344074Y1136178D02*
D03*
X-444074Y4136177D02*
D03*
X605926Y1436178D02*
D03*
X-894074Y2486177D02*
D03*
X-294074Y4586177D02*
D03*
X1355925Y1436178D02*
D03*
X-744074D02*
D03*
X1505925Y2486177D02*
D03*
X1355925Y836178D02*
D03*
X-1344074Y2336177D02*
D03*
X455926Y3836177D02*
D03*
X-1644074Y4286177D02*
D03*
X155926Y2786177D02*
D03*
X-1194074Y2336177D02*
D03*
X2105925D02*
D03*
X5926Y-63822D02*
D03*
X-1344074Y3086177D02*
D03*
X-594074Y1736178D02*
D03*
X-144074Y-63822D02*
D03*
X905926Y1736178D02*
D03*
X-594074Y1436178D02*
D03*
X755926Y-63822D02*
D03*
X-744074Y1886178D02*
D03*
X-1794074Y3386177D02*
D03*
X-444074Y1886178D02*
D03*
X-1044074Y3686177D02*
D03*
Y686178D02*
D03*
X-744074Y2186177D02*
D03*
X1055925Y236178D02*
D03*
X-744074Y1286178D02*
D03*
X-894074Y3536177D02*
D03*
X455926Y3986177D02*
D03*
X-894074Y3386177D02*
D03*
Y2636177D02*
D03*
Y986178D02*
D03*
X-1194074Y3686177D02*
D03*
X755926Y686178D02*
D03*
Y4136177D02*
D03*
X-594074Y3836177D02*
D03*
X-1644074Y2936177D02*
D03*
X1055925Y3536177D02*
D03*
X155926Y2936177D02*
D03*
X-744074Y4136177D02*
D03*
X305926Y3686177D02*
D03*
Y2786177D02*
D03*
X755926Y4286177D02*
D03*
X1805925Y3836177D02*
D03*
X1955925Y2186177D02*
D03*
X-894074Y4136177D02*
D03*
Y1286178D02*
D03*
X155926Y3686177D02*
D03*
X-894074Y836178D02*
D03*
X905926Y-63822D02*
D03*
X-1644074Y4436177D02*
D03*
X-144074Y3986177D02*
D03*
X905926Y1436178D02*
D03*
X-1044074Y2186177D02*
D03*
X1055925Y836178D02*
D03*
X-1344074Y2786177D02*
D03*
X755926Y1136178D02*
D03*
X-744074Y3986177D02*
D03*
X-1044074Y3236177D02*
D03*
X755926Y2786177D02*
D03*
Y2936177D02*
D03*
X-594074Y4136177D02*
D03*
X2105925Y1886178D02*
D03*
X755926Y236178D02*
D03*
X455926Y2936177D02*
D03*
X-1794074Y2786177D02*
D03*
X-294074Y3836177D02*
D03*
X-1644074Y1436178D02*
D03*
X-294074Y4436177D02*
D03*
X905926Y236178D02*
D03*
X605926Y4436177D02*
D03*
X1805925Y2786177D02*
D03*
X905926Y3836177D02*
D03*
X1505925Y2936177D02*
D03*
Y4286177D02*
D03*
X-1044074Y836178D02*
D03*
X-744074Y2786177D02*
D03*
X155926Y3836177D02*
D03*
X605926Y836178D02*
D03*
X455926Y1736178D02*
D03*
X755926Y4736177D02*
D03*
X-1044074Y3536177D02*
D03*
X305926Y1586178D02*
D03*
X-894074Y1436178D02*
D03*
X-1644074Y1136178D02*
D03*
X-594074Y3236177D02*
D03*
X-744074Y3536177D02*
D03*
X755926Y1436178D02*
D03*
X-294074Y3386177D02*
D03*
X905926Y3536177D02*
D03*
X155926Y86178D02*
D03*
X305926Y2336177D02*
D03*
X-294074Y3686177D02*
D03*
X-1044074Y1436178D02*
D03*
X-594074Y3386177D02*
D03*
X-1644074Y4586177D02*
D03*
X1505925Y2786177D02*
D03*
X-894074Y2186177D02*
D03*
X-1494074Y3236177D02*
D03*
X-894074Y4736177D02*
D03*
X605926Y1286178D02*
D03*
X-1194074Y986178D02*
D03*
X-2094074Y2486177D02*
D03*
X-1044074Y-63822D02*
D03*
X-1344074Y236178D02*
D03*
X905926Y1886178D02*
D03*
X-1044074Y4736177D02*
D03*
X-1794074Y3686177D02*
D03*
X-1044074Y986178D02*
D03*
X-894074Y86178D02*
D03*
Y3986177D02*
D03*
X-1794074D02*
D03*
X5926Y3686177D02*
D03*
X1505925Y4586177D02*
D03*
X-1944074Y1436178D02*
D03*
X-444074Y4736177D02*
D03*
X1505925Y3086177D02*
D03*
Y1286178D02*
D03*
X455926Y2636177D02*
D03*
Y1286178D02*
D03*
X605926Y4586177D02*
D03*
X5926Y1736178D02*
D03*
X155926Y3536177D02*
D03*
X1955925Y2786177D02*
D03*
X1805925Y2036178D02*
D03*
X-444074Y3836177D02*
D03*
X2105925Y2036178D02*
D03*
X-1944074Y2936177D02*
D03*
X-1044074D02*
D03*
X1805925Y2186177D02*
D03*
X-144074Y4736177D02*
D03*
X-1194074Y2486177D02*
D03*
X-1794074Y3236177D02*
D03*
X-594074Y686178D02*
D03*
X-1044074Y1136178D02*
D03*
X-744074Y3086177D02*
D03*
X155926D02*
D03*
X-1494074D02*
D03*
X605926Y236178D02*
D03*
X1205925Y1586178D02*
D03*
X-1644074Y2486177D02*
D03*
X-1044074Y4286177D02*
D03*
X305926Y4586177D02*
D03*
X905926Y4736177D02*
D03*
X-1794074Y2186177D02*
D03*
X-894074Y2336177D02*
D03*
X1955925Y1436178D02*
D03*
X1055925Y1586178D02*
D03*
X155926Y4586177D02*
D03*
X-1494074Y1136178D02*
D03*
X305926Y4136177D02*
D03*
X-1644074Y3536177D02*
D03*
X755926Y1736178D02*
D03*
X5926Y3386177D02*
D03*
X-1794074Y1586178D02*
D03*
X605926Y-63822D02*
D03*
X1955925Y2486177D02*
D03*
X-1794074Y2036178D02*
D03*
X5926Y4286177D02*
D03*
X305926Y3986177D02*
D03*
X-744074Y3836177D02*
D03*
X1505925Y4136177D02*
D03*
X-894074Y3236177D02*
D03*
Y3836177D02*
D03*
X605926Y4736177D02*
D03*
X755926Y1586178D02*
D03*
X-1794074Y1286178D02*
D03*
X-1644074D02*
D03*
X1805925Y3986177D02*
D03*
X-594074Y1886178D02*
D03*
X905926Y1586178D02*
D03*
X455926Y3536177D02*
D03*
X605926Y1136178D02*
D03*
X1055925Y4736177D02*
D03*
X455926Y4436177D02*
D03*
X-1494074Y3686177D02*
D03*
X1205925Y1886178D02*
D03*
X305926Y1436178D02*
D03*
X1955925Y2636177D02*
D03*
X1055925Y86178D02*
D03*
X-1794074Y3836177D02*
D03*
X5926Y3536177D02*
D03*
X-744074Y4286177D02*
D03*
X1505925Y3686177D02*
D03*
X155926Y4436177D02*
D03*
X755926Y2486177D02*
D03*
X-1794074Y3536177D02*
D03*
X455926Y3236177D02*
D03*
X-294074Y4736177D02*
D03*
X-1644074Y2186177D02*
D03*
X-744074Y2936177D02*
D03*
X-1044074Y4136177D02*
D03*
X5926Y2036178D02*
D03*
X-894074Y1136178D02*
D03*
X-1944074Y1586178D02*
D03*
X-1494074Y4736177D02*
D03*
X755926Y2636177D02*
D03*
X455926Y1136178D02*
D03*
X-594074Y4286177D02*
D03*
X1655925Y4736177D02*
D03*
X-277222Y1340684D02*
D03*
X916940Y3693160D02*
D03*
X1546586Y4030567D02*
D03*
X307119Y1775311D02*
D03*
X1527539Y3910182D02*
D03*
X1498981Y3841750D02*
D03*
X3376777Y5793387D02*
D03*
X3078277Y5793887D02*
D03*
X2504237Y4934887D02*
D03*
X2799237D02*
D03*
X3375777Y3757168D02*
D03*
X3074777Y3748702D02*
D03*
X1417262Y1600583D02*
D03*
X3414657Y2747128D02*
D03*
X2894657D02*
D03*
X3559977Y1495727D02*
D03*
X4330677Y1808207D02*
D03*
X3941142Y2046867D02*
D03*
X3761143Y1328987D02*
D03*
X3241063Y1337393D02*
D03*
X3051573Y1239403D02*
D03*
X2840567D02*
D03*
X2640567D02*
D03*
X2876573Y994293D02*
D03*
X2714273Y1156593D02*
D03*
X3038873D02*
D03*
Y831993D02*
D03*
X2714273D02*
D03*
X2851573Y749183D02*
D03*
X3936062Y-361307D02*
D03*
X2546063Y-295933D02*
D03*
X3959883Y1478790D02*
D03*
X3839922Y1478987D02*
D03*
X3759223Y1465187D02*
D03*
X3695677Y770013D02*
D03*
X3850617Y773810D02*
D03*
X3962423Y773613D02*
D03*
X349498Y4376366D02*
D03*
X985497Y1221561D02*
D03*
X538503Y4538801D02*
D03*
X-538503Y4284801D02*
D03*
X477578Y3014882D02*
D03*
X860606Y934578D02*
D03*
X78914Y3043056D02*
D03*
X307514D02*
D03*
X302434Y3243716D02*
D03*
X142066D02*
D03*
X429086Y4066676D02*
D03*
X197946Y4069216D02*
D03*
X426546Y4302896D02*
D03*
X197946Y4300356D02*
D03*
X-434514Y2369956D02*
D03*
Y2489064D02*
D03*
X-19877Y1315404D02*
D03*
X-589734Y918756D02*
D03*
X477538Y1998842D02*
D03*
X-475447Y1520873D02*
D03*
X-238935Y1292500D02*
D03*
X976965Y1658383D02*
D03*
X1183091Y2693166D02*
D03*
X440634Y2516053D02*
D03*
X-35861Y2377301D02*
D03*
X393679Y2378265D02*
D03*
X459465Y1498991D02*
D03*
X1718232Y2169123D02*
D03*
X1107440Y2413000D02*
D03*
X1145446Y2346448D02*
D03*
X823463Y3193941D02*
D03*
X-641058Y1834533D02*
D03*
Y1939907D02*
D03*
X-752563Y1967567D02*
D03*
X1446932Y1695895D02*
D03*
X1027609Y4273313D02*
D03*
X920109Y4272313D02*
D03*
X810260Y4338080D02*
D03*
X1754769Y3522647D02*
D03*
X1646291D02*
D03*
X1565373Y3844094D02*
D03*
Y3949468D02*
D03*
X1425145Y3844094D02*
D03*
X753657Y3341441D02*
D03*
X853463Y3322679D02*
D03*
Y3218567D02*
D03*
X1146157Y2887693D02*
D03*
X459284Y1388381D02*
D03*
X530840Y1326561D02*
D03*
X-1567359Y1102360D02*
D03*
X-1568565Y1276246D02*
D03*
X92717Y2976920D02*
D03*
X-281963Y2938473D02*
D03*
X-308358Y2377533D02*
D03*
X-433270Y2817407D02*
D03*
X-1257946Y3060045D02*
D03*
X-1394460Y3515360D02*
D03*
X-1613817Y3572513D02*
D03*
X-1474823D02*
D03*
Y3372513D02*
D03*
X-1613817D02*
D03*
X-1029521Y3063573D02*
D03*
X-1129521Y3163573D02*
D03*
X-990527D02*
D03*
Y2963573D02*
D03*
X-1129521D02*
D03*
X-1218021Y3013573D02*
D03*
X-1325514Y3472316D02*
D03*
X-1071334Y2783416D02*
D03*
X-981334Y2713416D02*
D03*
X-932354Y2664521D02*
D03*
X-1048846Y2664324D02*
D03*
X-1211406Y2665581D02*
D03*
X-1097454Y2665384D02*
D03*
X-1514694Y2583081D02*
D03*
X-1633046Y2582884D02*
D03*
X-1261860Y2140537D02*
D03*
X-922510Y1966020D02*
D03*
X-917898Y2046020D02*
D03*
X-970363Y1676733D02*
D03*
X-853357Y1742773D02*
D03*
X-854701Y1911591D02*
D03*
X-1451353Y1780602D02*
D03*
X-1755306Y1892884D02*
D03*
X-1925306Y1877116D02*
D03*
X-1864694Y1827116D02*
D03*
X-1244694Y1912756D02*
D03*
Y1782116D02*
D03*
X-1519694Y1910250D02*
D03*
Y1779610D02*
D03*
X-1516206Y1703916D02*
D03*
X546809Y2695744D02*
D03*
X65297Y2695833D02*
D03*
X10351Y2493553D02*
D03*
X503Y2114813D02*
D03*
X100503D02*
D03*
X390502Y2117313D02*
D03*
X478002D02*
D03*
X615602Y1686523D02*
D03*
X1215073Y2188640D02*
D03*
X171993Y1689345D02*
D03*
X1607748Y1536421D02*
D03*
X1607945Y1645700D02*
D03*
X1669264Y1660881D02*
D03*
Y1770160D02*
D03*
X1445804Y1762540D02*
D03*
X1185536Y1741600D02*
D03*
X1230964Y1636701D02*
D03*
X1128036D02*
D03*
X1981137Y2357479D02*
D03*
X1885933Y2362176D02*
D03*
X1184127Y2804635D02*
D03*
X1624468Y2270828D02*
D03*
X1465964Y2121701D02*
D03*
Y2271702D02*
D03*
X1253036Y2288299D02*
D03*
X1365964Y2171702D02*
D03*
X1821519Y1615286D02*
D03*
X1822435Y1499733D02*
D03*
X1936733Y1818556D02*
D03*
X1822004Y1384022D02*
D03*
X941053Y1374745D02*
D03*
X1044227Y1373665D02*
D03*
X1125507Y1440185D02*
D03*
X1357367Y1139425D02*
D03*
X618276Y975781D02*
D03*
X681056Y831161D02*
D03*
X859576Y1124941D02*
D03*
X-1743450Y1230286D02*
D03*
X-1568861Y1173201D02*
D03*
X-1568664Y1000481D02*
D03*
X-324036Y1534201D02*
D03*
X-274036Y1159201D02*
D03*
X-95523Y1604623D02*
D03*
X-376042Y1160576D02*
D03*
X-486964Y1159201D02*
D03*
X-349036Y1346701D02*
D03*
X-436964Y1534201D02*
D03*
X-626496Y1635299D02*
D03*
X-1237792Y1561551D02*
D03*
X-349464Y1302800D02*
D03*
X-411536Y1446701D02*
D03*
X-355500Y1450061D02*
D03*
X-411536Y1302800D02*
D03*
X-743164Y1136740D02*
D03*
X-1298016Y1515381D02*
D03*
X1425145Y3949468D02*
D03*
X-1524000Y4698128D02*
D03*
X1564640Y4711700D02*
D03*
X1546787Y4628424D02*
D03*
X195474Y261196D02*
D03*
X-11989Y162400D02*
D03*
X1635173Y5489700D02*
D03*
X1676400Y5401879D02*
D03*
X1503680Y3589024D02*
D03*
X1639431Y3754120D02*
D03*
X1029891Y4235687D02*
D03*
X-1527953Y2032608D02*
D03*
X-1366668Y2104686D02*
D03*
X991662Y1849120D02*
D03*
X1152774D02*
D03*
X1074023Y4602531D02*
D03*
X-1077577Y3495040D02*
D03*
X1463123Y1849120D02*
D03*
X636712Y3334185D02*
D03*
X1071880Y3370580D02*
D03*
X-255396Y4071620D02*
D03*
X-1529080Y1381760D02*
D03*
X472361Y4543762D02*
D03*
X647700Y4234180D02*
D03*
X1874578Y3157122D02*
D03*
X1832267Y2743496D02*
D03*
X1493327Y2682216D02*
D03*
X1403036Y2321701D02*
D03*
X1365964Y2287799D02*
D03*
X1253848Y2326729D02*
D03*
X2072049Y2184962D02*
D03*
X1997647Y2176756D02*
D03*
X1403036Y2137799D02*
D03*
X1270593Y2140627D02*
D03*
X1253036Y2171702D02*
D03*
X988030Y2717571D02*
D03*
X988838Y2623758D02*
D03*
X855684Y2364258D02*
D03*
X1076916Y1269481D02*
D03*
X863880Y2145843D02*
D03*
X810547Y2298225D02*
D03*
X-1876234Y1565695D02*
D03*
X-1463951Y2034676D02*
D03*
X-1500966Y2003924D02*
D03*
X-744158Y3185239D02*
D03*
X-737773Y3007701D02*
D03*
X-1138814Y2783473D02*
D03*
X-912754Y2727473D02*
D03*
X1337757Y4073337D02*
D03*
X1066893Y2883377D02*
D03*
X30023Y2377773D02*
D03*
X458833D02*
D03*
X-1609984Y1770319D02*
D03*
X-1592966Y2032277D02*
D03*
X-1046986Y1834332D02*
D03*
X-985707Y1911591D02*
D03*
X-431777Y3029487D02*
D03*
X-93957Y2886253D02*
D03*
X-227131Y2806771D02*
D03*
X-469666Y2684876D02*
D03*
X-12723Y2885833D02*
D03*
X56308Y2888797D02*
D03*
X15503Y4077313D02*
D03*
Y4347313D02*
D03*
X1186157Y3033067D02*
D03*
X1326157Y3142693D02*
D03*
X1066157D02*
D03*
X1070516Y2962781D02*
D03*
X949891Y3757313D02*
D03*
X1030391Y3973080D02*
D03*
X789891Y3977687D02*
D03*
X836187Y3640126D02*
D03*
X593777Y3762187D02*
D03*
X825940Y3784936D02*
D03*
X856141Y2894544D02*
D03*
X527834Y3003665D02*
D03*
X-199051Y1191823D02*
D03*
X-199002Y1145722D02*
D03*
X-1170456Y1824187D02*
D03*
X726778Y1998450D02*
D03*
X-1610295Y1703075D02*
D03*
X-223721Y249120D02*
D03*
X-11440Y228906D02*
D03*
X20553Y1183876D02*
D03*
Y1143006D02*
D03*
X149565Y259253D02*
D03*
X148198Y204801D02*
D03*
X198803Y1146433D02*
D03*
Y1191566D02*
D03*
X248920Y259080D02*
D03*
X102935Y253948D02*
D03*
X-153440Y267146D02*
D03*
X1229360Y4714240D02*
D03*
X909320Y4696460D02*
D03*
X1297616Y4577991D02*
D03*
X96500Y1800332D02*
D03*
X96520Y1752600D02*
D03*
X1407334Y4007790D02*
D03*
X1651000Y5442770D02*
D03*
X1508506Y4714240D02*
D03*
X670503Y3969388D02*
D03*
X1410236Y2555940D02*
D03*
X1115060Y2057400D02*
D03*
X-1072343Y1772109D02*
D03*
X1369233Y4568901D02*
D03*
X1411380Y4651342D02*
D03*
X1262025Y4686300D02*
D03*
X1457916Y4696744D02*
D03*
X-1483360Y4676140D02*
D03*
X-1389845Y4511237D02*
D03*
X-1349999Y4665980D02*
D03*
X-1257300Y4635500D02*
D03*
X-1178560Y4714240D02*
D03*
X-1221740Y4681061D02*
D03*
X-26204Y1233416D02*
D03*
X251632Y1255443D02*
D03*
X145928Y1267872D02*
D03*
X251632Y1191566D02*
D03*
X92963Y1317316D02*
D03*
X-205000Y1260403D02*
D03*
X-248920Y1254760D02*
D03*
X-246911Y1212424D02*
D03*
X1592066Y2295181D02*
D03*
X1562100Y2420620D02*
D03*
X1304497Y2472313D02*
D03*
X1051511Y2145728D02*
D03*
X1041877Y2033331D02*
D03*
X1204186Y1394641D02*
D03*
X1149924Y1502088D02*
D03*
X-594076Y2397720D02*
D03*
X1174571Y3960576D02*
D03*
X1506158Y3365693D02*
D03*
X1007163Y3225067D02*
D03*
X1426157Y3156193D02*
D03*
X1287163Y3073067D02*
D03*
X1286967Y2886984D02*
D03*
Y2993775D02*
D03*
X1278966Y2803264D02*
D03*
X946354Y3027226D02*
D03*
X49498Y3962687D02*
D03*
X-89497Y4469313D02*
D03*
X-1367497Y2617313D02*
D03*
X-1262056Y2356108D02*
D03*
X259103Y4528673D02*
D03*
X274297Y3906128D02*
D03*
X370891Y3629273D02*
D03*
X388643Y2887247D02*
D03*
X-78830Y3237161D02*
D03*
X529498Y3832813D02*
D03*
X282503Y3757313D02*
D03*
X203769Y3628734D02*
D03*
X589317Y2925747D02*
D03*
X353722Y3355026D02*
D03*
X-647054Y2530336D02*
D03*
X-1071706Y2042296D02*
D03*
X-1859106Y2766196D02*
D03*
X-1798494Y2938916D02*
D03*
X-424994Y3129144D02*
D03*
X-673961Y2853473D02*
D03*
X-902027Y3113573D02*
D03*
X-1702317Y3522513D02*
D03*
X-1181237Y3463212D02*
D03*
X-1325317Y3572513D02*
D03*
X-109588Y3306383D02*
D03*
X-87737Y3164533D02*
D03*
X-148743Y3124533D02*
D03*
X-591843Y3165173D02*
D03*
X-841021Y3078947D02*
D03*
X-148743Y3204533D02*
D03*
X-526647Y3205423D02*
D03*
X-358652Y2939559D02*
D03*
X-180363Y2918940D02*
D03*
X-180317Y3004487D02*
D03*
X-693457Y2760745D02*
D03*
X-1361676Y3717489D02*
D03*
X-1613817Y3652853D02*
D03*
X-1297963Y3163573D02*
D03*
X-1413817Y3284013D02*
D03*
X-990527Y3252073D02*
D03*
X-1129521Y2875073D02*
D03*
X-929521D02*
D03*
X-1185652Y2816192D02*
D03*
X-1218021Y3113573D02*
D03*
X-883860Y1811020D02*
D03*
X-1487657Y1821416D02*
D03*
X-868506Y2009004D02*
D03*
X1324523Y2288635D02*
D03*
X1356874Y2511881D02*
D03*
X1411366Y2459784D02*
D03*
X1509428Y2555940D02*
D03*
X1459428D02*
D03*
X1506671Y2310074D02*
D03*
X1461257Y2193497D02*
D03*
X1411256Y2243498D02*
D03*
%TF.MD5,d8de94369ef4eb5b3f4f02b46648fbfd*%
M02*
