M48
;Layer_Color=9474304
;FILE_FORMAT=4:4
METRIC,LZ
;TYPE=PLATED
T01F00S00C0.1016
T02F00S00C0.1020
;TYPE=NON_PLATED
%
T01
X-00026934Y0000509
X-00029718Y00018034
X-0000635Y00019611
X-0000185Y0001524
X00008976Y0001876
X00005142Y0000763
X00011064Y-00005324
X-00009476Y00002804
X-00004338Y00029388
X00022598
X00035306Y00019304
X00046077Y00023445
X0026162Y00059469
X00272034Y00059467
X00287063Y00059546
X00295732Y00059455
X00251556Y-00032862
X00390556
X00388112Y0008065
X00393192Y0008063
X00372618Y0008027
Y0007467
X00390374Y00100076
X00390652Y00130048
X00392938Y0014461
X00387043Y0014463
X00372872Y0014325
Y0014885
X00359048Y00146304
X00373064Y0012963
X00321056Y00137008
X00302107Y00127209
X00300837Y00118928
X00287107Y00127209
X00267107
X00268377Y00118928
X00284607Y00102698
X00282107Y00078187
X00268377Y00086468
X00300837
X00309095Y00188745
X0033926Y00188514
X00279821Y00189866
X00261747Y00187325
X0019687Y00178576
X00183075Y00168878
X00179056Y00164858
X00175167
X00175104Y00153323
X00179147Y00153303
X00183167Y00157323
X00183104Y00145732
X00179104Y00141732
X00175104
X00163971Y00156972
X00163991Y0016129
X0016383Y00169418
Y00173736
X0015851Y00191507
X001535Y00191507
X00151015Y00193416
X001485Y00191507
X00145922Y00193441
X001435Y00191507
X001385
X00135985Y00193416
X001335Y00191507
X00130922Y00193441
X001285Y00191507
X00125922Y00193441
X001235Y00191507
X00120922Y00193441
X001185Y00191507
X00115922Y00193441
X001135Y00191507
X00110922Y00193441
X00105956Y00193261
X00101406Y00203001
X00099507Y002055
X00100677Y00208796
X00103405Y002105
X00108492Y00210508
X001135Y002155
X001185
X00118515Y002105
X001235
X00123525Y002055
X001185Y0020548
X00128558Y00205563
X001335Y002055
Y00210566
X0013208Y00214122
X001335Y002205
X00128515
X001285Y002255
X001335
X001435Y002255
X001435Y002305
X00143515Y002355
X001435Y002405
X001535
Y002355
X00155812Y00233393
X001585Y002305
X00150622Y0023749
X001485Y002255
Y002205
X00150769Y00218152
X001435Y002155
X00143515Y002105
X001485
X00160559Y00212922
X00162503Y002155
X00160559Y00207922
X00160559Y00202922
X00160559Y00197922
X001435Y002005
X00143002Y00181
X00141484Y00172974
X00141684Y0016637
X0012Y00167
X00116015
X00121765Y0017088
X00112Y00181
X00096
X00099507Y002155
X00101441Y00218078
X00099507Y002205
X00101441Y00223078
X00099507Y002255
X00101441Y00227922
X00101416Y00233062
X00099507Y002355
X00101416Y00237985
X00105945
X00101441Y00243078
X00099507Y002455
Y002505
X0010596Y00248179
X001085Y002505
X00115922Y00252559
X00120922
X0012785Y00258419
X00134148Y0025875
X00136588Y00260858
X00131826Y00265395
X00146236Y00264942
X001485Y00254493
X001435
X00141018Y00248046
X001335Y002505
X0013349Y00245438
X001335Y002405
X001335Y002355
X001285Y002355
X00125577Y00233002
X001185Y00235433
X001185Y002305
Y002255
X00113583Y00225463
X001135Y002205
X00116006Y00218137
X001135Y002355
X00118485Y00240522
X00123525Y00240567
X00113525Y0024549
X00115098Y00272597
X00115201Y00277134
X00124846Y00277058
X00124866Y00285038
X00125646Y00292018
Y00296058
X00125666Y00300038
Y00304038
X00121666
Y00300038
Y00296038
X00117666Y00292038
X00115425Y0028846
X00109901Y00285058
X00110102Y00293009
X00109666Y00317538
X00097666Y00319238
X00097686Y00305991
X00101832Y00275062
X00102434Y00265197
X00136661Y0023242
X001585Y002455
X0017502Y0021998
X00196714Y00220944
X00204155Y00221765
X00195017Y00232918
X0019179Y00232938
X0018013Y0027102
X00185215Y00285271
X00185216Y00291771
X00156515Y0029837
X00145666Y00301038
X001397Y00296596
X00135666Y00317538
X00145666Y00318888
Y00339838
X00153666Y00339838
X00153418Y00354456
X00155084Y00371919
X00149551Y00373671
X00146841Y00375678
X00147526Y00381629
X00150618Y00384712
X00153526Y00383678
X00153487Y00387678
Y00391678
X00149487Y00394662
X00145525Y00395678
X00145565Y00391678
Y00387678
X00147925Y00389679
X00139787Y0039349
X00139647Y00397609
X00135226Y00389678
X00141525Y00379678
X00143834Y0037195
X00166993Y00372047
X00167679Y00348996
X00172427
X00126666Y00339838
X00107214Y00343916
X001022Y00364
X00102Y00375
Y00379
X00098039
Y00383032
X00102
X00098Y00375
X00116Y00376174
X00121904Y0038
X00120507Y00392789
X00106089Y00394039
X00111252Y00385826
X00106039Y004203
X00099711Y004306
X00110268Y00445193
X00108137Y00453136
X00104352Y00456529
X00095Y004668
X00150876Y00470408
X0014959Y00404622
X00153462
X00151516Y00399668
X00310528Y00371601
X00340628Y00372448
X00344516Y00271444
X00292516
X00391064Y00201418
X00436118Y00177552
X001417Y00130819
X0014166Y00124008
X0013264Y00117272
X00118364Y00128518
X00110888Y00130278
X00102104Y00135128
X00101326Y00140696
X00097302Y00140804
X00109454Y00147348
X00117322Y00142794
X00118081Y00153924
X00174244Y00091954
X00086614Y00088392
X0008301Y00096727
X0007953Y00096746
X00080383Y00101304
X00075965Y00110028
X00085154Y00111824
X00089154Y00115824
X00093218Y00115844
X00093154Y00111824
X00065039Y00100908
X00067302Y00082446
X00071302Y00086446
X00075302
Y00082446
X00049988Y00135986
X00042832Y00142168
X00042879Y001465
X0005851Y00171921
X00057966Y00177673
X00059436Y0018415
X0003683Y00189412
X00027356Y00181264
X00020411Y00172264
X-00006341Y00163792
X-000014Y0019
X-00003Y0021475
X00007
X00002Y00226314
X-00000048Y00241046
X-00006636Y00240999
X-00002015Y00252624
X-00009946Y00272852
X0000958
X00008681Y00292148
X00001778Y00291852
X-00012446Y00291894
X-00020937Y00288625
X-00021082Y0029718
X-00025146Y00297116
X-00018009Y003048
X-00013946Y00309576
X-00011824Y00315722
Y00319722
Y00323722
Y00327722
X-00014009Y00333907
X00011156Y0032764
X00010942Y00307574
X00012322Y00300961
X00033802Y00307574
X00033294Y0032764
X00032322Y00338771
X00034039Y00366196
X00017327Y00366142
X000252Y00379
X0003048Y00387344
X00056Y0038655
X00063961Y003928
X00082039Y003945
X00085644Y00375225
X0009398Y00371
X0009258Y00361
X00086669Y00360744
X00089662Y00357124
X00082296Y00328999
Y00325125
X00078416Y00330875
X00079296Y00316125
X00066721Y00336687
X00062428Y0037295
X00061643Y00427161
X00084076Y00430539
X00088961Y004305
X00039604Y00433558
X00038Y00440905
X00044152Y00450075
X0002286Y00456136
X00016744Y00433304
X-000015Y00438
X-00012Y004502
X-000015Y00411
X00016744Y0041019
X00039858Y00409936
X00008Y00393
X-0002859Y00411084
X-0005353Y00333996
X-00055715Y00327811
Y00323811
X-00056134Y00319786
X-0004555Y00309646
X-00046228Y0029968
X-00039127Y00290749
X-00046377Y00278472
Y00274972
X-00050017Y00265219
X-00046502Y00245638
Y00240264
X-00033886Y00241022
Y00246022
X-0002355Y0023749
X-00059566Y00236042
X-00074168Y00234524
X-00067756Y00256302
X-00081788Y00262056
X-00096286Y00263183
X-00101834Y00263164
X-00112796Y0026327
X-0011809Y00263289
X-00116932Y00281616
X-00110184Y0028161
Y0027813
X-00101164
X-00101184Y0027461
X-00094326Y00276016
X-00096002Y00290776
Y00299626
X-00087152Y00304626
Y00314626
X-00096002Y00319626
Y00328476
X-0010218Y00342082
X-0011118
Y00345582
X-00122174Y00346782
X-0012394Y00349525
X-00122174Y00355782
X-00135562Y003555
X-00135602Y003505
X-00135582Y0036052
X-00144432
X-00154432Y00368707
X-00164432Y00368554
X-00171196
X-00179578
X-00173282Y0035552
X-00164432Y0036052
Y0034052
X-00154432Y0033167
X-00144432
Y0034052
X-0014917Y00318516
X-00158192
X-00161364Y00315065
X-00124852Y00314626
Y00309626
Y00304626
X-00116002Y00299626
Y00290776
X-00122002Y00284925
X-001398Y00265
X-0015452Y00255039
X-00160254Y0025502
X-00196088Y00250952
X-00191262Y00277876
X-0018286Y00279888
X-001829Y0029716
X-00187333Y0029726
X-00126746Y00319626
X-00116002
X-00106002Y00309626
X-00077466Y00321793
X-00073946Y00337494
X-00070727Y00304039
X-00073946Y00297616
Y00288616
X-00070446
X-00072396Y00279343
X-00025763Y00277408
X00032726Y00272852
X00035814Y00285456
X00051631Y00272843
X00054197Y00264119
X00041328Y0025534
X00042833Y00241046
X00036318Y00241095
X00041Y00225524
X0004475Y00215
X00036
X00019122Y0023749
X00077879Y00233244
X00089Y00233
X0008902Y0021798
X00094485Y00169168
X00088894Y00286243
X00061982Y00289306
X00055834Y00297098
X-0004546Y0020828
X-00055808Y00217496
X-00068326Y00191738
Y00187738
X-00072206Y00193488
X-000838Y00197632
X-00089201Y00199871
X-0008852Y0018789
X-0009202
X-0009552
X-00101648Y00186702
X-0010412Y00173446
X-00093986Y00170942
X-00088386Y00177546
X-00085336Y00184371
X-0008001Y00163322
X-00065746Y0016025
X-00040485Y0015675
X-000355
X-00032339Y00148336
X-00044309Y00148237
X-00038Y00138
X-0004425Y00127
X-00045485Y0011925
X-00040701Y00119388
X-000305Y0011925
X-00031735Y00127
X-0002425Y001255
X-00024235Y001305
X-00008921Y00127731
X00003556Y00135651
X-0006197Y00134112
X-000635Y0011176
X-0007112Y00110344
X-00062024Y00095144
X-0015367Y00103378
Y0010668
X-0015369Y0012065
X-0015367Y00124206
X-00156464Y00134106
X-00167668Y00135378
X-00171134Y00126358
X-0016764Y00152328
X-00164049Y00166951
Y00173763
X-0014857Y0017366
X-0014248Y0018152
X-001375
X-0013246
X-0012752Y0018148
Y00194544
X-001375Y00199564
X-00137358Y00206674
X-00143345Y00206736
X-00149745Y0020653
X-00156246Y00206496
X-0016002Y0019939
X-0015502Y00194294
X-00145852Y00197061
X-0015Y00186249
X-0015502Y0018123
X-001725Y00181
X-0017248Y0018602
X-001725Y00191008
X-0018948Y0019098
X-0018952Y0018598
X-00184031Y00158955
X-00132898Y00154868
X-0012465Y00148908
X-00120583Y00152975
X-0011665Y00152841
X-00113995Y0017915
X-0010412Y00207498
X-0009484Y00207871
X-00101335Y00217342
X-00109155Y00222342
X-00123136Y00217322
X-00123155Y00232342
X-00138684Y00375158
X-00163322Y00379528
Y00388548
X-00097556Y00523434
X-00096146Y0053503
X-00069652
X-00071112Y00523434
X-00043668
X-00042254Y0053503
X-00014856
X-00016225Y00523434
X00016609Y00523429
X00044103
X00042575Y0053465
Y00563444
X00044103Y00574681
X00071597
X00069922Y00563606
X00071597Y00523429
X00015034Y00563352
X00016609Y00574681
X-00016225Y00574705
X-00014856Y00563331
X-00042254
X-00043668Y00574705
X-00071112
X-00069652Y00563331
X-00096146
X-00097556Y00574705
X00097999Y00574699
X00096399Y00563352
Y0053465
X00097999Y00523429
X00126218Y00552374
X00170574Y00548973
X0017187Y00545179
X00174498Y00542203
X00253474Y0049022
X00282974
X00310878Y0057612
X00340728Y0057607
T02
X00111622Y00223
M30
