M48
;Layer_Color=9474304
;FILE_FORMAT=4:4
METRIC,LZ
;TYPE=PLATED
T01F00S00C0.1016
T03F00S00C0.1524
T04F00S00C0.5000
T06F00S00C0.7000
T07F00S00C0.8000
T08F00S00C1.0200
T09F00S00C1.2000
;TYPE=NON_PLATED
T10F00S00C3.5000
%
T01
X00126746Y00089662
T03
X-00189407Y-00066382
X-00114407
X-00089407
X-00095338Y-00011508
X-00096907Y00001118
Y00016118
X-00081907
X-0008509Y00005056
X-00074676Y0000381
Y00007897
X-0006604Y00019558
X-00063113Y00022485
X-00060086Y00025512
X-00111907Y00016118
X-00141907
Y00001118
X0000733Y00029824
X00011378Y00029632
X00062294Y00029528
X00065221Y00026601
X00068148Y00023674
X00070104Y00006858
Y00002771
X00060593Y-00066382
X00035593
X00010593
X-00001778Y-00077216
X-00014407Y-00066382
X00110593
X00210593
X00260593
Y-00016382
Y00033618
X0025781Y0007112
X00310593Y00033618
X00335593
Y00008618
X00310593
Y-00041382
X00335593
X00360593
X00385593
X00410593
X00435593
Y-00016382
Y00008618
Y00033618
Y00058618
X00410593
Y00033618
Y00008618
Y-00016382
X00385593Y00033618
Y-00066382
X00410593Y00083618
Y00108618
Y00133618
X00386211Y00115128
Y00110128
X00381762Y00107696
X0037973Y00117348
X00335534Y00116586
X00330095Y00117238
X0033006Y00108117
X00335564Y00108712
X00345079Y00101376
X003159Y00108117
X00311532Y00110181
Y00115181
X00318029Y0011738
X00283464Y00135382
X00257302Y00138176
X00285593Y00183618
X00310593Y00208618
X00335593
Y00233618
X00310593
Y00258618
X00285593
X0032639Y0028448
X00310593Y00308618
Y00358618
X00335593
X00360593
X00385593
X00390652Y00376898
X00385593Y00383618
X00410593
X00435593
Y00408618
Y00433618
X00410593
Y00408618
X00385593
X00372872Y00420624
X00360593Y00408618
Y00433618
X00385593
Y00458618
X00381Y00454406
X00360593Y00458618
X00335593
Y00433618
X00310593
Y00458618
X0028575Y00457454
X0027126Y00458876
X0026Y00461097
X00261356Y00451292
X00250449
X00240747
X0024Y0046
X00249434
X0023
X00230417Y00451292
X00220417
X0022Y0046
X0021
X00210417Y00451292
X00200417
X002Y0046
X0019
X00190417Y00451292
X00179366Y0045098
X0018Y0046
X00171331Y00463545
X00170103Y00452257
X0016256Y00452964
X00158092Y00436118
X00173092
X00133096Y00442028
X00133274Y0045339
X00129816Y00466531
X00118008Y00456633
X00122897Y00440668
X0011894Y00430157
X00096266Y00425958
X00095Y00457349
X00136652Y00412496
X00137486Y0040364
X00131805Y00395842
X0013081Y00391922
X00127Y0038
X001218Y00360025
X00096494Y00360335
X00096233Y0036498
X00118666Y003302
X0012685
X0016681Y00329565
X001778Y003302
X001905Y00328676
X00188092Y00346118
X00170002Y00362918
X00152416Y0034634
X001778Y003048
X00145345Y00277235
X00157226Y00261366
X00121488Y00265481
X00122533Y00223325
X00166281Y00214624
X00183237Y00187966
X00187455Y00168867
X00187546Y00157312
X00187452Y00145732
X00203092Y00166118
Y00196118
X0020447Y00235712
X00203092Y00241118
Y00256118
X00260593Y00308618
X00246634Y00328676
X00244856Y00416814
X00261287Y0044025
X00200152Y0038989
X00360593Y00383618
Y00333618
X00385593
Y00308618
X00382651Y00300063
X00385593Y00283618
Y00258618
X00410593
X00435593
Y00233618
Y00208618
X00410593
Y00233618
X00385593
X00410593Y00183618
X00364236Y0028749
X00410593Y00358618
X00435593
X0013131Y0016891
X00127762Y00171317
Y0016637
X00134227Y00148375
X00153676Y00134164
X00114689Y00124714
X00113093Y00106118
Y00091118
X00096774Y00092064
X00143093Y00091118
X00124138Y0011259
X00091262Y00106163
X00079382Y00089323
X00063754Y00080772
X000657Y00126324
X00064Y00162814
X00059686
X00055372
X00049153
X00048877Y00168701
X00045691Y00165958
X00042498Y00168806
X00042253Y00161764
X00037077Y00161824
X0003956Y00158645
X00017322Y00177522
X0001785Y00184424
X00024638Y00189738
Y00196088
X000254Y002032
X00025442Y00228478
X00032162Y00246215
X00042665Y00246158
X00048632Y00268243
X00035814Y00279843
X00025429Y0027945
X00011969Y00268633
X-00001182Y0026542
X00001041Y00261595
X-00015845Y00284891
X-00036322Y0028067
X-00037448Y00274972
X-00062983Y00279654
X-00074422Y00272542
X-00080518Y00272288
X-00085344Y00274304
Y00270248
Y00266192
X-00074422Y00253746
X-00068118Y00235155
X-00063906Y00239321
X-00081907Y00226118
X-00076236Y002032
X-00078127Y00190056
X-00076922Y00185502
X-00063414Y00172872
X-00060921Y00169524
X-00065907
X-000762Y001524
X-0008475Y00130182
X-001016Y00127
X-00101603Y00103054
X-000762Y001016
X-00066907Y00091118
X-00141907
X-0013716Y00119126
Y00124653
X-00136273Y00158592
X-00129981Y00163056
X-00135128Y0017018
X-00121755Y00171446
X-00118908Y00175006
X-0013081Y00189738
X-00127Y002032
X-00145407Y00193305
X-00156841Y00189738
X-00163077Y00206913
X-00178578Y00239467
X-00182634
X-0018669
X-00186907Y00256118
X-001831Y002645
X-00171907Y00256118
X-00141907
X-00126907
X-00127Y002794
X-00138231Y00287772
X-00139192Y0030356
X-00141986Y0030988
X-00169767Y0030861
X-0016891Y00326136
X-00186907Y00331118
Y00346118
Y00361118
X-00156907Y00376118
X-00146558Y00385098
X-00116078Y0038862
X-00116286Y00371898
X-00107417Y00334239
X-00091161Y00330175
X-00091186Y00342726
X-0008271Y00341884
X-00077724
X-0008001Y00345232
X-00034011Y00330683
X-00036956Y00309331
X-00048908Y00315312
X-00059411Y00304876
X-00004318Y00319722
X00003417Y00319866
X00012322Y00338771
X-00018009Y00348717
X-00006907Y00376118
X00008093
X-00006907Y00391118
X-00036907
Y00376118
Y00436118
Y00451118
X-00021907
X-0002Y00445
X-00021907Y00466118
X-00006907
X00008093
X00023093
X00053093
X00068093Y00451118
X00078267Y0044934
X00083093Y00451118
X000762Y004572
X00066239Y00432976
X00053093Y00436118
X00046905Y00422
X00057404Y00417068
X00038Y00403095
X00088134Y00406525
X00094742Y004064
X00089956Y00347218
X0008497
X00087256Y0034387
X00089177Y00310919
X00084328Y0031085
X00086614Y00307502
X00085852Y0028194
X00058836Y00314539
X00059001Y00320468
X00057746Y00336683
X00068093Y00361118
X-00011796Y0042
Y00427228
X-00036907Y00466118
X-00051907
X-0004463Y00458596
X-00066907Y00451118
Y00466118
X-00081907
Y00451118
X-00096907
Y00466118
X-00111907
X-00116395Y00458596
X-00151944
X-00156907Y00451118
Y00466118
X-00171907Y00451118
Y00436118
Y00421118
X-00141907Y00436118
X-00089282Y00423418
X-00089707Y00407438
X-00130879Y00331678
X-00186907Y00316118
X-0017018Y00286772
X-00201907Y00271118
Y00256118
Y00241118
X-00210755Y00231
X-00211074Y00217
X-0020955Y00200914
X-00189385Y00152651
X-00160183Y00143348
X-00146578Y00159258
X-00101923Y00161435
X-00064008Y00206964
X-00066294Y00210312
X-00061308
X-00032435Y00209911
X-00032458Y00205787
X-000254Y002032
X-00021907Y00211118
X-0001455Y00228433
X-00025654Y00247142
X00055372Y00219456
X00072077Y0018983
X00083405Y00198143
X00083093Y00181118
X00089574Y00169188
X00013284Y0013175
X00009425Y00125806
X00013843Y00118299
Y00114212
X-00004295Y00114289
Y00118376
X-00024Y001355
X-00029407Y00503618
X-00044407
X-00059407
X-00074407
X-00089407
Y00518618
X-00086614Y00525018
X-00089407Y00533618
X-00078068Y00529567
X-00059407Y00533618
X-00050636Y00529626
X-00059407Y00518618
X-00029407
Y00533618
X-00023206Y00529734
X-00014407Y00503618
X00000593
Y00518618
X00015593Y00533618
X00023746Y0052953
X00030593Y00518618
Y00503618
X00015593
X00045593
X00060593
Y00518618
X00051144Y0052953
X0006985Y00536194
X00078486Y0052953
X0008636Y00535432
X00090593Y00518618
Y00503618
X0008636Y0056642
X00078574Y00569183
X00051144Y00568908
X00041148Y00555752
X00030593Y00563618
X00023714Y00568885
X00030593Y00578618
X00000593
Y00563618
Y00548618
X00018796Y00551942
X00033782Y00540512
X-00023206Y0056889
X-00029407Y00563618
Y00578618
X-00059407
Y00563618
X-00059962Y00558842
X-00050636Y00568864
X-00078087Y00568734
X-00085944Y00573887
X-00089407Y00578618
X-00088392Y00565404
X-00104626Y00568851
X-00104531Y00529646
X-00149407Y00548618
X-00164407
X-00179407
X-0016002Y0047371
X-00155702Y00473618
X-00164407Y00633618
X-00139407
X-00114407Y00658618
Y00683618
X-00089407
X-00064407
X-00039407
X-00014407
X00010593
X00035593
X00060593
Y00658618
X00085593Y00683618
Y00708618
Y00733618
Y00758618
Y00783618
X00060593
Y00758618
Y00733618
Y00708618
X00035593
Y00733618
Y00758618
Y00783618
X00010593
Y00758618
Y00733618
Y00708618
X-00014407
Y00733618
Y00758618
Y00783618
X-00039407
Y00758618
Y00733618
Y00708618
X-00064407
Y00733618
Y00758618
Y00783618
X-00089407
Y00758618
Y00733618
Y00708618
X-00114407
Y00733618
Y00758618
Y00783618
X-00139407Y00758618
Y00733618
Y00708618
Y00683618
X-00164407
Y00708618
Y00733618
Y00758618
Y00783618
X-00189407
Y00758618
Y00733618
Y00708618
Y00683618
X-00214407
Y00708618
Y00733618
Y00758618
Y00658618
Y00633618
X-00189407
X-00039407
X-00014407
X00010593
Y00658618
X-00014407
X-00039407
X00085593Y00633618
X00110593Y00683618
X00135593
X00160593
Y00708618
X00185593
X00210593
X00235593
X00260593
X00285593
X00310593
X00335593
X00360593
X00385593
X00410593
X00435593
Y00733618
Y00758618
X00410593
Y00733618
X00385593
Y00758618
Y00783618
X00360593
Y00758618
Y00733618
X00335593
Y00758618
Y00783618
X00310593
Y00758618
Y00733618
X00285593
Y00758618
Y00783618
X00260593
Y00758618
Y00733618
X00235593
Y00758618
Y00783618
X00210593
Y00758618
Y00733618
X00185593
Y00758618
Y00783618
X00160593
Y00758618
Y00733618
X00135593
Y00758618
Y00783618
X00110593
Y00758618
Y00733618
Y00708618
X00135593
X00210593Y00683618
X00235593
X00260593
X00285593
Y00658618
X00310593
X00335593
Y00683618
X00360593
X00365Y0066
X0036Y00655
X00355Y0065
Y0064
Y0063
X00345
X00335
Y0062
X00325
X00325Y00629337
X00315
X00315Y0062
X00305
X00305Y00629337
X00295
X00295Y0062
X00285
X00285Y00629337
X00275
X00265
X0026Y0062
Y0061
Y006
Y0059
Y0058
Y0057
Y0056
Y0055
Y0054
Y0053
Y0052
Y00509282
X00275Y0051
Y0052
Y0053
Y0054
Y0055
Y0056
Y0057
Y0058
Y0059
Y006
Y0061
X00275961Y00617679
X00260593Y00658618
X00235593
X00210593
X00188976Y00557785
Y00548985
Y00540187
X00178309Y00540186
Y00557784
X00167641Y00557785
X00150681Y00557784
X00136144Y00559619
X00105018Y00568991
X00104969Y0052917
X00112522Y00536445
X00285593Y00558618
X00310593
X00335593
X00360593
X00385593
X00410593
X00435593
Y00583618
X00435Y0059
X00445
X00425
X00415
X00405
X00395
X0038399
X00385593Y00583618
X00375Y0059
X00365
X00355
Y006
Y0061
Y0062
X00345
X00360593Y00583618
X00410593
Y00533618
X00435593
X00385593
Y00508618
Y00483618
X00360593
Y00508618
Y00533618
X00335593
Y00508618
Y00483618
X00310593
Y00508618
Y00533618
X00285593Y00508618
X00310593Y00683618
X00375Y0066
X00395
X00405Y00660354
X0042Y0066
X0043Y00660221
X0044Y00659845
X0045Y0066
X00435593Y00683618
X00410593
T04
X00161Y0011
X0017399Y00121158
X-00063Y00079
X-00113
X-00105576Y00510973
X-00078146
X-00050716
X-00023286
X00023714
X00051144
X00078574
Y00586973
X00051144
X00023714
X-00023286
X-00050716
X-00078146
X-00105576
X00106004
Y00510973
X0015505Y0054897
X00179054Y00548973
T06
X0041783Y0028702
X0043053
Y0029972
Y0031242
Y0032512
X0041783
X0041783Y0033782
X0043053Y0033782
X0041783Y0031242
X0041783Y0029972
X00415798Y0045847
X00428498
Y0047117
Y0048387
X00415798
X00415798Y0047117
X00415798Y0049657
X00428498
Y0050927
X00415798Y0050927
T07
X-0012879Y0000221
X0003894Y00002032
T08
X-00167132Y-00072136
X-00141732
X-0005842
X-0003302
X00050292
X00075692
X-00062992Y00055372
X-00088392
X00221996Y0004191
Y0001651
X00282956Y-00026162
X00308356
X00333756
X00359156
Y-00069342
X00333756
X00308356
X00282956
X00184404Y-00072136
X00159004
X00216916Y00104394
Y00129794
X00261874Y00202314
Y00227714
X00292269
Y00202314
X00322665
Y00227714
X0035306
Y00202314
X0033655Y00334298
X0031115
X0028575
X0026035
X-00213614Y00362712
Y00388112
X-00213066Y00421312
Y00446712
X-00203454Y0069222
Y0071762
X-00152654
Y0069222
X-00101854
Y0071762
X-00051054
Y0069222
X-00002286
Y0071762
X00046482
Y0069222
X00097282
Y0071762
X00148082
Y0069222
X0019558
Y0071762
X0024638
Y0069222
X00297074
Y0071762
X0034798
Y0069222
X0039878
Y0071762
T09
X-0003875Y0000221
X0012898Y00002032
T10
X-00210102Y-00067544
X0042953Y-00066814
X-00210832Y00785132
X0042953
M30
