%TF.GenerationSoftware,Altium Limited,Altium Designer,26.10.1 (5)*%
G04 Layer_Physical_Order=2*
G04 Layer_Color=16711935*
G04 Board_Origin=74386096|43952041*
%FSLAX45Y45*%
%MOMM*%
%TF.SameCoordinates,9E1A2420-9DF8-4FB8-AA41-10CD80989974*%
%TF.FilePolarity,Positive*%
%TF.FileFunction,Copper,L2,Inr,Signal*%
%TF.Part,Single*%
G01*
G75*
%TA.AperFunction,Conductor*%
%ADD113C,0.10160*%
%ADD114C,0.07620*%
%ADD115C,0.12700*%
%ADD117C,0.15240*%
%ADD118C,0.20320*%
%ADD120C,0.15200*%
%ADD123C,0.10000*%
%TA.AperFunction,ComponentPad*%
%ADD134R,1.55000X1.55000*%
%ADD135C,1.55000*%
%ADD136R,1.55000X1.55000*%
%ADD137O,1.57480X0.95000*%
%TA.AperFunction,ViaPad*%
%ADD142C,0.30480*%
%ADD143C,0.20300*%
%ADD144C,0.20320*%
%TA.AperFunction,Conductor*%
%ADD145C,0.10200*%
%TA.AperFunction,ViaPad*%
%ADD146C,0.15240*%
G36*
X-917551Y5778469D02*
X-914963Y5772219D01*
X-908031Y5765288D01*
X-898975Y5761536D01*
X-889173D01*
X-880117Y5765288D01*
X-873185Y5772219D01*
X-870596Y5778469D01*
X-811645D01*
X-617551D01*
X-614963Y5772219D01*
X-608031Y5765288D01*
X-598975Y5761536D01*
X-589173D01*
X-580117Y5765288D01*
X-573185Y5772219D01*
X-570597Y5778469D01*
X-540440D01*
X-317552D01*
X-314963Y5772219D01*
X-308031Y5765288D01*
X-298975Y5761536D01*
X-289173D01*
X-280117Y5765288D01*
X-273185Y5772219D01*
X-270597Y5778469D01*
X-17552D01*
X-14963Y5772219D01*
X-8031Y5765288D01*
X1025Y5761536D01*
X10827D01*
X19883Y5765288D01*
X26815Y5772219D01*
X29403Y5778469D01*
X282448D01*
X285037Y5772219D01*
X291968Y5765288D01*
X301025Y5761536D01*
X310827D01*
X319883Y5765288D01*
X326814Y5772219D01*
X329403Y5778469D01*
X1087081D01*
Y5622587D01*
X1346881D01*
Y5605517D01*
X1344420Y5599574D01*
Y5592803D01*
X1346881Y5586860D01*
Y5364449D01*
X1142240D01*
Y5367835D01*
X1139649Y5374090D01*
X1134861Y5378878D01*
X1128606Y5381469D01*
X1121834D01*
X1115579Y5378878D01*
X1110791Y5374090D01*
X1108200Y5367835D01*
Y5364449D01*
X1087081D01*
Y5212049D01*
X-1031858D01*
X-1040833Y5221035D01*
X-1040767Y5279921D01*
X-1035668Y5282033D01*
X-1030880Y5286821D01*
X-1028289Y5293076D01*
Y5299847D01*
X-1030880Y5306103D01*
X-1035668Y5310891D01*
X-1040730Y5312988D01*
X-1040445Y5567161D01*
X-1040327Y5672546D01*
X-1036622Y5674081D01*
X-1031834Y5678869D01*
X-1029243Y5685124D01*
Y5691895D01*
X-1031834Y5698151D01*
X-1036622Y5702939D01*
X-1040291Y5704458D01*
X-1040208Y5778469D01*
X-917551D01*
D02*
G37*
G36*
X2014220Y5344160D02*
X1550500D01*
Y5457080D01*
X1556989D01*
X1568978Y5462046D01*
X1578154Y5471222D01*
X1583120Y5483212D01*
Y5496188D01*
X1578154Y5508178D01*
X1568978Y5517354D01*
X1556989Y5522320D01*
X1550500D01*
Y5676900D01*
X2014220D01*
Y5344160D01*
D02*
G37*
G36*
X4536130Y6557729D02*
X4527151Y6548748D01*
X3614420D01*
X3608588Y6546332D01*
X3606172Y6540500D01*
Y5946140D01*
X3608588Y5940308D01*
X3614420Y5937892D01*
X4536264D01*
X4536772Y3587246D01*
X4527793Y3578265D01*
X2385337Y3578317D01*
X2385335Y4410442D01*
X1743732D01*
X1743834Y3936250D01*
X1665598Y3858014D01*
X1583091Y3858016D01*
X1580984Y3860458D01*
X1576295Y3870717D01*
X1578136Y3875161D01*
X1578971Y3877174D01*
X1574944Y3886895D01*
X1572932Y3887728D01*
X1565256Y3890907D01*
Y3902654D01*
X1572931Y3905833D01*
X1574944Y3906666D01*
X1578971Y3916387D01*
X1578137Y3918400D01*
X1574944Y3926107D01*
X1574747Y3926304D01*
X1565027Y3930330D01*
X1565026Y3930330D01*
X1545356D01*
X1537641Y3943030D01*
X1538965Y3946227D01*
X1534939Y3955947D01*
X1534742Y3956144D01*
X1525022Y3960170D01*
X1525021Y3960170D01*
X1495342D01*
X1494866Y3960367D01*
X1485145Y3956341D01*
X1472798Y3959719D01*
X1472003Y3963718D01*
X1468073Y3969599D01*
X1467057Y3970278D01*
Y3980298D01*
X1463031Y3990019D01*
X1457664Y3995386D01*
X1457902Y3996584D01*
X1456522Y4003522D01*
X1452592Y4009403D01*
X1446711Y4013333D01*
X1439774Y4014713D01*
X1432837Y4013333D01*
X1426955Y4009403D01*
X1423026Y4003522D01*
X1422505Y4000907D01*
X1411890Y3995255D01*
X1409349Y3994908D01*
X1407160Y3996554D01*
Y4014713D01*
X1407159Y4583505D01*
X1407279Y4583585D01*
X1411208Y4589466D01*
X1412588Y4596403D01*
X1411208Y4603341D01*
X1407279Y4609222D01*
X1407159Y4609301D01*
Y4655819D01*
X1465579Y4714239D01*
X1465579D01*
D01*
X1477313Y4711647D01*
X1485452Y4704080D01*
X1487226Y4695161D01*
X1489337Y4692002D01*
Y4682563D01*
X1486972Y4679024D01*
X1485198Y4670105D01*
X1486972Y4661185D01*
X1492025Y4653624D01*
X1499587Y4648571D01*
X1508506Y4646797D01*
X1517425Y4648571D01*
X1524987Y4653624D01*
X1530040Y4661185D01*
X1531814Y4670105D01*
X1530040Y4679024D01*
X1528183Y4681803D01*
Y4692002D01*
X1530294Y4695161D01*
X1532068Y4704080D01*
X1542996Y4714240D01*
X1682949Y4714240D01*
X1743680Y4653509D01*
X2385335Y4653509D01*
Y6715759D01*
X4536096Y6715762D01*
X4536130Y6557729D01*
D02*
G37*
G36*
X4257040Y807720D02*
X3798346D01*
Y875926D01*
X3905401Y982980D01*
X3907277D01*
X3913812Y985687D01*
X3918813Y990688D01*
X3921520Y997223D01*
Y1004297D01*
X3918813Y1010832D01*
X3913812Y1015833D01*
X3907277Y1018540D01*
X3900203D01*
X3893668Y1015833D01*
X3888667Y1010832D01*
X3885960Y1004297D01*
Y1002421D01*
X3774880Y891340D01*
X3770853Y881620D01*
X3770854Y881620D01*
Y807720D01*
X3097306D01*
Y1078149D01*
X3098999Y1080016D01*
X3110007Y1085589D01*
X3111933Y1084791D01*
X3118704D01*
X3124959Y1087382D01*
X3129747Y1092170D01*
X3132338Y1098426D01*
Y1105197D01*
X3129747Y1111452D01*
X3124959Y1116240D01*
X3118704Y1118831D01*
X3111933D01*
X3108715Y1125996D01*
X3118704Y1134791D01*
X3124959Y1137382D01*
X3129747Y1142170D01*
X3132338Y1148425D01*
Y1155197D01*
X3129747Y1161452D01*
X3124959Y1166240D01*
X3118704Y1168831D01*
X3111933D01*
X3110007Y1168033D01*
X3098999Y1173606D01*
X3097306Y1175473D01*
Y1436178D01*
X3788634D01*
Y1404621D01*
X3788633Y1404620D01*
X3792660Y1394900D01*
X3888740Y1298820D01*
Y1296943D01*
X3891447Y1290408D01*
X3896448Y1285407D01*
X3902983Y1282700D01*
X3910057D01*
X3916592Y1285407D01*
X3921593Y1290408D01*
X3924300Y1296943D01*
Y1304017D01*
X3921593Y1310552D01*
X3916592Y1315553D01*
X3910057Y1318260D01*
X3908180D01*
X3816126Y1410314D01*
Y1436178D01*
X4257040D01*
Y807720D01*
D02*
G37*
G36*
X3069814D02*
X2999256D01*
Y1436178D01*
X3069814D01*
Y807720D01*
D02*
G37*
G36*
X2971763D02*
X2811957D01*
Y1436178D01*
X2971763D01*
Y807720D01*
D02*
G37*
G36*
X2784464D02*
X2631215D01*
Y1436178D01*
X2784464D01*
Y807720D01*
D02*
G37*
G36*
X2603723D02*
X2504440D01*
Y1436178D01*
X2603723D01*
Y807720D01*
D02*
G37*
%LPC*%
G36*
X-856053Y5755886D02*
X-862824D01*
X-869080Y5753295D01*
X-873867Y5748507D01*
X-876458Y5742251D01*
Y5735480D01*
X-873867Y5729225D01*
X-869080Y5724437D01*
X-862824Y5721846D01*
X-856053D01*
X-849797Y5724437D01*
X-845009Y5729225D01*
X-842418Y5735480D01*
Y5742251D01*
X-845009Y5748507D01*
X-849797Y5753295D01*
X-856053Y5755886D01*
D02*
G37*
G36*
X789127Y5708849D02*
X782356D01*
X776100Y5706258D01*
X771312Y5701470D01*
X768721Y5695214D01*
Y5688443D01*
X771312Y5682188D01*
X776100Y5677400D01*
X782356Y5674809D01*
X789127D01*
X795382Y5677400D01*
X800170Y5682188D01*
X802761Y5688443D01*
Y5695214D01*
X800170Y5701470D01*
X795382Y5706258D01*
X789127Y5708849D01*
D02*
G37*
G36*
X1053569Y5706931D02*
X1046798D01*
X1040542Y5704340D01*
X1035755Y5699552D01*
X1033164Y5693297D01*
Y5686526D01*
X1035755Y5680270D01*
X1040542Y5675482D01*
X1046798Y5672891D01*
X1053569D01*
X1059825Y5675482D01*
X1064613Y5680270D01*
X1067204Y5686526D01*
Y5693297D01*
X1064613Y5699552D01*
X1059825Y5704340D01*
X1053569Y5706931D01*
D02*
G37*
G36*
X514827Y5706099D02*
X508056D01*
X501800Y5703508D01*
X497012Y5698720D01*
X494421Y5692465D01*
Y5685694D01*
X497012Y5679438D01*
X501800Y5674650D01*
X508056Y5672059D01*
X514827D01*
X521082Y5674650D01*
X525870Y5679438D01*
X528461Y5685694D01*
Y5692465D01*
X525870Y5698720D01*
X521082Y5703508D01*
X514827Y5706099D01*
D02*
G37*
G36*
X-228677Y5705922D02*
X-235448D01*
X-241703Y5703330D01*
X-246491Y5698543D01*
X-249082Y5692287D01*
Y5685516D01*
X-246491Y5679260D01*
X-241703Y5674473D01*
X-235448Y5671881D01*
X-228677D01*
X-222421Y5674473D01*
X-217633Y5679260D01*
X-215042Y5685516D01*
Y5692287D01*
X-217633Y5698543D01*
X-222421Y5703330D01*
X-228677Y5705922D01*
D02*
G37*
G36*
X240527Y5705867D02*
X233756D01*
X227500Y5703276D01*
X222712Y5698488D01*
X220121Y5692232D01*
Y5685461D01*
X222712Y5679206D01*
X227500Y5674418D01*
X233756Y5671827D01*
X240527D01*
X246782Y5674418D01*
X251570Y5679206D01*
X254161Y5685461D01*
Y5692232D01*
X251570Y5698488D01*
X246782Y5703276D01*
X240527Y5705867D01*
D02*
G37*
G36*
X-502977Y5705657D02*
X-509748D01*
X-516003Y5703066D01*
X-520791Y5698278D01*
X-523382Y5692023D01*
Y5685252D01*
X-520791Y5678996D01*
X-516003Y5674208D01*
X-509748Y5671617D01*
X-502977D01*
X-496721Y5674208D01*
X-491933Y5678996D01*
X-489342Y5685252D01*
Y5692023D01*
X-491933Y5698278D01*
X-496721Y5703066D01*
X-502977Y5705657D01*
D02*
G37*
G36*
X-777481Y5704362D02*
X-784252D01*
X-790508Y5701771D01*
X-795296Y5696983D01*
X-797887Y5690728D01*
Y5683956D01*
X-795296Y5677701D01*
X-790508Y5672913D01*
X-784252Y5670322D01*
X-777481D01*
X-771226Y5672913D01*
X-766438Y5677701D01*
X-763847Y5683956D01*
Y5690728D01*
X-766438Y5696983D01*
X-771226Y5701771D01*
X-777481Y5704362D01*
D02*
G37*
G36*
X733260Y5654236D02*
X726187D01*
X719652Y5651529D01*
X718129Y5650006D01*
X710422D01*
X709292Y5651136D01*
X702758Y5653843D01*
X695684D01*
X689149Y5651136D01*
X684148Y5646135D01*
X681441Y5639600D01*
Y5632526D01*
X684148Y5625991D01*
X689149Y5620990D01*
X695684Y5618283D01*
X702758D01*
X709292Y5620990D01*
X710816Y5622513D01*
X718522D01*
X719652Y5621383D01*
X726187Y5618676D01*
X733260D01*
X739795Y5621383D01*
X744797Y5626385D01*
X747503Y5632920D01*
Y5639993D01*
X744797Y5646528D01*
X739795Y5651529D01*
X733260Y5654236D01*
D02*
G37*
G36*
X459792Y5652611D02*
X452718D01*
X446183Y5649904D01*
X444660Y5648381D01*
X436954D01*
X435824Y5649510D01*
X429289Y5652217D01*
X422216D01*
X415681Y5649510D01*
X410679Y5644509D01*
X407972Y5637974D01*
Y5630901D01*
X410679Y5624366D01*
X415681Y5619364D01*
X422216Y5616657D01*
X429289D01*
X435824Y5619364D01*
X437347Y5620888D01*
X445053D01*
X446183Y5619758D01*
X452718Y5617051D01*
X459792D01*
X466326Y5619758D01*
X471328Y5624759D01*
X474035Y5631294D01*
Y5638367D01*
X471328Y5644902D01*
X466326Y5649904D01*
X459792Y5652611D01*
D02*
G37*
G36*
X188896Y5651796D02*
X181822D01*
X175287Y5649090D01*
X173714Y5647516D01*
X161495D01*
X160415Y5648596D01*
X153880Y5651303D01*
X146806D01*
X140271Y5648596D01*
X135270Y5643595D01*
X132563Y5637060D01*
Y5629986D01*
X135270Y5623452D01*
X140271Y5618450D01*
X146806Y5615743D01*
X153880D01*
X160415Y5618450D01*
X161988Y5620023D01*
X174207D01*
X175287Y5618943D01*
X181822Y5616236D01*
X188896D01*
X195431Y5618943D01*
X200432Y5623945D01*
X203139Y5630480D01*
Y5637553D01*
X200432Y5644088D01*
X195431Y5649090D01*
X188896Y5651796D01*
D02*
G37*
G36*
X998034Y5651697D02*
X990961D01*
X984426Y5648990D01*
X982903Y5647466D01*
X975196D01*
X974067Y5648596D01*
X967532Y5651303D01*
X960458D01*
X953923Y5648596D01*
X948922Y5643595D01*
X946215Y5637060D01*
Y5629986D01*
X948922Y5623452D01*
X953923Y5618450D01*
X960458Y5615743D01*
X967532D01*
X974067Y5618450D01*
X975590Y5619974D01*
X983296D01*
X984426Y5618843D01*
X990961Y5616137D01*
X998034D01*
X1004569Y5618843D01*
X1009571Y5623845D01*
X1012278Y5630380D01*
Y5637453D01*
X1009571Y5643988D01*
X1004569Y5648990D01*
X998034Y5651697D01*
D02*
G37*
G36*
X-114517Y5651486D02*
X-121591D01*
X-128125Y5648779D01*
X-129649Y5647256D01*
X-137355D01*
X-138485Y5648386D01*
X-145020Y5651093D01*
X-152093D01*
X-158628Y5648386D01*
X-163630Y5643384D01*
X-166336Y5636850D01*
Y5629776D01*
X-163630Y5623241D01*
X-158628Y5618240D01*
X-152093Y5615533D01*
X-145020D01*
X-138485Y5618240D01*
X-136961Y5619763D01*
X-129256D01*
X-128125Y5618633D01*
X-121591Y5615926D01*
X-114517D01*
X-107982Y5618633D01*
X-102981Y5623635D01*
X-100274Y5630170D01*
Y5637243D01*
X-102981Y5643778D01*
X-107982Y5648779D01*
X-114517Y5651486D01*
D02*
G37*
G36*
X-388498D02*
X-395571D01*
X-402106Y5648779D01*
X-403629Y5647256D01*
X-411336D01*
X-412466Y5648386D01*
X-419000Y5651093D01*
X-426074D01*
X-432609Y5648386D01*
X-437610Y5643384D01*
X-440317Y5636850D01*
Y5629776D01*
X-437610Y5623241D01*
X-432609Y5618240D01*
X-426074Y5615533D01*
X-419000D01*
X-412466Y5618240D01*
X-410942Y5619763D01*
X-403236D01*
X-402106Y5618633D01*
X-395571Y5615926D01*
X-388498D01*
X-381963Y5618633D01*
X-376961Y5623635D01*
X-374255Y5630170D01*
Y5637243D01*
X-376961Y5643778D01*
X-381963Y5648779D01*
X-388498Y5651486D01*
D02*
G37*
G36*
X-662478D02*
X-669552D01*
X-676087Y5648779D01*
X-677610Y5647256D01*
X-685316D01*
X-686446Y5648386D01*
X-692981Y5651093D01*
X-700054D01*
X-706589Y5648386D01*
X-711591Y5643384D01*
X-714298Y5636850D01*
Y5629776D01*
X-711591Y5623241D01*
X-706589Y5618240D01*
X-700054Y5615533D01*
X-692981D01*
X-686446Y5618240D01*
X-684923Y5619763D01*
X-677217D01*
X-676087Y5618633D01*
X-669552Y5615926D01*
X-662478D01*
X-655944Y5618633D01*
X-650942Y5623635D01*
X-648235Y5630170D01*
Y5637243D01*
X-650942Y5643778D01*
X-655944Y5648779D01*
X-662478Y5651486D01*
D02*
G37*
G36*
X-927421D02*
X-934494D01*
X-941029Y5648779D01*
X-942552Y5647256D01*
X-950259D01*
X-951388Y5648386D01*
X-957923Y5651093D01*
X-964997D01*
X-971532Y5648386D01*
X-976533Y5643384D01*
X-979240Y5636850D01*
Y5629776D01*
X-976533Y5623241D01*
X-971532Y5618240D01*
X-964997Y5615533D01*
X-957923D01*
X-951388Y5618240D01*
X-949865Y5619763D01*
X-942159D01*
X-941029Y5618633D01*
X-934494Y5615926D01*
X-927421D01*
X-920886Y5618633D01*
X-915884Y5623635D01*
X-913177Y5630170D01*
Y5637243D01*
X-915884Y5643778D01*
X-920886Y5648779D01*
X-927421Y5651486D01*
D02*
G37*
G36*
X866986Y5681220D02*
X860214D01*
X853959Y5678629D01*
X849171Y5673841D01*
X846580Y5667586D01*
Y5660814D01*
X849171Y5654559D01*
X853959Y5649771D01*
X860214Y5647180D01*
X866986D01*
X873241Y5649771D01*
X878029Y5654559D01*
X880620Y5660814D01*
Y5667586D01*
X878029Y5673841D01*
X873241Y5678629D01*
X866986Y5681220D01*
D02*
G37*
G36*
X-880534Y5671060D02*
X-887306D01*
X-893561Y5668469D01*
X-898349Y5663681D01*
X-900940Y5657426D01*
Y5650654D01*
X-898349Y5644399D01*
X-893561Y5639611D01*
X-887306Y5637020D01*
X-880534D01*
X-874279Y5639611D01*
X-869491Y5644399D01*
X-866900Y5650654D01*
Y5657426D01*
X-869491Y5663681D01*
X-874279Y5668469D01*
X-880534Y5671060D01*
D02*
G37*
G36*
X310827Y5660816D02*
X301025D01*
X291968Y5657065D01*
X285037Y5650134D01*
X281286Y5641078D01*
Y5631275D01*
X285037Y5622219D01*
X291968Y5615288D01*
X301025Y5611536D01*
X310827D01*
X319883Y5615288D01*
X326814Y5622219D01*
X330566Y5631275D01*
Y5641078D01*
X326814Y5650134D01*
X319883Y5657065D01*
X310827Y5660816D01*
D02*
G37*
G36*
X10827D02*
X1025D01*
X-8031Y5657065D01*
X-14963Y5650134D01*
X-18714Y5641078D01*
Y5631275D01*
X-14963Y5622219D01*
X-8031Y5615288D01*
X1025Y5611536D01*
X10827D01*
X19883Y5615288D01*
X26815Y5622219D01*
X30566Y5631275D01*
Y5641078D01*
X26815Y5650134D01*
X19883Y5657065D01*
X10827Y5660816D01*
D02*
G37*
G36*
X-289173D02*
X-298975D01*
X-308031Y5657065D01*
X-314963Y5650134D01*
X-318714Y5641078D01*
Y5631275D01*
X-314963Y5622219D01*
X-308031Y5615288D01*
X-298975Y5611536D01*
X-289173D01*
X-280117Y5615288D01*
X-273185Y5622219D01*
X-269434Y5631275D01*
Y5641078D01*
X-273185Y5650134D01*
X-280117Y5657065D01*
X-289173Y5660816D01*
D02*
G37*
G36*
X-589173D02*
X-598975D01*
X-608031Y5657065D01*
X-614963Y5650134D01*
X-618714Y5641078D01*
Y5631275D01*
X-614963Y5622219D01*
X-609317Y5616573D01*
X-609022Y5605244D01*
X-609258Y5602851D01*
X-614046Y5598063D01*
X-616637Y5591808D01*
Y5585037D01*
X-614046Y5578781D01*
X-609258Y5573993D01*
X-603002Y5571402D01*
X-596231D01*
X-589976Y5573993D01*
X-585188Y5578781D01*
X-582597Y5585037D01*
Y5591808D01*
X-585188Y5598063D01*
X-586902Y5599777D01*
X-586918Y5599862D01*
X-584920Y5612192D01*
X-584148Y5613618D01*
X-580117Y5615288D01*
X-573185Y5622219D01*
X-569434Y5631275D01*
Y5641078D01*
X-573185Y5650134D01*
X-580117Y5657065D01*
X-589173Y5660816D01*
D02*
G37*
G36*
X414866Y5574540D02*
X408094D01*
X401839Y5571949D01*
X397051Y5567161D01*
X394460Y5560906D01*
Y5554134D01*
X397051Y5547879D01*
X401839Y5543091D01*
X408094Y5540500D01*
X414866D01*
X421121Y5543091D01*
X425909Y5547879D01*
X428500Y5554134D01*
Y5560906D01*
X425909Y5567161D01*
X421121Y5571949D01*
X414866Y5574540D01*
D02*
G37*
G36*
X191346Y5536440D02*
X184574D01*
X178319Y5533849D01*
X173531Y5529061D01*
X170940Y5522806D01*
Y5516034D01*
X173531Y5509779D01*
X178319Y5504991D01*
X184574Y5502400D01*
X191346D01*
X197601Y5504991D01*
X202389Y5509779D01*
X204980Y5516034D01*
Y5522806D01*
X202389Y5529061D01*
X197601Y5533849D01*
X191346Y5536440D01*
D02*
G37*
G36*
X10827Y5510817D02*
X1025D01*
X-8031Y5507065D01*
X-14963Y5500134D01*
X-18714Y5491078D01*
Y5481275D01*
X-14963Y5472219D01*
X-8031Y5465288D01*
X1025Y5461536D01*
X10827D01*
X19883Y5465288D01*
X26815Y5472219D01*
X30566Y5481275D01*
Y5491078D01*
X26815Y5500134D01*
X19883Y5507065D01*
X10827Y5510817D01*
D02*
G37*
G36*
X341206Y5422140D02*
X334434D01*
X328179Y5419549D01*
X323391Y5414761D01*
X320800Y5408506D01*
Y5401734D01*
X323391Y5395479D01*
X328179Y5390691D01*
X334434Y5388100D01*
X341206D01*
X347461Y5390691D01*
X352249Y5395479D01*
X354840Y5401734D01*
Y5408506D01*
X352249Y5414761D01*
X347461Y5419549D01*
X341206Y5422140D01*
D02*
G37*
G36*
X-114517Y5368470D02*
X-121591D01*
X-128125Y5365763D01*
X-129649Y5364239D01*
X-137355D01*
X-138485Y5365369D01*
X-145020Y5368076D01*
X-152093D01*
X-158628Y5365369D01*
X-163630Y5360368D01*
X-166336Y5353833D01*
Y5346759D01*
X-163630Y5340225D01*
X-158628Y5335223D01*
X-152093Y5332516D01*
X-145020D01*
X-138485Y5335223D01*
X-136961Y5336747D01*
X-129256D01*
X-128125Y5335616D01*
X-121591Y5332910D01*
X-114517D01*
X-107982Y5335616D01*
X-102981Y5340618D01*
X-100274Y5347153D01*
Y5354226D01*
X-102981Y5360761D01*
X-107982Y5365763D01*
X-114517Y5368470D01*
D02*
G37*
G36*
X-388498D02*
X-395571D01*
X-402106Y5365763D01*
X-403629Y5364239D01*
X-411336D01*
X-412466Y5365369D01*
X-419000Y5368076D01*
X-426074D01*
X-432609Y5365369D01*
X-437610Y5360368D01*
X-440317Y5353833D01*
Y5346759D01*
X-437610Y5340225D01*
X-432609Y5335223D01*
X-426074Y5332516D01*
X-419000D01*
X-412466Y5335223D01*
X-410942Y5336747D01*
X-403236D01*
X-402106Y5335616D01*
X-395571Y5332910D01*
X-388498D01*
X-381963Y5335616D01*
X-376961Y5340618D01*
X-374255Y5347153D01*
Y5354226D01*
X-376961Y5360761D01*
X-381963Y5365763D01*
X-388498Y5368470D01*
D02*
G37*
G36*
X-662478D02*
X-669552D01*
X-676087Y5365763D01*
X-677610Y5364239D01*
X-685316D01*
X-686446Y5365369D01*
X-692981Y5368076D01*
X-700054D01*
X-706589Y5365369D01*
X-711591Y5360368D01*
X-714298Y5353833D01*
Y5346759D01*
X-711591Y5340225D01*
X-706589Y5335223D01*
X-700054Y5332516D01*
X-692981D01*
X-686446Y5335223D01*
X-684923Y5336747D01*
X-677217D01*
X-676087Y5335616D01*
X-669552Y5332910D01*
X-662478D01*
X-655944Y5335616D01*
X-650942Y5340618D01*
X-648235Y5347153D01*
Y5354226D01*
X-650942Y5360761D01*
X-655944Y5365763D01*
X-662478Y5368470D01*
D02*
G37*
G36*
X-927421D02*
X-934494D01*
X-941029Y5365763D01*
X-942552Y5364239D01*
X-950259D01*
X-951388Y5365369D01*
X-957923Y5368076D01*
X-964997D01*
X-971532Y5365369D01*
X-976533Y5360368D01*
X-979240Y5353833D01*
Y5346759D01*
X-976533Y5340225D01*
X-971532Y5335223D01*
X-964997Y5332516D01*
X-957923D01*
X-951388Y5335223D01*
X-949865Y5336747D01*
X-942159D01*
X-941029Y5335616D01*
X-934494Y5332910D01*
X-927421D01*
X-918957Y5331321D01*
X-916077Y5324908D01*
X-914963Y5322219D01*
X-908031Y5315288D01*
X-898975Y5311536D01*
X-889173D01*
X-880117Y5315288D01*
X-873185Y5322219D01*
X-869434Y5331275D01*
Y5341078D01*
X-873185Y5350134D01*
X-880117Y5357065D01*
X-889173Y5360817D01*
X-898975D01*
X-901694Y5359690D01*
X-915885Y5360761D01*
X-920886Y5365763D01*
X-927421Y5368470D01*
D02*
G37*
G36*
X998034Y5364677D02*
X990961D01*
X984426Y5361970D01*
X982903Y5360446D01*
X975196D01*
X974067Y5361576D01*
X967532Y5364283D01*
X960458D01*
X953923Y5361576D01*
X948922Y5356575D01*
X946215Y5350040D01*
Y5342966D01*
X948922Y5336432D01*
X953923Y5331430D01*
X960458Y5328723D01*
X967532D01*
X974067Y5331430D01*
X975590Y5332954D01*
X983296D01*
X984426Y5331823D01*
X990961Y5329117D01*
X998034D01*
X1004569Y5331823D01*
X1009571Y5336825D01*
X1012278Y5343360D01*
Y5350433D01*
X1009571Y5356968D01*
X1004569Y5361970D01*
X998034Y5364677D01*
D02*
G37*
G36*
X459792D02*
X452718D01*
X446183Y5361970D01*
X444660Y5360446D01*
X436954D01*
X435824Y5361576D01*
X429289Y5364283D01*
X422216D01*
X415681Y5361576D01*
X410679Y5356575D01*
X407972Y5350040D01*
Y5342966D01*
X410679Y5336432D01*
X415681Y5331430D01*
X422216Y5328723D01*
X429289D01*
X435824Y5331430D01*
X437347Y5332954D01*
X445053D01*
X446183Y5331823D01*
X452718Y5329117D01*
X459792D01*
X466326Y5331823D01*
X471328Y5336825D01*
X474035Y5343360D01*
Y5350433D01*
X471328Y5356968D01*
X466326Y5361970D01*
X459792Y5364677D01*
D02*
G37*
G36*
X701886Y5378960D02*
X695114D01*
X688859Y5376369D01*
X684071Y5371581D01*
X681480Y5365326D01*
Y5358554D01*
X684071Y5352299D01*
X688859Y5347511D01*
X695114Y5344920D01*
X701886D01*
X708141Y5347511D01*
X712929Y5352299D01*
X715520Y5358554D01*
Y5365326D01*
X712929Y5371581D01*
X708141Y5376369D01*
X701886Y5378960D01*
D02*
G37*
G36*
X866986Y5371340D02*
X860214D01*
X853959Y5368749D01*
X849171Y5363961D01*
X846580Y5357706D01*
Y5350934D01*
X849171Y5344679D01*
X853959Y5339891D01*
X860214Y5337300D01*
X866986D01*
X873241Y5339891D01*
X878029Y5344679D01*
X880620Y5350934D01*
Y5357706D01*
X878029Y5363961D01*
X873241Y5368749D01*
X866986Y5371340D01*
D02*
G37*
G36*
X160827Y5360817D02*
X151025D01*
X141968Y5357065D01*
X135037Y5350134D01*
X131286Y5341078D01*
Y5331275D01*
X135037Y5322219D01*
X141968Y5315288D01*
X151025Y5311536D01*
X160827D01*
X169883Y5315288D01*
X176814Y5322219D01*
X180566Y5331275D01*
Y5341078D01*
X176814Y5350134D01*
X169883Y5357065D01*
X160827Y5360817D01*
D02*
G37*
G36*
X-289173D02*
X-298975D01*
X-308031Y5357065D01*
X-314963Y5350134D01*
X-318714Y5341078D01*
Y5331275D01*
X-314963Y5322219D01*
X-308031Y5315288D01*
X-298975Y5311536D01*
X-289173D01*
X-280117Y5315288D01*
X-273185Y5322219D01*
X-269434Y5331275D01*
Y5341078D01*
X-273185Y5350134D01*
X-280117Y5357065D01*
X-289173Y5360817D01*
D02*
G37*
G36*
X-589173D02*
X-598975D01*
X-608031Y5357065D01*
X-614963Y5350134D01*
X-618714Y5341078D01*
Y5331275D01*
X-614963Y5322219D01*
X-608031Y5315288D01*
X-598975Y5311536D01*
X-589173D01*
X-580117Y5315288D01*
X-573185Y5322219D01*
X-569434Y5331275D01*
Y5341078D01*
X-573185Y5350134D01*
X-580117Y5357065D01*
X-589173Y5360817D01*
D02*
G37*
G36*
X-228677Y5314365D02*
X-235448D01*
X-241703Y5311774D01*
X-246491Y5306986D01*
X-249082Y5300730D01*
Y5293959D01*
X-246491Y5287704D01*
X-241703Y5282916D01*
X-235448Y5280325D01*
X-228677D01*
X-222421Y5282916D01*
X-217633Y5287704D01*
X-215042Y5293959D01*
Y5300730D01*
X-217633Y5306986D01*
X-222421Y5311774D01*
X-228677Y5314365D01*
D02*
G37*
G36*
X-502977Y5313282D02*
X-509748D01*
X-516003Y5310691D01*
X-520791Y5305903D01*
X-523382Y5299647D01*
Y5292876D01*
X-520791Y5286621D01*
X-516003Y5281833D01*
X-509748Y5279242D01*
X-502977D01*
X-496721Y5281833D01*
X-491933Y5286621D01*
X-489342Y5292876D01*
Y5299647D01*
X-491933Y5305903D01*
X-496721Y5310691D01*
X-502977Y5313282D01*
D02*
G37*
G36*
X-777291Y5312686D02*
X-784062D01*
X-790318Y5310095D01*
X-795106Y5305307D01*
X-797697Y5299052D01*
Y5292281D01*
X-795106Y5286025D01*
X-790318Y5281237D01*
X-784062Y5278646D01*
X-777291D01*
X-771036Y5281237D01*
X-766248Y5286025D01*
X-763657Y5292281D01*
Y5299052D01*
X-766248Y5305307D01*
X-771036Y5310095D01*
X-777291Y5312686D01*
D02*
G37*
G36*
X788246Y5312316D02*
X781474D01*
X775219Y5309725D01*
X770431Y5304937D01*
X767840Y5298681D01*
Y5291910D01*
X770431Y5285655D01*
X775219Y5280867D01*
X781474Y5278276D01*
X788246D01*
X794501Y5280867D01*
X799289Y5285655D01*
X801880Y5291910D01*
Y5298681D01*
X799289Y5304937D01*
X794501Y5309725D01*
X788246Y5312316D01*
D02*
G37*
G36*
X514827D02*
X508056D01*
X501800Y5309725D01*
X497012Y5304937D01*
X494421Y5298681D01*
Y5291910D01*
X497012Y5285655D01*
X501800Y5280867D01*
X508056Y5278276D01*
X514827D01*
X521082Y5280867D01*
X525870Y5285655D01*
X528461Y5291910D01*
Y5298681D01*
X525870Y5304937D01*
X521082Y5309725D01*
X514827Y5312316D01*
D02*
G37*
G36*
X240849D02*
X234078D01*
X227823Y5309725D01*
X223035Y5304937D01*
X220444Y5298681D01*
Y5291910D01*
X223035Y5285655D01*
X227823Y5280867D01*
X234078Y5278276D01*
X240849D01*
X247105Y5280867D01*
X251893Y5285655D01*
X254484Y5291910D01*
Y5298681D01*
X251893Y5304937D01*
X247105Y5309725D01*
X240849Y5312316D01*
D02*
G37*
G36*
X1053072Y5308720D02*
X1046301D01*
X1040046Y5306129D01*
X1035258Y5301341D01*
X1032667Y5295086D01*
Y5288315D01*
X1035258Y5282059D01*
X1040046Y5277271D01*
X1046301Y5274680D01*
X1053072D01*
X1059328Y5277271D01*
X1064116Y5282059D01*
X1066707Y5288315D01*
Y5295086D01*
X1064116Y5301341D01*
X1059328Y5306129D01*
X1053072Y5308720D01*
D02*
G37*
G36*
X-862754Y5267200D02*
X-869526D01*
X-875781Y5264609D01*
X-880569Y5259821D01*
X-883160Y5253566D01*
Y5246794D01*
X-880569Y5240539D01*
X-875781Y5235751D01*
X-869526Y5233160D01*
X-862754D01*
X-856499Y5235751D01*
X-851711Y5240539D01*
X-849120Y5246794D01*
Y5253566D01*
X-851711Y5259821D01*
X-856499Y5264609D01*
X-862754Y5267200D01*
D02*
G37*
G36*
X1723242Y5474650D02*
X1714147D01*
X1705745Y5471170D01*
X1702666Y5468091D01*
X1696446Y5466204D01*
X1695170Y5466078D01*
X1690669Y5467943D01*
X1681574D01*
X1673172Y5464462D01*
X1666742Y5458032D01*
X1663262Y5449630D01*
Y5440535D01*
X1666742Y5432133D01*
X1673172Y5425703D01*
X1681574Y5422223D01*
X1690669D01*
X1699071Y5425703D01*
X1701201Y5427833D01*
X1711074Y5430204D01*
X1714147Y5428930D01*
X1723242D01*
X1731644Y5432411D01*
X1738074Y5438841D01*
X1741555Y5447243D01*
Y5456337D01*
X1738074Y5464739D01*
X1731644Y5471170D01*
X1723242Y5474650D01*
D02*
G37*
G36*
X1798040Y5527432D02*
X1783042D01*
X1769186Y5521692D01*
X1758580Y5511087D01*
X1752841Y5497231D01*
Y5482233D01*
X1758580Y5468376D01*
X1769186Y5457771D01*
X1783042Y5452032D01*
X1798040D01*
X1811896Y5457771D01*
X1822502Y5468376D01*
X1828241Y5482233D01*
Y5497231D01*
X1822502Y5511087D01*
X1811896Y5521692D01*
X1798040Y5527432D01*
D02*
G37*
G36*
X3108780Y5774948D02*
X3108303Y5774750D01*
X3078625D01*
X3078624Y5774750D01*
X3068903Y5770724D01*
X3068902Y5770722D01*
X3068708Y5770528D01*
X3068707Y5770527D01*
X3068182Y5769259D01*
X3065515Y5762820D01*
X3064689Y5760829D01*
X3064680Y5760807D01*
X3068707Y5751086D01*
X3070710Y5750256D01*
X3078427Y5747060D01*
X3078903Y5747257D01*
X3108582D01*
X3108583Y5747256D01*
X3108649Y5747284D01*
X3118303Y5751283D01*
X3118499Y5751478D01*
X3118501Y5751479D01*
X3119029Y5752757D01*
X3121693Y5759187D01*
X3122527Y5761200D01*
X3118501Y5770921D01*
X3108780Y5774948D01*
D02*
G37*
G36*
X3407280Y5774448D02*
X3406803Y5774250D01*
X3377125D01*
X3377124Y5774251D01*
X3367403Y5770224D01*
X3367402Y5770222D01*
X3367208Y5770028D01*
X3367207Y5770028D01*
X3366682Y5768759D01*
X3364015Y5762320D01*
X3363189Y5760329D01*
X3363180Y5760307D01*
X3367207Y5750586D01*
X3376927Y5746559D01*
X3377403Y5746757D01*
X3407082D01*
X3407083Y5746756D01*
X3407149Y5746784D01*
X3416803Y5750783D01*
X3416999Y5750979D01*
X3417001Y5750979D01*
X3417529Y5752257D01*
X3420193Y5758687D01*
X3421027Y5760700D01*
X3417001Y5770421D01*
X3407280Y5774448D01*
D02*
G37*
G36*
X4323080Y5139885D02*
Y5105401D01*
X4344037D01*
X4341875Y5116267D01*
X4328526Y5136247D01*
X4323080Y5139885D01*
D02*
G37*
G36*
X4284980Y5154284D02*
X4261413Y5149596D01*
X4241434Y5136247D01*
X4228085Y5116267D01*
X4225923Y5105401D01*
X4297680D01*
Y5151758D01*
X4284980Y5154284D01*
D02*
G37*
G36*
X4157980Y5136155D02*
X4141351Y5132847D01*
X4127253Y5123427D01*
X4117833Y5109329D01*
X4114525Y5092700D01*
X4117833Y5076071D01*
X4127253Y5061973D01*
X4141351Y5052553D01*
X4157980Y5049245D01*
X4174610Y5052553D01*
X4188707Y5061973D01*
X4198127Y5076071D01*
X4201435Y5092700D01*
X4198127Y5109329D01*
X4188707Y5123427D01*
X4174610Y5132847D01*
X4157980Y5136155D01*
D02*
G37*
G36*
X4344037Y5080001D02*
X4323080D01*
Y5045516D01*
X4328526Y5049154D01*
X4341875Y5069134D01*
X4344037Y5080001D01*
D02*
G37*
G36*
X4297680D02*
X4225923D01*
X4228085Y5069134D01*
X4241434Y5049154D01*
X4261413Y5035805D01*
X4284980Y5031117D01*
X4297680Y5033643D01*
Y5080001D01*
D02*
G37*
G36*
X4284980Y5009155D02*
X4268351Y5005847D01*
X4254253Y4996427D01*
X4244833Y4982330D01*
X4241525Y4965700D01*
X4244833Y4949071D01*
X4254253Y4934973D01*
X4268351Y4925553D01*
X4284980Y4922245D01*
X4301609Y4925553D01*
X4315707Y4934973D01*
X4325127Y4949071D01*
X4328435Y4965700D01*
X4325127Y4982330D01*
X4315707Y4996427D01*
X4301609Y5005847D01*
X4284980Y5009155D01*
D02*
G37*
G36*
X4157980D02*
X4141351Y5005847D01*
X4127253Y4996427D01*
X4117833Y4982330D01*
X4114525Y4965700D01*
X4117833Y4949071D01*
X4127253Y4934973D01*
X4141351Y4925553D01*
X4157980Y4922245D01*
X4174609Y4925553D01*
X4188707Y4934973D01*
X4198127Y4949071D01*
X4201435Y4965700D01*
X4198127Y4982330D01*
X4188707Y4996427D01*
X4174609Y5005847D01*
X4157980Y5009155D01*
D02*
G37*
G36*
X2829740Y4915947D02*
X2829264Y4915750D01*
X2799585D01*
X2799584Y4915750D01*
X2789863Y4911724D01*
X2789862Y4911722D01*
X2789669Y4911528D01*
X2789667Y4911527D01*
X2789142Y4910259D01*
X2786475Y4903820D01*
X2785649Y4901829D01*
X2785640Y4901807D01*
X2789667Y4892086D01*
X2791671Y4891256D01*
X2799388Y4888060D01*
X2799863Y4888257D01*
X2829542D01*
X2829543Y4888256D01*
X2829609Y4888284D01*
X2839264Y4892283D01*
X2839459Y4892478D01*
X2839461Y4892479D01*
X2839989Y4893757D01*
X2842653Y4900187D01*
X2843487Y4902200D01*
X2839461Y4911921D01*
X2829740Y4915947D01*
D02*
G37*
G36*
X2534740D02*
X2534263Y4915750D01*
X2504585D01*
X2504584Y4915750D01*
X2494863Y4911724D01*
X2494862Y4911722D01*
X2494668Y4911528D01*
X2494667Y4911527D01*
X2494142Y4910259D01*
X2491475Y4903820D01*
X2490649Y4901829D01*
X2490640Y4901807D01*
X2494667Y4892086D01*
X2496670Y4891256D01*
X2504387Y4888060D01*
X2504863Y4888257D01*
X2534542D01*
X2534543Y4888256D01*
X2534609Y4888284D01*
X2544263Y4892283D01*
X2544459Y4892478D01*
X2544461Y4892479D01*
X2544989Y4893757D01*
X2547653Y4900187D01*
X2548487Y4902200D01*
X2544461Y4911921D01*
X2534740Y4915947D01*
D02*
G37*
G36*
X4323079Y4885886D02*
Y4851400D01*
X4344037D01*
X4341875Y4862267D01*
X4328526Y4882246D01*
X4323079Y4885886D01*
D02*
G37*
G36*
X4284980Y4900284D02*
X4261413Y4895596D01*
X4241434Y4882246D01*
X4228085Y4862267D01*
X4225923Y4851400D01*
X4297679D01*
Y4897758D01*
X4284980Y4900284D01*
D02*
G37*
G36*
X4157980Y4882155D02*
X4141351Y4878847D01*
X4127253Y4869427D01*
X4117833Y4855330D01*
X4114525Y4838700D01*
X4117833Y4822071D01*
X4127253Y4807973D01*
X4141351Y4798553D01*
X4157980Y4795245D01*
X4174609Y4798553D01*
X4188707Y4807973D01*
X4198127Y4822071D01*
X4201435Y4838700D01*
X4198127Y4855330D01*
X4188707Y4869427D01*
X4174609Y4878847D01*
X4157980Y4882155D01*
D02*
G37*
G36*
X4344037Y4826000D02*
X4310379D01*
X4225923D01*
X4228085Y4815133D01*
X4241434Y4795154D01*
X4261413Y4781805D01*
X4262068Y4781674D01*
Y4768726D01*
X4261413Y4768595D01*
X4241434Y4755246D01*
X4228085Y4735267D01*
X4225923Y4724400D01*
X4310380D01*
X4344037D01*
X4341875Y4735267D01*
X4328526Y4755246D01*
X4308547Y4768595D01*
X4307892Y4768726D01*
Y4781674D01*
X4308547Y4781805D01*
X4328526Y4795154D01*
X4341875Y4815133D01*
X4344037Y4826000D01*
D02*
G37*
G36*
X4157980Y4755155D02*
X4141351Y4751847D01*
X4127253Y4742428D01*
X4117833Y4728330D01*
X4114525Y4711701D01*
X4117833Y4695071D01*
X4127253Y4680973D01*
X4141351Y4671554D01*
X4157980Y4668246D01*
X4174610Y4671554D01*
X4188707Y4680973D01*
X4198127Y4695071D01*
X4201435Y4711701D01*
X4198127Y4728330D01*
X4188707Y4742428D01*
X4174610Y4751847D01*
X4157980Y4755155D01*
D02*
G37*
G36*
X4344037Y4699000D02*
X4323080D01*
Y4664515D01*
X4328526Y4668154D01*
X4341875Y4688133D01*
X4344037Y4699000D01*
D02*
G37*
G36*
X4297680D02*
X4225923D01*
X4228085Y4688133D01*
X4241434Y4668154D01*
X4261413Y4654805D01*
X4284980Y4650117D01*
X4297680Y4652643D01*
Y4699000D01*
D02*
G37*
G36*
X2857500Y4591894D02*
X2850859Y4590572D01*
X2845229Y4586811D01*
X2841468Y4581181D01*
X2840146Y4574540D01*
X2841468Y4567899D01*
X2845229Y4562269D01*
X2850859Y4558508D01*
X2857500Y4557186D01*
X2864141Y4558508D01*
X2869771Y4562269D01*
X2873532Y4567899D01*
X2874854Y4574540D01*
X2873532Y4581181D01*
X2869771Y4586811D01*
X2864141Y4590572D01*
X2857500Y4591894D01*
D02*
G37*
G36*
X4284980Y4628155D02*
X4268351Y4624847D01*
X4254253Y4615427D01*
X4244833Y4601330D01*
X4241525Y4584700D01*
X4244833Y4568071D01*
X4254253Y4553973D01*
X4268351Y4544553D01*
X4284980Y4541245D01*
X4301609Y4544553D01*
X4315707Y4553973D01*
X4325127Y4568071D01*
X4328435Y4584700D01*
X4325127Y4601330D01*
X4315707Y4615427D01*
X4301609Y4624847D01*
X4284980Y4628155D01*
D02*
G37*
G36*
X4157980D02*
X4141351Y4624847D01*
X4127253Y4615427D01*
X4117833Y4601330D01*
X4114525Y4584700D01*
X4117833Y4568071D01*
X4127253Y4553973D01*
X4141351Y4544553D01*
X4157980Y4541245D01*
X4174610Y4544553D01*
X4188707Y4553973D01*
X4198127Y4568071D01*
X4201435Y4584700D01*
X4198127Y4601330D01*
X4188707Y4615427D01*
X4174610Y4624847D01*
X4157980Y4628155D01*
D02*
G37*
G36*
X2612868Y4419853D02*
X2606227Y4418532D01*
X2600598Y4414771D01*
X2596836Y4409141D01*
X2595515Y4402500D01*
X2596836Y4395859D01*
X2600598Y4390229D01*
X2606227Y4386467D01*
X2612868Y4385146D01*
X2619509Y4386467D01*
X2625139Y4390229D01*
X2628901Y4395859D01*
X2630222Y4402500D01*
X2628901Y4409141D01*
X2625139Y4414771D01*
X2619509Y4418532D01*
X2612868Y4419853D01*
D02*
G37*
G36*
X1515163Y4010430D02*
X1505442Y4006403D01*
X1501415Y3996683D01*
X1501469Y3996554D01*
X1505442Y3986962D01*
X1505444Y3986961D01*
X1505539Y3986866D01*
X1505540Y3986864D01*
X1515261Y3982837D01*
X1515262Y3982838D01*
X1545334D01*
X1546586Y3982319D01*
X1556306Y3986346D01*
X1560333Y3996066D01*
X1560321Y3996092D01*
X1556615Y4005040D01*
X1556306Y4005787D01*
X1556304Y4005788D01*
X1555789Y4006303D01*
X1555788Y4006305D01*
X1546067Y4010332D01*
X1546066Y4010331D01*
X1515401D01*
X1515163Y4010430D01*
D02*
G37*
G36*
X3906520Y3786333D02*
X3899879Y3785011D01*
X3894249Y3781250D01*
X3890488Y3775620D01*
X3889166Y3768979D01*
X3890488Y3762338D01*
X3894249Y3756708D01*
X3899879Y3752947D01*
X3906520Y3751625D01*
X3913161Y3752947D01*
X3918791Y3756708D01*
X3922552Y3762338D01*
X3923874Y3768979D01*
X3922552Y3775620D01*
X3918791Y3781250D01*
X3913161Y3785011D01*
X3906520Y3786333D01*
D02*
G37*
G36*
X3406280Y3738228D02*
X3405803Y3738031D01*
X3376125D01*
X3376124Y3738031D01*
X3366403Y3734005D01*
X3366402Y3734003D01*
X3366208Y3733809D01*
X3366207Y3733808D01*
X3365682Y3732540D01*
X3363015Y3726101D01*
X3362189Y3724110D01*
X3362180Y3724088D01*
X3366207Y3714367D01*
X3368210Y3713537D01*
X3375927Y3710341D01*
X3376403Y3710538D01*
X3406082D01*
X3406083Y3710537D01*
X3406149Y3710565D01*
X3415803Y3714564D01*
X3415999Y3714759D01*
X3416001Y3714760D01*
X3416529Y3716038D01*
X3419193Y3722468D01*
X3420027Y3724481D01*
X3416001Y3734202D01*
X3406280Y3738228D01*
D02*
G37*
G36*
X3105280Y3729762D02*
X3104804Y3729564D01*
X3075125D01*
X3075124Y3729565D01*
X3065403Y3725539D01*
X3065402Y3725536D01*
X3065208Y3725343D01*
X3065207Y3725342D01*
X3064682Y3724074D01*
X3062015Y3717634D01*
X3061189Y3715643D01*
X3061180Y3715621D01*
X3065207Y3705901D01*
X3067211Y3705071D01*
X3074928Y3701874D01*
X3075403Y3702071D01*
X3105082D01*
X3105083Y3702070D01*
X3105149Y3702098D01*
X3114804Y3706097D01*
X3114999Y3706293D01*
X3115001Y3706294D01*
X3115529Y3707571D01*
X3118193Y3714002D01*
X3119027Y3716015D01*
X3115001Y3725735D01*
X3105280Y3729762D01*
D02*
G37*
G36*
X3358726Y1182880D02*
X3351954D01*
X3345699Y1180289D01*
X3340911Y1175501D01*
X3338320Y1169246D01*
Y1162474D01*
X3340911Y1156219D01*
X3345699Y1151431D01*
X3351954Y1148840D01*
X3358726D01*
X3364981Y1151431D01*
X3369769Y1156219D01*
X3372360Y1162474D01*
Y1169246D01*
X3369769Y1175501D01*
X3364981Y1180289D01*
X3358726Y1182880D01*
D02*
G37*
G36*
X3865498Y1168301D02*
X3858727D01*
X3852472Y1165710D01*
X3847684Y1160922D01*
X3845093Y1154666D01*
Y1147895D01*
X3847684Y1141640D01*
X3852472Y1136852D01*
X3858727Y1134261D01*
X3865498D01*
X3871754Y1136852D01*
X3876542Y1141640D01*
X3879133Y1147895D01*
Y1154666D01*
X3876542Y1160922D01*
X3871754Y1165710D01*
X3865498Y1168301D01*
D02*
G37*
G36*
Y1118301D02*
X3858727D01*
X3852472Y1115710D01*
X3847684Y1110922D01*
X3845093Y1104666D01*
Y1097895D01*
X3847684Y1091640D01*
X3852472Y1086852D01*
X3858727Y1084261D01*
X3865498D01*
X3871754Y1086852D01*
X3876542Y1091640D01*
X3879133Y1097895D01*
Y1104666D01*
X3876542Y1110922D01*
X3871754Y1115710D01*
X3865498Y1118301D01*
D02*
G37*
G36*
X3359024Y1104140D02*
X3352253D01*
X3345998Y1101549D01*
X3341210Y1096761D01*
X3338619Y1090506D01*
Y1083734D01*
X3341210Y1077479D01*
X3345998Y1072691D01*
X3352253Y1070100D01*
X3359024D01*
X3365280Y1072691D01*
X3370068Y1077479D01*
X3372659Y1083734D01*
Y1090506D01*
X3370068Y1096761D01*
X3365280Y1101549D01*
X3359024Y1104140D01*
D02*
G37*
%LPD*%
D113*
X960000Y1810000D02*
X960051Y1809949D01*
X998169D01*
X998220Y1809898D01*
X1120000Y1810000D02*
X1120333Y1810334D01*
X1152440D01*
X1152774Y1810667D01*
X444216Y2552871D02*
X444744Y2552343D01*
X413804Y2552871D02*
X444216D01*
X413276Y2553399D02*
X413804Y2552871D01*
X916940Y3732859D02*
Y3733800D01*
Y3732859D02*
X939800Y3710000D01*
X1546067Y3996584D02*
X1546586Y3996066D01*
X458940Y1465223D02*
X459287Y1465570D01*
X-89060Y1277314D02*
Y1280214D01*
X1515261Y3996584D02*
X1546067D01*
X1515163Y3996683D02*
X1515261Y3996584D01*
X1715301Y2203544D02*
X1717391Y2201454D01*
X1748546D01*
X1750197Y2199803D01*
X1606290Y1611850D02*
X1606815Y1612375D01*
X1639384D02*
X1639909Y1612900D01*
X1606815Y1612375D02*
X1639384D01*
X273563Y1812643D02*
X307340D01*
X363318Y2411093D02*
X396620D01*
X363177Y2410952D02*
X363318Y2411093D01*
X396620D02*
X396761Y2411234D01*
X-282369Y1255046D02*
X-282346Y1255023D01*
X-242523D01*
X-242500Y1255000D01*
X-242697Y1304803D02*
X-242500Y1305000D01*
X-272853Y1304606D02*
X-272656Y1304803D01*
X-242697D01*
X1952117Y2327236D02*
X1974075D01*
X1979359Y2321952D02*
X1982108D01*
X1950173Y2329180D02*
X1952117Y2327236D01*
X1974075D02*
X1979359Y2321952D01*
X1884426Y2327035D02*
X1885597Y2328206D01*
X1916726D02*
X1917897Y2329377D01*
X1885597Y2328206D02*
X1916726D01*
X1134894Y2454902D02*
X1135249D01*
X1110755Y2479040D02*
X1134894Y2454902D01*
X1110400Y2479040D02*
X1110755D01*
X3407083Y5760503D02*
X3407280Y5760700D01*
X3377124Y5760503D02*
X3407083D01*
X3376927Y5760307D02*
X3377124Y5760503D01*
X3108583Y5761003D02*
X3108780Y5761200D01*
X3078624Y5761003D02*
X3108583D01*
X3078427Y5760807D02*
X3078624Y5761003D01*
X2534543Y4902003D02*
X2534740Y4902200D01*
X2504584Y4902003D02*
X2534543D01*
X2504387Y4901807D02*
X2504584Y4902003D01*
X2829543D02*
X2829740Y4902200D01*
X2799584Y4902003D02*
X2829543D01*
X2799388Y4901807D02*
X2799584Y4902003D01*
X3406083Y3724284D02*
X3406280Y3724481D01*
X3376124Y3724284D02*
X3406083D01*
X3375927Y3724088D02*
X3376124Y3724284D01*
X3105083Y3715818D02*
X3105280Y3716015D01*
X3075124Y3715818D02*
X3105083D01*
X3074928Y3715621D02*
X3075124Y3715818D01*
X3414807Y2714047D02*
X3415004Y2714244D01*
X3444963D01*
X3445160Y2714441D01*
X2894808Y2714047D02*
X2895004Y2714244D01*
X2924963D01*
X2925160Y2714441D01*
X3590283Y1462843D02*
X3590480Y1463040D01*
X3560324Y1462843D02*
X3590283D01*
X3560128Y1462647D02*
X3560324Y1462843D01*
X4360983Y1775323D02*
X4361180Y1775520D01*
X4331024Y1775323D02*
X4360983D01*
X4330828Y1775126D02*
X4331024Y1775323D01*
X3910640Y2014180D02*
X3910837Y2013983D01*
X3940796D01*
X3940992Y2013787D01*
X3730640Y1296300D02*
X3730837Y1296103D01*
X3760796D01*
X3760992Y1295906D01*
X3240716Y1370277D02*
X3240912Y1370474D01*
X3210757Y1370277D02*
X3240716D01*
X3210560Y1370080D02*
X3210757Y1370277D01*
X3021070Y1272090D02*
X3021267Y1272287D01*
X3051226D01*
X3051422Y1272483D01*
X2870873Y1272287D02*
X2871070Y1272090D01*
X2840914Y1272287D02*
X2870873D01*
X2840717Y1272483D02*
X2840914Y1272287D01*
X2670873D02*
X2671070Y1272090D01*
X2640914Y1272287D02*
X2670873D01*
X2640718Y1272483D02*
X2640914Y1272287D01*
X2846070Y1026980D02*
X2846267Y1027177D01*
X2876226D01*
X2876422Y1027373D01*
X2683770Y1189280D02*
X2683967Y1189477D01*
X2713926D01*
X2714123Y1189673D01*
X3008370Y1189280D02*
X3008567Y1189477D01*
X3038526D01*
X3038722Y1189673D01*
X3008370Y864680D02*
X3008567Y864877D01*
X3038526D01*
X3038722Y865073D01*
X2683770Y864680D02*
X2683967Y864877D01*
X2713926D01*
X2714123Y865073D01*
X2821070Y781870D02*
X2821267Y782067D01*
X2851226D01*
X2851423Y782263D01*
X3905560Y-328620D02*
X3905757Y-328423D01*
X3935716D01*
X3935912Y-328227D01*
X2545716Y-328817D02*
X2545913Y-329014D01*
X2515757Y-328817D02*
X2545716D01*
X2515560Y-328620D02*
X2515757Y-328817D01*
X3959536Y1445906D02*
X3959732Y1445710D01*
X3929577Y1445906D02*
X3959536D01*
X3929380Y1446103D02*
X3929577Y1445906D01*
X3840072Y1445907D02*
X3840269Y1446103D01*
X3870228D01*
X3870425Y1446300D01*
X3758876Y1432303D02*
X3759072Y1432107D01*
X3728917Y1432303D02*
X3758876D01*
X3728720Y1432500D02*
X3728917Y1432303D01*
X3695828Y803093D02*
X3696024Y802897D01*
X3725983D01*
X3726180Y802700D01*
X3850768Y806890D02*
X3850964Y806694D01*
X3880923D01*
X3881120Y806497D01*
X3962076D02*
X3962272Y806693D01*
X3932117Y806497D02*
X3962076D01*
X3931920Y806300D02*
X3932117Y806497D01*
X349648Y4409447D02*
X349845Y4409250D01*
X379804D01*
X380001Y4409053D01*
X-73064Y1296210D02*
Y1313460D01*
X-89060Y1280214D02*
X-73064Y1296210D01*
Y1313460D02*
X-71120Y1315404D01*
X-651415Y1917183D02*
X-641058Y1906827D01*
X-651022Y1877577D02*
X-641058Y1867613D01*
X860259Y967461D02*
X860456Y967658D01*
X830300Y967461D02*
X860259D01*
X830103Y967265D02*
X830300Y967461D01*
X79064Y3076137D02*
X79261Y3075940D01*
X109220D01*
X109417Y3075743D01*
X307664Y3076137D02*
X307861Y3075940D01*
X337820D01*
X338017Y3075743D01*
X302584Y3276797D02*
X302781Y3276600D01*
X332740D01*
X332937Y3276403D01*
X141719Y3276600D02*
X141916Y3276797D01*
X111760Y3276600D02*
X141719D01*
X111563Y3276403D02*
X111760Y3276600D01*
X428739Y4099560D02*
X428936Y4099757D01*
X398780Y4099560D02*
X428739D01*
X398583Y4099363D02*
X398780Y4099560D01*
X197599Y4102100D02*
X197796Y4102297D01*
X167640Y4102100D02*
X197599D01*
X167443Y4101903D02*
X167640Y4102100D01*
X426199Y4335780D02*
X426396Y4335977D01*
X396240Y4335780D02*
X426199D01*
X396043Y4335583D02*
X396240Y4335780D01*
X197599Y4333240D02*
X197796Y4333437D01*
X167640Y4333240D02*
X197599D01*
X167443Y4333043D02*
X167640Y4333240D01*
X-434861Y2402840D02*
X-434664Y2403037D01*
X-464820Y2402840D02*
X-434861D01*
X-465017Y2402643D02*
X-464820Y2402840D01*
X-434861Y2456180D02*
X-434664Y2455983D01*
X-464820Y2456180D02*
X-434861D01*
X-465017Y2456377D02*
X-464820Y2456180D01*
X195624Y294277D02*
X195821Y294080D01*
X225780D01*
X225977Y293883D01*
X-43377D02*
X-43180Y294080D01*
X-13221D01*
X-13024Y294277D01*
X-590081Y951640D02*
X-589884Y951837D01*
X-620040Y951640D02*
X-590081D01*
X-620237Y951443D02*
X-620040Y951640D01*
X945001Y1691681D02*
X945198Y1691878D01*
X975157D01*
X975354Y1692075D01*
X1151324Y2726162D02*
X1181283D01*
X-66364Y2409988D02*
X-66167Y2410184D01*
X-36208D01*
X-36011Y2410381D01*
X429013Y1465223D02*
X458940D01*
X428788Y1464998D02*
X429013Y1465223D01*
X-443094Y1482372D02*
X-442822Y1482644D01*
X-410919D01*
X-410647Y1482916D01*
X792960Y3161254D02*
X793157Y3161057D01*
X823116D01*
X823313Y3160861D01*
X-683063Y1877577D02*
X-651022D01*
X-752216Y1934683D02*
X-722257D01*
X-641405Y1907023D02*
X-641208Y1906827D01*
X-683260Y1917380D02*
X-683063Y1917183D01*
X-752413Y1934486D02*
X-752216Y1934683D01*
X-641405Y1867417D02*
X-641208Y1867613D01*
X-683063Y1917183D02*
X-651415D01*
X-722257Y1934683D02*
X-722060Y1934880D01*
X-683260Y1877380D02*
X-683063Y1877577D01*
X1446885Y1662999D02*
X1447587Y1662298D01*
X1417541Y1662999D02*
X1446885D01*
X1416840Y1663700D02*
X1417541Y1662999D01*
X1027262Y4306197D02*
X1027459Y4306393D01*
X997303Y4306197D02*
X1027262D01*
X997106Y4306000D02*
X997303Y4306197D01*
X919762Y4305197D02*
X919959Y4305393D01*
X889803Y4305197D02*
X919762D01*
X889606Y4305000D02*
X889803Y4305197D01*
X810410Y4305000D02*
X810607Y4305197D01*
X840566D01*
X840763Y4305393D01*
X1754422Y3489763D02*
X1754619Y3489567D01*
X1724463Y3489763D02*
X1754422D01*
X1724266Y3489960D02*
X1724463Y3489763D01*
X1646441Y3489567D02*
X1646638Y3489763D01*
X1676597D01*
X1676794Y3489960D01*
X1565027Y3876978D02*
X1565223Y3877174D01*
X1535068Y3876978D02*
X1565027D01*
X1534871Y3876781D02*
X1535068Y3876978D01*
X1525022Y3946424D02*
X1525218Y3946227D01*
X1495063Y3946424D02*
X1525022D01*
X1494866Y3946621D02*
X1495063Y3946424D01*
X753807Y3308360D02*
X754004Y3308557D01*
X783963D01*
X784160Y3308754D01*
X853116Y3289796D02*
X853312Y3289599D01*
X823157Y3289796D02*
X853116D01*
X822960Y3289992D02*
X823157Y3289796D01*
X853116Y3251451D02*
X853312Y3251648D01*
X823157Y3251451D02*
X853116D01*
X822960Y3251254D02*
X823157Y3251451D01*
X1146308Y2920773D02*
X1146504Y2920577D01*
X1176463D01*
X1176660Y2920380D01*
X459786Y1421778D02*
X459884Y1421877D01*
X428419Y1421778D02*
X459786D01*
X428320Y1421680D02*
X428419Y1421778D01*
X531070Y1360332D02*
X531541Y1360803D01*
X500347Y1360332D02*
X531070D01*
X499876Y1359860D02*
X500347Y1360332D01*
X92867Y3010000D02*
X93064Y3009803D01*
X123023D01*
X123219Y3009607D01*
X-281812Y2971553D02*
X-281616Y2971357D01*
X-251657D01*
X-251460Y2971160D01*
X-308704Y2410417D02*
X-308508Y2410613D01*
X-338663Y2410417D02*
X-308704D01*
X-338860Y2410220D02*
X-338663Y2410417D01*
X-433617Y2784523D02*
X-433420Y2784326D01*
X-463576Y2784523D02*
X-433617D01*
X-463773Y2784720D02*
X-463576Y2784523D01*
X-1614164Y3605397D02*
X-1613968Y3605593D01*
X-1644123Y3605397D02*
X-1614164D01*
X-1644320Y3605200D02*
X-1644123Y3605397D01*
X-1474672Y3605593D02*
X-1474476Y3605397D01*
X-1444517D01*
X-1444320Y3605200D01*
X-1474672Y3405593D02*
X-1474476Y3405397D01*
X-1444517D01*
X-1444320Y3405200D01*
X-1614164Y3405397D02*
X-1613968Y3405593D01*
X-1644123Y3405397D02*
X-1614164D01*
X-1644320Y3405200D02*
X-1644123Y3405397D01*
X-1029868Y3096457D02*
X-1029672Y3096653D01*
X-1059827Y3096457D02*
X-1029868D01*
X-1060024Y3096260D02*
X-1059827Y3096457D01*
X-1129868Y3196457D02*
X-1129672Y3196653D01*
X-1159827Y3196457D02*
X-1129868D01*
X-1160024Y3196260D02*
X-1159827Y3196457D01*
X-990376Y3196653D02*
X-990180Y3196457D01*
X-960221D01*
X-960024Y3196260D01*
X-990376Y2996653D02*
X-990180Y2996457D01*
X-960221D01*
X-960024Y2996260D01*
X-1129868Y2996457D02*
X-1129672Y2996653D01*
X-1159827Y2996457D02*
X-1129868D01*
X-1160024Y2996260D02*
X-1159827Y2996457D01*
X-1278877Y3096653D02*
X-1278680Y3096457D01*
X-1248721D01*
X-1248524Y3096260D01*
X-1218368Y3046457D02*
X-1218172Y3046654D01*
X-1248327Y3046457D02*
X-1218368D01*
X-1248524Y3046260D02*
X-1248327Y3046457D01*
X-1325861Y3505200D02*
X-1325664Y3505397D01*
X-1355820Y3505200D02*
X-1325861D01*
X-1356017Y3505003D02*
X-1355820Y3505200D01*
X-1385976Y3555396D02*
X-1385779Y3555200D01*
X-1355820D01*
X-1355623Y3555003D01*
X-1071681Y2816300D02*
X-1071484Y2816497D01*
X-1101640Y2816300D02*
X-1071681D01*
X-1101837Y2816103D02*
X-1101640Y2816300D01*
X-981681Y2746300D02*
X-981484Y2746497D01*
X-1011640Y2746300D02*
X-981681D01*
X-1011837Y2746103D02*
X-1011640Y2746300D01*
X-932701Y2631637D02*
X-932504Y2631440D01*
X-962660Y2631637D02*
X-932701D01*
X-962857Y2631834D02*
X-962660Y2631637D01*
X-1048696Y2631243D02*
X-1048499Y2631440D01*
X-1018540D01*
X-1018343Y2631637D01*
X-1211256Y2632500D02*
X-1211059Y2632697D01*
X-1181100D01*
X-1180903Y2632894D01*
X-1097801Y2632500D02*
X-1097604Y2632303D01*
X-1127760Y2632500D02*
X-1097801D01*
X-1127957Y2632697D02*
X-1127760Y2632500D01*
X-1515041Y2550197D02*
X-1514845Y2550000D01*
X-1545000Y2550197D02*
X-1515041D01*
X-1545197Y2550394D02*
X-1545000Y2550197D01*
X-1632896Y2549803D02*
X-1632699Y2550000D01*
X-1602740D01*
X-1602543Y2550197D01*
X-1261709Y2173617D02*
X-1261513Y2173421D01*
X-1231554D01*
X-1231357Y2173224D01*
X-922360Y1999101D02*
X-922163Y1998904D01*
X-892204D01*
X-892007Y1998707D01*
X-918245Y2078904D02*
X-918048Y2079101D01*
X-948204Y2078904D02*
X-918245D01*
X-948401Y2078707D02*
X-948204Y2078904D01*
X-970212Y1709813D02*
X-970016Y1709617D01*
X-940057D01*
X-939860Y1709420D01*
X-853704Y1775657D02*
X-853508Y1775853D01*
X-883663Y1775657D02*
X-853704D01*
X-883860Y1775460D02*
X-883663Y1775657D01*
X-855048Y1878707D02*
X-854851Y1878511D01*
X-885007Y1878707D02*
X-855048D01*
X-885204Y1878904D02*
X-885007Y1878707D01*
X-1455156Y1814803D02*
X-1454959Y1815000D01*
X-1425000D01*
X-1424803Y1815197D01*
X-1755156Y1859803D02*
X-1754959Y1860000D01*
X-1725000D01*
X-1724803Y1860197D01*
X-1925155Y1910197D02*
X-1924959Y1910000D01*
X-1895000D01*
X-1894803Y1909803D01*
X-1865041Y1860000D02*
X-1864844Y1860197D01*
X-1895000Y1860000D02*
X-1865041D01*
X-1895197Y1859803D02*
X-1895000Y1860000D01*
X-1245041Y1945640D02*
X-1244845Y1945837D01*
X-1275000Y1945640D02*
X-1245041D01*
X-1275197Y1945443D02*
X-1275000Y1945640D01*
X-1245041Y1815000D02*
X-1244845Y1815197D01*
X-1275000Y1815000D02*
X-1245041D01*
X-1275197Y1814803D02*
X-1275000Y1815000D01*
X-1527803Y2065689D02*
X-1527606Y2065492D01*
X-1497647D01*
X-1497450Y2065295D01*
X-1520041Y1943134D02*
X-1519844Y1943331D01*
X-1550000Y1943134D02*
X-1520041D01*
X-1550197Y1942937D02*
X-1550000Y1943134D01*
X-1520041Y1812494D02*
X-1519844Y1812691D01*
X-1550000Y1812494D02*
X-1520041D01*
X-1550197Y1812297D02*
X-1550000Y1812494D01*
X-1516056Y1736997D02*
X-1515859Y1736800D01*
X-1485900D01*
X-1485703Y1736603D01*
X546462Y2728628D02*
X546659Y2728825D01*
X516503Y2728628D02*
X546462D01*
X516306Y2728431D02*
X516503Y2728628D01*
X65447Y2728913D02*
X65644Y2728717D01*
X95603D01*
X95800Y2728520D01*
X10005Y2526437D02*
X10201Y2526634D01*
X-19954Y2526437D02*
X10005D01*
X-20151Y2526240D02*
X-19954Y2526437D01*
X156Y2147697D02*
X353Y2147894D01*
X-29803Y2147697D02*
X156D01*
X-30000Y2147500D02*
X-29803Y2147697D01*
X100156D02*
X100353Y2147894D01*
X70197Y2147697D02*
X100156D01*
X70000Y2147500D02*
X70197Y2147697D01*
X390156Y2150197D02*
X390352Y2150393D01*
X360197Y2150197D02*
X390156D01*
X360000Y2150000D02*
X360197Y2150197D01*
X477656D02*
X477852Y2150393D01*
X447697Y2150197D02*
X477656D01*
X447500Y2150000D02*
X447697Y2150197D01*
X615255Y1719407D02*
X615452Y1719603D01*
X585296Y1719407D02*
X615255D01*
X585099Y1719210D02*
X585296Y1719407D01*
X1155014Y2304260D02*
X1184259D01*
X1154274Y2303519D02*
X1155014Y2304260D01*
X1184259D02*
X1185000Y2305000D01*
X1254161Y2255099D02*
X1254210Y2255050D01*
X1284950D02*
X1285000Y2255000D01*
X1254210Y2255050D02*
X1284950D01*
X-1236421Y1528751D02*
X-1206829D01*
X-1237423Y1527749D02*
X-1236421Y1528751D01*
X-1206829D02*
X-1205828Y1529752D01*
X-1567362Y1206869D02*
X-1537266D01*
X-1536724Y1242036D02*
X-1536700Y1242060D01*
X-1567509Y1242036D02*
X-1536724D01*
X-1537266Y1206869D02*
X-1536897Y1206500D01*
X-1567731Y1207238D02*
X-1567362Y1206869D01*
X-1567534Y1242011D02*
X-1567509Y1242036D01*
X-1536737Y1066837D02*
X-1536700Y1066800D01*
X-1567359Y1066874D02*
X-1567322Y1066837D01*
X-1536737D01*
X-1568239Y1035208D02*
X-1567525Y1034494D01*
X-1537414D01*
X-1536700Y1033780D01*
X-742395Y1103494D02*
X-711254D01*
X-742448Y1103547D02*
X-742395Y1103494D01*
X-711254D02*
X-711200Y1103440D01*
X1968292Y1785352D02*
X1968697Y1785757D01*
X1937666Y1784947D02*
X1938071Y1785352D01*
X1968292D01*
X1638716Y1736944D02*
X1669111D01*
X1669528Y1736528D01*
X1638300Y1737360D02*
X1638716Y1736944D01*
X1638497Y1694377D02*
X1670516D01*
X1638300Y1694180D02*
X1638497Y1694377D01*
X1670516D02*
X1670712Y1694574D01*
X1608177Y1569672D02*
X1639664D01*
X1608129Y1569623D02*
X1608177Y1569672D01*
X1639664D02*
X1639712Y1569720D01*
X1790555Y1648584D02*
X1790959Y1648988D01*
X1821081D02*
X1821485Y1649391D01*
X1790959Y1648988D02*
X1821081D01*
X1791570Y1533131D02*
X1823585D01*
X1823683Y1533229D01*
X1791471Y1533032D02*
X1791570Y1533131D01*
X1822000Y1417434D02*
X1822113Y1417546D01*
X1791040Y1417321D02*
X1791153Y1417434D01*
X1822000D01*
X1326403Y1172723D02*
X1326914Y1173234D01*
X1356516D02*
X1357026Y1173744D01*
X1326914Y1173234D02*
X1356516D01*
X712792Y864688D02*
X713020Y864460D01*
X680864Y864915D02*
X681092Y864688D01*
X712792D01*
X860008Y1158240D02*
X891540D01*
X860007Y1158240D02*
X860008Y1158240D01*
X941555Y1407989D02*
X972962D01*
X973017Y1408043D01*
X941501Y1407934D02*
X941555Y1407989D01*
X1013298Y1406998D02*
X1044677D01*
X1013263Y1406963D02*
X1013298Y1406998D01*
X1044677D02*
X1044712Y1407034D01*
X173604Y1723037D02*
X173801Y1722840D01*
X203760D01*
X203957Y1722643D01*
X1444996Y1729543D02*
X1445192Y1729347D01*
X1415037Y1729543D02*
X1444996D01*
X1414840Y1729740D02*
X1415037Y1729543D01*
X1187147Y1708407D02*
X1187344Y1708603D01*
X1217303D01*
X1217500Y1708800D01*
X1230156Y1670197D02*
X1230352Y1670393D01*
X1200197Y1670197D02*
X1230156D01*
X1200000Y1670000D02*
X1200197Y1670197D01*
X1129647Y1670393D02*
X1129844Y1670197D01*
X1159803D01*
X1160000Y1670000D01*
X1182319Y2771140D02*
X1182516Y2770943D01*
X1152360Y2771140D02*
X1182319D01*
X1152163Y2771337D02*
X1152360Y2771140D01*
X1585000Y2305000D02*
X1585125Y2304875D01*
X1623544D02*
X1623670Y2304749D01*
X1585125Y2304875D02*
X1623544D01*
X1215156Y2154803D02*
X1215352Y2154607D01*
X1185197Y2154803D02*
X1215156D01*
X1185000Y2155000D02*
X1185197Y2154803D01*
X1465156Y2155197D02*
X1465352Y2155393D01*
X1435197Y2155197D02*
X1465156D01*
X1435000Y2155000D02*
X1435197Y2155197D01*
X1465156Y2305197D02*
X1465352Y2305394D01*
X1435197Y2305197D02*
X1465156D01*
X1435000Y2305000D02*
X1435197Y2305197D01*
X1365156Y2205197D02*
X1365352Y2205394D01*
X1335197Y2205197D02*
X1365156D01*
X1335000Y2205000D02*
X1335197Y2205197D01*
X1094543Y1473483D02*
X1094740Y1473680D01*
X1124699D01*
X1124896Y1473877D01*
X650043Y1009276D02*
X650240Y1009080D01*
X620084Y1009276D02*
X650043D01*
X619888Y1009473D02*
X620084Y1009276D01*
X-657460Y1602500D02*
X-657263Y1602303D01*
X-627304D01*
X-627107Y1602107D01*
X-1711683Y1263781D02*
X-1711486Y1263584D01*
X-1741642Y1263781D02*
X-1711683D01*
X-1741839Y1263978D02*
X-1741642Y1263781D01*
X-347853Y1269607D02*
X-347656Y1269803D01*
X-317697D01*
X-317500Y1270000D01*
X-412344Y1269803D02*
X-412148Y1269607D01*
X-442303Y1269803D02*
X-412344D01*
X-442500Y1270000D02*
X-442303Y1269803D01*
X-353889Y1483753D02*
X-353692Y1483557D01*
X-323733D01*
X-323536Y1483360D01*
X-349844Y1380197D02*
X-349648Y1380393D01*
X-379803Y1380197D02*
X-349844D01*
X-380000Y1380000D02*
X-379803Y1380197D01*
X-324844Y1567697D02*
X-324648Y1567893D01*
X-354803Y1567697D02*
X-324844D01*
X-355000Y1567500D02*
X-354803Y1567697D01*
X-435353Y1567893D02*
X-435156Y1567697D01*
X-405197D01*
X-405000Y1567500D01*
X-93911Y1638315D02*
X-93715Y1638119D01*
X-63756D01*
X-63559Y1637922D01*
X-485353Y1192893D02*
X-485156Y1192697D01*
X-455197D01*
X-455000Y1192500D01*
X-376850Y1194072D02*
X-376653Y1194268D01*
X-406809Y1194072D02*
X-376850D01*
X-407006Y1193875D02*
X-406809Y1194072D01*
X-274844Y1192697D02*
X-274648Y1192893D01*
X-304803Y1192697D02*
X-274844D01*
X-305000Y1192500D02*
X-304803Y1192697D01*
X-1298824Y1548877D02*
X-1298628Y1549073D01*
X-1328783Y1548877D02*
X-1298824D01*
X-1328980Y1548680D02*
X-1328783Y1548877D01*
X1534871Y3916781D02*
X1535068Y3916584D01*
X1565027D02*
X1565223Y3916387D01*
X1535068Y3916584D02*
X1565027D01*
X1479253Y3896788D02*
X1481779D01*
X1500979Y3877588D02*
X1503505D01*
X1481779Y3896788D02*
X1500979Y3877588D01*
X1425492Y3876978D02*
X1455451D01*
X1425296Y3916387D02*
X1425492Y3916584D01*
X1455451D01*
X1425296Y3877174D02*
X1425492Y3876978D01*
X1455451Y3916584D02*
X1455648Y3916781D01*
X1455451Y3876978D02*
X1455648Y3876781D01*
X1669737Y3720271D02*
X1669934Y3720468D01*
X1639778Y3720271D02*
X1669737D01*
X1639581Y3720074D02*
X1639778Y3720271D01*
X1533986Y3544361D02*
X1534183Y3544558D01*
X1504027Y3544361D02*
X1533986D01*
X1503830Y3544165D02*
X1504027Y3544361D01*
X1030041Y4202607D02*
X1030238Y4202803D01*
X1060197D01*
X1060394Y4203000D01*
X-1373575Y2066739D02*
X-1335733D01*
X-1317573Y2084899D01*
X1043520Y4565293D02*
X1043717Y4565490D01*
X1073676D01*
X1073873Y4565687D01*
X-1111800Y3455817D02*
X-1111611Y3456006D01*
X-1077916D01*
X-1077727Y3456194D01*
X1462659Y1810313D02*
X1462972Y1810627D01*
X1430020Y1810000D02*
X1430333Y1810313D01*
X1462659D01*
X636862Y3367265D02*
X637058Y3367069D01*
X667017D01*
X667214Y3366872D01*
X1072010Y3408810D02*
Y3439030D01*
X1072141Y3439160D01*
X1071880Y3408680D02*
X1072010Y3408810D01*
X-285898Y4110842D02*
X-285701Y4111039D01*
X-255742D01*
X-255546Y4111235D01*
X-1529110Y1341090D02*
X-1529080Y1341120D01*
X-1564640Y1341060D02*
X-1564610Y1341090D01*
X-1529110D01*
X471679Y4500949D02*
X471876Y4501146D01*
X441720Y4500949D02*
X471679D01*
X441523Y4500752D02*
X441720Y4500949D01*
X616434Y4271612D02*
X616630Y4271809D01*
X646590D01*
X646786Y4272006D01*
X2071702Y2217846D02*
X2071899Y2218043D01*
X2041743Y2217846D02*
X2071702D01*
X2041546Y2217649D02*
X2041743Y2217846D01*
X1832194Y2710310D02*
X1832307Y2710423D01*
X1801416Y2710310D02*
X1832194D01*
X1801303Y2710197D02*
X1801416Y2710310D01*
X1462363Y2649417D02*
X1462560Y2649220D01*
X1492519D01*
X1492716Y2649023D01*
X1434803Y2355197D02*
X1435000Y2355000D01*
X1404647Y2355394D02*
X1404844Y2355197D01*
X1434803D01*
X1365156Y2254803D02*
X1365352Y2254607D01*
X1231776Y2354456D02*
X1231900Y2354580D01*
X1335197Y2254803D02*
X1365156D01*
X1335000Y2255000D02*
X1335197Y2254803D01*
X1997300Y2209639D02*
X1997496Y2209836D01*
X1967144Y2209443D02*
X1967341Y2209639D01*
X1997300D01*
X1404844Y2104803D02*
X1434803D01*
X1435000Y2105000D01*
X1284803Y2205197D02*
X1285000Y2205000D01*
X1254647Y2205394D02*
X1254844Y2205197D01*
X1284803D01*
X1404647Y2104607D02*
X1404844Y2104803D01*
X1265156D02*
X1265352Y2104607D01*
X1235000Y2105000D02*
X1235197Y2104803D01*
X1265156D01*
X988161Y2750820D02*
X1018120D01*
X1018317Y2750623D01*
X988060Y2659380D02*
X990809D01*
X998221Y2651968D01*
X1024344D01*
X1185127Y2354456D02*
X1231776D01*
X1185002Y2354331D02*
X1185127Y2354456D01*
X889923Y2329923D02*
X890000Y2330000D01*
X856920Y2329923D02*
X889923D01*
X856843Y2329846D02*
X856920Y2329923D01*
X809675Y2332177D02*
X809936Y2331917D01*
X779048Y2332177D02*
X809675D01*
X778788Y2332437D02*
X779048Y2332177D01*
X1182401Y2105000D02*
X1185000D01*
X1155866Y2095666D02*
X1173066D01*
X1182401Y2105000D01*
X1155700Y2095500D02*
X1155866Y2095666D01*
X1107720Y1303940D02*
X1108880Y1302780D01*
X1066463Y1305101D02*
X1067623Y1303940D01*
X1107720D01*
X889635Y2180365D02*
X890197Y2179803D01*
X860130Y2180365D02*
X889635D01*
X859569Y2180926D02*
X860130Y2180365D01*
X-1842936Y1596659D02*
X-1839637Y1593360D01*
Y1557795D02*
Y1593360D01*
X-744504Y3218123D02*
X-744308Y3218319D01*
X-774463Y3218123D02*
X-744504D01*
X-774660Y3217926D02*
X-774463Y3218123D01*
X-707467Y3040585D02*
X-707270Y3040388D01*
X-737623Y3040782D02*
X-737426Y3040585D01*
X-707467D01*
X-1139161Y2816357D02*
X-1138964Y2816554D01*
X-913101Y2760357D02*
X-912904Y2760554D01*
X-943060Y2760357D02*
X-913101D01*
X-943257Y2760160D02*
X-943060Y2760357D01*
X-1169120Y2816357D02*
X-1139161D01*
X-1169317Y2816160D02*
X-1169120Y2816357D01*
X1453311Y3958724D02*
X1455254Y3956781D01*
X1453311Y3958724D02*
Y3980298D01*
X1439774Y3993835D02*
Y3996584D01*
Y3993835D02*
X1453311Y3980298D01*
X799079Y1060858D02*
X911848D01*
X912620Y1061630D01*
X759653Y1100284D02*
X799079Y1060858D01*
X887558Y1374140D02*
X1359411D01*
X1431802Y1446531D02*
X1459231D01*
X1359411Y1374140D02*
X1431802Y1446531D01*
X-741975Y2344941D02*
X-741680Y2345236D01*
X-780402Y2344646D02*
X-780107Y2344941D01*
X-741975D01*
X1558788Y2333929D02*
X1571398Y2346539D01*
X1594657D01*
X150590Y5633770D02*
X185112D01*
X150343Y5633523D02*
X150590Y5633770D01*
X185112D02*
X185359Y5634016D01*
X1410210Y2480527D02*
Y2521556D01*
X1410236Y2521582D01*
X1086860Y2103137D02*
X1107549D01*
X1115185Y2095500D02*
X1115442D01*
X1107549Y2103137D02*
X1115185Y2095500D01*
X1084917Y2105080D02*
X1086860Y2103137D01*
X-209148Y2886029D02*
X-178016D01*
X-209373Y2886253D02*
X-209148Y2886029D01*
X-178016D02*
X-177792Y2885804D01*
X2617469Y595959D02*
Y1873249D01*
X2957320Y594552D02*
X3083560Y720792D01*
Y1576101D01*
X3392600Y1885141D01*
X2870631Y595459D02*
X2985510Y710338D01*
Y1782004D01*
X3090953Y1887447D01*
X2720340Y594668D02*
X2798210Y672538D01*
Y1898657D01*
X2616198Y594688D02*
X2617469Y595959D01*
X3763799Y746700D02*
X3784600Y767501D01*
X3726180Y746700D02*
X3763799D01*
X3784600Y767501D02*
Y881620D01*
X3903740Y1000760D01*
X3728720Y1488500D02*
X3764220D01*
X3802380Y1404620D02*
Y1450340D01*
X3764220Y1488500D02*
X3802380Y1450340D01*
Y1404620D02*
X3906520Y1300480D01*
X425752Y5346503D02*
X425949Y5346700D01*
X455908D01*
X456105Y5346897D01*
X963995Y5346503D02*
X964192Y5346700D01*
X994151D01*
X994348Y5346897D01*
X963995Y5633523D02*
X964192Y5633720D01*
X994151D01*
X994348Y5633917D01*
X699221Y5636063D02*
X699418Y5636260D01*
X729377D01*
X729573Y5636456D01*
X425752Y5634437D02*
X425949Y5634634D01*
X455908D01*
X456105Y5634831D01*
X-148556Y5350296D02*
X-148360Y5350493D01*
X-118401D01*
X-118204Y5350690D01*
X-422537Y5350296D02*
X-422340Y5350493D01*
X-392381D01*
X-392185Y5350690D01*
X-696518Y5350296D02*
X-696321Y5350493D01*
X-666362D01*
X-666165Y5350690D01*
X-961460Y5350296D02*
X-961263Y5350493D01*
X-931304D01*
X-931108Y5350690D01*
X-148556Y5633313D02*
X-148360Y5633510D01*
X-118401D01*
X-118204Y5633706D01*
X-422537Y5633313D02*
X-422340Y5633510D01*
X-392381D01*
X-392185Y5633706D01*
X-696518Y5633313D02*
X-696321Y5633510D01*
X-666362D01*
X-666165Y5633706D01*
X-961460Y5633313D02*
X-961263Y5633510D01*
X-931304D01*
X-931108Y5633706D01*
X89756Y187597D02*
X89953Y187400D01*
X119912D01*
X-239182Y50701D02*
X-238986Y50505D01*
X-269141Y50701D02*
X-239182D01*
X-269338Y50898D02*
X-269141Y50701D01*
X-63303Y195916D02*
X-33344D01*
X-63500Y196112D02*
X-63303Y195916D01*
X51422Y76298D02*
X51618Y76101D01*
X81577D01*
X-94759Y28038D02*
X-94562Y27841D01*
X-64603D01*
X-64406Y27645D01*
X-1140151Y1791303D02*
X-1139954Y1791500D01*
X-1170110Y1791303D02*
X-1140151D01*
X-1170306Y1791107D02*
X-1170110Y1791303D01*
X1572139Y1959104D02*
Y2267954D01*
X1506220Y2333873D02*
X1572139Y2267954D01*
X1506220Y2333873D02*
Y2374900D01*
X1562100Y2382120D02*
Y2382140D01*
X1535099Y2355119D02*
X1562100Y2382120D01*
X1535099Y2354902D02*
Y2355119D01*
X1655990Y2201268D02*
Y2335054D01*
X1535000Y2405000D02*
X1586044D01*
X1655990Y2335054D01*
X1304647Y2505394D02*
X1304844Y2505197D01*
X1334803D01*
X1335000Y2505000D01*
X1365986Y2323724D02*
X1366464Y2324201D01*
X1324903Y2323246D02*
X1325380Y2323724D01*
X1365986D01*
X1335000Y2504440D02*
Y2504720D01*
X1655990Y2201268D02*
X1693572Y2163685D01*
Y1591252D02*
Y2163685D01*
X1521553Y1508853D02*
X1611174D01*
X1459231Y1446531D02*
X1521553Y1508853D01*
X887163Y1374535D02*
X887558Y1374140D01*
X1611174Y1508853D02*
X1693572Y1591252D01*
X558140Y2970781D02*
X558336Y2970978D01*
X528181Y2970781D02*
X558140D01*
X527984Y2970584D02*
X528181Y2970781D01*
X888940Y2862580D02*
X889137Y2862777D01*
Y2892736D01*
X889334Y2892932D01*
X1203378Y1428137D02*
X1203574Y1428333D01*
X1173419Y1428137D02*
X1203378D01*
X1173222Y1427940D02*
X1173419Y1428137D01*
X1149984Y1539240D02*
X1180813D01*
X593927Y3729106D02*
X594124Y3729303D01*
X624083D01*
X624279Y3729500D01*
X836337Y3607045D02*
X836534Y3607242D01*
X866493D01*
X866690Y3607439D01*
X790041Y3944607D02*
X790238Y3944803D01*
X820197D01*
X820394Y3945000D01*
X1030541Y3940000D02*
X1030737Y3940197D01*
X1060696D01*
X1060893Y3940393D01*
X1066307Y3175774D02*
X1066504Y3175577D01*
X1096463D01*
X1096660Y3175380D01*
X1326307Y3175774D02*
X1326504Y3175577D01*
X1356463D01*
X1356660Y3175380D01*
X1256464Y2960576D02*
X1256661Y2960379D01*
X1286620D01*
X1286817Y2960183D01*
X15156Y4380197D02*
X15353Y4380393D01*
X-14803Y4380197D02*
X15156D01*
X-15000Y4380000D02*
X-14803Y4380197D01*
X15156Y4110197D02*
X15353Y4110393D01*
X-14803Y4110197D02*
X15156D01*
X-15000Y4110000D02*
X-14803Y4110197D01*
X56655Y2921681D02*
X86614D01*
X86811Y2921484D01*
X56459Y2921878D02*
X56655Y2921681D01*
X-12572Y2918913D02*
X-12376Y2918717D01*
X17583D01*
X17780Y2918520D01*
X-425341Y3096260D02*
X-425144Y3096063D01*
X-455300Y3096260D02*
X-425341D01*
X-455497Y3096457D02*
X-455300Y3096260D01*
X-391272Y2907489D02*
X-390767Y2906984D01*
X-359307D01*
X-358802Y2906479D01*
X-180664Y2971603D02*
X-180468Y2971407D01*
X-210623Y2971603D02*
X-180664D01*
X-210820Y2971800D02*
X-210623Y2971603D01*
X-723763Y2793629D02*
X-693804D01*
X-723960Y2793432D02*
X-723763Y2793629D01*
X-470013Y2651992D02*
X-469816Y2651795D01*
X-499972Y2651992D02*
X-470013D01*
X-500169Y2652188D02*
X-499972Y2651992D01*
X-227477Y2773887D02*
X-227281Y2773691D01*
X-257436Y2773887D02*
X-227477D01*
X-257633Y2774084D02*
X-257436Y2773887D01*
X-94304Y2919137D02*
X-94108Y2919334D01*
X-124263Y2919137D02*
X-94304D01*
X-124460Y2918940D02*
X-124263Y2919137D01*
X-432124Y2996603D02*
X-431928Y2996407D01*
X-462083Y2996603D02*
X-432124D01*
X-462280Y2996800D02*
X-462083Y2996603D01*
X-985557Y1878511D02*
X-985360Y1878707D01*
X-955401D01*
X-955204Y1878904D01*
X-1046836Y1867412D02*
X-1046640Y1867215D01*
X-1016680D01*
X-1016484Y1867019D01*
X-883710Y1844100D02*
X-883513Y1843904D01*
X-853554D01*
X-853357Y1843707D01*
X-1463800Y2067757D02*
X-1463604Y2067560D01*
X-1433645D01*
X-1433448Y2067363D01*
X-1592815Y2065358D02*
X-1592619Y2065161D01*
X-1562660D01*
X-1562463Y2064964D01*
X-1610331Y1669709D02*
X-1610134Y1669906D01*
X-1640290Y1669709D02*
X-1610331D01*
X-1640487Y1669513D02*
X-1640290Y1669709D01*
X-1610331Y1737435D02*
X-1610134Y1737238D01*
X-1640290Y1737435D02*
X-1610331D01*
X-1640487Y1737632D02*
X-1640290Y1737435D01*
X327154Y2728414D02*
X327260Y2728520D01*
X287152Y2728308D02*
X287258Y2728414D01*
X327154D01*
X191220Y2374900D02*
X286720D01*
X-235500D02*
X-140000D01*
X-139462Y2728414D02*
X-99566D01*
X-139568Y2728308D02*
X-139462Y2728414D01*
X-99566D02*
X-99460Y2728520D01*
X458487Y2410657D02*
X458683Y2410853D01*
X428527Y2410657D02*
X458487D01*
X428331Y2410460D02*
X428527Y2410657D01*
X29676D02*
X29872Y2410853D01*
X-283Y2410657D02*
X29676D01*
X-480Y2410460D02*
X-283Y2410657D01*
X-1166500Y1528408D02*
Y1529080D01*
X795300Y967461D02*
X808281Y954481D01*
Y941708D02*
Y954481D01*
Y941708D02*
X809768Y940220D01*
X1485000Y2544647D02*
Y2544928D01*
X1508997Y2521582D02*
X1509928D01*
X1485651Y2544928D02*
X1508997Y2521582D01*
X1485000Y2544928D02*
X1485651D01*
X1435000Y2544647D02*
Y2544928D01*
X1458997Y2521582D02*
X1459929D01*
X1435651Y2544928D02*
X1458997Y2521582D01*
X1435000Y2544928D02*
X1435651D01*
X1485625Y2255098D02*
X1506963Y2276437D01*
X1507490D01*
X1485098Y2255098D02*
X1485625D01*
X1463036Y2226437D02*
X1484374Y2205098D01*
X1335000Y2455000D02*
X1356338Y2476338D01*
Y2476865D01*
X1484374Y2205098D02*
X1484901D01*
X1413035Y2276437D02*
X1434373Y2255099D01*
X1485098Y2255099D02*
Y2255625D01*
X1434375Y2405098D02*
X1434901D01*
X1412510Y2426437D02*
X1413036D01*
X1434375Y2405098D01*
X1068505Y2850184D02*
X1068701Y2850380D01*
X1098660D01*
X1098857Y2850577D01*
X1751668Y1648584D02*
X1791864Y1688780D01*
X1830752D01*
X1751668Y1533856D02*
X1791040Y1573229D01*
X1831668D01*
X1791040Y1457320D02*
X1831041D01*
X1751040Y1417321D02*
X1791040Y1457320D01*
X753020Y824460D02*
X793820D01*
X1228740Y1240080D02*
X1416600D01*
X1183640Y1285180D02*
X1228740Y1240080D01*
X886460Y1084580D02*
X918237Y1116357D01*
X929657D01*
X931540Y1118240D01*
X673020Y824460D02*
X713020D01*
X753020Y864460D01*
X851540Y1118240D02*
X891983D01*
X932180Y1158437D01*
X-619700Y1341120D02*
X-589280D01*
X-635000Y1117600D02*
X-601980D01*
X-1246500Y1489080D02*
X-1205828D01*
X-1676541Y1353922D02*
Y1523139D01*
X-1676400Y1523280D01*
X-1676683Y1353781D02*
X-1676541Y1353922D01*
X-1205828Y1489080D02*
X-1166500Y1528408D01*
D114*
X1115362Y2274898D02*
X1135731Y2254529D01*
X1098272Y2274898D02*
X1115362D01*
X1112785Y2230000D02*
X1116216D01*
X1103643Y2239142D02*
X1112785Y2230000D01*
X1088783Y2239142D02*
X1103643D01*
X1086357Y2241568D02*
X1088783Y2239142D01*
X1106100Y2202857D02*
X1107172Y2203929D01*
X1133929D02*
X1134902Y2204902D01*
X1107172Y2203929D02*
X1133929D01*
X1084846Y2144501D02*
X1121715Y2181370D01*
X1160059D01*
X1111738Y1896902D02*
Y1923593D01*
X1111649Y1923682D02*
X1111738Y1923593D01*
X1099827Y1884991D02*
X1111738Y1896902D01*
X1109219Y1934407D02*
X1111649Y1931977D01*
Y1923682D02*
Y1931977D01*
X1081657Y1900791D02*
X1087447Y1906581D01*
X1090148D01*
X927943Y1900791D02*
X1081657D01*
X1163563Y2232510D02*
Y2233036D01*
X1184902Y2254375D01*
Y2254902D01*
X782009Y1884991D02*
X959992D01*
X1099827D01*
X779780Y1887220D02*
X782009Y1884991D01*
X1050699Y1929236D02*
X1055870Y1934407D01*
X1059220D01*
X-347499Y1929236D02*
X1050699D01*
X1042259Y1962259D02*
X1181366D01*
X952500Y1975758D02*
X954686Y1977944D01*
X1215682D01*
X1181366Y1962259D02*
X1209219Y1934407D01*
X1135000Y1898612D02*
Y1915075D01*
X1102019Y1865631D02*
X1135000Y1898612D01*
X899160Y2092960D02*
X983696Y2008424D01*
X971610Y1993184D02*
X1250441D01*
X957069Y2007725D02*
X971610Y1993184D01*
X983696Y2008424D02*
X1285584D01*
X685255Y1859280D02*
X685800D01*
X695960Y1849120D01*
X754424Y1865631D02*
X1102019D01*
X915982Y1912752D02*
X927943Y1900791D01*
X651837Y1859280D02*
X677237Y1833880D01*
X745909Y1870710D02*
X749345D01*
X677237Y1833880D02*
X1113372D01*
X1107060Y1849120D02*
X1159219Y1901279D01*
X1113372Y1833880D02*
X1182570Y1903078D01*
X695960Y1849120D02*
X1107060D01*
X749345Y1870710D02*
X754424Y1865631D01*
X1459219Y1869750D02*
Y1934407D01*
X1375562Y1761046D02*
Y1786094D01*
X1459219Y1869750D01*
X1485000Y1798380D02*
Y1915073D01*
X1418866Y1782797D02*
X1469417D01*
X1485000Y1798380D01*
X1386840Y1750771D02*
X1418866Y1782797D01*
X976050Y3462710D02*
X1523471D01*
X975360Y3462020D02*
X976050Y3462710D01*
X820760Y2264410D02*
X849099Y2292749D01*
X898024D01*
X563589Y2264410D02*
X820760D01*
X898024Y2292749D02*
X983343Y2207430D01*
X146330Y2233650D02*
X420618D01*
X451451Y2264482D01*
X527572D01*
X-1521431Y3124670D02*
X-103237D01*
X-1581921Y3185160D02*
X-1521431Y3124670D01*
X1352650Y3897174D02*
X1391736D01*
X1381565Y3920676D02*
X1395789Y3934901D01*
X1308100Y3919220D02*
X1309556Y3920676D01*
X1361501Y3956781D02*
X1378384Y3973664D01*
X1347757Y3920676D02*
X1381565D01*
X1309556D02*
X1347757D01*
X1378384Y3973664D02*
X1394039D01*
X1294866Y3868630D02*
X1376741D01*
X1395789Y3934901D02*
X1397873D01*
X1394039Y3973664D02*
X1396469Y3976094D01*
X1319686Y1890658D02*
X1332570Y1903541D01*
X1319686Y1887221D02*
Y1890658D01*
X1332570Y1903541D02*
Y1912643D01*
X1335000Y1915073D01*
X1422662Y3589024D02*
X1731008D01*
X1305370Y3706316D02*
X1422662Y3589024D01*
X1566026Y2982833D02*
X1600128D01*
X1601001Y2981960D01*
X1565153Y2983705D02*
X1566026Y2982833D01*
X1485672Y3785295D02*
X1488101Y3782865D01*
X1475257Y3812851D02*
X1485672Y3802437D01*
X1475257Y3812851D02*
Y3816288D01*
X1485672Y3785295D02*
Y3802437D01*
X1805208Y2852713D02*
X1852154D01*
X1468413Y3713187D02*
Y3756781D01*
Y3713187D02*
X1508760Y3672840D01*
X1523902Y3657698D01*
X1759533D01*
X1829781Y2941853D02*
X1852157Y2919478D01*
X1829781Y2941853D02*
Y2943620D01*
X1852157Y2917712D02*
Y2919478D01*
X1495513Y3736708D02*
X1515988Y3716233D01*
Y3716233D02*
X1539061Y3693160D01*
X1515988Y3716233D02*
Y3716233D01*
X1539061Y3693160D02*
X1752600D01*
X1168400Y3835400D02*
X1280160D01*
X1358640Y3853390D02*
X1415249Y3796781D01*
X1208201Y3853390D02*
X1347757D01*
X1280160Y3835400D02*
X1347757Y3767803D01*
X1348779Y3766781D01*
X1457960Y3657600D01*
X1347757Y3853390D02*
X1358640D01*
X1194108Y3969388D02*
X1294866Y3868630D01*
X1376741D02*
X1378285Y3867086D01*
X1270000Y3769360D02*
Y3800000D01*
X1164662Y3664022D02*
X1270000Y3769360D01*
X588511Y3969388D02*
X1194108D01*
X1117300Y3886500D02*
X1168400Y3835400D01*
X1151591Y3910000D02*
X1208201Y3853390D01*
X922615Y3531608D02*
X963878Y3572872D01*
Y3602294D01*
X964936Y3603352D01*
X-1856911Y2723051D02*
X-918397D01*
X-869873Y2771576D02*
X-739576D01*
X-918397Y2723051D02*
X-869873Y2771576D01*
X-739576D02*
X-668880Y2700880D01*
X889292Y3037692D02*
X937699Y3086100D01*
X-180090Y3047999D02*
X-179583D01*
X-169276Y3037692D02*
X889292D01*
X-179583Y3047999D02*
X-169276Y3037692D01*
X937699Y3086100D02*
X1146660D01*
X1326660D02*
X1656080D01*
X1146660D02*
X1326660D01*
X-1113270Y3484880D02*
X-772028D01*
X-740544Y3453396D02*
X780487D01*
X-772028Y3484880D02*
X-740544Y3453396D01*
X-1130329Y3467820D02*
X-1113270Y3484880D01*
X-806121Y2197335D02*
X511250D01*
X541495Y2227580D02*
X905472D01*
X511250Y2197335D02*
X541495Y2227580D01*
X-286383Y2218410D02*
X508409D01*
X532819Y2242820D02*
X911785D01*
X508409Y2218410D02*
X532819Y2242820D01*
X1048432Y3569266D02*
X1286490D01*
X1292258Y3575033D02*
X1295695D01*
X1286490Y3569266D02*
X1292258Y3575033D01*
X990777Y3626921D02*
X1048432Y3569266D01*
X119097Y3335303D02*
X1209323D01*
X90700Y3363700D02*
X119097Y3335303D01*
X1209323D02*
X1234440Y3360420D01*
X780487Y3453396D02*
X832291Y3505200D01*
X-619204Y3363700D02*
X90700D01*
X119692Y2686335D02*
X323384D01*
X348253Y2711204D01*
X503001D01*
X512404Y2701801D01*
X-182945Y2448625D02*
X255155D01*
X301521Y2494991D01*
X458414D01*
X286792Y2530551D02*
X473143D01*
X242901Y2486660D02*
X286792Y2530551D01*
X-77470Y2486660D02*
X242901D01*
X458414Y2494991D02*
X505341Y2448064D01*
X684668D01*
X520070Y2483624D02*
X669939D01*
X473143Y2530551D02*
X520070Y2483624D01*
X-235518Y2501199D02*
X-182945Y2448625D01*
X-279304Y2501199D02*
X-235518D01*
X-297128Y2483375D02*
X-279304Y2501199D01*
X-1490000Y2483375D02*
X-297128D01*
X-711838Y2566771D02*
X-681825Y2536759D01*
X-878781Y2566771D02*
X-711838D01*
X-908092Y2537460D02*
X-878781Y2566771D01*
X-668880Y2700880D02*
X6732D01*
X56354Y2750503D01*
X-287093Y2219120D02*
X-286383Y2218410D01*
X-254925Y1390855D02*
X376985D01*
X438150Y1329690D01*
X-287370Y1358410D02*
X-254925Y1390855D01*
X-392737Y1358410D02*
X-287370D01*
X407915Y1515430D02*
X453315Y1560830D01*
X1331732D01*
X1043524Y1450868D02*
X1072976Y1421416D01*
X474943Y1384851D02*
X540960Y1450868D01*
X1043524D01*
X1049836Y1466108D02*
X1079288Y1436655D01*
X468630Y1400091D02*
X534647Y1466108D01*
X1049836D01*
X1072954Y1464541D02*
X1085601Y1451894D01*
X1072954Y1464541D02*
Y1464542D01*
X1056149Y1481347D02*
X1072954Y1464542D01*
X468350Y1443858D02*
X505840Y1481347D01*
X1056149D01*
X1310594Y1496587D02*
X1366686Y1552679D01*
X420540Y1484950D02*
X432177Y1496587D01*
X1310594D01*
X-269712Y1484950D02*
X420540D01*
X414227Y1500190D02*
X425864Y1511827D01*
X-276024Y1500190D02*
X414227D01*
X425864Y1511827D02*
X1304281D01*
X450884Y1443409D02*
X451333Y1443858D01*
X419846Y1443409D02*
X450884D01*
X451333Y1443858D02*
X468350D01*
X393545Y1469710D02*
X419846Y1443409D01*
X-705120Y1530670D02*
X401602D01*
X447002Y1576070D02*
X1325419D01*
X401602Y1530670D02*
X447002Y1576070D01*
X-696835Y1515430D02*
X407915D01*
X990777Y3663145D02*
X1015632Y3688000D01*
X990777Y3626921D02*
Y3663145D01*
X832920Y3138857D02*
X902812D01*
X-85303Y3106736D02*
X800799D01*
X902812Y3138857D02*
X927629Y3114040D01*
X800799Y3106736D02*
X832920Y3138857D01*
X858520Y2819400D02*
X859814Y2818106D01*
X1097069D01*
X1116843Y2837880D01*
X1214880Y2654810D02*
X1235959Y2675889D01*
X1296723D01*
X1296732Y2675880D02*
X1670453D01*
X1677310Y2682737D01*
X1296723Y2675889D02*
X1296732Y2675880D01*
X920057Y2682432D02*
X976129Y2626360D01*
X1348100D01*
X1365880Y2608580D01*
X969817Y2611120D02*
X1282100D01*
X1305720Y2587500D02*
X1341483D01*
X916015Y2664922D02*
X969817Y2611120D01*
X1282100D02*
X1305720Y2587500D01*
X917784Y2641600D02*
X963504Y2595880D01*
X1263372D01*
X1275061Y2584191D01*
X1659992Y2106168D02*
X1676400Y2089760D01*
X1625026Y2155002D02*
X1625738Y2154289D01*
Y2140421D02*
X1659992Y2106168D01*
X1625738Y2140421D02*
Y2154289D01*
X1676400Y1808480D02*
Y2089760D01*
X1302948Y1625600D02*
X1371600Y1694252D01*
X1113366Y1625600D02*
X1302948D01*
X1079764Y1659201D02*
X1113366Y1625600D01*
X1371600Y1694252D02*
Y1757083D01*
X1375562Y1761046D01*
X1303905Y1597660D02*
X1386840Y1680595D01*
Y1750771D01*
X1262833Y1739900D02*
X1435000Y1912067D01*
X885781Y1739900D02*
X1262833D01*
X1435000Y1912067D02*
Y1915073D01*
X1404349Y1493520D02*
X1435036D01*
X1362725Y1451895D02*
X1404349Y1493520D01*
X1103487Y1451895D02*
X1362725D01*
X1085601Y1451894D02*
X1103486D01*
X1103487Y1451895D01*
X1236463Y1430540D02*
X1370910D01*
X1418651Y1478281D01*
X1212274Y1406351D02*
X1236463Y1430540D01*
X1377223Y1415300D02*
X1424964Y1463041D01*
X1218586Y1391111D02*
X1242775Y1415300D01*
X1377223D01*
X1418651Y1478281D02*
X1441348D01*
X1424964Y1463041D02*
X1447660D01*
X626163Y1880870D02*
X703352D01*
X720765Y1898283D01*
Y1898297D02*
X722204D01*
X736658Y1912752D02*
X915982D01*
X722204Y1898297D02*
X736658Y1912752D01*
X221900Y1865666D02*
X610959D01*
X213704Y1873862D02*
X221900Y1865666D01*
X159481Y1873862D02*
X213704D01*
X610959Y1865666D02*
X626163Y1880870D01*
X179881Y1842858D02*
X593002D01*
X178503Y1844236D02*
X179881Y1842858D01*
X593002D02*
X594360Y1841500D01*
X132198Y1846580D02*
X159481Y1873862D01*
X-48260Y1846580D02*
X132198D01*
X173222Y1775219D02*
X572102D01*
X573408Y1773912D01*
X-71150Y1743915D02*
X-70439Y1744627D01*
X265047D01*
X275560Y1755140D01*
X224949Y1666400D02*
X298449Y1739900D01*
X-769780Y1666400D02*
X224949D01*
X235233Y1648764D02*
X306846Y1720376D01*
X65639Y1648764D02*
X235233D01*
X33207Y1616332D02*
X65639Y1648764D01*
X-772160Y1668780D02*
X-769780Y1666400D01*
X-1137000Y1540562D02*
X-1137000D01*
X-1089958Y1493520D02*
X-742270D01*
X-1137000Y1540562D02*
X-1089958Y1493520D01*
X-742270D02*
X-705120Y1530670D01*
X-1302672Y1467491D02*
X-744774D01*
X-696835Y1515430D01*
X-1261189Y1452251D02*
X-738461D01*
X-690522Y1500190D01*
X-493222D01*
X-1193532Y1437011D02*
X-732149D01*
X-684210Y1484950D02*
X-499534D01*
X-732149Y1437011D02*
X-684210Y1484950D01*
X-898147Y1900961D02*
X-781667D01*
X-781269Y1900563D01*
X-1217530Y1714475D02*
Y1765589D01*
X-1217548Y1714457D02*
X-1217530Y1714475D01*
X-1229914Y1777973D02*
X-1217530Y1765589D01*
X-1573168Y1404820D02*
X-439147D01*
X-1601828Y1433479D02*
X-1573168Y1404820D01*
X-1362732Y1585919D02*
X-1360952Y1587699D01*
X-1030293D01*
X-1023110Y1580517D01*
X660237Y2152041D02*
X915433D01*
X939853Y2079525D02*
Y2127622D01*
X915433Y2152041D02*
X939853Y2127622D01*
X617718Y2194560D02*
X660237Y2152041D01*
X959992Y2059386D02*
X989364Y2030014D01*
X939853Y2079525D02*
X959992Y2059386D01*
X989364Y2030014D02*
X1014057D01*
X959992Y2304448D02*
X994609Y2269831D01*
X900768Y2363672D02*
X959992Y2304448D01*
X765061Y2363672D02*
X900768D01*
X994609Y2255465D02*
X995073Y2255002D01*
X994609Y2255465D02*
Y2269831D01*
X951065Y2471420D02*
X959992Y2462493D01*
X708024Y2471420D02*
X951065D01*
X959992Y2462493D02*
X966317Y2456167D01*
X993905D01*
X944752Y2456180D02*
X959992Y2440940D01*
X970152Y2430780D01*
X714337Y2456180D02*
X944752D01*
X970152Y2430780D02*
X1014407D01*
X938417Y2440940D02*
X959992Y2419365D01*
X973599Y2405759D01*
X720649Y2440940D02*
X938417D01*
X973599Y2405759D02*
X1033539D01*
X932105Y2425700D02*
X959992Y2397813D01*
X977952Y2379853D01*
X726962Y2425700D02*
X932105D01*
X977952Y2379853D02*
X995074D01*
X959992Y2376260D02*
X980516Y2355736D01*
X994336D02*
X995072Y2355000D01*
X980516Y2355736D02*
X994336D01*
X925792Y2410460D02*
X959992Y2376260D01*
X733274Y2410460D02*
X925792D01*
X919480Y2395220D02*
X959992Y2354708D01*
X984076Y2330624D01*
X739587Y2395220D02*
X919480D01*
X984076Y2330624D02*
X1014155D01*
X959992Y2333020D02*
X1013794Y2279219D01*
X914100Y2378912D02*
X959992Y2333020D01*
X748612Y2378912D02*
X914100D01*
X993905Y2456167D02*
X995072Y2455000D01*
X914500Y3886500D02*
X982680D01*
X613177D02*
X914500D01*
X534738Y3964940D02*
X613177Y3886500D01*
X-1553760Y3964940D02*
X534738D01*
X-1633220Y3885480D02*
X-1553760Y3964940D01*
X982680Y3886500D02*
X1117300D01*
X779585Y3910000D02*
X1151591D01*
X1033539Y2405759D02*
X1059446Y2379852D01*
X61450Y2261983D02*
X117997D01*
X146330Y2233650D01*
X-1492029Y3185489D02*
X-1491700Y3185160D01*
X-1522211Y3185489D02*
X-1492029D01*
X-1522539Y3185817D02*
X-1522211Y3185489D01*
X1532484Y2158149D02*
X1533908D01*
X1509110Y2181523D02*
X1532484Y2158149D01*
X1507687Y2181523D02*
X1509110D01*
X1555498Y1979506D02*
Y2261247D01*
X1476400Y2340345D02*
X1555498Y2261247D01*
X1510147Y1934155D02*
X1555498Y1979506D01*
X861166Y2007725D02*
X957069D01*
X860041Y2006600D02*
X861166Y2007725D01*
X609653Y1785620D02*
X624893Y1770380D01*
X609600Y1785620D02*
X609653D01*
X624893Y1770380D02*
X1168755D01*
X629920Y1799549D02*
X643849Y1785620D01*
X629920Y1799549D02*
Y1833880D01*
X573626Y2986220D02*
X585705D01*
X595590Y2996106D02*
X599027D01*
X567279Y2992568D02*
X573626Y2986220D01*
X585705D02*
X595590Y2996106D01*
X487584Y2964083D02*
X516069Y2992568D01*
X567279D01*
X605203Y2865204D02*
X607060Y2863347D01*
X553744Y2896930D02*
X585470Y2865204D01*
X605203D01*
X-363220Y1407807D02*
X-303750D01*
X-285027Y1426530D01*
X1335784Y2105072D02*
X1370922D01*
X1335098Y2105759D02*
X1335784Y2105072D01*
X1370922D02*
X1371510Y2104484D01*
X1109285Y2127608D02*
X1134902Y2153225D01*
Y2154901D01*
X1109285Y2125930D02*
Y2127608D01*
X-1148976Y3420575D02*
X-1148855Y3420696D01*
X-1111921D02*
X-1111800Y3420817D01*
X-1148855Y3420696D02*
X-1111921D01*
X1133898Y4451903D02*
X1133930Y4451871D01*
X1102677Y4451935D02*
X1102709Y4451903D01*
X1133898D01*
X1006775Y2087960D02*
X1025382Y2069353D01*
X1039448D02*
X1041877Y2066923D01*
X1025382Y2069353D02*
X1039448D01*
X1017490Y2118978D02*
X1031467Y2105001D01*
X1034046D01*
X1001178Y2118978D02*
X1017490D01*
X998748Y2121408D02*
X1001178Y2118978D01*
X995072Y2055000D02*
Y2057857D01*
X975360Y2077570D02*
Y2080427D01*
Y2077570D02*
X995072Y2057857D01*
X1020459Y2677781D02*
X1021080Y2677160D01*
X1011732Y2680211D02*
X1014162Y2677781D01*
X1020459D01*
X1021080Y2677160D02*
X1196914D01*
X1210883Y2691129D01*
X1110801Y4602531D02*
X1116929Y4596403D01*
X1394460D01*
X792531Y4602531D02*
X1110801D01*
X762000Y4572000D02*
X792531Y4602531D01*
X141144Y19224D02*
X314960Y193040D01*
X353060D01*
X141144Y-53635D02*
Y19224D01*
X-297180Y180340D02*
X-122940D01*
X110641Y-53242D01*
X110838Y-53439D01*
X140797D01*
X1476400Y2340345D02*
Y2406835D01*
X1534160Y2464596D01*
X1015632Y3688000D02*
X1020000Y3692369D01*
Y3750000D01*
X-1505400Y3355620D02*
X-1308185D01*
X-1544320Y3316700D02*
X-1505400Y3355620D01*
X-1308185D02*
X-1294953Y3342388D01*
X-1074168D01*
X-717676Y3396727D02*
X-439919D01*
X-439381Y3396189D01*
X-739463Y3374940D02*
X-717676Y3396727D01*
X-558080Y2174960D02*
X-557687Y2175353D01*
X-383933D02*
X-383540Y2175745D01*
X-557687Y2175353D02*
X-383933D01*
X-382790Y2459470D02*
X-339610D01*
X-383540Y2458720D02*
X-382790Y2459470D01*
X-339610D02*
X-338860Y2460220D01*
X-1023110Y1580517D02*
X-523530D01*
X-506906Y1597141D01*
X582003Y1691773D02*
X837654D01*
X885781Y1739900D01*
X533876D02*
X582003Y1691773D01*
X1255770Y2330016D02*
X1256535Y2330781D01*
Y2376675D02*
X1257300Y2377440D01*
X1256535Y2330781D02*
Y2376675D01*
X1315489Y2706369D02*
X1341556Y2732436D01*
X1192022Y2706369D02*
X1315489D01*
X1259840Y2408609D02*
Y2505503D01*
X1285000Y2355000D02*
Y2383449D01*
X1259840Y2408609D02*
X1285000Y2383449D01*
X512404Y2701801D02*
X1187454D01*
X1192022Y2706369D01*
X1468262Y2691120D02*
X1481468Y2704326D01*
X1303044Y2691120D02*
X1468262D01*
X1303035Y2691129D02*
X1303044Y2691120D01*
X1210883Y2691129D02*
X1303035D01*
X778199Y2729034D02*
X1052219D01*
X1062487Y2739302D01*
X1063033D01*
X1481468Y2704326D02*
X1763972D01*
X1766245Y2706598D01*
X1677310Y2682737D02*
X1680747D01*
X794289Y3229665D02*
X1622932D01*
X1623895Y3228702D01*
X-164988Y3304540D02*
X719415D01*
X794289Y3229665D01*
X-191419Y3278110D02*
X-164988Y3304540D01*
X-557150Y3278110D02*
X-191419D01*
X578539Y1659201D02*
X1079764D01*
X517364Y1720376D02*
X578539Y1659201D01*
X1585000Y2455000D02*
Y2580000D01*
Y2597766D01*
X1572260Y2610506D02*
Y2613660D01*
Y2610506D02*
X1585000Y2597766D01*
X1388204Y2176968D02*
Y2333144D01*
X1352456Y2141220D02*
X1388204Y2176968D01*
X1379220Y2342128D02*
X1388204Y2333144D01*
X1379220Y2342128D02*
Y2547858D01*
X1320800Y2141220D02*
X1352456D01*
X1379220Y2547858D02*
X1426362Y2595000D01*
X438150Y1329690D02*
X1088380D01*
X-439147Y1404820D02*
X-392737Y1358410D01*
X832291Y3505200D02*
X1033833D01*
X-1191876Y3527956D02*
X595250D01*
X-1221740Y3557820D02*
X-1191876Y3527956D01*
X-640517Y3342388D02*
X-619204Y3363700D01*
X-1074168Y3342388D02*
X-640517D01*
X1287955Y2654125D02*
X1318084D01*
X1318260Y2653949D01*
X1287780Y2654300D02*
X1287955Y2654125D01*
X1534160Y2464596D02*
Y2626360D01*
X1634610Y1508941D02*
X1710082Y1584413D01*
X1620516Y1386216D02*
X1634610Y1400310D01*
Y1508941D01*
X1710082Y1584413D02*
Y2170523D01*
X1585000Y2455000D02*
X1672500Y2367500D01*
Y2208106D02*
X1710082Y2170523D01*
X1672500Y2208106D02*
Y2367500D01*
X1021043Y1351280D02*
X1444456D01*
X1479392Y1386216D02*
X1620516D01*
X1444456Y1351280D02*
X1479392Y1386216D01*
X587197Y3970701D02*
X588511Y3969388D01*
X226060Y2631440D02*
X521187D01*
X533985Y2618641D01*
X1206256Y2580640D02*
X1275080Y2511816D01*
X957192Y2580640D02*
X1206256D01*
X919191Y2618641D02*
X957192Y2580640D01*
X533985Y2618641D02*
X919191D01*
X581759Y2603401D02*
X619760Y2565400D01*
X15181Y2615948D02*
X27728Y2603401D01*
X581759D01*
X10412Y2615948D02*
X15181D01*
X1275080Y2414921D02*
Y2511816D01*
Y2414921D02*
X1335000Y2355001D01*
X1199943Y2565400D02*
X1259840Y2505503D01*
X1275061Y2584191D02*
X1278498D01*
X959992Y2565400D02*
X1199943D01*
X619760D02*
X959992D01*
X20000Y2263140D02*
X40433Y2283573D01*
X78283D01*
X41377Y2766053D02*
X562919D01*
X569472Y2772606D01*
X1086425D01*
X1109677Y2749353D01*
X1189018D01*
X1207871Y2730500D02*
X1239520D01*
X1189018Y2749353D02*
X1207871Y2730500D01*
X104348Y2750503D02*
X104437Y2750415D01*
X756818D01*
X778199Y2729034D01*
X56354Y2750503D02*
X104348D01*
X1135000Y3664022D02*
X1164662D01*
X1116843Y2837880D02*
X1167563D01*
X927629Y3114040D02*
X1138363D01*
X1140007Y3115684D01*
X-103237Y3124670D02*
X-85303Y3106736D01*
X486364Y4226007D02*
X1099491D01*
X484732Y4224375D02*
X486364Y4226007D01*
X469053Y4220001D02*
X473427Y4224375D01*
X484732D01*
X-1912620Y2778760D02*
X-1856911Y2723051D01*
X-1221740Y3467820D02*
X-1130329D01*
X264076Y2653832D02*
X505925D01*
X517015Y2664922D01*
X916015D01*
X541967Y2641193D02*
X542374Y2641600D01*
X917784D01*
X486325Y2682432D02*
X920057D01*
X440832Y2286072D02*
X460000D01*
X410000Y2255240D02*
X440832Y2286072D01*
X487708Y2550160D02*
X1184652D01*
X486681Y2549134D02*
X487708Y2550160D01*
X510341Y2528883D02*
X1152492D01*
X508564Y2527106D02*
X510341Y2528883D01*
X1152492D02*
X1155782Y2525593D01*
X1159219D01*
X-1239486Y2537460D02*
X-908092D01*
X-127568Y2536759D02*
X-77470Y2486660D01*
X959992Y2506980D02*
X993093D01*
X693296D02*
X959992D01*
X993093D02*
X995072Y2505000D01*
X669939Y2483624D02*
X693296Y2506980D01*
X-1240000Y2536946D02*
X-1239486Y2537460D01*
X-681825Y2536759D02*
X-127568D01*
X684668Y2448064D02*
X708024Y2471420D01*
X-119628Y2432824D02*
X690981D01*
X714337Y2456180D01*
X-670663Y2468136D02*
X-608195D01*
X-573444Y2433385D01*
X-120188D01*
X-119628Y2432824D01*
X-937817Y2460010D02*
X-678789D01*
X-670663Y2468136D01*
X-1150474Y2438420D02*
X-678826D01*
X-1151727Y2437166D02*
X-1150474Y2438420D01*
X-678826D02*
X-664350Y2452896D01*
X-614506D01*
X-535889Y2374279D01*
X-288205D01*
X-250755Y2411729D01*
X-87295Y2374279D02*
X138515D01*
X175965Y2411729D02*
X301975D01*
X339425Y2374279D02*
X653988D01*
X-124745Y2411729D02*
X-87295Y2374279D01*
X-250755Y2411729D02*
X-124745D01*
X301975D02*
X339425Y2374279D01*
X138515D02*
X175965Y2411729D01*
X653988Y2374279D02*
X720649Y2440940D01*
X-678864Y2416830D02*
X-658038Y2437656D01*
X-852180Y2416830D02*
X-678864D01*
X-850644Y2620333D02*
X-818107D01*
X-850872Y2620105D02*
X-850644Y2620333D01*
X-818107D02*
X-817880Y2620560D01*
X-678901Y2395240D02*
X-651726Y2422416D01*
X-960120Y2401590D02*
X-956683D01*
X-950333Y2395240D02*
X-678901D01*
X-956683Y2401590D02*
X-950333Y2395240D01*
X-658038Y2437656D02*
X-620818D01*
X-244442Y2396489D02*
X-131058D01*
X-620818Y2437656D02*
X-542201Y2359039D01*
X-281893D02*
X-244442Y2396489D01*
X-542201Y2359039D02*
X-281893D01*
X-93608D02*
X144827D01*
X-131058Y2396489D02*
X-93608Y2359039D01*
X144827D02*
X182278Y2396489D01*
X333112Y2359039D02*
X660301D01*
X726962Y2425700D01*
X295662Y2396489D02*
X333112Y2359039D01*
X182278Y2396489D02*
X295662D01*
X587297Y3811983D02*
X589280Y3810000D01*
X-514265Y3811983D02*
X587297D01*
X-1614455Y3814049D02*
X-516330D01*
X-514265Y3811983D01*
X666613Y2343799D02*
X733274Y2410460D01*
X-548514Y2343799D02*
X666613D01*
X-627131Y2422416D02*
X-548514Y2343799D01*
X-651726Y2422416D02*
X-627131D01*
X-1021630Y3420987D02*
X-982996D01*
X-982826Y3421157D01*
X-1021800Y3420817D02*
X-1021630Y3420987D01*
X672926Y2328559D02*
X739587Y2395220D01*
X-632007Y2328559D02*
X672926D01*
X-647756Y2344307D02*
Y2361237D01*
Y2344307D02*
X-632007Y2328559D01*
X-666519Y2380000D02*
X-647756Y2361237D01*
X-1125994Y2380000D02*
X-666519D01*
X-1101837Y2779650D02*
Y2781300D01*
X-1127316Y2754171D02*
X-1101837Y2779650D01*
X-1127316Y2752520D02*
Y2754171D01*
X-1005737Y2313232D02*
X682932D01*
X-1006553Y2312415D02*
X-1005737Y2313232D01*
X682932D02*
X748612Y2378912D01*
X-1011560Y2781220D02*
X-978958D01*
X-1011640Y2781300D02*
X-1011560Y2781220D01*
X-978958D02*
X-978877Y2781139D01*
X-45623Y2964083D02*
X487584D01*
X735650Y2334260D02*
X765061Y2363672D01*
X-1837559Y2231193D02*
X-1162300D01*
X-1838647Y2232281D02*
X-1837559Y2231193D01*
X-1149403Y2244090D02*
X-1149350D01*
X-1162300Y2231193D02*
X-1149403Y2244090D01*
X-1149350D02*
X-1148428Y2245012D01*
X-1082610D01*
X-1069241Y2231643D02*
X-621930D01*
X-1082610Y2245012D02*
X-1069241Y2231643D01*
X-621930D02*
X-612023Y2241550D01*
X41017D01*
X61450Y2261983D01*
X527572Y2264482D02*
X549089Y2285999D01*
X820797D01*
X983973Y2228352D02*
X1011977D01*
X820797Y2285999D02*
X842786Y2307988D01*
X904337D01*
X983973Y2228352D01*
X1011977D02*
X1014407Y2230781D01*
X643439Y4670109D02*
X644493Y4669054D01*
X948946D01*
X950000Y4668000D01*
X-285027Y1426530D02*
X371388D01*
X434618Y1384851D02*
X474943D01*
X413066Y1384852D02*
X434617D01*
X371388Y1426530D02*
X413066Y1384852D01*
X434617D02*
X434618Y1384851D01*
X-124629Y1448120D02*
X371349D01*
X419378Y1400091D01*
X1582420Y1714500D02*
X1676400Y1808480D01*
X1582420Y1597801D02*
Y1714500D01*
X1447660Y1463041D02*
X1582420Y1597801D01*
X1127663Y1421416D02*
X1157968Y1391111D01*
X1218586D01*
X1072976Y1421416D02*
X1127663D01*
X1567180Y1604113D02*
Y1720812D01*
X1164279Y1406351D02*
X1212274D01*
X1133975Y1436655D02*
X1164279Y1406351D01*
X1079288Y1436655D02*
X1133975D01*
X419378Y1400091D02*
X468630D01*
X1441348Y1478281D02*
X1567180Y1604113D01*
X-139343Y3095877D02*
X-105203D01*
X-105090Y3095991D01*
X-139456Y3095763D02*
X-139343Y3095877D01*
X-534974Y1469710D02*
X-505846D01*
X-541324Y1463360D02*
X-534974Y1469710D01*
X-544761Y1463360D02*
X-541324D01*
X-466156Y1430020D02*
X-303090D01*
X-263400Y1469710D02*
X393545D01*
X1435036Y1493520D02*
X1551940Y1610424D01*
X-505846Y1469710D02*
X-466156Y1430020D01*
X-303090D02*
X-263400Y1469710D01*
X-570300Y3339088D02*
X-569864Y3339524D01*
X-535736D01*
X-535300Y3339960D01*
X-459844Y1445260D02*
X-309402D01*
X-269712Y1484950D01*
X-499534D02*
X-459844Y1445260D01*
X-493222Y1500190D02*
X-453531Y1460500D01*
X-315714D02*
X-276024Y1500190D01*
X-453531Y1460500D02*
X-315714D01*
X-1200523Y1430020D02*
X-1193532Y1437011D01*
X-1203960Y1430020D02*
X-1200523D01*
X-1270975Y1445901D02*
X-1267539D01*
X-1261189Y1452251D01*
X1606879Y1825168D02*
Y1977933D01*
X-1405835Y1507455D02*
X-1342636D01*
X-1407682Y1505608D02*
X-1405835Y1507455D01*
X-1342636D02*
X-1302672Y1467491D01*
X1418222Y2988818D02*
X1441262Y2965778D01*
X1528844D01*
X1368609Y2988818D02*
X1418222D01*
X1301313Y2921522D02*
X1368609Y2988818D01*
X1286967Y2920576D02*
X1287914Y2921522D01*
X1301313D01*
X447040Y1597660D02*
X1303905D01*
X395290Y1545910D02*
X447040Y1597660D01*
X-497788Y1545910D02*
X395290D01*
X-1254866Y1562152D02*
X-514030D01*
X-1289928Y1527090D02*
X-1254866Y1562152D01*
X-514030D02*
X-497788Y1545910D01*
X-1400290Y1527090D02*
X-1289928D01*
X-1465780Y1592580D02*
X-1400290Y1527090D01*
X306846Y1720376D02*
X517364D01*
X298449Y1739900D02*
X533876D01*
X-337179Y1616332D02*
X33207D01*
X-354067Y1633220D02*
X-337179Y1616332D01*
X-800100Y1633220D02*
X-354067D01*
X1348682Y1865631D02*
X1363059Y1880008D01*
X1383915Y1900865D01*
Y1913988D01*
X1385000Y1915073D01*
X1285558Y1865631D02*
X1348682D01*
X275560Y1755140D02*
X1175067D01*
X1285558Y1865631D01*
X1168755Y1770380D02*
X1285000Y1886625D01*
X1162442Y1785620D02*
X1235000Y1858177D01*
X643849Y1785620D02*
X1162442D01*
X587609Y1948397D02*
X597103D01*
X585179Y1950826D02*
X587609Y1948397D01*
X597103D02*
X597320Y1948180D01*
X-132983Y2896930D02*
X553744D01*
X-150700Y2914648D02*
X-132983Y2896930D01*
X-336289Y2914648D02*
X-150700D01*
X-710975D02*
X-414646D01*
X-350720Y2929079D02*
X-336289Y2914648D01*
X-414646D02*
X-400215Y2929079D01*
X-350720D01*
X-739463Y2886160D02*
X-710975Y2914648D01*
X-637362Y2974817D02*
X-309232D01*
X-720937Y2997947D02*
X-660492D01*
X-637362Y2974817D01*
X-82069Y3000529D02*
X-45623Y2964083D01*
X-283520Y3000529D02*
X-82069D01*
X-739463Y2976160D02*
Y2979420D01*
X-720937Y2997947D01*
X-309232Y2974817D02*
X-283520Y3000529D01*
X645607Y2947030D02*
X648036Y2944600D01*
X639036Y2947030D02*
X645607D01*
X637223Y2948843D02*
X639036Y2947030D01*
X-1850747Y2950013D02*
X-669968D01*
X-661198Y2958784D02*
X-299726D01*
X-289785Y2948843D02*
X637223D01*
X-1873333Y2972600D02*
X-1850747Y2950013D01*
X-669968D02*
X-661198Y2958784D01*
X-299726D02*
X-289785Y2948843D01*
X650240Y1859280D02*
X651837D01*
X-1633220Y3795283D02*
X-1614455Y3814049D01*
X799816Y3531608D02*
X922615D01*
X-506906Y1597141D02*
X-349240D01*
X-348880Y1597500D01*
X-348876Y1927860D02*
X-347499Y1929236D01*
X897834Y2795963D02*
X1315006D01*
X897280Y2796516D02*
X897834Y2795963D01*
X1315006D02*
X1315559Y2795409D01*
X76198Y2092461D02*
X76698Y2092960D01*
X899160D01*
X553720Y2194560D02*
X617718D01*
X1523471Y3462710D02*
X1524160Y3463399D01*
X24746Y1365687D02*
X35433Y1355000D01*
X-224106Y1365687D02*
X24746D01*
X35433Y1355000D02*
X36007D01*
X-234793D02*
X-224106Y1365687D01*
X-240000Y1355000D02*
X-234793D01*
X1304281Y1511827D02*
X1360374Y1567919D01*
X1331732Y1560830D02*
X1354061Y1583159D01*
X1605593Y2079219D02*
X1645920Y2038892D01*
X1551940Y1610424D02*
Y1727125D01*
X1645920Y1821105D01*
Y2038892D01*
X-454417Y2082617D02*
X-356456D01*
X-454600Y2082800D02*
X-454417Y2082617D01*
X-356456D02*
X-356273Y2082434D01*
X1433158Y1552679D02*
X1528178Y1647699D01*
X1366686Y1552679D02*
X1433158D01*
X1528178Y1647699D02*
Y1724914D01*
X1562689Y1759425D01*
X1512938Y1654012D02*
Y1731227D01*
X1426846Y1567919D02*
X1512938Y1654012D01*
X1360374Y1567919D02*
X1426846D01*
X1512938Y1731227D02*
X1606879Y1825168D01*
X1497698Y1660324D02*
Y1737691D01*
X1420534Y1583159D02*
X1497698Y1660324D01*
Y1737691D02*
X1550240Y1790232D01*
X1354061Y1583159D02*
X1420534D01*
X1325419Y1576070D02*
X1347749Y1598399D01*
X1414221D01*
X1482458Y1666636D01*
Y1744003D01*
X1535000Y1796545D01*
X1562689Y1759425D02*
Y1759426D01*
X1628601Y1825338D01*
X1567180Y1720812D02*
X1661160Y1814792D01*
X1605593Y1979219D02*
X1606879Y1977933D01*
X1550240Y1790232D02*
Y1880216D01*
X961587Y4529932D02*
X962301Y4530646D01*
X1080651D01*
X1081365Y4531360D01*
X1256464Y2920182D02*
X1256661Y2920379D01*
X1286620D01*
X-1613281Y3150294D02*
X-1582276D01*
X-1613636Y3150648D02*
X-1613281Y3150294D01*
X-1582276D02*
X-1581921Y3149939D01*
X-1577883Y3687068D02*
X-1544320D01*
X-46961Y1899959D02*
X-14039D01*
X-14000Y1899998D01*
X-47000Y1899920D02*
X-46961Y1899959D01*
X333100Y1894480D02*
X367940D01*
X368300Y1894120D01*
X332740Y1894840D02*
X333100Y1894480D01*
X365760Y2682240D02*
X365856Y2682336D01*
X486229D01*
X486325Y2682432D01*
X-374480Y2749720D02*
X-373380Y2750820D01*
X-463773Y2749720D02*
X-374480D01*
X-1308929Y1777973D02*
X-1229914D01*
X-1308956Y1778000D02*
X-1308929Y1777973D01*
X-1337804Y1778000D02*
X-1308956D01*
X-1375000Y1815197D02*
X-1337804Y1778000D01*
X-1302617Y1793213D02*
X-1202724D01*
X-1324601Y1815197D02*
X-1324601D01*
X-1302617Y1793213D01*
X-1202724D02*
X-1189080Y1779569D01*
Y1750060D02*
Y1779569D01*
X-1388246Y1854036D02*
X-1149787D01*
X-1143437Y1860386D01*
X-1659148Y1910080D02*
X-1587863Y1838796D01*
X-1403486D01*
X-1143437Y1860386D02*
X-1140000D01*
X-1403486Y1838796D02*
X-1388246Y1854036D01*
X-1139999Y2222961D02*
X-1092014D01*
X-1140460Y2222500D02*
X-1139999Y2222961D01*
X-1092014D02*
X-1091553Y2223423D01*
X-1725000Y1910080D02*
X-1659148D01*
X-988917Y2173557D02*
X-956314D01*
X-989054Y2173420D02*
X-988917Y2173557D01*
X-1013354Y2173420D02*
X-989054D01*
X-1381934Y1838796D02*
X-955204D01*
X-1401352Y1819378D02*
X-1381934Y1838796D01*
X-1401352Y1808117D02*
Y1819378D01*
X-1418761Y1790707D02*
X-1401352Y1808117D01*
X-1606708Y1790707D02*
X-1418761D01*
X-1625999Y1809999D02*
X-1606708Y1790707D01*
X-1724999Y1809999D02*
X-1625999D01*
X-920204Y1878904D02*
X-898147Y1900961D01*
X-1599330Y1994770D02*
X-1375870D01*
X-1600200Y1993900D02*
X-1599330Y1994770D01*
X-1375870D02*
X-1375000Y1995640D01*
X1184652Y2550160D02*
X1209219Y2525593D01*
X983343Y2207430D02*
X992643D01*
X995072Y2205000D01*
X986130Y2183410D02*
X1003593D01*
X1003792Y2183211D01*
X911785Y2242820D02*
X971034Y2183571D01*
X1003792Y2183211D02*
X1011977D01*
X1014407Y2180781D01*
X971034Y2183571D02*
X985969D01*
X986130Y2183410D01*
X905472Y2227580D02*
X978053Y2154999D01*
X995073D01*
X1182570Y1903078D02*
Y1912370D01*
X1185000Y1914800D01*
X1159219Y1901279D02*
Y1934407D01*
X597320Y1948180D02*
X1028180D01*
X1042259Y1962259D01*
X1535000Y1796545D02*
Y1915073D01*
X1628601Y1825338D02*
Y2006209D01*
X1661160Y1814792D02*
Y2073653D01*
X1605592Y2029218D02*
X1628601Y2006209D01*
X1605592Y2129221D02*
X1661160Y2073653D01*
X1235000Y1858177D02*
Y1915073D01*
X1285000Y1886625D02*
Y1915073D01*
X1237037Y2055101D02*
X1256764Y2074827D01*
X1235347Y2055101D02*
X1237037D01*
X1256764Y2074827D02*
X1258454D01*
X835625Y883832D02*
X835669Y883876D01*
X866096D01*
X866140Y883920D01*
X995075Y2379852D02*
X1014155D01*
X995074Y2379853D02*
X995075Y2379852D01*
X1185101Y2055423D02*
X1206439Y2076761D01*
Y2077288D01*
X1185101Y2054896D02*
Y2055423D01*
X1285682Y2056253D02*
X1307020Y2077591D01*
Y2078118D01*
X1285682Y2055726D02*
Y2056253D01*
X1335098Y2055101D02*
Y2055627D01*
X1356436Y2076966D01*
X1215682Y1977944D02*
X1259219Y1934407D01*
X1250441Y1993184D02*
X1309218Y1934407D01*
X1285584Y2008424D02*
X1359853Y1934155D01*
X1485098Y2105099D02*
Y2105625D01*
X1506436Y2126964D01*
X1334375Y2405098D02*
X1334901D01*
X1312510Y2426437D02*
X1313036D01*
X1334375Y2405098D01*
X1234623Y2405766D02*
X1235150D01*
X1212759Y2427105D02*
X1213285D01*
X1234623Y2405766D01*
X1135098Y2355099D02*
Y2355625D01*
X1156437Y2376964D02*
Y2377490D01*
X1135098Y2355625D02*
X1156437Y2376964D01*
X1184225Y2405315D02*
X1184752D01*
X1162360Y2426654D02*
X1162886D01*
X1184225Y2405315D01*
X1605593Y2079219D02*
X1605593D01*
X1550240Y1880216D02*
X1585098Y1915075D01*
X804146Y1012721D02*
X836663D01*
X803831Y1013036D02*
X804146Y1012721D01*
X836663D02*
X836979Y1012405D01*
D115*
X1686134Y5444995D02*
G03*
X1718695Y5451790I-35497J251507D01*
G01*
X1462160Y3847125D02*
X1506175D01*
X1440318Y3825283D02*
X1462160Y3847125D01*
X1439795Y3720962D02*
Y3726350D01*
X1440318Y3726873D01*
Y3825283D01*
X1438337Y3719504D02*
X1439795Y3720962D01*
X1535264Y3734762D02*
X1550839Y3719188D01*
X1535264Y3734762D02*
Y3836781D01*
X250266Y2468880D02*
X294157Y2512771D01*
X465779D01*
X-84834Y2468880D02*
X250266D01*
X465779Y2512771D02*
X512706Y2465844D01*
X677304D01*
X-1960034Y2510366D02*
X-1466913D01*
X-1459047Y2502500D02*
X-569186D01*
X-1466913Y2510366D02*
X-1459047Y2502500D01*
X-569186D02*
X-552707Y2518979D01*
X700660Y2489200D02*
X976748D01*
X985078Y2480870D01*
X1058678D01*
X1508760Y4670359D02*
Y4704080D01*
X1508506Y4670105D02*
X1508760Y4670359D01*
X677304Y2465844D02*
X700660Y2489200D01*
X1058678Y2480870D02*
X1059600Y2481792D01*
X-552707Y2518979D02*
X-134933D01*
X-84834Y2468880D01*
D117*
X1059446Y2319384D02*
X1085000Y2344938D01*
X1059446Y2091674D02*
Y2319384D01*
Y2091674D02*
X1123646Y2027474D01*
X1293474D01*
X1204877Y3927692D02*
X1205074Y3927889D01*
X1174918Y3927692D02*
X1204877D01*
X1174721Y3927496D02*
X1174918Y3927692D01*
X925796Y3658887D02*
X954910Y3688000D01*
X980000Y3713091D01*
X925796Y3610000D02*
Y3658887D01*
X980000Y3713091D02*
Y3750000D01*
X884491Y3652829D02*
X896620Y3640700D01*
Y3571240D02*
Y3640700D01*
X884491Y3652829D02*
Y3760914D01*
X1085500Y3858260D02*
X1112520D01*
X1047940D02*
X1085500D01*
X1020000Y3830320D02*
X1047940Y3858260D01*
X1266660Y3398380D02*
X1456660D01*
X669128Y3925850D02*
X670503D01*
X667950Y3927028D02*
X669128Y3925850D01*
X640578Y3927028D02*
X667950D01*
X639606Y3928000D02*
X640578Y3927028D01*
X-1181908Y3495773D02*
X-1181388Y3496293D01*
X-1239398Y3495252D02*
X-1238878Y3495773D01*
X-1181908D01*
X-1071359Y1734260D02*
X-1041400D01*
X-1041203Y1734457D01*
X-1071556Y1734064D02*
X-1071359Y1734260D01*
X1188876Y2884596D02*
X1216660Y2912380D01*
X1154251Y2884596D02*
X1188876D01*
X1085000Y2344938D02*
Y2505000D01*
X979422Y3829348D02*
X980394Y3830320D01*
X952925Y3829348D02*
X979422D01*
X884491Y3760914D02*
X952925Y3829348D01*
X1022972Y3640972D02*
X1039232D01*
X1160000Y3761740D01*
X1022000Y3640000D02*
X1022972Y3640972D01*
X1020000Y3790000D02*
X1021375D01*
X1031375Y3800000D02*
X1085500D01*
X1217671D01*
X1021375Y3790000D02*
X1031375Y3800000D01*
X1506308Y3398773D02*
X1506504Y3398577D01*
X1536464D01*
X1536660Y3398380D01*
X1006816Y3192183D02*
X1007013Y3191987D01*
X976857Y3192183D02*
X1006816D01*
X976660Y3192380D02*
X976857Y3192183D01*
X1426307Y3189274D02*
X1426504Y3189077D01*
X1456463D01*
X1456660Y3188880D01*
X1286816Y3040183D02*
X1287013Y3039987D01*
X1256857Y3040183D02*
X1286816D01*
X1256660Y3040380D02*
X1256857Y3040183D01*
X1396028Y2964986D02*
X1397000Y2965958D01*
X1248660Y2850380D02*
X1283527D01*
X1396028Y2962881D01*
Y2964986D01*
X1258035Y3000380D02*
X1268035Y3010380D01*
X1326660D02*
X1456660D01*
X1256660Y3000380D02*
X1258035D01*
X1268035Y3010380D02*
X1326660D01*
X1216660Y2912380D02*
Y2960380D01*
X1278619Y2770380D02*
X1278816Y2770183D01*
X1248660Y2770380D02*
X1278619D01*
X1248463Y2770577D02*
X1248660Y2770380D01*
X946505Y3060306D02*
X946701Y3060110D01*
X976660D01*
X976857Y3059913D01*
X996390Y3040380D02*
X1216660D01*
X976660Y3060110D02*
X996390Y3040380D01*
X49648Y3929607D02*
X49844Y3929803D01*
X79803D01*
X80000Y3930000D01*
X-89844Y4502197D02*
X-89647Y4502393D01*
X-119803Y4502197D02*
X-89844D01*
X-120000Y4502000D02*
X-119803Y4502197D01*
X370544Y3662157D02*
X370740Y3662353D01*
X340585Y3662157D02*
X370544D01*
X340388Y3661960D02*
X340585Y3662157D01*
X388296Y2854363D02*
X388492Y2854167D01*
X358337Y2854363D02*
X388296D01*
X358140Y2854560D02*
X358337Y2854363D01*
X529648Y3865893D02*
X529845Y3865697D01*
X559804D01*
X560000Y3865500D01*
X252197Y3790197D02*
X282156D01*
X252001Y3790000D02*
X252197Y3790197D01*
X-626016Y2360023D02*
X-625819Y2360220D01*
X-595860D01*
X-595663Y2360417D01*
X-647401Y2563220D02*
X-647204Y2563417D01*
X-677360Y2563220D02*
X-647401D01*
X-677557Y2563023D02*
X-677360Y2563220D01*
X-1071556Y2075377D02*
X-1071359Y2075180D01*
X-1041400D01*
X-1041203Y2074983D01*
X-1858956Y2799277D02*
X-1858759Y2799080D01*
X-1828800D01*
X-1828603Y2798883D01*
X-1798841Y2971800D02*
X-1798644Y2971997D01*
X-1828800Y2971800D02*
X-1798841D01*
X-1828997Y2971603D02*
X-1828800Y2971800D01*
X-674307Y2886357D02*
X-674111Y2886554D01*
X-704266Y2886357D02*
X-674307D01*
X-704463Y2886160D02*
X-704266Y2886357D01*
X-901877Y3146653D02*
X-901680Y3146457D01*
X-871721D01*
X-871524Y3146260D01*
X-1702664Y3555397D02*
X-1702468Y3555593D01*
X-1732623Y3555397D02*
X-1702664D01*
X-1732820Y3555200D02*
X-1732623Y3555397D01*
X-1325664Y3605397D02*
X-1325468Y3605593D01*
X-1355623Y3605397D02*
X-1325664D01*
X-1355820Y3605200D02*
X-1355623Y3605397D01*
X-109934Y3339267D02*
X-109738Y3339463D01*
X-139893Y3339267D02*
X-109934D01*
X-140090Y3339070D02*
X-139893Y3339267D01*
X-88084Y3277417D02*
X-87888Y3277613D01*
X-118043Y3277417D02*
X-88084D01*
X-118240Y3277220D02*
X-118043Y3277417D01*
X-88084Y3197417D02*
X-87888Y3197613D01*
X-118043Y3197417D02*
X-88084D01*
X-118240Y3197220D02*
X-118043Y3197417D01*
X-148593Y3157613D02*
X-148396Y3157417D01*
X-118437D01*
X-118240Y3157220D01*
X-591692Y3198253D02*
X-591496Y3198057D01*
X-561537D01*
X-561340Y3197860D01*
X-871327Y3046063D02*
X-841368D01*
X-871524Y3046260D02*
X-871327Y3046063D01*
X-148593Y3237613D02*
X-148396Y3237417D01*
X-118437D01*
X-118240Y3237220D01*
X-526994Y3238307D02*
X-526798Y3238503D01*
X-556953Y3238307D02*
X-526994D01*
X-557150Y3238110D02*
X-556953Y3238307D01*
X-1795780Y3685540D02*
X-1711960D01*
X-1500000Y1862494D02*
X-1499803Y1862691D01*
X-1469844D01*
X-1469647Y1862887D01*
X-1499269Y1970727D02*
X-1458636D01*
X-1499642Y1971099D02*
X-1499269Y1970727D01*
X-1458636D02*
X-1458519Y1970610D01*
X-868356Y1975923D02*
X-868159Y1976120D01*
X-838200D01*
X-838003Y1976317D01*
X1315949Y2005000D02*
X1435000D01*
X1293474Y2027474D02*
X1315949Y2005000D01*
D118*
X826090Y3751856D02*
X826287Y3752052D01*
X856246D01*
X856443Y3752249D01*
X950041Y3790393D02*
X950238Y3790197D01*
X980197D01*
X980394Y3790000D01*
X1070666Y2929700D02*
X1070863Y2929897D01*
X1100822D01*
X1101019Y2930094D01*
X1186308Y2999987D02*
X1186504Y3000183D01*
X1216463D01*
X1216660Y3000380D01*
X-1367844Y2650197D02*
X-1367647Y2650393D01*
X-1397803Y2650197D02*
X-1367844D01*
X-1261906Y2323028D02*
X-1261710Y2323224D01*
X-1231751D01*
X-1231554Y2323421D01*
X-1614164Y3685737D02*
X-1613968Y3685933D01*
X-1644123Y3685737D02*
X-1614164D01*
X-1644320Y3685540D02*
X-1644123Y3685737D01*
X-1356684Y3751777D02*
X-1356488Y3751973D01*
X-1386643Y3751777D02*
X-1356684D01*
X-1386840Y3751580D02*
X-1386643Y3751777D01*
X-1414164Y3316897D02*
X-1413967Y3317093D01*
X-1444123Y3316897D02*
X-1414164D01*
X-1444320Y3316700D02*
X-1444123Y3316897D01*
X-990376Y3285153D02*
X-990180Y3284957D01*
X-960221D01*
X-960024Y3284760D01*
X-1129868Y2907957D02*
X-1129672Y2908153D01*
X-1159827Y2907957D02*
X-1129868D01*
X-1160024Y2907760D02*
X-1159827Y2907957D01*
X-959827D02*
X-929868D01*
X-960024Y2907760D02*
X-959827Y2907957D01*
X-1297616Y3196457D02*
X-1267657D01*
X-1267460Y3196260D01*
X-1189869Y2849449D02*
X-1189672Y2849645D01*
X-1219828Y2849449D02*
X-1189869D01*
X-1220025Y2849252D02*
X-1219828Y2849449D01*
X-1218368Y3146457D02*
X-1218172Y3146653D01*
X-1248327Y3146457D02*
X-1218368D01*
X-1248524Y3146260D02*
X-1248327Y3146457D01*
D120*
X258756Y4561557D02*
X258952Y4561753D01*
X228797Y4561557D02*
X258756D01*
X228600Y4561360D02*
X228797Y4561557D01*
X274448Y3873047D02*
X274644Y3873244D01*
X304603D01*
X304800Y3873441D01*
X203423Y3661618D02*
X203619Y3661815D01*
X173463Y3661618D02*
X203423D01*
X173267Y3661421D02*
X173463Y3661618D01*
X589467Y2892667D02*
X589664Y2892863D01*
X619623D01*
X619820Y2893060D01*
X353375Y3387910D02*
X353572Y3388107D01*
X323416Y3387910D02*
X353375D01*
X323220Y3387713D02*
X323416Y3387910D01*
D123*
X-18500Y152400D02*
X63550Y234450D01*
X460767D01*
D134*
X-629920Y553720D02*
D03*
D135*
X-883920D02*
D03*
X2169160Y1043940D02*
D03*
X2219960Y165100D02*
D03*
X-2136140Y3627120D02*
D03*
X-2130663Y4213120D02*
D03*
D136*
X2169160Y1297940D02*
D03*
X2219960Y419100D02*
D03*
X-2136140Y3881120D02*
D03*
X-2130663Y4467120D02*
D03*
D137*
X4330700Y2997200D02*
D03*
Y3124200D02*
D03*
Y3378200D02*
D03*
X4152900Y3378200D02*
D03*
X4152900Y3251200D02*
D03*
X4330700D02*
D03*
X4152900Y3124200D02*
D03*
X4152900Y2997200D02*
D03*
Y2870200D02*
D03*
X4330700D02*
D03*
D142*
X1625600Y4529640D02*
D03*
X1701026Y4522575D02*
D03*
X1793665Y4509804D02*
D03*
X2304166Y4512921D02*
D03*
X1904166D02*
D03*
X2504487D02*
D03*
X2104166D02*
D03*
X2407469D02*
D03*
X2204166D02*
D03*
X2004166D02*
D03*
X2613564D02*
D03*
X-894074Y5336177D02*
D03*
Y5786176D02*
D03*
X605932Y6586182D02*
D03*
X105932Y6336182D02*
D03*
X155926Y5336177D02*
D03*
X2855932Y6586182D02*
D03*
X2750003Y6293372D02*
D03*
X3150003D02*
D03*
X3250003D02*
D03*
X2850003D02*
D03*
X3050003D02*
D03*
X2650000D02*
D03*
X2950003D02*
D03*
X3355932Y6586182D02*
D03*
X2950000Y6200000D02*
D03*
X2600000D02*
D03*
X2850000D02*
D03*
X3050000D02*
D03*
X3150000D02*
D03*
X1676410Y5577850D02*
D03*
X1783095Y5577840D02*
D03*
X2759614Y6176790D02*
D03*
X3250000Y6200000D02*
D03*
X3600000Y6550000D02*
D03*
X3450000Y6300000D02*
D03*
X3350000D02*
D03*
X4500000Y6600000D02*
D03*
X4400000Y6598453D02*
D03*
X4300000Y6602215D02*
D03*
X4200000Y6600000D02*
D03*
X4050000Y6603536D02*
D03*
X3950000Y6600000D02*
D03*
X3750000D02*
D03*
X3650000D02*
D03*
X3550000Y6500000D02*
D03*
Y6400000D02*
D03*
Y6300000D02*
D03*
X4450000Y5900000D02*
D03*
X4350000D02*
D03*
X4250000D02*
D03*
X4150000D02*
D03*
X4050000D02*
D03*
X3950000D02*
D03*
X3839900D02*
D03*
X3750000D02*
D03*
X3650000D02*
D03*
X3550000D02*
D03*
Y6000000D02*
D03*
Y6100000D02*
D03*
Y6200000D02*
D03*
X3450000D02*
D03*
X3350000D02*
D03*
X2750000Y6100000D02*
D03*
Y6000000D02*
D03*
X2600000D02*
D03*
Y5900000D02*
D03*
X2750000D02*
D03*
Y5800000D02*
D03*
X2600000D02*
D03*
Y5700000D02*
D03*
X2750000D02*
D03*
Y5600000D02*
D03*
X2600000Y5500000D02*
D03*
X2750000D02*
D03*
Y5400000D02*
D03*
X2600000D02*
D03*
Y5300000D02*
D03*
X2750000D02*
D03*
Y5200000D02*
D03*
X2600000D02*
D03*
Y5092823D02*
D03*
X2750000Y5100000D02*
D03*
X2600000Y4610967D02*
D03*
X2494341Y4600000D02*
D03*
X2400000D02*
D03*
X2300000D02*
D03*
X2200000D02*
D03*
X2100000D02*
D03*
X1900000D02*
D03*
X1800000D02*
D03*
X2600000Y6100000D02*
D03*
Y5600000D02*
D03*
X2000000Y4600000D02*
D03*
X1713314Y4635454D02*
D03*
X2712604Y4588763D02*
D03*
X-200000Y4450000D02*
D03*
X1783095Y5401859D02*
D03*
X1889760Y5489854D02*
D03*
Y5401869D02*
D03*
Y5577850D02*
D03*
X3180289Y1173798D02*
D03*
X3158996Y1081170D02*
D03*
X3300954Y1172378D02*
D03*
X3300600Y1081170D02*
D03*
X3797300Y1173480D02*
D03*
X3817620Y1076960D02*
D03*
X2448560Y4168140D02*
D03*
X2834640Y1353820D02*
D03*
X2573020Y1381760D02*
D03*
X3450789Y1013756D02*
D03*
X4355932Y7586182D02*
D03*
Y7336182D02*
D03*
Y7086182D02*
D03*
Y6836182D02*
D03*
Y5836182D02*
D03*
Y5586182D02*
D03*
Y5336182D02*
D03*
Y4336182D02*
D03*
Y4086182D02*
D03*
Y3836182D02*
D03*
Y3586182D02*
D03*
Y2586182D02*
D03*
Y2336182D02*
D03*
Y2086182D02*
D03*
Y586182D02*
D03*
Y336182D02*
D03*
Y86182D02*
D03*
Y-163818D02*
D03*
Y-413818D02*
D03*
X4105932Y7586182D02*
D03*
Y7336182D02*
D03*
Y7086182D02*
D03*
Y6836182D02*
D03*
Y5836182D02*
D03*
Y5586182D02*
D03*
Y5336182D02*
D03*
Y4336182D02*
D03*
Y4086182D02*
D03*
Y3836182D02*
D03*
Y3586182D02*
D03*
Y2586182D02*
D03*
Y2336182D02*
D03*
Y2086182D02*
D03*
Y1836182D02*
D03*
Y1336182D02*
D03*
Y1086182D02*
D03*
Y836182D02*
D03*
Y586182D02*
D03*
Y336182D02*
D03*
Y86182D02*
D03*
Y-163818D02*
D03*
Y-413818D02*
D03*
X3855932Y7836182D02*
D03*
Y7586182D02*
D03*
Y7336182D02*
D03*
Y7086182D02*
D03*
Y5836182D02*
D03*
Y5586182D02*
D03*
Y5336182D02*
D03*
Y5086182D02*
D03*
Y4836182D02*
D03*
Y4586182D02*
D03*
Y4336182D02*
D03*
Y4086182D02*
D03*
Y3836182D02*
D03*
Y3586182D02*
D03*
Y3336182D02*
D03*
Y3086182D02*
D03*
Y2836182D02*
D03*
Y2586182D02*
D03*
Y2336182D02*
D03*
Y336182D02*
D03*
Y-413818D02*
D03*
Y-663818D02*
D03*
X3605932Y7836182D02*
D03*
Y7586182D02*
D03*
Y7336182D02*
D03*
Y7086182D02*
D03*
Y6836182D02*
D03*
Y5836182D02*
D03*
Y5586182D02*
D03*
Y5336182D02*
D03*
Y5086182D02*
D03*
Y4836182D02*
D03*
Y4586182D02*
D03*
Y4336182D02*
D03*
Y4086182D02*
D03*
Y3836182D02*
D03*
Y3586182D02*
D03*
Y3336182D02*
D03*
Y-413818D02*
D03*
X3355932Y7836182D02*
D03*
Y7586182D02*
D03*
Y7336182D02*
D03*
Y7086182D02*
D03*
Y6836182D02*
D03*
Y5586182D02*
D03*
Y5336182D02*
D03*
Y5086182D02*
D03*
Y4836182D02*
D03*
Y4586182D02*
D03*
Y4336182D02*
D03*
Y3586182D02*
D03*
Y2336182D02*
D03*
Y2086182D02*
D03*
Y336182D02*
D03*
Y86182D02*
D03*
Y-413818D02*
D03*
X3105932Y7836182D02*
D03*
Y7586182D02*
D03*
Y7336182D02*
D03*
Y7086182D02*
D03*
Y6836182D02*
D03*
Y6586182D02*
D03*
Y5586182D02*
D03*
Y5336182D02*
D03*
Y5086182D02*
D03*
Y4836182D02*
D03*
Y4586182D02*
D03*
Y4336182D02*
D03*
Y3586182D02*
D03*
Y3086182D02*
D03*
Y2586182D02*
D03*
Y2336182D02*
D03*
Y2086182D02*
D03*
Y336182D02*
D03*
Y86182D02*
D03*
Y-413818D02*
D03*
X2855932Y7836182D02*
D03*
Y7586182D02*
D03*
Y7336182D02*
D03*
Y7086182D02*
D03*
Y6836182D02*
D03*
Y5586182D02*
D03*
Y5086182D02*
D03*
Y2586182D02*
D03*
Y1836182D02*
D03*
X2605932Y7836182D02*
D03*
Y7586182D02*
D03*
Y7336182D02*
D03*
Y7086182D02*
D03*
Y6836182D02*
D03*
Y6586182D02*
D03*
Y3086182D02*
D03*
Y336182D02*
D03*
Y-163818D02*
D03*
Y-663818D02*
D03*
X2355932Y7836182D02*
D03*
Y7586182D02*
D03*
Y7336182D02*
D03*
Y7086182D02*
D03*
Y6836182D02*
D03*
Y6586182D02*
D03*
X2105932Y7836182D02*
D03*
Y7586182D02*
D03*
Y7336182D02*
D03*
Y7086182D02*
D03*
Y6836182D02*
D03*
Y6586182D02*
D03*
Y-663818D02*
D03*
X1855932Y7836182D02*
D03*
Y7586182D02*
D03*
Y7336182D02*
D03*
Y7086182D02*
D03*
X1605932Y7836182D02*
D03*
Y7586182D02*
D03*
Y7336182D02*
D03*
Y7086182D02*
D03*
Y6836182D02*
D03*
X1355932Y7836182D02*
D03*
Y7586182D02*
D03*
Y7336182D02*
D03*
Y7086182D02*
D03*
Y6836182D02*
D03*
X1105932Y7836182D02*
D03*
Y7586182D02*
D03*
Y7336182D02*
D03*
Y7086182D02*
D03*
Y6836182D02*
D03*
Y-663818D02*
D03*
X855932Y7836182D02*
D03*
Y7586182D02*
D03*
Y7336182D02*
D03*
Y7086182D02*
D03*
Y6836182D02*
D03*
Y6336182D02*
D03*
X605932Y7836182D02*
D03*
Y7586182D02*
D03*
Y7336182D02*
D03*
Y7086182D02*
D03*
Y6836182D02*
D03*
Y-663818D02*
D03*
X355932Y7836182D02*
D03*
Y7586182D02*
D03*
Y7336182D02*
D03*
Y7086182D02*
D03*
Y6836182D02*
D03*
Y-663818D02*
D03*
X105932Y7836182D02*
D03*
Y7586182D02*
D03*
Y7336182D02*
D03*
Y7086182D02*
D03*
Y6836182D02*
D03*
Y6586182D02*
D03*
Y-663818D02*
D03*
X-144068Y7836182D02*
D03*
Y7586182D02*
D03*
Y7336182D02*
D03*
Y7086182D02*
D03*
Y6836182D02*
D03*
Y6586182D02*
D03*
Y6336182D02*
D03*
Y-663818D02*
D03*
X-394068Y7836182D02*
D03*
Y7586182D02*
D03*
Y7336182D02*
D03*
Y7086182D02*
D03*
Y6836182D02*
D03*
Y6586182D02*
D03*
Y6336182D02*
D03*
X-644068Y7836182D02*
D03*
Y7586182D02*
D03*
Y7336182D02*
D03*
Y7086182D02*
D03*
Y6836182D02*
D03*
X-894068Y7836182D02*
D03*
Y7586182D02*
D03*
Y7336182D02*
D03*
Y7086182D02*
D03*
Y6836182D02*
D03*
Y-663818D02*
D03*
X-1144068Y7836182D02*
D03*
Y7586182D02*
D03*
Y7336182D02*
D03*
Y7086182D02*
D03*
Y6836182D02*
D03*
Y6586182D02*
D03*
Y-663818D02*
D03*
X-1394068Y7586182D02*
D03*
Y7336182D02*
D03*
Y7086182D02*
D03*
Y6836182D02*
D03*
Y6336182D02*
D03*
X-1644068Y7836182D02*
D03*
Y7586182D02*
D03*
Y7336182D02*
D03*
Y7086182D02*
D03*
Y6836182D02*
D03*
Y6336182D02*
D03*
X-1894068Y7836182D02*
D03*
Y7586182D02*
D03*
Y7336182D02*
D03*
Y7086182D02*
D03*
Y6836182D02*
D03*
Y6336182D02*
D03*
Y-663818D02*
D03*
X-2144068Y7586182D02*
D03*
Y7336182D02*
D03*
Y7086182D02*
D03*
Y6836182D02*
D03*
Y6586182D02*
D03*
Y6336182D02*
D03*
X-1794074Y5486176D02*
D03*
X-1644074D02*
D03*
X-1494074D02*
D03*
X-894074Y5036177D02*
D03*
Y5186177D02*
D03*
X-744074Y5036177D02*
D03*
X-594074D02*
D03*
Y5186177D02*
D03*
Y5336177D02*
D03*
Y5636176D02*
D03*
Y5786176D02*
D03*
X-444074Y5036177D02*
D03*
X-294074D02*
D03*
Y5186177D02*
D03*
Y5336177D02*
D03*
Y5636176D02*
D03*
Y5786176D02*
D03*
X-144074Y5036177D02*
D03*
X5926D02*
D03*
Y5186177D02*
D03*
Y5486176D02*
D03*
Y5636176D02*
D03*
Y5786176D02*
D03*
X155926Y5036177D02*
D03*
X305926D02*
D03*
Y5186177D02*
D03*
Y5636176D02*
D03*
Y5786176D02*
D03*
X455926Y5036177D02*
D03*
X605926D02*
D03*
Y5186177D02*
D03*
X905926Y5036177D02*
D03*
Y5186177D02*
D03*
X1308100Y3919220D02*
D03*
X1270000Y3800000D02*
D03*
X964936Y3603352D02*
D03*
X912620Y1061630D02*
D03*
X858520Y2819400D02*
D03*
X1214880Y2654810D02*
D03*
X720765Y1898297D02*
D03*
X178503Y1844236D02*
D03*
X173222Y1775219D02*
D03*
X-781269Y1900563D02*
D03*
X-1217548Y1714457D02*
D03*
X-1601828Y1433479D02*
D03*
X-1362732Y1585919D02*
D03*
X1572260Y2613660D02*
D03*
X553720Y2194560D02*
D03*
X762000Y4572000D02*
D03*
X-1465780Y1592580D02*
D03*
X1524160Y3463399D02*
D03*
X469053Y4220001D02*
D03*
X-1074168Y3342388D02*
D03*
X10412Y2615948D02*
D03*
X119692Y2686335D02*
D03*
X486325Y2682432D02*
D03*
X-374480Y2749720D02*
D03*
X-240000Y1355000D02*
D03*
X-1189080Y1750060D02*
D03*
D143*
X1116216Y2230000D02*
D03*
X1086357Y2241568D02*
D03*
D144*
X1106100Y2202857D02*
D03*
X1084846Y2144501D02*
D03*
X1098272Y2274898D02*
D03*
X1090148Y1906581D02*
D03*
X1163367Y2232313D02*
D03*
X1059558Y1932608D02*
D03*
X1135000Y1915075D02*
D03*
X1109219Y1934407D02*
D03*
X960000Y1810000D02*
D03*
X1120000D02*
D03*
X413276Y2553399D02*
D03*
X916940Y3733800D02*
D03*
X939800Y3710000D02*
D03*
X1744980Y5422032D02*
D03*
X1705745Y5489732D02*
D03*
X1711960Y5414830D02*
D03*
X1673172Y5489700D02*
D03*
X1511227Y4628424D02*
D03*
X1564640Y4676140D02*
D03*
X1546586Y3996683D02*
D03*
X1515163D02*
D03*
X1534625Y4046220D02*
D03*
X1495898D02*
D03*
X1715301Y2203544D02*
D03*
X1606290Y1611850D02*
D03*
X307340Y1812643D02*
D03*
X444744Y2552343D02*
D03*
X396761Y2411234D02*
D03*
X-282369Y1255046D02*
D03*
X-242350Y1305000D02*
D03*
X1982108Y2321952D02*
D03*
X1884426Y2327035D02*
D03*
X1110400Y2479040D02*
D03*
X3376777Y5760307D02*
D03*
X3407280Y5760700D02*
D03*
X3078277Y5760807D02*
D03*
X3108780Y5761200D02*
D03*
X2504237Y4901807D02*
D03*
X2534740Y4902200D02*
D03*
X2799237Y4901807D02*
D03*
X2829740Y4902200D02*
D03*
X3375777Y3724088D02*
D03*
X3406280Y3724481D02*
D03*
X3074777Y3715621D02*
D03*
X3105280Y3716015D02*
D03*
X3445160Y2714441D02*
D03*
X3414657Y2714047D02*
D03*
X2925160Y2714441D02*
D03*
X2894657Y2714047D02*
D03*
X3559977Y1462647D02*
D03*
X3590480Y1463040D02*
D03*
X4330677Y1775126D02*
D03*
X4361180Y1775520D02*
D03*
X3941142Y2013787D02*
D03*
X3910640Y2014180D02*
D03*
X3761143Y1295906D02*
D03*
X3730640Y1296300D02*
D03*
X3210560Y1370080D02*
D03*
X3241063Y1370474D02*
D03*
X3051573Y1272483D02*
D03*
X3021070Y1272090D02*
D03*
X2840567Y1272483D02*
D03*
X2871070Y1272090D02*
D03*
X2640567Y1272483D02*
D03*
X2671070Y1272090D02*
D03*
X2876573Y1027373D02*
D03*
X2846070Y1026980D02*
D03*
X2714273Y1189673D02*
D03*
X2683770Y1189280D02*
D03*
X3038873Y1189673D02*
D03*
X3008370Y1189280D02*
D03*
X3038873Y865073D02*
D03*
X3008370Y864680D02*
D03*
X2714273Y865073D02*
D03*
X2683770Y864680D02*
D03*
X2851573Y782263D02*
D03*
X2821070Y781870D02*
D03*
X3936062Y-328227D02*
D03*
X3905560Y-328620D02*
D03*
X2515560D02*
D03*
X2546063Y-329014D02*
D03*
X3929380Y1446103D02*
D03*
X3959883Y1445710D02*
D03*
X3870425Y1446300D02*
D03*
X3839922Y1445907D02*
D03*
X3728720Y1432500D02*
D03*
X3759223Y1432107D02*
D03*
X3726180Y802700D02*
D03*
X3695677Y803093D02*
D03*
X3881120Y806497D02*
D03*
X3850617Y806890D02*
D03*
X3931920Y806300D02*
D03*
X3962423Y806693D02*
D03*
X380001Y4409053D02*
D03*
X349498Y4409447D02*
D03*
X-71120Y1315404D02*
D03*
X830103Y967265D02*
D03*
X860606Y967658D02*
D03*
X109417Y3075743D02*
D03*
X78914Y3076137D02*
D03*
X338017Y3075743D02*
D03*
X307514Y3076137D02*
D03*
X332937Y3276403D02*
D03*
X302434Y3276797D02*
D03*
X111563Y3276403D02*
D03*
X142066Y3276797D02*
D03*
X398583Y4099363D02*
D03*
X429086Y4099757D02*
D03*
X167443Y4101903D02*
D03*
X197946Y4102297D02*
D03*
X396043Y4335583D02*
D03*
X426546Y4335977D02*
D03*
X167443Y4333043D02*
D03*
X197946Y4333437D02*
D03*
X-465017Y2402643D02*
D03*
X-434514Y2403037D02*
D03*
X-465017Y2456377D02*
D03*
X-434514Y2455983D02*
D03*
X-89210Y1277314D02*
D03*
X225977Y293883D02*
D03*
X195474Y294277D02*
D03*
X-12874D02*
D03*
X-43377Y293883D02*
D03*
X-620237Y951443D02*
D03*
X-589734Y951837D02*
D03*
X975354Y1692075D02*
D03*
X944851Y1691681D02*
D03*
X1181479Y2726359D02*
D03*
X1150977Y2725966D02*
D03*
X-35861Y2410381D02*
D03*
X-66364Y2409988D02*
D03*
X363177Y2410952D02*
D03*
X428788Y1464998D02*
D03*
X459409Y1465448D02*
D03*
X-443094Y1482372D02*
D03*
X-410647Y1482916D02*
D03*
X823463Y3160861D02*
D03*
X792960Y3161254D02*
D03*
X-641058Y1867613D02*
D03*
X-683260Y1917380D02*
D03*
X-641058Y1906827D02*
D03*
X-722060Y1934880D02*
D03*
X-683260Y1877380D02*
D03*
X-752563Y1934486D02*
D03*
X1447587Y1662298D02*
D03*
X997106Y4306000D02*
D03*
X1027609Y4306393D02*
D03*
X889606Y4305000D02*
D03*
X920109Y4305393D02*
D03*
X840763D02*
D03*
X810260Y4305000D02*
D03*
X1724266Y3489960D02*
D03*
X1754769Y3489567D02*
D03*
X1676794Y3489960D02*
D03*
X1646291Y3489567D02*
D03*
X1534871Y3876781D02*
D03*
X1565373Y3877174D02*
D03*
X1494866Y3946621D02*
D03*
X1525368Y3946227D02*
D03*
X784160Y3308754D02*
D03*
X753657Y3308360D02*
D03*
X822960Y3289992D02*
D03*
X853463Y3289599D02*
D03*
X822960Y3251254D02*
D03*
X853463Y3251648D02*
D03*
X1176660Y2920380D02*
D03*
X1146157Y2920773D02*
D03*
X459884Y1421877D02*
D03*
X428320Y1421680D02*
D03*
X531541Y1360803D02*
D03*
X499876Y1359860D02*
D03*
X123219Y3009607D02*
D03*
X92717Y3010000D02*
D03*
X-251460Y2971160D02*
D03*
X-281963Y2971553D02*
D03*
X-338860Y2410220D02*
D03*
X-308358Y2410613D02*
D03*
X-463773Y2784720D02*
D03*
X-433270Y2784326D02*
D03*
X-1644320Y3605200D02*
D03*
X-1613817Y3605593D02*
D03*
X-1444320Y3605200D02*
D03*
X-1474823Y3605593D02*
D03*
X-1444320Y3405200D02*
D03*
X-1474823Y3405593D02*
D03*
X-1644320Y3405200D02*
D03*
X-1613817Y3405593D02*
D03*
X-1060024Y3096260D02*
D03*
X-1029521Y3096653D02*
D03*
X-1160024Y3196260D02*
D03*
X-1129521Y3196653D02*
D03*
X-960024Y3196260D02*
D03*
X-990527Y3196653D02*
D03*
X-960024Y2996260D02*
D03*
X-990527Y2996653D02*
D03*
X-1160024Y2996260D02*
D03*
X-1129521Y2996653D02*
D03*
X-1248524Y3096260D02*
D03*
X-1279027Y3096653D02*
D03*
X-1248524Y3046260D02*
D03*
X-1218021Y3046654D02*
D03*
X-1356017Y3505003D02*
D03*
X-1325514Y3505397D02*
D03*
X-1355623Y3555003D02*
D03*
X-1386126Y3555396D02*
D03*
X-1101837Y2816103D02*
D03*
X-1071334Y2816497D02*
D03*
X-1011837Y2746103D02*
D03*
X-981334Y2746497D02*
D03*
X-962857Y2631834D02*
D03*
X-932354Y2631440D02*
D03*
X-1018343Y2631637D02*
D03*
X-1048846Y2631243D02*
D03*
X-1180903Y2632894D02*
D03*
X-1211406Y2632500D02*
D03*
X-1127957Y2632697D02*
D03*
X-1097454Y2632303D02*
D03*
X-1545197Y2550394D02*
D03*
X-1514694Y2550000D02*
D03*
X-1602543Y2550197D02*
D03*
X-1633046Y2549803D02*
D03*
X-1231357Y2173224D02*
D03*
X-1261860Y2173617D02*
D03*
X-892007Y1998707D02*
D03*
X-922510Y1999101D02*
D03*
X-948401Y2078707D02*
D03*
X-917898Y2079101D02*
D03*
X-939860Y1709420D02*
D03*
X-970363Y1709813D02*
D03*
X-883860Y1775460D02*
D03*
X-853357Y1775853D02*
D03*
X-885204Y1878904D02*
D03*
X-854701Y1878511D02*
D03*
X-1424803Y1815197D02*
D03*
X-1455306Y1814803D02*
D03*
X-1724803Y1860197D02*
D03*
X-1755306Y1859803D02*
D03*
X-1894803Y1909803D02*
D03*
X-1925306Y1910197D02*
D03*
X-1895197Y1859803D02*
D03*
X-1864694Y1860197D02*
D03*
X-1275197Y1945443D02*
D03*
X-1244694Y1945837D02*
D03*
X-1275197Y1814803D02*
D03*
X-1244694Y1815197D02*
D03*
X-1497450Y2065295D02*
D03*
X-1527953Y2065689D02*
D03*
X-1550197Y1942937D02*
D03*
X-1519694Y1943331D02*
D03*
X-1550197Y1812297D02*
D03*
X-1519694Y1812691D02*
D03*
X-1485703Y1736603D02*
D03*
X-1516206Y1736997D02*
D03*
X516306Y2728431D02*
D03*
X546809Y2728825D02*
D03*
X95800Y2728520D02*
D03*
X65297Y2728913D02*
D03*
X-20151Y2526240D02*
D03*
X10351Y2526634D02*
D03*
X-30000Y2147500D02*
D03*
X503Y2147894D02*
D03*
X70000Y2147500D02*
D03*
X100503Y2147894D02*
D03*
X360000Y2150000D02*
D03*
X390502Y2150393D02*
D03*
X447500Y2150000D02*
D03*
X478002Y2150393D02*
D03*
X585099Y1719210D02*
D03*
X615602Y1719603D02*
D03*
X1154274Y2303519D02*
D03*
X1254161Y2255099D02*
D03*
X-1237423Y1527749D02*
D03*
X-1567731Y1207238D02*
D03*
X-1567534Y1242011D02*
D03*
X-1567359Y1066874D02*
D03*
X-1568239Y1035208D02*
D03*
X-742448Y1103547D02*
D03*
X1937666Y1784947D02*
D03*
X1669528Y1736528D02*
D03*
X1670712Y1694574D02*
D03*
X1608129Y1569623D02*
D03*
X1821485Y1649391D02*
D03*
X1823683Y1533229D02*
D03*
X1822113Y1417546D02*
D03*
X1357026Y1173744D02*
D03*
X680864Y864915D02*
D03*
X860007Y1158240D02*
D03*
X941501Y1407934D02*
D03*
X1044712Y1407034D02*
D03*
X204107Y1722643D02*
D03*
X173604Y1723037D02*
D03*
X273563Y1812643D02*
D03*
X1135249Y2454902D02*
D03*
X1639712Y1569720D02*
D03*
X1639909Y1612900D02*
D03*
X1638300Y1694180D02*
D03*
Y1737360D02*
D03*
X1416840Y1663700D02*
D03*
X1414840Y1729740D02*
D03*
X1445343Y1729347D02*
D03*
X1217650Y1708800D02*
D03*
X1187147Y1708407D02*
D03*
X1200000Y1670000D02*
D03*
X1230502Y1670393D02*
D03*
X1160150Y1670000D02*
D03*
X1129647Y1670393D02*
D03*
X1750197Y2199803D02*
D03*
X1950173Y2329180D02*
D03*
X1917897Y2329377D02*
D03*
X1152013Y2771337D02*
D03*
X1182516Y2770943D02*
D03*
X1623670Y2304749D02*
D03*
X1185000Y2155000D02*
D03*
X1215503Y2154607D02*
D03*
X1435000Y2155000D02*
D03*
X1465503Y2155393D02*
D03*
X1585000Y2305000D02*
D03*
X1435000D02*
D03*
X1465503Y2305394D02*
D03*
X1185000Y2305000D02*
D03*
X1285000Y2255000D02*
D03*
X1335000Y2205000D02*
D03*
X1365502Y2205394D02*
D03*
X1790555Y1648584D02*
D03*
X1791471Y1533032D02*
D03*
X1968697Y1785757D02*
D03*
X1791040Y1417321D02*
D03*
X973017Y1408043D02*
D03*
X1013263Y1406963D02*
D03*
X1125046Y1473877D02*
D03*
X1094543Y1473483D02*
D03*
X1326403Y1172723D02*
D03*
X619888Y1009473D02*
D03*
X650390Y1009080D02*
D03*
X713020Y864460D02*
D03*
X891540Y1158240D02*
D03*
X-626957Y1602107D02*
D03*
X-657460Y1602500D02*
D03*
X-1741839Y1263978D02*
D03*
X-1711336Y1263584D02*
D03*
X-1205828Y1529752D02*
D03*
X-317350Y1270000D02*
D03*
X-347853Y1269607D02*
D03*
X-442500Y1270000D02*
D03*
X-411997Y1269607D02*
D03*
X-323386Y1483360D02*
D03*
X-353889Y1483753D02*
D03*
X-380000Y1380000D02*
D03*
X-349497Y1380393D02*
D03*
X-355000Y1567500D02*
D03*
X-324497Y1567893D02*
D03*
X-404850Y1567500D02*
D03*
X-435353Y1567893D02*
D03*
X-63409Y1637922D02*
D03*
X-93911Y1638315D02*
D03*
X-454850Y1192500D02*
D03*
X-485353Y1192893D02*
D03*
X-407006Y1193875D02*
D03*
X-376503Y1194268D02*
D03*
X-305000Y1192500D02*
D03*
X-274498Y1192893D02*
D03*
X-242500Y1255000D02*
D03*
X-272853Y1304606D02*
D03*
X-711200Y1103440D02*
D03*
X-1536897Y1206500D02*
D03*
X-1536700Y1066800D02*
D03*
Y1033780D02*
D03*
Y1242060D02*
D03*
X-1328980Y1548680D02*
D03*
X-1298477Y1549073D02*
D03*
X1503505Y3877588D02*
D03*
X1565373Y3916387D02*
D03*
X1534871Y3916781D02*
D03*
X1455648Y3876781D02*
D03*
X1479253Y3896788D02*
D03*
X1455648Y3916781D02*
D03*
X1425145Y3877174D02*
D03*
Y3916387D02*
D03*
X1639431Y3720074D02*
D03*
X1669934Y3720468D02*
D03*
X1503680Y3544165D02*
D03*
X1534183Y3544558D02*
D03*
X1060394Y4203000D02*
D03*
X1029891Y4202607D02*
D03*
X-1373575Y2066739D02*
D03*
X-1317573Y2084899D02*
D03*
X1152774Y1810667D02*
D03*
X1074023Y4565687D02*
D03*
X1043520Y4565293D02*
D03*
X-1077577Y3456194D02*
D03*
X-1111800Y3455817D02*
D03*
X998220Y1809898D02*
D03*
X1463123Y1810627D02*
D03*
X1430020Y1810000D02*
D03*
X667214Y3366872D02*
D03*
X636712Y3367265D02*
D03*
X1072141Y3439160D02*
D03*
X1071880Y3408680D02*
D03*
X-255396Y4111235D02*
D03*
X-285898Y4110842D02*
D03*
X-1529080Y1341120D02*
D03*
X-1564640Y1341060D02*
D03*
X441523Y4500752D02*
D03*
X472026Y4501146D02*
D03*
X646936Y4272006D02*
D03*
X616434Y4271612D02*
D03*
X2072049Y2218043D02*
D03*
X2041546Y2217649D02*
D03*
X1832307Y2710423D02*
D03*
X1801303Y2710197D02*
D03*
X1492866Y2649023D02*
D03*
X1462363Y2649417D02*
D03*
X1435150Y2355000D02*
D03*
X1404647Y2355394D02*
D03*
X1365502Y2254607D02*
D03*
X1335000Y2255000D02*
D03*
X1997647Y2209836D02*
D03*
X1967144Y2209443D02*
D03*
X1435150Y2105000D02*
D03*
X1285150Y2205000D02*
D03*
X1404647Y2104607D02*
D03*
X1254647Y2205394D02*
D03*
X1265502Y2104607D02*
D03*
X1235000Y2105000D02*
D03*
X1267460Y896620D02*
D03*
X1018317Y2750623D02*
D03*
X1024344Y2651968D02*
D03*
X987814Y2751017D02*
D03*
X988060Y2659380D02*
D03*
X1231900Y2354580D02*
D03*
X1185002Y2354331D02*
D03*
X890000Y2330000D02*
D03*
X856843Y2329846D02*
D03*
X809936Y2331917D02*
D03*
X778788Y2332437D02*
D03*
X1185150Y2105000D02*
D03*
X1155700Y2095500D02*
D03*
X890197Y2179803D02*
D03*
X1108880Y1302780D02*
D03*
X1066463Y1305101D02*
D03*
X859569Y2180926D02*
D03*
X-1840311Y1589549D02*
D03*
X-1839637Y1557795D02*
D03*
X-774660Y3217926D02*
D03*
X-744158Y3218319D02*
D03*
X-707270Y3040388D02*
D03*
X-737773Y3040782D02*
D03*
X-912754Y2760554D02*
D03*
X-943257Y2760160D02*
D03*
X-1138814Y2816554D02*
D03*
X-1169317Y2816160D02*
D03*
X1391736Y3897174D02*
D03*
X1352257Y3896781D02*
D03*
X1361501Y3956781D02*
D03*
X1397873Y3934901D02*
D03*
X1335000Y1915073D02*
D03*
X1319686Y1887221D02*
D03*
X1731008Y3589024D02*
D03*
X1305370Y3706316D02*
D03*
X1565153Y2983705D02*
D03*
X1601001Y2981960D02*
D03*
X1488101Y3782865D02*
D03*
X1475257Y3816288D02*
D03*
X1468413Y3756781D02*
D03*
X1852154Y2852713D02*
D03*
X1760020Y3657212D02*
D03*
X1805208Y2852713D02*
D03*
X1438337Y3719504D02*
D03*
X1506175Y3847125D02*
D03*
X1852157Y2917712D02*
D03*
X1752600Y3693160D02*
D03*
X1495513Y3736708D02*
D03*
X1829781Y2943620D02*
D03*
X1455254Y3956781D02*
D03*
X1439774Y3996584D02*
D03*
X1535264Y3836781D02*
D03*
X1550839Y3719188D02*
D03*
X1205074Y3927889D02*
D03*
X1742439Y919540D02*
D03*
X1417003Y1308189D02*
D03*
X-287093Y2219120D02*
D03*
X-780402Y2344646D02*
D03*
X-741680Y2345236D02*
D03*
X896620Y3571240D02*
D03*
X1686122Y5445083D02*
D03*
X1718695Y5451790D02*
D03*
X1508506Y4670105D02*
D03*
X1508760Y4704080D02*
D03*
X1457960Y3657600D02*
D03*
X1112520Y3858260D02*
D03*
X1059446Y2379852D02*
D03*
X1456660Y3398380D02*
D03*
X1266660D02*
D03*
X1594657Y2346539D02*
D03*
X185359Y5634016D02*
D03*
X-1522539Y3185817D02*
D03*
X1533908Y2158149D02*
D03*
X860041Y2006600D02*
D03*
X745909Y1870710D02*
D03*
X670503Y3925850D02*
D03*
X609600Y1785620D02*
D03*
X629920Y1833880D02*
D03*
X599027Y2996106D02*
D03*
X607060Y2863347D02*
D03*
X-363220Y1407807D02*
D03*
X1410236Y2521582D02*
D03*
X1371510Y2104484D02*
D03*
X-1239398Y3495252D02*
D03*
X1109285Y2125930D02*
D03*
X1115442Y2095500D02*
D03*
X-1148976Y3420575D02*
D03*
X1102677Y4451935D02*
D03*
X1088380Y1329690D02*
D03*
X-1071706Y1734064D02*
D03*
X1006775Y2087960D02*
D03*
X998748Y2121408D02*
D03*
X975360Y2080427D02*
D03*
X1011732Y2680211D02*
D03*
X-177792Y2885804D02*
D03*
X3392600Y1885141D02*
D03*
X3090953Y1887447D02*
D03*
X2798210Y1898657D02*
D03*
X2617469Y1873249D02*
D03*
X2957320Y594552D02*
D03*
X2870631Y595459D02*
D03*
X2720340Y594668D02*
D03*
X2616198Y594688D02*
D03*
X3726180Y746700D02*
D03*
X3903740Y1000760D02*
D03*
X3728720Y1488500D02*
D03*
X3906520Y1300480D02*
D03*
X1262183Y5523743D02*
D03*
X1394460Y4596403D02*
D03*
X456255Y5346897D02*
D03*
X425752Y5346503D02*
D03*
X994498Y5346897D02*
D03*
X963995Y5346503D02*
D03*
X994498Y5633917D02*
D03*
X963995Y5633523D02*
D03*
X729723Y5636456D02*
D03*
X699221Y5636063D02*
D03*
X456255Y5634831D02*
D03*
X425752Y5634437D02*
D03*
X150343Y5633523D02*
D03*
X-118054Y5350690D02*
D03*
X-148556Y5350296D02*
D03*
X-392035Y5350690D02*
D03*
X-422537Y5350296D02*
D03*
X-666015Y5350690D02*
D03*
X-696518Y5350296D02*
D03*
X-930957Y5350690D02*
D03*
X-961460Y5350296D02*
D03*
X-118054Y5633706D02*
D03*
X-148556Y5633313D02*
D03*
X-392035Y5633706D02*
D03*
X-422537Y5633313D02*
D03*
X-666015Y5633706D02*
D03*
X-696518Y5633313D02*
D03*
X-930957Y5633706D02*
D03*
X-961460Y5633313D02*
D03*
X-975556Y5234344D02*
D03*
X-711116D02*
D03*
X-436682D02*
D03*
X-162248D02*
D03*
X166089Y5234290D02*
D03*
X441030D02*
D03*
X715971D02*
D03*
X979985D02*
D03*
Y5746992D02*
D03*
X715971Y5746812D02*
D03*
X441030D02*
D03*
X166089D02*
D03*
X-162248Y5747052D02*
D03*
X-436682D02*
D03*
X-711116D02*
D03*
X-975556D02*
D03*
X594360Y1841500D02*
D03*
X314960Y193040D02*
D03*
X353060D02*
D03*
X120258Y187204D02*
D03*
X89756Y187597D02*
D03*
X-269338Y50898D02*
D03*
X-238836Y50505D02*
D03*
X-63500Y196112D02*
D03*
X-32997Y195719D02*
D03*
X460767Y234450D02*
D03*
X-18500Y152400D02*
D03*
X-297180Y180340D02*
D03*
X81924Y75905D02*
D03*
X51422Y76298D02*
D03*
X141144Y-53635D02*
D03*
X110641Y-53242D02*
D03*
X-64256Y27645D02*
D03*
X-94759Y28038D02*
D03*
X-1170456Y1791107D02*
D03*
X-1139954Y1791500D02*
D03*
X-48260Y1846580D02*
D03*
X1572139Y1959104D02*
D03*
X1558118Y2333929D02*
D03*
X1562100Y2382140D02*
D03*
X1506220Y2374900D02*
D03*
X1335000Y2505000D02*
D03*
X1304497Y2505394D02*
D03*
X1295695Y3575033D02*
D03*
X-1544320Y3316700D02*
D03*
X-439381Y3396189D02*
D03*
X-739463Y3374940D02*
D03*
X-558080Y2174960D02*
D03*
X-383540Y2175745D02*
D03*
X-338860Y2460220D02*
D03*
X-383540Y2458720D02*
D03*
X579663Y1776730D02*
D03*
X1255770Y2330016D02*
D03*
X1341556Y2732436D02*
D03*
X1257300Y2377440D02*
D03*
X1063033Y2739302D02*
D03*
X1623895Y3228702D02*
D03*
X-557150Y3278110D02*
D03*
X1507687Y2181523D02*
D03*
X1160059Y2181370D02*
D03*
X1366614Y2324201D02*
D03*
X1320800Y2141220D02*
D03*
X1426362Y2595000D02*
D03*
X-1633220Y3885480D02*
D03*
X1234440Y3360420D02*
D03*
X1287780Y2654300D02*
D03*
X1318260Y2653949D02*
D03*
X1680747Y2682737D02*
D03*
X1365880Y2608580D02*
D03*
X-180090Y3047999D02*
D03*
X1656080Y3086100D02*
D03*
X1021043Y1351280D02*
D03*
X887163Y1374535D02*
D03*
X587197Y3970701D02*
D03*
X1378285Y3867086D02*
D03*
X226060Y2631440D02*
D03*
X1278498Y2584191D02*
D03*
X1341483Y2587500D02*
D03*
X1396469Y3976094D02*
D03*
X20000Y2263140D02*
D03*
X78283Y2283573D02*
D03*
X41377Y2766053D02*
D03*
X1239520Y2730500D02*
D03*
X1133930Y4451871D02*
D03*
X1135000Y3664022D02*
D03*
X1167563Y2837880D02*
D03*
X1154251Y2884596D02*
D03*
X1140007Y3115684D02*
D03*
X-1581921Y3185160D02*
D03*
X1099491Y4226007D02*
D03*
X-1912620Y2778760D02*
D03*
X1033833Y3505200D02*
D03*
X-1221740Y3467820D02*
D03*
X264076Y2653832D02*
D03*
X541967Y2641193D02*
D03*
X410000Y2255240D02*
D03*
X460000Y2286072D02*
D03*
X486681Y2549134D02*
D03*
X508564Y2527106D02*
D03*
X-1240000Y2536946D02*
D03*
X-1111800Y3420817D02*
D03*
X1059600Y2481792D02*
D03*
X-1960880Y2509520D02*
D03*
X-1490000Y2483375D02*
D03*
X-1491700Y3185160D02*
D03*
X-937817Y2460010D02*
D03*
X-1151727Y2437166D02*
D03*
X-817880Y2620560D02*
D03*
X-850872Y2620105D02*
D03*
X-852180Y2416830D02*
D03*
X589280Y3810000D02*
D03*
X595250Y3527956D02*
D03*
X-1021800Y3420817D02*
D03*
X-982826Y3421157D02*
D03*
X-960120Y2401590D02*
D03*
X-1127316Y2752520D02*
D03*
X-1101837Y2781300D02*
D03*
X-1125994Y2380000D02*
D03*
X-1006553Y2312415D02*
D03*
X-1011640Y2781300D02*
D03*
X-978877Y2781139D02*
D03*
X527834Y2970584D02*
D03*
X558336Y2970978D02*
D03*
X1415249Y3796781D02*
D03*
X779585Y3910000D02*
D03*
X735650Y2334260D02*
D03*
X-1838647Y2232281D02*
D03*
X643439Y4670109D02*
D03*
X950000Y4668000D02*
D03*
X563589Y2264410D02*
D03*
X-124629Y1448120D02*
D03*
X-139456Y3095763D02*
D03*
X-105090Y3095991D02*
D03*
X-544761Y1463360D02*
D03*
X-570300Y3339088D02*
D03*
X-535300Y3339960D02*
D03*
X-1203960Y1430020D02*
D03*
X-1270975Y1445901D02*
D03*
X-1407682Y1505608D02*
D03*
X-1137000Y1540562D02*
D03*
X1535085Y2966904D02*
D03*
X1534160Y2626360D02*
D03*
X-800100Y1633220D02*
D03*
X1034046Y2105001D02*
D03*
X-1221740Y3557820D02*
D03*
X585179Y1950826D02*
D03*
X-209373Y2886253D02*
D03*
X-739463Y2886160D02*
D03*
Y2976160D02*
D03*
X-1873333Y2972600D02*
D03*
X648036Y2944600D02*
D03*
X650240Y1859280D02*
D03*
X-1633220Y3795283D02*
D03*
X685255Y1859280D02*
D03*
X-71150Y1743915D02*
D03*
X-772160Y1668780D02*
D03*
X799816Y3531608D02*
D03*
X779780Y1887220D02*
D03*
X-348880Y1597500D02*
D03*
X-348876Y1927860D02*
D03*
X889334Y2892932D02*
D03*
X888940Y2862430D02*
D03*
X952500Y1975758D02*
D03*
X1315559Y2795409D02*
D03*
X897280Y2796516D02*
D03*
X76198Y2092461D02*
D03*
X975360Y3462020D02*
D03*
X1041877Y2066923D02*
D03*
X1766245Y2706598D02*
D03*
X1084917Y2105080D02*
D03*
X-806121Y2197335D02*
D03*
X1173222Y1427940D02*
D03*
X1203725Y1428333D02*
D03*
X1149984Y1539240D02*
D03*
X1180813D02*
D03*
X-356273Y2082434D02*
D03*
X961587Y4529932D02*
D03*
X1081365Y4531360D02*
D03*
X856443Y3752249D02*
D03*
X825940Y3751856D02*
D03*
X1174571Y3927496D02*
D03*
X639606Y3928000D02*
D03*
X980394Y3830320D02*
D03*
X624279Y3729500D02*
D03*
X593777Y3729106D02*
D03*
X866690Y3607439D02*
D03*
X836187Y3607045D02*
D03*
X820394Y3945000D02*
D03*
X789891Y3944607D02*
D03*
X1060893Y3940393D02*
D03*
X1030391Y3940000D02*
D03*
X1020000Y3830320D02*
D03*
X980394Y3790000D02*
D03*
X949891Y3790393D02*
D03*
X1022000Y3640000D02*
D03*
X1160000Y3761740D02*
D03*
X1219045Y3800000D02*
D03*
X1020000Y3790000D02*
D03*
Y3750000D02*
D03*
X925796Y3610000D02*
D03*
X980000Y3750000D02*
D03*
X1101019Y2930094D02*
D03*
X1070516Y2929700D02*
D03*
X1536660Y3398380D02*
D03*
X1506158Y3398773D02*
D03*
X976660Y3192380D02*
D03*
X1007163Y3191987D02*
D03*
X1096660Y3175380D02*
D03*
X1066157Y3175774D02*
D03*
X1356660Y3175380D02*
D03*
X1326157Y3175774D02*
D03*
X1456660Y3188880D02*
D03*
X1426157Y3189274D02*
D03*
X1256660Y3040380D02*
D03*
X1287163Y3039987D02*
D03*
X1286967Y2920576D02*
D03*
X1256464Y2920182D02*
D03*
X1286967Y2960183D02*
D03*
X1256464Y2960576D02*
D03*
X1397000Y2965958D02*
D03*
X1216660Y2960380D02*
D03*
X1248463Y2770577D02*
D03*
X1278966Y2770183D02*
D03*
X976857Y3059913D02*
D03*
X946354Y3060306D02*
D03*
X1456660Y3010380D02*
D03*
X1256660Y3000380D02*
D03*
X1216660Y3040380D02*
D03*
Y3000380D02*
D03*
X1186157Y2999987D02*
D03*
X35560Y1356514D02*
D03*
X80000Y3930000D02*
D03*
X49498Y3929607D02*
D03*
X-120000Y4502000D02*
D03*
X-89497Y4502393D02*
D03*
X-1398000Y2650000D02*
D03*
X-1367497Y2650393D02*
D03*
X-1231554Y2323421D02*
D03*
X-1262056Y2323028D02*
D03*
X228600Y4561360D02*
D03*
X259103Y4561753D02*
D03*
X304800Y3873441D02*
D03*
X274297Y3873047D02*
D03*
X340388Y3661960D02*
D03*
X370891Y3662353D02*
D03*
X358140Y2854560D02*
D03*
X388643Y2854167D02*
D03*
X560000Y3865500D02*
D03*
X529498Y3865893D02*
D03*
X252001Y3790000D02*
D03*
X282503Y3790393D02*
D03*
X-15000Y4380000D02*
D03*
X15503Y4380393D02*
D03*
X-15000Y4110000D02*
D03*
X15503Y4110393D02*
D03*
X173267Y3661421D02*
D03*
X203769Y3661815D02*
D03*
X619820Y2893060D02*
D03*
X589317Y2892667D02*
D03*
X323220Y3387713D02*
D03*
X353722Y3388107D02*
D03*
X86811Y2921484D02*
D03*
X56308Y2921878D02*
D03*
X17780Y2918520D02*
D03*
X-12723Y2918913D02*
D03*
X-595663Y2360417D02*
D03*
X-626166Y2360023D02*
D03*
X-677557Y2563023D02*
D03*
X-647054Y2563417D02*
D03*
X-1041203Y2074983D02*
D03*
X-1071706Y2075377D02*
D03*
X-1828603Y2798883D02*
D03*
X-1859106Y2799277D02*
D03*
X-1828997Y2971603D02*
D03*
X-1798494Y2971997D02*
D03*
X-1041203Y1734457D02*
D03*
X-1613636Y3150648D02*
D03*
X-1581921Y3149939D02*
D03*
X-1577883Y3687068D02*
D03*
X-1544320D02*
D03*
X-454600Y2082800D02*
D03*
X-455497Y3096457D02*
D03*
X-424994Y3096063D02*
D03*
X-47000Y1899920D02*
D03*
X-14000Y1899998D02*
D03*
X368300Y1894120D02*
D03*
X365760Y2682240D02*
D03*
X332740Y1894840D02*
D03*
X-463773Y2749720D02*
D03*
X-704463Y2886160D02*
D03*
X-673961Y2886554D02*
D03*
X-871524Y3146260D02*
D03*
X-902027Y3146653D02*
D03*
X-1732820Y3555200D02*
D03*
X-1702317Y3555593D02*
D03*
X-1181237Y3496293D02*
D03*
X-1355820Y3605200D02*
D03*
X-1325317Y3605593D02*
D03*
X-140090Y3339070D02*
D03*
X-109588Y3339463D02*
D03*
X-118240Y3277220D02*
D03*
X-87737Y3277613D02*
D03*
X-118240Y3197220D02*
D03*
X-87737Y3197613D02*
D03*
X-118240Y3157220D02*
D03*
X-148743Y3157613D02*
D03*
X-561340Y3197860D02*
D03*
X-591843Y3198253D02*
D03*
X-871524Y3046260D02*
D03*
X-841021Y3045867D02*
D03*
X-118240Y3237220D02*
D03*
X-148743Y3237613D02*
D03*
X-557150Y3238110D02*
D03*
X-526647Y3238503D02*
D03*
X-391272Y2907489D02*
D03*
X-358652Y2906479D02*
D03*
X-210820Y2971800D02*
D03*
X-180317Y2971407D02*
D03*
X-723960Y2793432D02*
D03*
X-693457Y2793826D02*
D03*
X-500169Y2652188D02*
D03*
X-469666Y2651795D02*
D03*
X-257633Y2774084D02*
D03*
X-227131Y2773691D02*
D03*
X-124460Y2918940D02*
D03*
X-93957Y2919334D02*
D03*
X-462280Y2996800D02*
D03*
X-431777Y2996407D02*
D03*
X-1711960Y3685540D02*
D03*
X-1795780D02*
D03*
X-1644320D02*
D03*
X-1613817Y3685933D02*
D03*
X-1386840Y3751580D02*
D03*
X-1356337Y3751973D02*
D03*
X-1444320Y3316700D02*
D03*
X-1413817Y3317093D02*
D03*
X-960024Y3284760D02*
D03*
X-990527Y3285153D02*
D03*
X-1160024Y2907760D02*
D03*
X-1129521Y2908153D02*
D03*
X-960024Y2907760D02*
D03*
X-929521Y2908153D02*
D03*
X-1267460Y3196260D02*
D03*
X-1297963Y3196653D02*
D03*
X-1220025Y2849252D02*
D03*
X-1189522Y2849645D02*
D03*
X-1248524Y3146260D02*
D03*
X-1218021Y3146653D02*
D03*
X-1140000Y1860386D02*
D03*
X-1091553Y2223423D02*
D03*
X-1140460Y2222500D02*
D03*
X-1725000Y1910080D02*
D03*
X-956314Y2173557D02*
D03*
X-955204Y1838796D02*
D03*
X-1013354Y2173420D02*
D03*
X-1724999Y1809999D02*
D03*
X-920204Y1878904D02*
D03*
X-1324601Y1815197D02*
D03*
X-1375000D02*
D03*
X-955204Y1878904D02*
D03*
X-985707Y1878511D02*
D03*
X-1016484Y1867019D02*
D03*
X-1046986Y1867412D02*
D03*
X-853357Y1843707D02*
D03*
X-883860Y1844100D02*
D03*
X-1469497Y1862887D02*
D03*
X-1500000Y1862494D02*
D03*
X-1458519Y1970610D02*
D03*
X-838003Y1976317D02*
D03*
X-868506Y1975923D02*
D03*
X-1500966Y1970843D02*
D03*
X-1375000Y1995640D02*
D03*
X-1600200Y1993900D02*
D03*
X-1433448Y2067363D02*
D03*
X-1463951Y2067757D02*
D03*
X-1562463Y2064964D02*
D03*
X-1592966Y2065358D02*
D03*
X-1640487Y1669513D02*
D03*
X-1609984Y1669906D02*
D03*
X-1640487Y1737632D02*
D03*
X-1609984Y1737238D02*
D03*
X327260Y2728520D02*
D03*
X287152Y2728308D02*
D03*
X286720Y2374900D02*
D03*
X191220D02*
D03*
X-235500D02*
D03*
X-140000D02*
D03*
X-139568Y2728308D02*
D03*
X-99460Y2728520D02*
D03*
X428331Y2410460D02*
D03*
X458833Y2410853D02*
D03*
X-480Y2410460D02*
D03*
X30023Y2410853D02*
D03*
X1324903Y2323246D02*
D03*
X1258454Y2074827D02*
D03*
X1014057Y2030014D02*
D03*
X1014155Y2330624D02*
D03*
X809768Y940220D02*
D03*
X835625Y883832D02*
D03*
X1206636Y2077484D02*
D03*
X1185002Y2054798D02*
D03*
X1235249Y2055002D02*
D03*
X1307217Y2078314D02*
D03*
X1285584Y2055627D02*
D03*
X1335000Y2105660D02*
D03*
Y2055002D02*
D03*
X1356633Y2077689D02*
D03*
X1085000Y2505000D02*
D03*
X1435000Y2005000D02*
D03*
X1509928Y2521582D02*
D03*
X1459929D02*
D03*
X1507687Y2276633D02*
D03*
X1462313Y2226633D02*
D03*
X1356535Y2477062D02*
D03*
X1334902Y2454375D02*
D03*
X1535000Y2405000D02*
D03*
X1585000Y2455000D02*
D03*
X1535000Y2355000D02*
D03*
X1410184Y2480455D02*
D03*
X1185000Y2255000D02*
D03*
X1135829Y2254628D02*
D03*
X1135000Y2205000D02*
D03*
Y2155000D02*
D03*
X1485000Y2105000D02*
D03*
X1506633Y2127687D02*
D03*
X1485000Y2205000D02*
D03*
X1434999Y2255001D02*
D03*
X1412312Y2276634D02*
D03*
X1485000Y2255000D02*
D03*
X1435000Y2405000D02*
D03*
X1412313Y2426633D02*
D03*
X1335000Y2355001D02*
D03*
X1335000Y2405000D02*
D03*
X1312313Y2426633D02*
D03*
X1285000Y2355000D02*
D03*
X1235249Y2405668D02*
D03*
X1212562Y2427301D02*
D03*
X1135000Y2355000D02*
D03*
X1156633Y2377687D02*
D03*
X1184850Y2405217D02*
D03*
X1162163Y2426850D02*
D03*
X1248660Y2850380D02*
D03*
X1099007Y2850577D02*
D03*
X1068505Y2850184D02*
D03*
X1510147Y1934155D02*
D03*
X1359853D02*
D03*
X1014407Y2279219D02*
D03*
Y2230781D02*
D03*
Y2180781D02*
D03*
X1159219Y1934407D02*
D03*
X1209219D02*
D03*
X1259219D02*
D03*
X1309218Y1934407D02*
D03*
X1459219Y1934407D02*
D03*
X1605593Y1979219D02*
D03*
X1605592Y2029218D02*
D03*
X1605593Y2079219D02*
D03*
X1605592Y2129221D02*
D03*
X1209219Y2525593D02*
D03*
X1159219D02*
D03*
X1435000Y2544928D02*
D03*
X1485000D02*
D03*
X1625026Y2155002D02*
D03*
X1585098Y1915075D02*
D03*
X1535000Y1915073D02*
D03*
X1485000D02*
D03*
X1435000D02*
D03*
X1385000D02*
D03*
X1285000D02*
D03*
X1235000D02*
D03*
X1185000D02*
D03*
X995072Y2055000D02*
D03*
X995073Y2154999D02*
D03*
X995072Y2205000D02*
D03*
X995073Y2255002D02*
D03*
X995072Y2355000D02*
D03*
X1014155Y2379852D02*
D03*
X995072Y2505000D02*
D03*
Y2455000D02*
D03*
X1014407Y2430780D02*
D03*
X1830752Y1688780D02*
D03*
X1751668Y1648584D02*
D03*
X1831668Y1573229D02*
D03*
X1751040Y1533229D02*
D03*
X1831041Y1457320D02*
D03*
X1751040Y1417321D02*
D03*
X793820Y824460D02*
D03*
X759653Y1100284D02*
D03*
X1416600Y1240080D02*
D03*
X1183640Y1285180D02*
D03*
X795300Y967461D02*
D03*
X931540Y1118240D02*
D03*
X886460Y1084580D02*
D03*
X753020Y824460D02*
D03*
X803831Y1013036D02*
D03*
X836979Y1012405D02*
D03*
X866140Y883920D02*
D03*
X673020Y824460D02*
D03*
X753020Y864460D02*
D03*
X851540Y1118240D02*
D03*
X932180Y1158437D02*
D03*
X-589130Y1341120D02*
D03*
X-601980Y1117600D02*
D03*
X-619700Y1341120D02*
D03*
X-635000Y1117600D02*
D03*
X-1246500Y1489080D02*
D03*
X-1676683Y1353781D02*
D03*
X-1676400Y1523280D02*
D03*
X-1166500Y1528408D02*
D03*
D145*
X1556960Y919540D02*
X1742439D01*
X1490980Y985520D02*
X1556960Y919540D01*
X1490980Y985520D02*
Y1280249D01*
X1463040Y1308189D02*
X1490980Y1280249D01*
X1417003Y1308189D02*
X1463040D01*
D146*
X2030925Y2561178D02*
D03*
Y2411178D02*
D03*
Y1961178D02*
D03*
Y1661178D02*
D03*
X1880925Y3461177D02*
D03*
X1730925Y4361177D02*
D03*
X1580925D02*
D03*
X1430926Y911178D02*
D03*
X1130926Y1061178D02*
D03*
Y911178D02*
D03*
X830926Y1811178D02*
D03*
X680926Y4511177D02*
D03*
Y3611177D02*
D03*
X530926Y4661177D02*
D03*
Y4361177D02*
D03*
X230926Y4661177D02*
D03*
X80926D02*
D03*
Y3761177D02*
D03*
X-69074Y4661177D02*
D03*
Y3911177D02*
D03*
Y3761177D02*
D03*
X-219074Y4661177D02*
D03*
Y4511177D02*
D03*
Y2111178D02*
D03*
X-369074Y4661177D02*
D03*
Y4511177D02*
D03*
Y4361177D02*
D03*
Y3911177D02*
D03*
Y3761177D02*
D03*
X-519074Y4661177D02*
D03*
X-669074D02*
D03*
Y4511177D02*
D03*
Y911178D02*
D03*
X-819074Y4661177D02*
D03*
Y4511177D02*
D03*
Y2261178D02*
D03*
Y161178D02*
D03*
X-969074Y4661177D02*
D03*
Y4511177D02*
D03*
Y161178D02*
D03*
Y11178D02*
D03*
X-1119074Y4661177D02*
D03*
Y161178D02*
D03*
X-1269074Y2561178D02*
D03*
X-1419074Y4361177D02*
D03*
Y2561178D02*
D03*
Y911178D02*
D03*
Y161178D02*
D03*
Y11178D02*
D03*
X-1569074Y4661177D02*
D03*
Y4511177D02*
D03*
Y3761177D02*
D03*
X-1719074Y4511177D02*
D03*
Y4361177D02*
D03*
Y4211177D02*
D03*
Y2561178D02*
D03*
X-1869073Y3611177D02*
D03*
Y3461177D02*
D03*
Y3311177D02*
D03*
Y3161177D02*
D03*
Y2561178D02*
D03*
X-2019073Y2711177D02*
D03*
Y2561178D02*
D03*
Y2411178D02*
D03*
X830926Y4511177D02*
D03*
X-2107551Y2310000D02*
D03*
X-2110740Y2170000D02*
D03*
X834052Y1981430D02*
D03*
X1668100Y3295650D02*
D03*
X782666Y4493397D02*
D03*
X662394Y4329761D02*
D03*
X-2095500Y2009140D02*
D03*
X-1351280Y1701800D02*
D03*
X-1308793Y3316781D02*
D03*
X-911860Y3427259D02*
D03*
%TF.MD5,8f6c218ff8c3cb5292c124ac05ccea74*%
M02*
