%TF.GenerationSoftware,Altium Limited,Altium Designer,26.10.1 (5)*%
G04 Layer_Color=0*
G04 Board_Origin=74386096|43952041*
%FSLAX45Y45*%
%MOMM*%
%TF.SameCoordinates,2921B627-0CEA-4390-BE51-8046150D5B20*%
%TF.FilePolarity,Positive*%
%TF.FileFunction,Plated,1,10,PTH,Drill*%
%TF.Part,Single*%
G01*
G75*
%TA.AperFunction,ComponentDrill*%
%ADD279C,1.02000*%
%ADD280C,1.02000*%
%ADD281C,0.70000*%
%ADD282C,0.50000*%
%ADD283C,0.50000*%
%ADD284C,0.50000*%
%ADD285C,1.20000*%
%ADD286C,0.80000*%
%ADD287O,1.80000X0.60000*%
%ADD288O,1.40000X0.60000*%
%TA.AperFunction,ViaDrill,NotFilled*%
%ADD289C,0.15240*%
%ADD290C,0.10160*%
D279*
X-629920Y553720D02*
D03*
X-883920D02*
D03*
X3591560Y-693420D02*
D03*
X3337560D02*
D03*
X3083560D02*
D03*
X2829560D02*
D03*
X3365500Y3342980D02*
D03*
X1844040Y-721360D02*
D03*
X-1417320D02*
D03*
X756920D02*
D03*
X-330200D02*
D03*
X3111500Y3342980D02*
D03*
X2857500D02*
D03*
X2603500D02*
D03*
X1590040Y-721360D02*
D03*
X-1671320D02*
D03*
X502920D02*
D03*
X-584200D02*
D03*
X2829560Y-261620D02*
D03*
X3083560D02*
D03*
X3337560D02*
D03*
X3591560D02*
D03*
D280*
X2169160Y1297940D02*
D03*
Y1043940D02*
D03*
X2219960Y419100D02*
D03*
Y165100D02*
D03*
X-2136140Y3881120D02*
D03*
Y3627120D02*
D03*
X-2130663Y4467120D02*
D03*
Y4213120D02*
D03*
X-2034540Y7176200D02*
D03*
Y6922200D02*
D03*
X3530599Y2277140D02*
D03*
X2618740Y2023140D02*
D03*
Y2277140D02*
D03*
X3226646Y2023140D02*
D03*
Y2277140D02*
D03*
X3530599Y2023140D02*
D03*
X2922693D02*
D03*
Y2277140D02*
D03*
X3479800Y6922200D02*
D03*
Y7176200D02*
D03*
X-510540Y6922200D02*
D03*
Y7176200D02*
D03*
X2463801Y6922200D02*
D03*
Y7176200D02*
D03*
X-1018540Y6922200D02*
D03*
Y7176200D02*
D03*
X2970736Y6922200D02*
D03*
Y7176200D02*
D03*
X1480820Y6922200D02*
D03*
Y7176200D02*
D03*
X464818Y6922200D02*
D03*
Y7176200D02*
D03*
X-1526540Y6922200D02*
D03*
Y7176200D02*
D03*
X1955800Y6922200D02*
D03*
Y7176200D02*
D03*
X972819Y6922200D02*
D03*
Y7176200D02*
D03*
X-22861Y6922200D02*
D03*
Y7176200D02*
D03*
X3987800Y6922200D02*
D03*
Y7176200D02*
D03*
D281*
X4305300Y2997200D02*
D03*
Y3124200D02*
D03*
Y3378200D02*
D03*
X4284980Y4711700D02*
D03*
Y4838700D02*
D03*
Y5092701D02*
D03*
X4178300Y3378200D02*
D03*
X4178300Y3251200D02*
D03*
X4305300D02*
D03*
X4178300Y3124200D02*
D03*
X4178300Y2997200D02*
D03*
Y2870200D02*
D03*
X4305300D02*
D03*
X4157980Y4584700D02*
D03*
X4284980D02*
D03*
X4157980Y4711701D02*
D03*
X4157980Y4838700D02*
D03*
X4284980Y4965700D02*
D03*
X4157980D02*
D03*
X4157980Y5092700D02*
D03*
D282*
X-1055759Y5869732D02*
D03*
X-1130000Y790000D02*
D03*
X-630000D02*
D03*
X-781459Y5869732D02*
D03*
X1790541Y5489732D02*
D03*
X1060041Y5109732D02*
D03*
X-232859D02*
D03*
X1060041Y5869732D02*
D03*
X-232859D02*
D03*
X511441Y5109732D02*
D03*
X-507159D02*
D03*
X785741Y5869732D02*
D03*
Y5109732D02*
D03*
X-781459D02*
D03*
X511441Y5869732D02*
D03*
X-507159D02*
D03*
X237141Y5109732D02*
D03*
X-1055759D02*
D03*
X237141Y5869732D02*
D03*
X1550500Y5489700D02*
D03*
D283*
X1739900Y1211580D02*
D03*
D284*
X1610000Y1100000D02*
D03*
D285*
X1289800Y20320D02*
D03*
X-387500Y22100D02*
D03*
D286*
X389400Y20320D02*
D03*
X-1287900Y22100D02*
D03*
D287*
X4361240Y694500D02*
D03*
Y1558500D02*
D03*
D288*
X3961240Y694500D02*
D03*
Y1558500D02*
D03*
D289*
X2612868Y4402500D02*
D03*
X1625600Y4529640D02*
D03*
X1701026Y4522575D02*
D03*
X1793665Y4509804D02*
D03*
X2304166Y4512921D02*
D03*
X1904166D02*
D03*
X2504487D02*
D03*
X2104166D02*
D03*
X2407469D02*
D03*
X2204166D02*
D03*
X2004166D02*
D03*
X2613564D02*
D03*
X1330960Y4420280D02*
D03*
X-894074Y5336177D02*
D03*
Y5786176D02*
D03*
X-883920Y5654040D02*
D03*
X-859438Y5738866D02*
D03*
X605932Y6586182D02*
D03*
X105932Y6336182D02*
D03*
X187960Y5519420D02*
D03*
X155926Y5336177D02*
D03*
X2855932Y6586182D02*
D03*
X2750003Y6293372D02*
D03*
X3150003D02*
D03*
X3250003D02*
D03*
X2850003D02*
D03*
X3050003D02*
D03*
X2650000D02*
D03*
X2950003D02*
D03*
X3355932Y6586182D02*
D03*
X1361440Y5596189D02*
D03*
X1506810Y5577840D02*
D03*
X2950000Y6200000D02*
D03*
X2600000D02*
D03*
X2850000D02*
D03*
X3050000D02*
D03*
X3150000D02*
D03*
X1676410Y5577850D02*
D03*
X1783095Y5577840D02*
D03*
X1050184Y5689911D02*
D03*
X2759614Y6176790D02*
D03*
X3250000Y6200000D02*
D03*
X3600000Y6550000D02*
D03*
X3450000Y6300000D02*
D03*
X3350000D02*
D03*
X4500000Y6600000D02*
D03*
X4400000Y6598453D02*
D03*
X4300000Y6602215D02*
D03*
X4200000Y6600000D02*
D03*
X4050000Y6603536D02*
D03*
X3950000Y6600000D02*
D03*
X3750000D02*
D03*
X3650000D02*
D03*
X3550000Y6500000D02*
D03*
Y6400000D02*
D03*
Y6300000D02*
D03*
X4450000Y5900000D02*
D03*
X4350000D02*
D03*
X4250000D02*
D03*
X4150000D02*
D03*
X4050000D02*
D03*
X3950000D02*
D03*
X3839900D02*
D03*
X3750000D02*
D03*
X3650000D02*
D03*
X3550000D02*
D03*
Y6000000D02*
D03*
Y6100000D02*
D03*
Y6200000D02*
D03*
X3450000D02*
D03*
X3350000D02*
D03*
X2750000Y6100000D02*
D03*
Y6000000D02*
D03*
X2600000D02*
D03*
Y5900000D02*
D03*
X2750000D02*
D03*
Y5800000D02*
D03*
X2600000D02*
D03*
Y5700000D02*
D03*
X2750000D02*
D03*
Y5600000D02*
D03*
X2600000Y5500000D02*
D03*
X2750000D02*
D03*
Y5400000D02*
D03*
X2600000D02*
D03*
Y5300000D02*
D03*
X2750000D02*
D03*
Y5200000D02*
D03*
X2600000D02*
D03*
Y5092823D02*
D03*
X2750000Y5100000D02*
D03*
X2600000Y4610967D02*
D03*
X2494341Y4600000D02*
D03*
X2400000D02*
D03*
X2300000D02*
D03*
X2200000D02*
D03*
X2100000D02*
D03*
X1900000D02*
D03*
X1800000D02*
D03*
X2600000Y6100000D02*
D03*
Y5600000D02*
D03*
X2000000Y4600000D02*
D03*
X1713314Y4635454D02*
D03*
X2712604Y4588763D02*
D03*
X-200000Y4450000D02*
D03*
X-953376Y-115075D02*
D03*
X-1557020Y4736177D02*
D03*
X-1600200Y4737100D02*
D03*
X1783095Y5401859D02*
D03*
X1889760Y5489854D02*
D03*
Y5401869D02*
D03*
Y5577850D02*
D03*
X-866140Y5250180D02*
D03*
X863600Y5664200D02*
D03*
Y5354320D02*
D03*
X698500Y5361940D02*
D03*
X411480Y5557520D02*
D03*
X337820Y5405120D02*
D03*
X3180289Y1173798D02*
D03*
X3158996Y1081170D02*
D03*
X3300954Y1172378D02*
D03*
X3300600Y1081170D02*
D03*
X3797300Y1173480D02*
D03*
X3817620Y1076960D02*
D03*
X2466340Y3286760D02*
D03*
X1905000D02*
D03*
X2448560Y4168140D02*
D03*
X3810000Y4544060D02*
D03*
X2578100Y711200D02*
D03*
X2834640Y1353820D02*
D03*
X2573020Y1381760D02*
D03*
X-17780Y-772160D02*
D03*
X3263900Y2844800D02*
D03*
X3728720Y4206240D02*
D03*
X1125220Y5364449D02*
D03*
X-599617Y5588422D02*
D03*
X3450789Y1013756D02*
D03*
X-850900Y50562D02*
D03*
X1778000Y3302000D02*
D03*
X4355932Y7586182D02*
D03*
Y7336182D02*
D03*
Y7086182D02*
D03*
Y6836182D02*
D03*
Y5836182D02*
D03*
Y5586182D02*
D03*
Y5336182D02*
D03*
Y4336182D02*
D03*
Y4086182D02*
D03*
Y3836182D02*
D03*
Y3586182D02*
D03*
Y2586182D02*
D03*
Y2336182D02*
D03*
Y2086182D02*
D03*
Y586182D02*
D03*
Y336182D02*
D03*
Y86182D02*
D03*
Y-163818D02*
D03*
Y-413818D02*
D03*
X4105932Y7586182D02*
D03*
Y7336182D02*
D03*
Y7086182D02*
D03*
Y6836182D02*
D03*
Y5836182D02*
D03*
Y5586182D02*
D03*
Y5336182D02*
D03*
Y4336182D02*
D03*
Y4086182D02*
D03*
Y3836182D02*
D03*
Y3586182D02*
D03*
Y2586182D02*
D03*
Y2336182D02*
D03*
Y2086182D02*
D03*
Y1836182D02*
D03*
Y1336182D02*
D03*
Y1086182D02*
D03*
Y836182D02*
D03*
Y586182D02*
D03*
Y336182D02*
D03*
Y86182D02*
D03*
Y-163818D02*
D03*
Y-413818D02*
D03*
X3855932Y7836182D02*
D03*
Y7586182D02*
D03*
Y7336182D02*
D03*
Y7086182D02*
D03*
Y5836182D02*
D03*
Y5586182D02*
D03*
Y5336182D02*
D03*
Y5086182D02*
D03*
Y4836182D02*
D03*
Y4586182D02*
D03*
Y4336182D02*
D03*
Y4086182D02*
D03*
Y3836182D02*
D03*
Y3586182D02*
D03*
Y3336182D02*
D03*
Y3086182D02*
D03*
Y2836182D02*
D03*
Y2586182D02*
D03*
Y2336182D02*
D03*
Y336182D02*
D03*
Y-413818D02*
D03*
Y-663818D02*
D03*
X3605932Y7836182D02*
D03*
Y7586182D02*
D03*
Y7336182D02*
D03*
Y7086182D02*
D03*
Y6836182D02*
D03*
Y5836182D02*
D03*
Y5586182D02*
D03*
Y5336182D02*
D03*
Y5086182D02*
D03*
Y4836182D02*
D03*
Y4586182D02*
D03*
Y4336182D02*
D03*
Y4086182D02*
D03*
Y3836182D02*
D03*
Y3586182D02*
D03*
Y3336182D02*
D03*
Y-413818D02*
D03*
X3355932Y7836182D02*
D03*
Y7586182D02*
D03*
Y7336182D02*
D03*
Y7086182D02*
D03*
Y6836182D02*
D03*
Y5586182D02*
D03*
Y5336182D02*
D03*
Y5086182D02*
D03*
Y4836182D02*
D03*
Y4586182D02*
D03*
Y4336182D02*
D03*
Y3586182D02*
D03*
Y2336182D02*
D03*
Y2086182D02*
D03*
Y336182D02*
D03*
Y86182D02*
D03*
Y-413818D02*
D03*
X3105932Y7836182D02*
D03*
Y7586182D02*
D03*
Y7336182D02*
D03*
Y7086182D02*
D03*
Y6836182D02*
D03*
Y6586182D02*
D03*
Y5586182D02*
D03*
Y5336182D02*
D03*
Y5086182D02*
D03*
Y4836182D02*
D03*
Y4586182D02*
D03*
Y4336182D02*
D03*
Y3586182D02*
D03*
Y3086182D02*
D03*
Y2586182D02*
D03*
Y2336182D02*
D03*
Y2086182D02*
D03*
Y336182D02*
D03*
Y86182D02*
D03*
Y-413818D02*
D03*
X2855932Y7836182D02*
D03*
Y7586182D02*
D03*
Y7336182D02*
D03*
Y7086182D02*
D03*
Y6836182D02*
D03*
Y5586182D02*
D03*
Y5086182D02*
D03*
Y2586182D02*
D03*
Y1836182D02*
D03*
X2605932Y7836182D02*
D03*
Y7586182D02*
D03*
Y7336182D02*
D03*
Y7086182D02*
D03*
Y6836182D02*
D03*
Y6586182D02*
D03*
Y3086182D02*
D03*
Y336182D02*
D03*
Y-163818D02*
D03*
Y-663818D02*
D03*
X2355932Y7836182D02*
D03*
Y7586182D02*
D03*
Y7336182D02*
D03*
Y7086182D02*
D03*
Y6836182D02*
D03*
Y6586182D02*
D03*
X2105932Y7836182D02*
D03*
Y7586182D02*
D03*
Y7336182D02*
D03*
Y7086182D02*
D03*
Y6836182D02*
D03*
Y6586182D02*
D03*
Y-663818D02*
D03*
X1855932Y7836182D02*
D03*
Y7586182D02*
D03*
Y7336182D02*
D03*
Y7086182D02*
D03*
X1605932Y7836182D02*
D03*
Y7586182D02*
D03*
Y7336182D02*
D03*
Y7086182D02*
D03*
Y6836182D02*
D03*
X1355932Y7836182D02*
D03*
Y7586182D02*
D03*
Y7336182D02*
D03*
Y7086182D02*
D03*
Y6836182D02*
D03*
X1105932Y7836182D02*
D03*
Y7586182D02*
D03*
Y7336182D02*
D03*
Y7086182D02*
D03*
Y6836182D02*
D03*
Y-663818D02*
D03*
X855932Y7836182D02*
D03*
Y7586182D02*
D03*
Y7336182D02*
D03*
Y7086182D02*
D03*
Y6836182D02*
D03*
Y6336182D02*
D03*
X605932Y7836182D02*
D03*
Y7586182D02*
D03*
Y7336182D02*
D03*
Y7086182D02*
D03*
Y6836182D02*
D03*
Y-663818D02*
D03*
X355932Y7836182D02*
D03*
Y7586182D02*
D03*
Y7336182D02*
D03*
Y7086182D02*
D03*
Y6836182D02*
D03*
Y-663818D02*
D03*
X105932Y7836182D02*
D03*
Y7586182D02*
D03*
Y7336182D02*
D03*
Y7086182D02*
D03*
Y6836182D02*
D03*
Y6586182D02*
D03*
Y-663818D02*
D03*
X-144068Y7836182D02*
D03*
Y7586182D02*
D03*
Y7336182D02*
D03*
Y7086182D02*
D03*
Y6836182D02*
D03*
Y6586182D02*
D03*
Y6336182D02*
D03*
Y-663818D02*
D03*
X-394068Y7836182D02*
D03*
Y7586182D02*
D03*
Y7336182D02*
D03*
Y7086182D02*
D03*
Y6836182D02*
D03*
Y6586182D02*
D03*
Y6336182D02*
D03*
X-644068Y7836182D02*
D03*
Y7586182D02*
D03*
Y7336182D02*
D03*
Y7086182D02*
D03*
Y6836182D02*
D03*
X-894068Y7836182D02*
D03*
Y7586182D02*
D03*
Y7336182D02*
D03*
Y7086182D02*
D03*
Y6836182D02*
D03*
Y-663818D02*
D03*
X-1144068Y7836182D02*
D03*
Y7586182D02*
D03*
Y7336182D02*
D03*
Y7086182D02*
D03*
Y6836182D02*
D03*
Y6586182D02*
D03*
Y-663818D02*
D03*
X-1394068Y7586182D02*
D03*
Y7336182D02*
D03*
Y7086182D02*
D03*
Y6836182D02*
D03*
Y6336182D02*
D03*
X-1644068Y7836182D02*
D03*
Y7586182D02*
D03*
Y7336182D02*
D03*
Y7086182D02*
D03*
Y6836182D02*
D03*
Y6336182D02*
D03*
X-1894068Y7836182D02*
D03*
Y7586182D02*
D03*
Y7336182D02*
D03*
Y7086182D02*
D03*
Y6836182D02*
D03*
Y6336182D02*
D03*
Y-663818D02*
D03*
X-2144068Y7586182D02*
D03*
Y7336182D02*
D03*
Y7086182D02*
D03*
Y6836182D02*
D03*
Y6586182D02*
D03*
Y6336182D02*
D03*
X2030925Y2561178D02*
D03*
Y2411178D02*
D03*
Y1961178D02*
D03*
Y1661178D02*
D03*
X1880925Y3461177D02*
D03*
X1730925Y4361177D02*
D03*
X1580925D02*
D03*
X1430926Y911178D02*
D03*
X1130926Y1061178D02*
D03*
Y911178D02*
D03*
X830926Y1811178D02*
D03*
X680926Y4511177D02*
D03*
Y3611177D02*
D03*
X530926Y4661177D02*
D03*
Y4361177D02*
D03*
X230926Y4661177D02*
D03*
X80926D02*
D03*
Y3761177D02*
D03*
X-69074Y4661177D02*
D03*
Y3911177D02*
D03*
Y3761177D02*
D03*
X-219074Y4661177D02*
D03*
Y4511177D02*
D03*
Y2111178D02*
D03*
X-369074Y4661177D02*
D03*
Y4511177D02*
D03*
Y4361177D02*
D03*
Y3911177D02*
D03*
Y3761177D02*
D03*
X-519074Y4661177D02*
D03*
X-669074D02*
D03*
Y4511177D02*
D03*
Y911178D02*
D03*
X-819074Y4661177D02*
D03*
Y4511177D02*
D03*
Y2261178D02*
D03*
Y161178D02*
D03*
X-969074Y4661177D02*
D03*
Y4511177D02*
D03*
Y161178D02*
D03*
Y11178D02*
D03*
X-1119074Y4661177D02*
D03*
Y161178D02*
D03*
X-1269074Y2561178D02*
D03*
X-1419074Y4361177D02*
D03*
Y2561178D02*
D03*
Y911178D02*
D03*
Y161178D02*
D03*
Y11178D02*
D03*
X-1569074Y4661177D02*
D03*
Y4511177D02*
D03*
Y3761177D02*
D03*
X-1719074Y4511177D02*
D03*
Y4361177D02*
D03*
Y4211177D02*
D03*
Y2561178D02*
D03*
X-1869073Y3611177D02*
D03*
Y3461177D02*
D03*
Y3311177D02*
D03*
Y3161177D02*
D03*
Y2561178D02*
D03*
X-2019073Y2711177D02*
D03*
Y2561178D02*
D03*
Y2411178D02*
D03*
X830926Y4511177D02*
D03*
X-2107551Y2310000D02*
D03*
X-2110740Y2170000D02*
D03*
X834052Y1981430D02*
D03*
X1668100Y3295650D02*
D03*
X1313100Y1689100D02*
D03*
X1277620Y1663700D02*
D03*
Y1713174D02*
D03*
X782666Y4493397D02*
D03*
X662394Y4329761D02*
D03*
X-2095500Y2009140D02*
D03*
X-1351280Y1701800D02*
D03*
X-1308793Y3316781D02*
D03*
X-911860Y3427259D02*
D03*
X-853440Y2702480D02*
D03*
Y2743040D02*
D03*
Y2661920D02*
D03*
X-1419860Y3098800D02*
D03*
X-1465580Y3850980D02*
D03*
X-1689100Y3261360D02*
D03*
X-1391920Y3035600D02*
D03*
X-1382306Y2877720D02*
D03*
X-1697668Y3086100D02*
D03*
X-1701800Y2867721D02*
D03*
X2001520Y3898900D02*
D03*
X-1794074Y5486176D02*
D03*
X-1644074D02*
D03*
X-1494074D02*
D03*
X-894074Y5036177D02*
D03*
Y5186177D02*
D03*
X-744074Y5036177D02*
D03*
X-594074D02*
D03*
Y5186177D02*
D03*
Y5336177D02*
D03*
Y5636176D02*
D03*
Y5786176D02*
D03*
X-444074Y5036177D02*
D03*
X-294074D02*
D03*
Y5186177D02*
D03*
Y5336177D02*
D03*
Y5636176D02*
D03*
Y5786176D02*
D03*
X-144074Y5036177D02*
D03*
X5926D02*
D03*
Y5186177D02*
D03*
Y5486176D02*
D03*
Y5636176D02*
D03*
Y5786176D02*
D03*
X155926Y5036177D02*
D03*
X305926D02*
D03*
Y5186177D02*
D03*
Y5636176D02*
D03*
Y5786176D02*
D03*
X455926Y5036177D02*
D03*
X605926D02*
D03*
Y5186177D02*
D03*
X905926Y5036177D02*
D03*
Y5186177D02*
D03*
X-1046263Y5688510D02*
D03*
X-1519442Y4585960D02*
D03*
X380000Y4030949D02*
D03*
X1374863Y4036400D02*
D03*
X1318051Y3958421D02*
D03*
X1308100Y3919220D02*
D03*
X1366520Y4124960D02*
D03*
X1700020Y3629177D02*
D03*
X1270000Y3800000D02*
D03*
X-897068Y4074379D02*
D03*
X-1162859Y3718981D02*
D03*
X73299Y298236D02*
D03*
X964936Y3603352D02*
D03*
X962327Y3649795D02*
D03*
X-631130Y224850D02*
D03*
X-600860Y255119D02*
D03*
X912620Y1061630D02*
D03*
X132843Y1317500D02*
D03*
X-1630773Y2069127D02*
D03*
X-489082Y3153120D02*
D03*
X1298157Y4665311D02*
D03*
X254417Y2284782D02*
D03*
X-681181Y2351550D02*
D03*
X426648Y2461582D02*
D03*
X321617Y2462154D02*
D03*
X94246Y1258060D02*
D03*
X138427Y1182993D02*
D03*
X113778Y296322D02*
D03*
X254295Y2794503D02*
D03*
X-1299815Y1630557D02*
D03*
X395596Y1586450D02*
D03*
X858520Y2819400D02*
D03*
X1214880Y2654810D02*
D03*
X1662808Y2146236D02*
D03*
X1342272Y1483752D02*
D03*
X720765Y1898297D02*
D03*
X178503Y1844236D02*
D03*
X173222Y1775219D02*
D03*
X-769224Y1855021D02*
D03*
X-781269Y1900563D02*
D03*
X-1454068Y1933049D02*
D03*
X-1217548Y1714457D02*
D03*
X-1601828Y1433479D02*
D03*
X-1362732Y1585919D02*
D03*
X701040Y68580D02*
D03*
Y27710D02*
D03*
X-639064Y2393214D02*
D03*
X588355Y3145388D02*
D03*
X246380Y1960880D02*
D03*
Y1897380D02*
D03*
X1536760Y1341638D02*
D03*
X-1893848Y1526513D02*
D03*
X3906520Y3768979D02*
D03*
X3826510Y3000629D02*
D03*
X3642360Y2874899D02*
D03*
X2857500Y4574540D02*
D03*
X3862113Y1151281D02*
D03*
Y1101281D02*
D03*
X3115318Y1151811D02*
D03*
Y1101811D02*
D03*
X3355639Y1087120D02*
D03*
X3355340Y1165860D02*
D03*
X2044700Y2357120D02*
D03*
X1332736Y4533900D02*
D03*
X784860Y5295296D02*
D03*
X237464D02*
D03*
X-506362Y5296262D02*
D03*
X1180082Y4566330D02*
D03*
X1189401Y4301566D02*
D03*
X1228970Y4406677D02*
D03*
X-446301Y4585961D02*
D03*
X-1160780Y3886200D02*
D03*
X-892820Y4234180D02*
D03*
X-1163948Y4585960D02*
D03*
X-780677Y5295666D02*
D03*
X785741Y5691829D02*
D03*
X1049687Y5291700D02*
D03*
X511441Y5689079D02*
D03*
X237141Y5688847D02*
D03*
X511441Y5295296D02*
D03*
X-232062Y5297345D02*
D03*
Y5688902D02*
D03*
X-506362Y5688637D02*
D03*
X-780867Y5687342D02*
D03*
X-1045309Y5296462D02*
D03*
X-746760Y78970D02*
D03*
Y38100D02*
D03*
X-42947Y1183758D02*
D03*
Y1142888D02*
D03*
X-1371600Y1191260D02*
D03*
Y1246526D02*
D03*
X138427Y1142123D02*
D03*
X622938Y295278D02*
D03*
X652208Y266008D02*
D03*
X681478Y236739D02*
D03*
X-660400Y195580D02*
D03*
X-369556Y3093307D02*
D03*
X895740Y1691878D02*
D03*
X-1831000Y2645000D02*
D03*
X1225333Y2233246D02*
D03*
X1572260Y2613660D02*
D03*
X358140Y2798431D02*
D03*
X843280Y3108500D02*
D03*
X891766Y3109188D02*
D03*
X866140Y3075020D02*
D03*
X553720Y2194560D02*
D03*
X-777240Y3418840D02*
D03*
X-800100Y3452320D02*
D03*
X-827100Y3418840D02*
D03*
X422527Y1617642D02*
D03*
X370772Y1618243D02*
D03*
X456915Y1659576D02*
D03*
X424985Y1688056D02*
D03*
X488768Y1687011D02*
D03*
X-634136Y1728724D02*
D03*
X-609206Y1695244D02*
D03*
X553720Y1628140D02*
D03*
X899558Y3472180D02*
D03*
X872558Y3438700D02*
D03*
X849698Y3472180D02*
D03*
X491531Y1628140D02*
D03*
X640002D02*
D03*
X596861D02*
D03*
X-659066Y1695244D02*
D03*
X-613080Y2103120D02*
D03*
X-640080Y2069640D02*
D03*
X-662940Y2103120D02*
D03*
X950000Y4573491D02*
D03*
X962660Y4259580D02*
D03*
X762000Y4572000D02*
D03*
X-1465780Y1592580D02*
D03*
X1524160Y3463399D02*
D03*
X574040Y4170680D02*
D03*
X469053Y4220001D02*
D03*
X-117960Y4200002D02*
D03*
Y4272280D02*
D03*
X590005Y3204676D02*
D03*
X-43180Y3197220D02*
D03*
X34166Y3198660D02*
D03*
X123219Y3387713D02*
D03*
X881343Y4065246D02*
D03*
X947420Y4064000D02*
D03*
X1218000Y3600252D02*
D03*
X1453449Y2772353D02*
D03*
X1186661Y3302000D02*
D03*
X1268500D02*
D03*
X1778000Y3048000D02*
D03*
X-158452Y2848908D02*
D03*
X-324348Y2099107D02*
D03*
X-324584Y2057866D02*
D03*
X-145500Y2284330D02*
D03*
X-1016035Y1030537D02*
D03*
X577456Y3366831D02*
D03*
X-911608Y3301748D02*
D03*
X-1074168Y3342388D02*
D03*
X-594108Y3048757D02*
D03*
X-340108Y3306828D02*
D03*
X-180088Y3487168D02*
D03*
X10412Y2615948D02*
D03*
X119692Y2686335D02*
D03*
X486325Y2682432D02*
D03*
X-11820Y2654195D02*
D03*
X-256540Y2471420D02*
D03*
X-374480Y2749720D02*
D03*
X-363220Y2806700D02*
D03*
X-744220Y2537460D02*
D03*
X-1270000Y2794000D02*
D03*
X-805180Y2722880D02*
D03*
X-629832Y2796540D02*
D03*
X-744220Y2725420D02*
D03*
X-240000Y1355000D02*
D03*
X-1785780Y2394670D02*
D03*
X-1826340D02*
D03*
X-1866900D02*
D03*
X-1019225Y1614349D02*
D03*
X-762360Y2032000D02*
D03*
X-1189080Y1750060D02*
D03*
X-1308100Y1897380D02*
D03*
X-1270000Y2032000D02*
D03*
X-1568409Y1897380D02*
D03*
X-254000Y2032000D02*
D03*
X254001Y2032000D02*
D03*
X-762000Y1524000D02*
D03*
Y1016000D02*
D03*
X-847498Y1301820D02*
D03*
X-1016000Y1270000D02*
D03*
X1832373Y1879658D02*
D03*
X1875464Y1573116D02*
D03*
X1874547Y1688669D02*
D03*
X1874520Y1457320D02*
D03*
X656998Y1263242D02*
D03*
X637540Y807720D02*
D03*
X793820Y893226D02*
D03*
X967740Y920643D02*
D03*
X1241380Y1125900D02*
D03*
X1146885Y1247140D02*
D03*
D290*
X1267460Y896620D02*
D03*
%TF.MD5,a11300dd5b72e8c14f779bd5abd64fa6*%
M02*
