%TF.GenerationSoftware,Altium Limited,Altium Designer,26.10.1 (5)*%
G04 Layer_Color=0*
G04 Board_Origin=74386096|43952041*
%FSLAX45Y45*%
%MOMM*%
%TF.SameCoordinates,9E1A2420-9DF8-4FB8-AA41-10CD80989974*%
%TF.FilePolarity,Positive*%
%TF.FileFunction,Plated,2,3,Blind,Drill*%
%TF.Part,Single*%
G01*
G75*
%TA.AperFunction,ViaDrill,NotFilled*%
%ADD290C,0.10160*%
%ADD291C,0.10200*%
D290*
X1106100Y2202857D02*
D03*
X1084846Y2144501D02*
D03*
X1098272Y2274898D02*
D03*
X1090148Y1906581D02*
D03*
X1163367Y2232313D02*
D03*
X916940Y3733800D02*
D03*
X1711960Y5414830D02*
D03*
X1673172Y5489700D02*
D03*
X1511227Y4628424D02*
D03*
X1564640Y4676140D02*
D03*
X1546586Y3996683D02*
D03*
X1715301Y2203544D02*
D03*
X1606290Y1611850D02*
D03*
X307340Y1812643D02*
D03*
X444744Y2552343D02*
D03*
X396761Y2411234D02*
D03*
X-282369Y1255046D02*
D03*
X1982108Y2321952D02*
D03*
X1884426Y2327035D02*
D03*
X1110400Y2479040D02*
D03*
X3376777Y5760307D02*
D03*
X3078277Y5760807D02*
D03*
X2504237Y4901807D02*
D03*
X2799237D02*
D03*
X3375777Y3724088D02*
D03*
X3074777Y3715621D02*
D03*
X3414657Y2714047D02*
D03*
X2894657D02*
D03*
X3559977Y1462647D02*
D03*
X4330677Y1775126D02*
D03*
X3941142Y2013787D02*
D03*
X3761143Y1295906D02*
D03*
X3241063Y1370474D02*
D03*
X3051573Y1272483D02*
D03*
X2840567D02*
D03*
X2640567D02*
D03*
X2876573Y1027373D02*
D03*
X2714273Y1189673D02*
D03*
X3038873D02*
D03*
Y865073D02*
D03*
X2714273D02*
D03*
X2851573Y782263D02*
D03*
X3936062Y-328227D02*
D03*
X2546063Y-329014D02*
D03*
X3959883Y1445710D02*
D03*
X3839922Y1445907D02*
D03*
X3759223Y1432107D02*
D03*
X3695677Y803093D02*
D03*
X3850617Y806890D02*
D03*
X3962423Y806693D02*
D03*
X349498Y4409447D02*
D03*
X-71120Y1315404D02*
D03*
X860606Y967658D02*
D03*
X78914Y3076137D02*
D03*
X307514D02*
D03*
X302434Y3276797D02*
D03*
X142066D02*
D03*
X429086Y4099757D02*
D03*
X197946Y4102297D02*
D03*
X426546Y4335977D02*
D03*
X197946Y4333437D02*
D03*
X-434514Y2403037D02*
D03*
Y2455983D02*
D03*
X195474Y294277D02*
D03*
X-12874D02*
D03*
X-589734Y951837D02*
D03*
X975354Y1692075D02*
D03*
X1181479Y2726359D02*
D03*
X-35861Y2410381D02*
D03*
X459409Y1465448D02*
D03*
X-410647Y1482916D02*
D03*
X823463Y3160861D02*
D03*
X-641058Y1867613D02*
D03*
Y1906827D02*
D03*
X-752563Y1934486D02*
D03*
X1447587Y1662298D02*
D03*
X1027609Y4306393D02*
D03*
X920109Y4305393D02*
D03*
X810260Y4305000D02*
D03*
X1754769Y3489567D02*
D03*
X1646291D02*
D03*
X1565373Y3877174D02*
D03*
X1525368Y3946227D02*
D03*
X753657Y3308360D02*
D03*
X853463Y3289599D02*
D03*
Y3251648D02*
D03*
X1146157Y2920773D02*
D03*
X459884Y1421877D02*
D03*
X531541Y1360803D02*
D03*
X92717Y3010000D02*
D03*
X-281963Y2971553D02*
D03*
X-308358Y2410613D02*
D03*
X-433270Y2784326D02*
D03*
X-1613817Y3605593D02*
D03*
X-1474823D02*
D03*
Y3405593D02*
D03*
X-1613817D02*
D03*
X-1029521Y3096653D02*
D03*
X-1129521Y3196653D02*
D03*
X-990527D02*
D03*
Y2996653D02*
D03*
X-1129521D02*
D03*
X-1279027Y3096653D02*
D03*
X-1218021Y3046654D02*
D03*
X-1325514Y3505397D02*
D03*
X-1386126Y3555396D02*
D03*
X-1071334Y2816497D02*
D03*
X-981334Y2746497D02*
D03*
X-932354Y2631440D02*
D03*
X-1048846Y2631243D02*
D03*
X-1211406Y2632500D02*
D03*
X-1097454Y2632303D02*
D03*
X-1514694Y2550000D02*
D03*
X-1633046Y2549803D02*
D03*
X-1261860Y2173617D02*
D03*
X-922510Y1999101D02*
D03*
X-917898Y2079101D02*
D03*
X-970363Y1709813D02*
D03*
X-853357Y1775853D02*
D03*
X-854701Y1878511D02*
D03*
X-1455306Y1814803D02*
D03*
X-1755306Y1859803D02*
D03*
X-1925306Y1910197D02*
D03*
X-1864694Y1860197D02*
D03*
X-1244694Y1945837D02*
D03*
Y1815197D02*
D03*
X-1527953Y2065689D02*
D03*
X-1519694Y1943331D02*
D03*
Y1812691D02*
D03*
X-1516206Y1736997D02*
D03*
X546809Y2728825D02*
D03*
X65297Y2728913D02*
D03*
X10351Y2526634D02*
D03*
X503Y2147894D02*
D03*
X100503D02*
D03*
X390502Y2150393D02*
D03*
X478002D02*
D03*
X615602Y1719603D02*
D03*
X1154274Y2303519D02*
D03*
X1254161Y2255099D02*
D03*
X-1237423Y1527749D02*
D03*
X-1567731Y1207238D02*
D03*
X-1567534Y1242011D02*
D03*
X-1567359Y1066874D02*
D03*
X-1568239Y1035208D02*
D03*
X-742448Y1103547D02*
D03*
X1937666Y1784947D02*
D03*
X1669528Y1736528D02*
D03*
X1670712Y1694574D02*
D03*
X1608129Y1569623D02*
D03*
X1821485Y1649391D02*
D03*
X1823683Y1533229D02*
D03*
X1822113Y1417546D02*
D03*
X1357026Y1173744D02*
D03*
X680864Y864915D02*
D03*
X860007Y1158240D02*
D03*
X941501Y1407934D02*
D03*
X1044712Y1407034D02*
D03*
X173604Y1723037D02*
D03*
X1445343Y1729347D02*
D03*
X1187147Y1708407D02*
D03*
X1230502Y1670393D02*
D03*
X1129647D02*
D03*
X1182516Y2770943D02*
D03*
X1623670Y2304749D02*
D03*
X1215503Y2154607D02*
D03*
X1465503Y2155393D02*
D03*
Y2305394D02*
D03*
X1365502Y2205394D02*
D03*
X1125046Y1473877D02*
D03*
X619888Y1009473D02*
D03*
X-626957Y1602107D02*
D03*
X-1741839Y1263978D02*
D03*
X-347853Y1269607D02*
D03*
X-411997D02*
D03*
X-353889Y1483753D02*
D03*
X-349497Y1380393D02*
D03*
X-324497Y1567893D02*
D03*
X-435353D02*
D03*
X-93911Y1638315D02*
D03*
X-485353Y1192893D02*
D03*
X-376503Y1194268D02*
D03*
X-274498Y1192893D02*
D03*
X-272853Y1304606D02*
D03*
X-1298477Y1549073D02*
D03*
X1503505Y3877588D02*
D03*
X1565373Y3916387D02*
D03*
X1425145Y3877174D02*
D03*
Y3916387D02*
D03*
X1639431Y3720074D02*
D03*
X1503680Y3544165D02*
D03*
X1029891Y4202607D02*
D03*
X-1317573Y2084899D02*
D03*
X1152774Y1810667D02*
D03*
X1074023Y4565687D02*
D03*
X-1077577Y3456194D02*
D03*
X998220Y1809898D02*
D03*
X1463123Y1810627D02*
D03*
X636712Y3367265D02*
D03*
X1071880Y3408680D02*
D03*
X-255396Y4111235D02*
D03*
X-1529080Y1341120D02*
D03*
X472026Y4501146D02*
D03*
X646936Y4272006D02*
D03*
X2072049Y2218043D02*
D03*
X1832307Y2710423D02*
D03*
X1492866Y2649023D02*
D03*
X1404647Y2355394D02*
D03*
X1365502Y2254607D02*
D03*
X1997647Y2209836D02*
D03*
X1404647Y2104607D02*
D03*
X1254647Y2205394D02*
D03*
X1265502Y2104607D02*
D03*
X987814Y2751017D02*
D03*
X988060Y2659380D02*
D03*
X1231900Y2354580D02*
D03*
X856843Y2329846D02*
D03*
X809936Y2331917D02*
D03*
X1155700Y2095500D02*
D03*
X1066463Y1305101D02*
D03*
X859569Y2180926D02*
D03*
X-1839637Y1557795D02*
D03*
X-744158Y3218319D02*
D03*
X-737773Y3040782D02*
D03*
X-912754Y2760554D02*
D03*
X-1138814Y2816554D02*
D03*
X1391736Y3897174D02*
D03*
X1361501Y3956781D02*
D03*
X1319686Y1887221D02*
D03*
X1731008Y3589024D02*
D03*
X1305370Y3706316D02*
D03*
X1601001Y2981960D02*
D03*
X1488101Y3782865D02*
D03*
X1760020Y3657212D02*
D03*
X1805208Y2852713D02*
D03*
X1752600Y3693160D02*
D03*
X1829781Y2943620D02*
D03*
X1439774Y3996584D02*
D03*
X-287093Y2219120D02*
D03*
X-780402Y2344646D02*
D03*
X1686122Y5445083D02*
D03*
X1508506Y4670105D02*
D03*
X1457960Y3657600D02*
D03*
X1594657Y2346539D02*
D03*
X185359Y5634016D02*
D03*
X-1522539Y3185817D02*
D03*
X1533908Y2158149D02*
D03*
X860041Y2006600D02*
D03*
X745909Y1870710D02*
D03*
X670503Y3925850D02*
D03*
X609600Y1785620D02*
D03*
X629920Y1833880D02*
D03*
X599027Y2996106D02*
D03*
X607060Y2863347D02*
D03*
X-363220Y1407807D02*
D03*
X1410236Y2521582D02*
D03*
X1371510Y2104484D02*
D03*
X1109285Y2125930D02*
D03*
X1115442Y2095500D02*
D03*
X-1148976Y3420575D02*
D03*
X1088380Y1329690D02*
D03*
X-1071706Y1734064D02*
D03*
X998748Y2121408D02*
D03*
X975360Y2080427D02*
D03*
X1011732Y2680211D02*
D03*
X-177792Y2885804D02*
D03*
X1394460Y4596403D02*
D03*
X456255Y5346897D02*
D03*
X994498D02*
D03*
Y5633917D02*
D03*
X729723Y5636456D02*
D03*
X456255Y5634831D02*
D03*
X-118054Y5350690D02*
D03*
X-392035D02*
D03*
X-666015D02*
D03*
X-930957D02*
D03*
X-118054Y5633706D02*
D03*
X-392035D02*
D03*
X-666015D02*
D03*
X-930957D02*
D03*
X314960Y193040D02*
D03*
X120258Y187204D02*
D03*
X-238836Y50505D02*
D03*
X-32997Y195719D02*
D03*
X81924Y75905D02*
D03*
X141144Y-53635D02*
D03*
X-64256Y27645D02*
D03*
X-1170456Y1791107D02*
D03*
X-48260Y1846580D02*
D03*
X1572139Y1959104D02*
D03*
X1562100Y2382140D02*
D03*
X1304497Y2505394D02*
D03*
X1295695Y3575033D02*
D03*
X-439381Y3396189D02*
D03*
X-383540Y2175745D02*
D03*
Y2458720D02*
D03*
X1341556Y2732436D02*
D03*
X1257300Y2377440D02*
D03*
X1063033Y2739302D02*
D03*
X1623895Y3228702D02*
D03*
X1426362Y2595000D02*
D03*
X1234440Y3360420D02*
D03*
X1287780Y2654300D02*
D03*
X1680747Y2682737D02*
D03*
X1656080Y3086100D02*
D03*
X887163Y1374535D02*
D03*
X587197Y3970701D02*
D03*
X1378285Y3867086D02*
D03*
X226060Y2631440D02*
D03*
X78283Y2283573D02*
D03*
X41377Y2766053D02*
D03*
X1239520Y2730500D02*
D03*
X1133930Y4451871D02*
D03*
X1135000Y3664022D02*
D03*
X1167563Y2837880D02*
D03*
X1140007Y3115684D02*
D03*
X1099491Y4226007D02*
D03*
X1033833Y3505200D02*
D03*
X264076Y2653832D02*
D03*
X460000Y2286072D02*
D03*
X486681Y2549134D02*
D03*
X508564Y2527106D02*
D03*
X-1240000Y2536946D02*
D03*
X-1490000Y2483375D02*
D03*
X-937817Y2460010D02*
D03*
X-1151727Y2437166D02*
D03*
X-850872Y2620105D02*
D03*
X-852180Y2416830D02*
D03*
X589280Y3810000D02*
D03*
X595250Y3527956D02*
D03*
X-982826Y3421157D02*
D03*
X-960120Y2401590D02*
D03*
X-1127316Y2752520D02*
D03*
X-1125994Y2380000D02*
D03*
X-1006553Y2312415D02*
D03*
X-978877Y2781139D02*
D03*
X527834Y2970584D02*
D03*
X779585Y3910000D02*
D03*
X735650Y2334260D02*
D03*
X-1838647Y2232281D02*
D03*
X643439Y4670109D02*
D03*
X563589Y2264410D02*
D03*
X-124629Y1448120D02*
D03*
X-105090Y3095991D02*
D03*
X-544761Y1463360D02*
D03*
X-570300Y3339088D02*
D03*
X-1203960Y1430020D02*
D03*
X-1270975Y1445901D02*
D03*
X-1407682Y1505608D02*
D03*
X-1137000Y1540562D02*
D03*
X1535085Y2966904D02*
D03*
X1534160Y2626360D02*
D03*
X585179Y1950826D02*
D03*
X648036Y2944600D02*
D03*
X650240Y1859280D02*
D03*
X685255D02*
D03*
X-71150Y1743915D02*
D03*
X-772160Y1668780D02*
D03*
X799816Y3531608D02*
D03*
X779780Y1887220D02*
D03*
X-348880Y1597500D02*
D03*
X-348876Y1927860D02*
D03*
X889334Y2892932D02*
D03*
X952500Y1975758D02*
D03*
X1315559Y2795409D02*
D03*
X897280Y2796516D02*
D03*
X76198Y2092461D02*
D03*
X975360Y3462020D02*
D03*
X1041877Y2066923D02*
D03*
X1766245Y2706598D02*
D03*
X-806121Y2197335D02*
D03*
X1203725Y1428333D02*
D03*
X1149984Y1539240D02*
D03*
X-356273Y2082434D02*
D03*
X961587Y4529932D02*
D03*
X825940Y3751856D02*
D03*
X1174571Y3927496D02*
D03*
X593777Y3729106D02*
D03*
X836187Y3607045D02*
D03*
X789891Y3944607D02*
D03*
X1030391Y3940000D02*
D03*
X949891Y3790393D02*
D03*
X1070516Y2929700D02*
D03*
X1506158Y3398773D02*
D03*
X1007163Y3191987D02*
D03*
X1066157Y3175774D02*
D03*
X1326157D02*
D03*
X1426157Y3189274D02*
D03*
X1287163Y3039987D02*
D03*
X1286967Y2920576D02*
D03*
Y2960183D02*
D03*
X1278966Y2770183D02*
D03*
X946354Y3060306D02*
D03*
X1186157Y2999987D02*
D03*
X49498Y3929607D02*
D03*
X-89497Y4502393D02*
D03*
X-1367497Y2650393D02*
D03*
X-1262056Y2323028D02*
D03*
X259103Y4561753D02*
D03*
X274297Y3873047D02*
D03*
X370891Y3662353D02*
D03*
X388643Y2854167D02*
D03*
X529498Y3865893D02*
D03*
X282503Y3790393D02*
D03*
X15503Y4380393D02*
D03*
Y4110393D02*
D03*
X203769Y3661815D02*
D03*
X589317Y2892667D02*
D03*
X353722Y3388107D02*
D03*
X56308Y2921878D02*
D03*
X-12723Y2918913D02*
D03*
X-626166Y2360023D02*
D03*
X-647054Y2563417D02*
D03*
X-1071706Y2075377D02*
D03*
X-1859106Y2799277D02*
D03*
X-1798494Y2971997D02*
D03*
X-1581921Y3149939D02*
D03*
X-1577883Y3687068D02*
D03*
X-424994Y3096063D02*
D03*
X-47000Y1899920D02*
D03*
X365760Y2682240D02*
D03*
X332740Y1894840D02*
D03*
X-673961Y2886554D02*
D03*
X-902027Y3146653D02*
D03*
X-1702317Y3555593D02*
D03*
X-1181237Y3496293D02*
D03*
X-1325317Y3605593D02*
D03*
X-109588Y3339463D02*
D03*
X-87737Y3277613D02*
D03*
Y3197613D02*
D03*
X-148743Y3157613D02*
D03*
X-591843Y3198253D02*
D03*
X-841021Y3045867D02*
D03*
X-148743Y3237613D02*
D03*
X-526647Y3238503D02*
D03*
X-358652Y2906479D02*
D03*
X-180317Y2971407D02*
D03*
X-693457Y2793826D02*
D03*
X-469666Y2651795D02*
D03*
X-227131Y2773691D02*
D03*
X-93957Y2919334D02*
D03*
X-431777Y2996407D02*
D03*
X-1613817Y3685933D02*
D03*
X-1356337Y3751973D02*
D03*
X-1413817Y3317093D02*
D03*
X-990527Y3285153D02*
D03*
X-1129521Y2908153D02*
D03*
X-929521D02*
D03*
X-1297963Y3196653D02*
D03*
X-1189522Y2849645D02*
D03*
X-1218021Y3146653D02*
D03*
X-1140000Y1860386D02*
D03*
X-1140460Y2222500D02*
D03*
X-956314Y2173557D02*
D03*
X-955204Y1838796D02*
D03*
X-985707Y1878511D02*
D03*
X-1046986Y1867412D02*
D03*
X-883860Y1844100D02*
D03*
X-1469497Y1862887D02*
D03*
X-868506Y1975923D02*
D03*
X-1500966Y1970843D02*
D03*
X-1463951Y2067757D02*
D03*
X-1592966Y2065358D02*
D03*
X-1609984Y1669906D02*
D03*
Y1737238D02*
D03*
X287152Y2728308D02*
D03*
X286720Y2374900D02*
D03*
X-140000D02*
D03*
X-139568Y2728308D02*
D03*
X458833Y2410853D02*
D03*
X30023D02*
D03*
X1324903Y2323246D02*
D03*
X1258454Y2074827D02*
D03*
X809768Y940220D02*
D03*
X835625Y883832D02*
D03*
X1206636Y2077484D02*
D03*
X1307217Y2078314D02*
D03*
X1356633Y2077689D02*
D03*
X1509928Y2521582D02*
D03*
X1459929D02*
D03*
X1507687Y2276633D02*
D03*
X1462313Y2226633D02*
D03*
X1356535Y2477062D02*
D03*
X1506633Y2127687D02*
D03*
X1412312Y2276634D02*
D03*
X1412313Y2426633D02*
D03*
X1312313D02*
D03*
X1212562Y2427301D02*
D03*
X1156633Y2377687D02*
D03*
X1162163Y2426850D02*
D03*
X1068505Y2850184D02*
D03*
X793820Y824460D02*
D03*
X886460Y1084580D02*
D03*
X836979Y1012405D02*
D03*
X-589130Y1341120D02*
D03*
X-601980Y1117600D02*
D03*
D291*
X1086357Y2241568D02*
D03*
%TF.MD5,66095ad3faac56b3fa33b40ae0964d64*%
M02*
