M48
;Layer_Color=9474304
;FILE_FORMAT=4:4
METRIC,LZ
;TYPE=PLATED
T01F00S00C0.1016
;TYPE=NON_PLATED
%
T01
X00020066Y00007121
X001016Y00125476
X00138676Y00163378
X00108492Y00210508
X00101138Y00206653
X00101528Y00220525
X00125646Y00292018
Y00296058
X00190508Y00319032
X00261861Y0029104
X002921Y00293878
Y00248412
X00322072Y00248158
X0035306
X00261874
X00347472Y00408432
X00352806Y00405384
X00143784Y00397459
X000508Y004572
X-000508Y004318
X00050808Y00304808
X00050804Y00203204
X00075728Y00203165
X00032258Y00126238
X00022253Y00127644
X-00001856Y0012942
X-00017272Y00124968
X-00025264Y00125535
X-00050595Y00155407
X-0015Y00186249
X-0015239Y00190141
M30
