M48
;Layer_Color=9474304
;FILE_FORMAT=4:4
METRIC,LZ
;TYPE=PLATED
T03F00S00C0.1524
;TYPE=NON_PLATED
%
T03
X-00104407Y-00006382
Y00008618
Y00023618
X-00089407
X-00074407
Y-00006382
X-00089407
Y00008618
X-00059407Y-00006382
X-00014407
Y00008618
X-00015344Y00026715
X-00022372Y00024912
X-00001144Y00022891
X-00001199Y0001624
X0001482Y0002048
X00014957Y00025925
X00019547Y0002612
X00024892Y00025908
X00010294Y00025395
X00015593Y00008618
X00000593Y-00006382
X00060593
Y00008618
Y00023618
X00045593
X00075593
X00090593
Y00008618
Y-00006382
X00075593
Y00068618
X00060593
X00090593
X-00059407
X-00074407
X-00089407
X-00104407
X-00119407Y00023618
X-00134407
X00105592
X00120592
X00135592
X00105592Y00008618
Y-00006382
Y00068618
X00254606Y-00029593
X00393606Y-00036131
X00396242Y00077361
X00385062Y00077381
X00369568Y00077001
X00376114Y00132899
X00375922Y00146519
X00383992Y00147899
X00395988Y00147879
X00355998Y00149573
X00324106Y00133739
X00305157Y0012394
X00303887Y00115659
X00284057Y0012394
X00264057
X00271427Y00115659
X00287657Y00099429
X00285157Y00074918
X00271427Y00083199
X00303887
X00150592Y00098618
X00135592
X00120592
Y00083618
X00135592
X00105592
Y00098618
Y00113618
X00107692Y00126948
X00104423Y00137367
X00112551Y00144018
X00114992Y00150209
X00120592Y00158618
X00123096Y0016367
X00112804
X00105592Y00158618
Y00173618
X00118554Y0017416
X00115277Y00184912
X00120592Y00188618
X00105592
X00105578Y00194074
X00104188Y00203333
X00111506Y0020574
X00114788Y00213365
X00105151Y00214573
X00112809Y00222988
X00121507Y00218864
X00125304Y0021717
X00127059Y00214063
X00136596Y0021717
X00140304Y0021378
X00146596Y0021217
X00146126Y0021935
X00146596Y0022717
X00150667Y00231007
X00159207Y00229518
X00162447Y00227083
X00171823Y00216912
X00180592Y00218618
Y00233618
X00188593Y00236218
X00198114Y00235748
X00210592Y00233618
X00207205Y00218496
X00199765Y00217676
X00195592Y00218618
X00180592Y00203618
Y00173618
X00182152Y00161529
X00182243Y00149973
X001822Y00138402
X00180592Y00128618
X00165592
Y00143618
X00160775Y00153642
X00160795Y0016457
X00166926Y00166088
Y00177016
X0014458Y00176254
X00144693Y0016959
X00141726Y00160058
X00135592Y00143618
Y00128618
X00135737Y00113942
X00150592Y00113618
Y00128618
X00120592
X00120419Y00139464
X0009855Y00122156
X00097697Y00165838
X00099166Y00184912
X00146312
X00141126Y0022435
X00140304Y0023217
X00135592Y00233618
X00136596Y0022878
X00132452Y00228864
X00125304Y0022883
X00125385Y00232673
X00114545Y00234645
X00110744Y002413
X0013045Y00247231
X00135687Y00251188
X00141024Y00255594
X00145943
X00150943
X00150592Y00248618
X00141137Y00245978
X0015621Y00242062
X00149333Y00268222
X00150592Y00278618
Y00293618
Y00308618
X00142616Y00315619
X00132616Y00314269
X00128716Y00307307
X00128697Y00299377
Y00288698
X00127897Y00280326
X00118413Y00280464
X00118309Y00269317
X00098803Y00271757
X00098884Y00262376
X00106689Y00288338
X00107052Y00296278
X00114616Y00288769
X00118616Y00303307
X00106616Y00314269
X00100716Y00322507
X00107188Y00337058
X00105592Y00353618
Y00368618
Y00383618
X00103039Y00397308
X00117457Y00396058
X00142514Y00394947
X00140733Y00400779
X00150592Y00398618
X00154659Y00403057
X00156537Y00394947
X00152754Y00391018
X00149898Y00384175
X00156537Y00384409
X00142514
X00150592Y00368618
X00150368Y00358902
X00164629Y00352265
X00175477
X00180592Y00368618
Y00383618
Y00398618
X00165592Y00413618
Y00428618
Y00443618
X00150592
Y00428618
Y00413618
X00133776Y00407334
X00105592Y00413618
X00102989Y00423569
X00102761Y00427331
X00105592Y00443618
X00107402Y00460253
X00129762Y00457799
X00136923Y0045689
X00141138Y00465134
X00145792Y00469674
X00154679Y00462842
X00150592Y00458618
X00126202Y0046863
X00094989Y00375731
X00163943Y00375412
X00165592Y00338618
X00150616Y00336569
X00187458Y00315712
X00195592Y00308618
Y00293618
Y00278618
X00180592
X00183227Y0027435
X00195592Y00263618
Y00248618
X00210592Y00203618
Y00188618
X00193673Y00181856
X00195592Y00173618
Y00158618
Y00143618
X00289466Y00274713
X00341466
X00337578Y00375717
X00307478Y0037487
X00394114Y00204687
X00433068Y00180821
X00090593Y00173618
Y00188618
X00072678Y00199845
X00047754Y00199884
X000478Y00211731
X0003905
X00039368Y00237826
X00045883Y00237777
X00045593Y00233618
X00030593
X00000593
X00003002Y00237777
X-00003586Y0023773
X00001035Y00249355
X0000653Y00269583
X00015593Y00263618
Y00278618
Y00293618
X00009272Y00297692
X00007891Y00304306
X00015593Y00308618
X00014207Y00324372
X00000593Y00323618
X-00007883Y00323716
X-00008774Y00316453
X-00014874Y00312453
Y00320453
X-00010959Y00330638
X-00014407Y00338618
Y00353618
Y00368618
Y00383618
X00000593
Y00398618
X0000495Y00396269
X00015593Y00398618
X00019795Y00406922
X00015593Y00413618
Y00428618
X00019795Y00430036
X00030593Y00428618
X0003495Y00437637
X00030593Y00443618
X0002591Y00452867
X00030593Y00458618
X00015593
X00000593
X-00014407
Y00443618
X-0000895Y00446931
X00000593Y00443618
X0000155Y00434731
X00000593Y00428618
X0000155Y00407731
X-00014407Y00413618
X-00029407
X-0002554Y00407162
X-00029407Y00398618
X-00044407
X-00059407
Y00383618
Y00368618
Y00353618
X-00044407
X-00029407
Y00338618
Y00323618
X-00042499Y00312914
X-00043178Y00302949
X-00035865Y00293956
X-00028196Y00293847
X-00018036Y00291894
X-00018032Y00300449
X-00009396Y00288625
X-00001272Y00288583
X00005631Y0028888
X00030593Y00293618
X00030751Y00304306
X00045593Y00308618
X00047758Y00301488
X00052783Y00300366
X00045593Y00293618
X00038864Y00288725
X00030593Y00278618
X00045593Y00263618
X00044063Y00251605
X00054681Y00269574
X00075593Y00263618
Y00278618
Y00293618
X00085614Y00289454
X00094635Y00302723
X00085346Y00321857
X00082346Y00319394
X00085346Y00332268
X00075366Y00334144
X00063671Y00333419
X00045593Y00338618
X00035372Y00335503
X00030593Y00338618
X00030243Y00324372
X00045593Y00323618
Y00353618
Y00368618
X00037089Y00362927
X00030593Y00368618
X0002825Y00375731
X00030593Y00383618
X0002743Y00390613
X00030593Y00398618
X00045593
X00042909Y00406668
X00045593Y00413618
X00030593
X00042655Y0043029
X00045593Y00443618
X00047236Y00454376
X0005385Y0045388
X00060593Y00458618
Y00443618
X0006477Y00423418
X00075593Y00428618
X00081026Y00433808
X00092011Y00427231
X00090593Y00398618
X00078989Y00397769
X0006705Y00396939
X00075593Y00413618
X00082594Y00378494
X00090593Y00383618
X00091694Y00369316
X00083619Y00364013
X00090593Y00353618
X00059378Y00376219
X0005295Y00383281
X00045593Y00383618
X00015593
Y00368618
X00020377Y00362873
X00015593Y00353618
X00030593
X00000593
Y00368618
X-00029407
X-00044407
Y00383618
X-00029407
X-00014407Y00398618
X-00029407Y00428618
X-00044407
X-0005385Y0042848
X-00059407Y00428618
Y00443618
X-00074407
X-00089407
Y00458618
X-00104407
Y00443618
Y00428618
X-00089407
Y00413618
X-00074407
Y00398618
X-00089407
X-00104407
Y00383618
X-00119407
X-00134407
X-00136168Y00371749
X-00149407Y00368618
X-00147482Y00357251
X-00139446Y00351536
X-00132551Y00347232
X-00132532Y00357251
X-00119407Y00368618
X-00104407
X-00089407
X-00074407
Y00353618
Y00338618
X-00089407
X-00104407
X-00107758Y00349504
X-00104407Y00353618
X-00089407
Y00323618
X-00099053Y00325207
X-00104407Y00323618
X-00099053Y00316357
X-00090203Y00311357
X-00084102Y00307895
X-00074407Y00308618
X-00073777Y0030077
X-00074407Y00293618
X-00059407
X-00067396Y00285347
X-00069346Y00276075
X-00074407Y00278618
X-00091275Y00272747
X-00093235Y00266452
X-00089407Y00263618
Y00248618
X-00074407
X-00064705Y00253034
X-00059407Y00263618
X-00046967Y00268488
X-00043327Y00281741
X-00029407Y00278618
X-00022713Y00280677
X-00029407Y00263618
Y00248618
X-00030836Y00237753
X-00029407Y00233618
X-00043451Y00236996
Y00248906
X-00059408Y00239772
X-00059407Y00233618
Y00218618
Y00203618
X-00064106Y00193991
X-00059407Y00188618
X-00064106Y00183453
X-00059407Y00173618
X-0006265Y0016353
X-00074407Y00158618
X-00089407
Y00143618
X-00074407
X-00059407
X-00041154Y0014467
X-0003555Y00145006
X-00034904Y0013467
X-00034946Y0013028
X-00041154
X-00027722Y00134068
X-00023893Y0012925
X-00024892Y00125476
X-00024691Y00121242
X-00019905Y00119182
X-000199Y00114572
X-00027404Y0011592
X-00037604Y00116058
X-00044407Y00113618
X-00048696Y0011592
X-00074316Y00113674
X-00074407Y00128618
X-00089407
Y00113618
Y00098618
Y00083618
X-00074407
X-00058973Y00091876
X-00104407Y00098618
Y00083618
X-00119407
X-00134407
Y00098618
X-00149407
X-00156866Y00100048
X-00156736Y00110236
X-00156886Y0011732
X-00156856Y00127625
X-00149407Y00128618
X-00152908Y00138176
X-00149407Y00143618
X-00134407
X-00129802Y00151538
X-00123779Y00156155
X-00124469Y00178212
X-00117046Y00182419
X-00119407Y00188618
X-00124469Y00191276
X-00134407Y00203618
X-00136667Y00210469
X-00134407Y00218618
X-00126186Y00214054
X-00119407Y00218618
Y00233618
X-00126206Y00235611
X-00134407Y00233618
X-00149407
X-00164407
X-00179407
Y00248618
X-00164407
X-00163305Y00258288
X-00164407Y00263618
Y00278618
X-00149407
Y00293618
X-00134407
Y00308618
X-00125795Y00306005
X-00121802Y00301357
Y00311357
X-00129796Y00316357
X-00112952
X-00102952Y00306357
X-00099053Y00296357
X-00104407Y00293618
X-00112952Y00296357
Y00287507
X-00113881Y00278347
X-00107133Y00278342
X-00104885Y00266432
X-00109745Y00266538
X-00121141Y00266558
X-00118565Y00281619
X-00134407Y00278618
X-0013675Y00261731
X-00151469Y00258308
X-00149407Y00218618
X-00164407
X-00179407
Y00203618
X-00175531Y00189288
X-00164407Y00188618
X-00151969Y00191025
X-00150097Y00200392
X-00152795Y00203261
X-00159297Y00203228
X-00146395Y00203468
X-00148766Y00182142
X-00151969Y00177961
X-00145135Y0017806
X-00151621Y00170392
X-00161029Y00170308
X-00164407Y00173618
X-00160998Y00177032
X-00179407Y00173618
Y00158618
X-00187623Y00156569
X-00194407Y00158618
Y00143618
X-00164407
Y00158618
Y00128618
Y00113618
X-00149407
X-00134407
Y00128618
X-00119407Y00113618
Y00098618
X-00104407Y00113618
Y00143618
X-00097036Y00167673
X-00085336Y00174277
X-00088386Y00181102
X-0008547Y00191159
X-00086851Y002009
X-0009179Y00204602
X-00092251Y00196602
X-00098571Y00191159
X-00104699Y00183433
X-00107234Y00177211
X-00107171Y0020423
X-00104407Y00218618
X-00089407
X-00074407
X-00075256Y00196757
X-00074407Y00188618
X-00044407
Y00203618
Y00218618
X00000593
X0000005Y00211481
X00000593Y00203618
Y00188618
Y00173618
X00009652Y0017526
X0000965Y00180033
X00017199Y00168934
X00030712Y00177531
X00045593Y00173618
Y00158618
X00045946Y00149899
X00045928Y00138838
X00045593Y00128618
X00053084Y00132656
X00060593Y00128618
X00075593
Y00113618
X00085958Y00112494
X00090593Y00098618
X00086061Y00093458
X00090593Y00083618
X00075593
X00068106Y00083116
X00060593Y00083618
X00061828Y00097578
X00075593Y00098618
X00060593Y00113618
X00045593
X00030593
X00025163Y00119157
X0001988
Y00114643
X00025163Y00125544
X00014593Y00126787
X00009296Y00131732
X-00001988Y0013154
X-0000262Y00123342
X00002055Y00118388
Y00114301
X-000205Y0012604
X-00032404Y0015342
X-00043696
X-00047545Y00152087
X-00044407Y00173618
X-00009552Y00160462
X00000593Y00158618
X00030593
Y00143618
X00060593
Y00158618
X0006156Y00168652
X00075593Y00173618
Y00158618
Y00143618
X00090593
X00094105Y00137474
X00090593Y00158618
X00086388Y00214584
X00081055Y00229823
X00085568Y00236426
X00075593Y00248618
X00058932Y00292575
X00000593Y00338618
X-00059407
Y00323618
X-00059184Y00316517
X-00052665Y00320542
X-00074416Y00318524
X-00092952Y00287507
X-00098133Y00271342
X-00104407Y00248618
X-00119407
X-00089407Y00233618
X0001005Y00211481
X-00186469Y00182712
X-00192531Y00187712
X-00179407Y00128618
X-00174345Y00123029
X-00179407Y00278618
X-00185911Y0027662
X-00179849Y00293892
X-00194407Y00293618
Y00308618
Y00323618
X-00179407
Y00338618
Y00353618
X-00170232Y00352251
X-00164407Y00353618
X-00161382Y00357251
Y00365285
X-00164407Y00383618
Y00398618
Y00413618
X-00179407
Y00398618
Y00383618
Y00368618
X-00161382Y00337251
X-00147482
X-00141382Y00328401
X-00149407Y00323618
Y00308618
X-00164407
Y00293618
X-00209407Y00248618
X-00118124Y00346321
X-00089407Y00383618
X-00074407
X-00059407Y00413618
X-00044407
Y00443618
X-00029407
Y00458618
X-00059407
X-00074407
Y00428618
X-00104407Y00413618
X-00134407
Y00398618
X-00138984Y00451124
X-00135Y00466598
X-0012573Y0046355
X-00122174Y00468106
X-00148336Y00467614
X-001524Y00469813
X-00164407Y00458618
Y00443618
Y00428618
X00015593Y00443618
X00090932Y00469646
X00090593Y00473618
X00075593
X00060593
X00045593
X00030593
X00015593
X00000593
X-00014407
X-00029407
X-00044407
X-00059407
X-00074407
X-00089407
X-00104407
X-00117856Y00471424
X-00149407Y00473618
X-00164407
X00105592
X00122936Y00471424
X00150851Y00471424
X00156464Y0047117
X00165592Y00473618
X0016764Y00540188
X001651Y00544277
X00163517Y0054897
X00250424Y00493489
X00279924
X00307828Y00579389
X00337678Y00579339
M30
