M48
;Layer_Color=9474304
;FILE_FORMAT=4:4
METRIC,LZ
;TYPE=PLATED
T01F00S00C0.1016
;TYPE=NON_PLATED
%
T01
X00011353Y00022267
X00098509Y0012546
X0012969Y00128517
X0012449Y00135128
X00120264Y00146403
X00115026Y00155766
X00141767Y00163362
X0014977Y00168784
X00152406Y0015741
X00157168Y00148547
X00163656Y00151499
X00147574Y00101092
X00111582Y00210492
X00104228Y00206637
X00105162Y00220525
X00126632Y00253745
X00135636Y00246888
X00127897Y00285038
X00128737Y00292002
Y00296074
X00128779Y00310739
X00142616Y00310896
X00150651Y00326054
X00136398Y00332994
X00138907Y00360097
X00139657Y00389769
X00139647Y00397583
X00123306Y0040308
X00117856Y004064
X00117457Y00392695
X00126508Y00430145
X00145542Y00462026
X00100737Y0032608
X00095944Y00285227
X00187417Y00319016
X00058928Y0029591
X00047717Y00304792
X00035306Y0029591
X-00018102Y00297068
X-00013946Y00289053
X-00039167Y00292625
X-00035862Y00297284
X-00042418Y0032131
X-00052549Y00324104
X-00059348Y00311779
X-00084074Y00311658
X-0009906Y0032131
X-00114612Y0030837
X-00124481Y00324424
X-00141478Y0032131
X-0017018Y0031877
X-00161314Y00368707
X-00136001Y00368341
X-00132282Y00361272
X-00118154Y00338582
X-00129794Y0029083
X-00092952Y00290815
X-00090158Y00289267
X-00067386Y00289135
X-00070456Y00297606
X-00014885Y00323797
X-00008774Y00320459
X-00010869Y00338373
X-0000762Y0036068
X00020327Y00357556
X00035387Y00357546
X00028293Y00379034
X0005295Y00378968
X00066986Y00392771
X00053891Y00457184
X0000475Y004425
X-0000895
X-00053891Y00431784
X-00125667Y00427257
X-00134893Y0041989
X-00138938Y00423418
X-00148373Y00388632
X-00136652Y00239014
X-0012625
X-00107188Y00211836
X-00086868Y00197104
X-00088468Y00186182
X-00107146Y00173416
X-00146909Y00186233
X-00146941Y00190182
X-00150015Y00197018
X-00189738Y00211778
X-00195326Y00167386
X-00047504Y00155391
X-00011356Y00146359
X-00000551Y00126449
X00013176Y00123258
X00009906Y00135382
X00029464Y00127508
X0003048Y00122174
X00019914Y00156824
X00047713Y00203188
X00072637Y00203149
X00091694Y00131572
X-00030126Y00125662
X-0002925Y0012225
M30
