%TF.GenerationSoftware,Altium Limited,Altium Designer,26.10.1 (5)*%
G04 Layer_Color=0*
G04 Board_Origin=74386096|43952041*
%FSLAX45Y45*%
%MOMM*%
%TF.SameCoordinates,2921B627-0CEA-4390-BE51-8046150D5B20*%
%TF.FilePolarity,Positive*%
%TF.FileFunction,Plated,8,9,Blind,Drill*%
%TF.Part,Single*%
G01*
G75*
%TA.AperFunction,ViaDrill,NotFilled*%
%ADD290C,0.10160*%
D290*
X1115825Y2104918D02*
D03*
X1417667Y1633619D02*
D03*
X985092Y1254598D02*
D03*
X538908Y4571838D02*
D03*
X-538908Y4317838D02*
D03*
X477173Y3047919D02*
D03*
X477132Y2031878D02*
D03*
X-475041Y1553909D02*
D03*
X1874173Y3190159D02*
D03*
X1396566Y3897693D02*
D03*
X1396469Y3975827D02*
D03*
X1265080Y4301446D02*
D03*
X-1469414Y1901816D02*
D03*
X-76200Y3606800D02*
D03*
X131765Y1232583D02*
D03*
X-5511Y1264488D02*
D03*
X1178560Y4064000D02*
D03*
X1455420Y4620260D02*
D03*
X-1146115Y3083703D02*
D03*
X-1244807Y3244243D02*
D03*
X-525489Y3241040D02*
D03*
X-1483726Y3886322D02*
D03*
X-1256670Y4272570D02*
D03*
X-1348927Y4198904D02*
D03*
X-1389380Y4234180D02*
D03*
X199139Y1568237D02*
D03*
X304800Y1221740D02*
D03*
X-301260Y1256620D02*
D03*
X-292500Y1222500D02*
D03*
X294640Y1275080D02*
D03*
X1150256Y1557659D02*
D03*
X1244897Y1351280D02*
D03*
X99060Y1353820D02*
D03*
X-113559Y1463587D02*
D03*
X1202639Y1464033D02*
D03*
X113532Y222674D02*
D03*
X916940Y1315720D02*
D03*
X726372Y2031487D02*
D03*
X1233062Y4030800D02*
D03*
X1266316Y2537454D02*
D03*
X1636563Y1514993D02*
D03*
X1389067Y3600972D02*
D03*
X1363980Y3329940D02*
D03*
X1356360Y2468880D02*
D03*
X1571679Y1485470D02*
D03*
X1475740Y1010920D02*
D03*
X1524057Y1574103D02*
D03*
X1497698Y1687840D02*
D03*
X1296900Y1285168D02*
D03*
X1051625Y2205247D02*
D03*
X1042283Y2066367D02*
D03*
X1174565Y3926947D02*
D03*
X669860Y3927705D02*
D03*
X1426157Y3108960D02*
D03*
X1287790Y3107385D02*
D03*
X1506509Y3260538D02*
D03*
X1007372Y3260801D02*
D03*
X1287373Y2920020D02*
D03*
Y2960738D02*
D03*
X1278966Y2850380D02*
D03*
X959440Y2852272D02*
D03*
X-89497Y4425000D02*
D03*
X47501D02*
D03*
X-1366520Y2390140D02*
D03*
X-1262500D02*
D03*
X282928Y3790341D02*
D03*
X529498Y3789680D02*
D03*
X203267Y3575564D02*
D03*
X353875Y3575459D02*
D03*
X353060Y2959100D02*
D03*
X589280D02*
D03*
X-1071880Y2118360D02*
D03*
X-1897380Y2117780D02*
D03*
X-1953260Y1673860D02*
D03*
X-1071457Y1734162D02*
D03*
X-424180Y3213100D02*
D03*
X-391672Y2926246D02*
D03*
X-139456Y2890531D02*
D03*
X-673864Y2891347D02*
D03*
X-901581Y2892671D02*
D03*
X-87737Y3204588D02*
D03*
X-1701800Y3187700D02*
D03*
X-1322820Y3612722D02*
D03*
X-108692Y3383734D02*
D03*
X-1181537Y3385818D02*
D03*
X-704561Y2976062D02*
D03*
X-593478Y3117789D02*
D03*
X-840740Y3116580D02*
D03*
X-148854Y3237974D02*
D03*
X-358620Y2972837D02*
D03*
X-181015Y2970675D02*
D03*
X-1297940Y2908300D02*
D03*
X-1360012Y3683411D02*
D03*
X-1613142Y3687068D02*
D03*
X-1414780Y3213100D02*
D03*
X-990600D02*
D03*
X-929521Y2908153D02*
D03*
X-884676Y1861820D02*
D03*
X-1469092Y1862332D02*
D03*
X-868680Y1971040D02*
D03*
X-1500151Y1970179D02*
D03*
%TF.MD5,70e5427a0c520edd775a1b01ff3f0560*%
M02*
